<svg width="119" height="22" viewBox="0 0 119 22" fill="none" xmlns="http://www.w3.org/2000/svg">
<path fill-rule="evenodd" clip-rule="evenodd" d="M28.0084 2.08069C27.074 3.71074 26.1373 5.3393 25.1992 6.96787C25.1454 7.06156 25.0806 7.21624 24.9871 7.34043C24.9783 7.11511 24.9945 7.00802 24.9709 6.7299C24.8767 5.60255 24.563 4.71539 24.0821 3.86988C23.2567 2.42277 21.9135 1.41737 20.5947 0.701249C18.3738 -0.506416 15.7715 0.0252836 14.5234 1.75424C14.0624 2.39376 13.6965 3.10394 13.3018 3.79105C11.1545 7.5308 9.02642 11.2802 6.86078 15.0088C6.15313 16.2284 5.80704 17.4673 6.19142 18.8683C6.68552 20.6701 8.31731 21.964 10.1744 21.999C11.8924 22.0317 13.2178 21.2821 14.086 19.7748C15.7178 16.943 17.34 14.1038 18.9659 11.2683C19.6242 10.1194 20.1676 9.17423 20.8451 7.99483C20.9231 8.06101 21.0336 8.13463 21.1382 8.24692C21.6242 8.77044 22.2427 10.1982 22.2066 11.4914C22.1889 12.096 22.1492 12.1079 22.119 12.3444C21.5402 13.4025 20.9776 14.3514 20.3782 15.3977C19.7214 16.5452 19.5925 17.7461 19.9909 19.0118C20.8642 21.7774 24.3597 22.8772 26.6491 21.1088C27.3273 20.5846 27.7544 19.8789 28.1726 19.1464C30.5275 15.0147 32.8927 10.8891 35.2741 6.77303C35.9715 5.56834 36.2241 4.31606 35.7756 2.98867C35.2263 1.36234 34.0893 0.387434 32.3957 0.0654399C32.1645 0.0215654 31.9288 0 31.6925 0C30.2345 0 28.7382 0.807588 28.0084 2.08069Z" fill="url(#paint0_linear_201_3279)"/>
<path fill-rule="evenodd" clip-rule="evenodd" d="M4.35494 8.84109C1.93745 8.87233 -0.0139162 6.80576 7.47664e-05 4.46777C0.0140657 2.10598 1.89106 0.132375 4.23491 0.10486C6.75107 0.0758586 8.6936 2.00708 8.69286 4.47893C8.69286 6.88459 6.74444 8.84333 4.3542 8.84109" fill="#EEBE00"/>
<path fill-rule="evenodd" clip-rule="evenodd" d="M114.811 5.10955C115.1 4.83342 115.408 4.6946 115.735 4.6946C115.873 4.6946 116.018 4.72011 116.169 4.76963C116.357 4.83267 116.483 4.96473 116.546 5.16583C116.558 5.21611 116.564 5.27239 116.564 5.33542C116.564 5.46073 116.514 5.57404 116.413 5.67459C115.911 6.22761 115.37 6.73637 114.793 7.2016C114.629 7.32766 114.454 7.38995 114.265 7.38995C114.228 7.38995 114.19 7.38394 114.152 7.37119C113.913 7.34567 113.712 7.23912 113.549 7.05078C113.422 6.91271 113.36 6.75513 113.36 6.57954C113.36 6.32816 113.461 6.13382 113.662 5.995C114.102 5.7061 114.485 5.41046 114.811 5.1088V5.10955ZM118.996 9.8024C118.996 10.0785 118.901 10.3142 118.713 10.5093C118.524 10.7044 118.292 10.8012 118.016 10.8012C117.739 10.8012 117.504 10.7036 117.309 10.5093C117.114 10.3142 117.017 10.0785 117.017 9.8024V8.42621C117.017 8.4007 117.004 8.38569 116.979 8.37894C116.955 8.37294 116.935 8.37594 116.923 8.38869C116.245 9.24337 115.485 9.97199 114.643 10.5753C114.706 10.588 114.724 10.6256 114.699 10.6886C114.548 10.9902 114.366 11.3797 114.153 11.8569C114.14 11.8944 114.143 11.926 114.162 11.9515C114.181 11.9762 114.21 11.989 114.247 11.989H117.244C117.546 11.989 117.806 12.0993 118.026 12.3192C118.246 12.539 118.356 12.8001 118.356 13.1011V18.906C118.356 19.2076 118.25 19.462 118.036 19.6691C117.822 19.8762 117.571 19.9797 117.282 19.9797H116.754C116.603 19.9797 116.474 19.9265 116.368 19.8199C116.261 19.7134 116.208 19.5843 116.208 19.4335C116.208 19.3832 116.182 19.3584 116.133 19.3584H110.554C110.504 19.3584 110.479 19.3839 110.479 19.4335C110.479 19.597 110.422 19.7321 110.309 19.8387C110.196 19.9452 110.065 19.9985 109.914 19.9985H109.461C109.172 19.9985 108.927 19.8979 108.726 19.6968C108.525 19.4957 108.424 19.2571 108.424 18.981V13.1003C108.424 12.7986 108.535 12.5383 108.754 12.3184C108.974 12.0985 109.235 11.9882 109.536 11.9882H111.835C111.936 11.9882 111.999 11.944 112.024 11.8562C112.137 11.454 112.219 11.1403 112.268 10.9137C112.281 10.8762 112.278 10.8447 112.259 10.8192C112.24 10.7944 112.211 10.7816 112.174 10.7816H112.042C111.74 10.7816 111.48 10.6713 111.26 10.4515C111.04 10.2316 110.93 9.97048 110.93 9.66958V8.8967C110.93 8.87119 110.92 8.85243 110.901 8.84042C110.882 8.82766 110.867 8.83442 110.854 8.85918C110.364 9.42496 109.83 9.94572 109.252 10.4237C109.088 10.5618 108.907 10.6308 108.706 10.6308H108.592C108.341 10.6053 108.127 10.4927 107.951 10.2916C107.826 10.1536 107.763 9.98399 107.763 9.78289C107.763 9.51876 107.87 9.31166 108.084 9.16083C108.624 8.74587 109.095 8.31291 109.497 7.86043C109.661 7.65933 109.868 7.52126 110.119 7.44547C110.233 7.40795 110.352 7.38919 110.477 7.38919C110.603 7.38919 110.722 7.40795 110.835 7.44547C110.86 7.44547 110.882 7.43947 110.901 7.42671C110.92 7.41396 110.93 7.3952 110.93 7.37044V5.46673C110.93 5.45398 110.92 5.44197 110.901 5.42921C110.882 5.41646 110.867 5.42321 110.854 5.44797C110.364 6.03852 109.817 6.59155 109.214 7.1063C109.013 7.28189 108.787 7.37044 108.536 7.37044C108.486 7.37044 108.435 7.36443 108.385 7.35168C108.084 7.31416 107.819 7.18209 107.594 6.95548C107.493 6.84217 107.398 6.74837 107.311 6.67259C107.298 6.64707 107.279 6.64107 107.254 6.65383C107.23 6.66658 107.217 6.68534 107.217 6.7101C107.217 6.98624 107.116 7.22561 106.915 7.42671C106.714 7.62781 106.476 7.72836 106.199 7.72836H105.859C105.772 7.72836 105.727 7.77264 105.727 7.86043V10.2916C105.727 10.3292 105.74 10.3577 105.765 10.3764C105.79 10.3952 105.821 10.3982 105.859 10.3862L106.18 10.2916C106.268 10.2661 106.355 10.2541 106.444 10.2541C106.62 10.2541 106.783 10.3104 106.934 10.4237C107.16 10.5745 107.292 10.7816 107.33 11.0458C107.343 11.1088 107.349 11.1711 107.349 11.2341C107.349 11.46 107.286 11.6738 107.161 11.8749C106.997 12.1263 106.771 12.3019 106.482 12.4025C106.231 12.4775 106.024 12.5405 105.86 12.5908C105.772 12.6163 105.728 12.6726 105.728 12.7604V17.6041C105.728 18.1571 105.672 18.581 105.559 18.8759C105.445 19.1716 105.244 19.4072 104.955 19.5828C104.616 19.8087 104.101 19.9407 103.409 19.979H103.334C103.058 19.979 102.813 19.8912 102.599 19.7149C102.36 19.5138 102.197 19.2564 102.109 18.942C102.084 18.8669 102.072 18.7911 102.072 18.7161C102.072 18.5525 102.122 18.4017 102.222 18.2636C102.373 18.0498 102.574 17.9432 102.826 17.9432H102.844C102.995 17.956 103.165 17.962 103.353 17.962C103.467 17.962 103.548 17.9365 103.599 17.8869C103.649 17.8367 103.674 17.7421 103.674 17.6041V13.3824C103.674 13.3449 103.661 13.3164 103.636 13.2976C103.611 13.2789 103.58 13.2759 103.542 13.2879C103.378 13.3254 103.177 13.3824 102.938 13.4575C102.838 13.483 102.737 13.495 102.637 13.495C102.461 13.495 102.285 13.4447 102.109 13.3442C101.845 13.1806 101.682 12.9547 101.619 12.6658V12.6283C101.594 12.5405 101.582 12.4527 101.582 12.3642C101.582 12.1631 101.638 11.9747 101.751 11.7984C101.915 11.5343 102.147 11.3647 102.448 11.2896C102.536 11.2641 102.706 11.2206 102.957 11.1576C103.208 11.0945 103.403 11.051 103.542 11.0255C103.629 11.0007 103.674 10.9377 103.674 10.8372V7.85893C103.674 7.77114 103.629 7.72686 103.542 7.72686H102.769C102.48 7.72686 102.231 7.62331 102.024 7.41621C101.817 7.2091 101.714 6.96073 101.714 6.67184C101.714 6.38294 101.817 6.13457 102.024 5.92746C102.231 5.72036 102.48 5.61681 102.769 5.61681H103.542C103.629 5.61681 103.674 5.57254 103.674 5.48474V3.01751C103.674 2.72861 103.774 2.48699 103.975 2.2919C104.176 2.0968 104.418 2 104.701 2C104.984 2 105.225 2.09755 105.426 2.2919C105.628 2.48699 105.728 2.72861 105.728 3.01751V5.48624C105.728 5.57404 105.772 5.61831 105.86 5.61831H106.406C106.632 5.61831 106.824 5.6971 106.981 5.85393C107.138 6.01076 107.217 6.20285 107.217 6.42871C107.217 6.44147 107.227 6.45423 107.245 6.46623C107.264 6.47899 107.28 6.47899 107.293 6.46623C107.846 6.12706 108.342 5.76238 108.781 5.37294C109.033 5.14707 109.322 4.99625 109.648 4.92046C109.786 4.88294 109.924 4.86418 110.063 4.86418C110.239 4.86418 110.415 4.88969 110.591 4.93922L110.798 5.01426C110.835 5.02701 110.867 5.02401 110.892 5.0045C110.917 4.98574 110.93 4.95723 110.93 4.91971V4.54302C110.93 4.45523 110.885 4.41096 110.798 4.41096H108.649C108.385 4.41096 108.162 4.32016 107.98 4.13782C107.798 3.95548 107.707 3.73562 107.707 3.47824C107.707 3.22086 107.798 3.001 107.98 2.81866C108.162 2.63632 108.385 2.54552 108.649 2.54552H111.759C112.061 2.54552 112.321 2.65583 112.541 2.87569C112.761 3.09555 112.871 3.35668 112.871 3.65758V10.0095C112.871 10.1101 112.915 10.1731 113.003 10.1978L114.153 10.462C114.177 10.462 114.197 10.4522 114.209 10.4335C114.222 10.4147 114.222 10.3989 114.209 10.3862C114.134 10.3112 114.071 10.2414 114.021 10.1791C113.857 9.99075 113.775 9.78364 113.775 9.55703V9.44372C113.801 9.16758 113.926 8.94097 114.152 8.76538C114.529 8.47649 114.868 8.17484 115.169 7.86043C115.395 7.62181 115.659 7.45823 115.961 7.37044C116.112 7.32016 116.263 7.2954 116.413 7.2954C116.564 7.2954 116.721 7.32016 116.885 7.37044C116.91 7.38319 116.938 7.38019 116.97 7.36068C117.001 7.34192 117.017 7.31341 117.017 7.27589V4.54302C117.017 4.45523 116.967 4.41096 116.866 4.41096H114.397C114.133 4.41096 113.913 4.32016 113.738 4.13782C113.562 3.95548 113.474 3.73562 113.474 3.47824C113.474 3.22086 113.561 3.001 113.738 2.81866C113.913 2.63632 114.133 2.54552 114.397 2.54552H117.884C118.199 2.54552 118.462 2.65583 118.676 2.87569C118.89 3.09555 118.996 3.35668 118.996 3.65758V9.80165L118.996 9.8024ZM110.477 17.4735C110.477 17.5613 110.521 17.6056 110.609 17.6056H116.056C116.156 17.6056 116.206 17.5613 116.206 17.4735V16.6256C116.206 16.5378 116.156 16.4935 116.056 16.4935H110.609C110.521 16.4935 110.477 16.5378 110.477 16.6256V17.4735ZM116.056 14.8344C116.156 14.8344 116.206 14.7841 116.206 14.6836V13.8919C116.206 13.7914 116.156 13.7411 116.056 13.7411H110.609C110.521 13.7411 110.477 13.7914 110.477 13.8919V14.6836C110.477 14.7841 110.521 14.8344 110.609 14.8344H116.056ZM99.0738 13.0065C99.3755 13.0065 99.6298 13.1131 99.8369 13.3269C100.044 13.5408 100.148 13.7951 100.148 14.09C100.148 14.3849 100.044 14.6363 99.8369 14.8442C99.6298 15.0513 99.3755 15.1548 99.0738 15.1548H95.7564C95.6558 15.1548 95.6056 15.2051 95.6056 15.3057V17.5485C95.6056 18.1518 95.5335 18.6103 95.3887 18.9247C95.2439 19.2391 94.9708 19.4777 94.5686 19.6406C94.0786 19.8544 93.2929 19.9737 92.2124 19.9985H92.1749C91.8732 19.9985 91.6031 19.8979 91.3645 19.6968C91.1258 19.4957 90.9562 19.2384 90.8557 18.924C90.8557 18.8864 90.8497 18.8549 90.8369 18.8294C90.8122 18.7416 90.7994 18.6598 90.7994 18.584C90.7994 18.4205 90.8497 18.2696 90.9502 18.1316C91.1011 17.9305 91.3022 17.8299 91.5535 17.8299H92.2889C92.5403 17.8299 92.7346 17.8239 92.8735 17.8112C93.037 17.8112 93.1436 17.7894 93.1939 17.7451C93.2441 17.7009 93.2689 17.6161 93.2689 17.4907V15.3042C93.2689 15.2036 93.2246 15.1533 93.1368 15.1533H89.4615C89.1726 15.1533 88.9212 15.0498 88.7074 14.8427C88.4935 14.6356 88.387 14.3842 88.387 14.0885C88.387 13.7929 88.4935 13.5385 88.7074 13.3254C88.9212 13.1116 89.1726 13.005 89.4615 13.005H93.1368C93.2246 13.005 93.2689 12.9607 93.2689 12.8729V12.0625C93.2689 11.8869 93.3319 11.7361 93.4572 11.6101C93.5826 11.484 93.7334 11.4217 93.9097 11.4217C93.96 11.4217 94.0103 11.409 94.0606 11.3842C94.375 11.1201 94.7576 10.7681 95.2101 10.3284C95.2229 10.3157 95.2259 10.2969 95.2199 10.2721C95.2139 10.2466 95.1914 10.2346 95.1538 10.2346H90.9127C90.6238 10.2346 90.3785 10.1341 90.1774 9.93297C89.9763 9.73187 89.8757 9.48724 89.8757 9.1976C89.8757 8.90795 89.9763 8.66333 90.1774 8.46223C90.3785 8.26113 90.6231 8.16058 90.9127 8.16058H97.2647C97.3524 8.13582 97.4342 8.12306 97.5093 8.12306C97.6976 8.12306 97.874 8.18609 98.0368 8.31141L98.4135 8.61306C98.6273 8.78864 98.7339 9.01526 98.7339 9.2914C98.7339 9.51726 98.6588 9.71236 98.508 9.87594C97.5783 10.8559 96.6486 11.6978 95.7189 12.4017C95.6438 12.4647 95.6056 12.5398 95.6056 12.6276V12.8729C95.6056 12.9607 95.6558 13.005 95.7564 13.005H99.0738V13.0065ZM99.545 4.78914C99.7709 5.003 99.8842 5.26038 99.8842 5.56203C99.8842 5.86368 99.7739 6.12406 99.554 6.34392C99.3342 6.56378 99.0731 6.67409 98.7722 6.67409H89.7819C89.6941 6.67409 89.6311 6.71161 89.5936 6.78739C88.8897 8.28289 88.1423 9.57054 87.3507 10.6511C87.2877 10.7261 87.2561 10.8079 87.2561 10.8964V18.8504C87.2561 19.1521 87.1458 19.4125 86.926 19.6323C86.7061 19.8522 86.445 19.9625 86.1441 19.9625H86.0495C85.7479 19.9625 85.4875 19.8522 85.2677 19.6323C85.0478 19.4125 84.9382 19.1513 84.9382 18.8504V13.4785C84.9382 13.453 84.9255 13.4342 84.9007 13.4222C84.8752 13.4095 84.8564 13.4162 84.8444 13.441C84.6058 13.6548 84.3604 13.8559 84.1091 14.0443C83.9582 14.1696 83.7947 14.2326 83.6191 14.2326C83.544 14.2326 83.4622 14.2199 83.3737 14.1951C83.0976 14.1201 82.8965 13.9565 82.7704 13.7051C82.7329 13.6046 82.6886 13.51 82.6383 13.4222C82.5378 13.2339 82.4875 13.0388 82.4875 12.8377C82.4875 12.7371 82.5003 12.6426 82.525 12.5548C82.5881 12.2531 82.7389 12.0018 82.9775 11.8006C84.5353 10.5565 85.8552 8.88544 86.9357 6.78739C86.9485 6.76263 86.9485 6.73712 86.9357 6.71236C86.923 6.68759 86.8982 6.67484 86.8607 6.67484H83.8449C83.5433 6.67484 83.2829 6.56453 83.063 6.34467C82.8432 6.12481 82.7329 5.86368 82.7329 5.56278C82.7329 5.26188 82.8432 5.00375 83.063 4.78989C83.2829 4.57604 83.544 4.46948 83.8449 4.46948H87.8219C87.9225 4.46948 87.9915 4.42521 88.029 4.33742C88.1799 3.93522 88.3247 3.5015 88.4627 3.03702C88.5505 2.74812 88.7269 2.52151 88.9903 2.35868C89.1786 2.24537 89.3737 2.18909 89.5748 2.18909C89.6626 2.18909 89.7504 2.20185 89.8389 2.22661L90.1218 2.28289C90.4235 2.35793 90.6493 2.52151 90.8002 2.77289C90.888 2.93647 90.9322 3.0993 90.9322 3.26288C90.9322 3.37619 90.9135 3.48874 90.876 3.60205C90.7882 3.85343 90.7004 4.09805 90.6118 4.33742C90.5991 4.36293 90.6021 4.3907 90.6216 4.42221C90.6403 4.45373 90.6688 4.46948 90.7064 4.46948H98.7729C99.0746 4.46948 99.3319 4.57604 99.5458 4.78989L99.545 4.78914ZM63.5833 15.0423C63.4077 14.8667 63.3192 14.6558 63.3192 14.4112C63.3192 14.1666 63.407 13.9557 63.5833 13.7801C63.7596 13.6046 63.9727 13.516 64.2241 13.516H79.8109C80.0623 13.516 80.2761 13.6038 80.4517 13.7801C80.6273 13.9557 80.7159 14.1666 80.7159 14.4112C80.7159 14.6558 80.6281 14.8667 80.4517 15.0423C80.2761 15.2179 80.0623 15.3064 79.8109 15.3064H73.2894C73.1889 15.3064 73.1386 15.3567 73.1386 15.4572V17.7946C73.1386 18.3349 73.0755 18.7461 72.9502 19.029C72.8249 19.3119 72.5856 19.5288 72.2344 19.6796C71.8194 19.8679 71.2101 19.9752 70.4065 20H70.3689C70.08 20 69.8159 19.9122 69.5773 19.7359C69.3259 19.5348 69.1503 19.2774 69.0498 18.963C69.0123 18.8752 68.9935 18.7934 68.9935 18.7184C68.9935 18.5803 69.0378 18.4422 69.1256 18.3034C69.2636 18.1023 69.452 18.0018 69.6914 18.0018H70.5018C70.6278 18.0018 70.7156 17.983 70.7659 17.9455C70.8162 17.908 70.8409 17.8322 70.8409 17.7196V15.458C70.8409 15.3574 70.7907 15.3072 70.6901 15.3072H64.2256C63.9742 15.3072 63.7604 15.2194 63.5848 15.043L63.5833 15.0423ZM75.2877 17.1718C75.0866 17.0465 74.986 16.8642 74.986 16.6256C74.986 16.3997 75.0806 16.2234 75.2689 16.098C75.5203 15.9225 75.8032 15.8219 76.1168 15.7964H76.2114C76.4875 15.7964 76.7456 15.8654 76.9843 16.0035C77.9898 16.5813 78.888 17.1598 79.6796 17.7376C79.8935 17.8884 80 18.0955 80 18.3597C80 18.6613 79.8807 18.8939 79.6421 19.0568V19.0755C79.3907 19.2391 79.1266 19.3209 78.8504 19.3209H78.7559C78.4415 19.2954 78.1526 19.1828 77.8892 18.9817C77.1733 18.404 76.3059 17.8006 75.2884 17.1726L75.2877 17.1718ZM66.3724 16.2856C66.6238 16.047 66.9067 15.8834 67.2204 15.7956C67.3584 15.7581 67.4965 15.7394 67.6353 15.7394C67.8109 15.7394 67.9933 15.7709 68.1816 15.8339C68.433 15.9217 68.5966 16.098 68.6716 16.3614C68.6964 16.4365 68.7091 16.5063 68.7091 16.5685C68.7091 16.7441 68.6401 16.9017 68.502 17.0398C67.7231 17.8817 66.8309 18.6418 65.8254 19.3202C65.5996 19.471 65.3602 19.546 65.1096 19.546C65.0593 19.546 65.003 19.54 64.94 19.5273C64.6256 19.4897 64.3434 19.3577 64.0921 19.1311C64.0793 19.1183 64.0605 19.1056 64.0358 19.0935C63.8722 18.9427 63.7912 18.7604 63.7912 18.5473C63.7912 18.5098 63.7972 18.4782 63.8099 18.4527C63.8354 18.1886 63.9607 17.9942 64.1866 17.8682C65.0158 17.3909 65.7444 16.8627 66.3732 16.2849L66.3724 16.2856ZM78.1338 11.2154C78.3094 11.3789 78.398 11.58 78.398 11.8187C78.398 12.0573 78.3132 12.2614 78.1436 12.431C77.974 12.6005 77.7699 12.6853 77.5313 12.6853H66.4865C66.2479 12.6853 66.0438 12.6005 65.8742 12.431C65.7046 12.2614 65.6198 12.0573 65.6198 11.8187C65.6198 11.58 65.7046 11.3759 65.8742 11.2064C66.0438 11.0368 66.2479 10.952 66.4865 10.952H77.5313C77.7699 10.952 77.971 11.0398 78.1346 11.2161L78.1338 11.2154ZM68.6153 5.44797C68.7159 5.44797 68.7661 5.3977 68.7661 5.29715V4.54302C68.7661 4.45523 68.7159 4.41096 68.6153 4.41096H64.4875C64.2361 4.41096 64.026 4.32316 63.8564 4.14682C63.6868 3.97124 63.6021 3.75738 63.6021 3.506C63.6021 3.25463 63.6868 3.04077 63.8564 2.86518C64.026 2.68959 64.2369 2.60105 64.4875 2.60105H79.4342C79.6729 2.60105 79.88 2.68884 80.0563 2.86518C80.2319 3.04077 80.3204 3.25463 80.3204 3.506C80.3204 3.75738 80.2326 3.97124 80.0563 4.14682C79.8807 4.32241 79.6729 4.41096 79.4342 4.41096H75.1556C75.0678 4.41096 75.0235 4.45523 75.0235 4.54302V5.29715C75.0235 5.3977 75.0678 5.44797 75.1556 5.44797H78.2089C78.5233 5.44797 78.7867 5.55828 79.0005 5.77814C79.2144 5.998 79.3209 6.25913 79.3209 6.56003V9.04827C79.3209 9.34992 79.2144 9.6103 79.0005 9.83016C78.7867 10.05 78.5233 10.1603 78.2089 10.1603H65.8262C65.5245 10.1603 65.2641 10.05 65.0443 9.83016C64.8244 9.6103 64.7141 9.34917 64.7141 9.04827V6.56003C64.7141 6.25838 64.8244 5.998 65.0443 5.77814C65.2641 5.55828 65.5253 5.44797 65.8262 5.44797H68.6153ZM66.9757 7.06878C66.888 7.06878 66.8437 7.11906 66.8437 7.21961V8.36918C66.8437 8.46973 66.888 8.52001 66.9757 8.52001H68.6153C68.7159 8.52001 68.7661 8.46973 68.7661 8.36918V7.21961C68.7661 7.11906 68.7159 7.06878 68.6153 7.06878H66.9757ZM71.009 7.06878C70.9212 7.06878 70.8769 7.11906 70.8769 7.21961V8.36918C70.8769 8.46973 70.9212 8.52001 71.009 8.52001H72.7431C72.8309 8.52001 72.8752 8.46973 72.8752 8.36918V7.21961C72.8752 7.11906 72.8309 7.06878 72.7431 7.06878H71.009ZM77.0405 7.21961C77.0405 7.11906 76.9963 7.06878 76.9085 7.06878H75.1556C75.0678 7.06878 75.0235 7.11906 75.0235 7.21961V8.36918C75.0235 8.46973 75.0678 8.52001 75.1556 8.52001H76.9085C76.9963 8.52001 77.0405 8.46973 77.0405 8.36918V7.21961ZM72.7431 5.44797C72.8309 5.44797 72.8752 5.3977 72.8752 5.29715V4.54302C72.8752 4.45523 72.8309 4.41096 72.7431 4.41096H71.009C70.9212 4.41096 70.8769 4.45523 70.8769 4.54302V5.29715C70.8769 5.3977 70.9212 5.44797 71.009 5.44797H72.7431ZM59.003 4.75088C59.2041 4.53702 59.4487 4.41771 59.7384 4.39295C59.7887 4.38019 59.8329 4.37419 59.8704 4.37419C60.1091 4.37419 60.3289 4.44322 60.53 4.58129C60.7439 4.74487 60.8504 4.96473 60.8504 5.24087C60.8504 5.47949 60.7559 5.67459 60.5675 5.82541C60.1406 6.17734 59.7069 6.51051 59.2671 6.82416C59.2416 6.84967 59.2296 6.87744 59.2296 6.90895C59.2296 6.94047 59.2484 6.96223 59.2859 6.97499C59.7384 7.21361 60.2344 7.42071 60.7746 7.59705C61.0133 7.68484 61.1641 7.84842 61.2271 8.08704C61.2526 8.16208 61.2646 8.23787 61.2646 8.31291C61.2646 8.47649 61.2144 8.62731 61.1138 8.76538L61.0763 8.8029C60.888 9.07904 60.6426 9.26813 60.3409 9.36868C60.1901 9.41896 60.0453 9.44372 59.9072 9.44372C59.7436 9.44372 59.5808 9.41221 59.4172 9.34917C59.078 9.21111 58.7449 9.06028 58.4185 8.8967C58.3809 8.87119 58.3494 8.86818 58.3239 8.88694C58.2984 8.9057 58.2864 8.93422 58.2864 8.97174V10.9317C58.2992 11.045 58.3494 11.1073 58.4372 11.1201C58.4627 11.1328 58.4935 11.1388 58.5318 11.1388H58.8709C59.009 11.1388 59.0908 11.1328 59.1163 11.1201C59.2041 11.0698 59.2671 11.0007 59.3047 10.913C59.3677 10.7246 59.484 10.5865 59.6536 10.498C59.8232 10.4102 59.9898 10.4102 60.1533 10.498C60.4047 10.6233 60.5931 10.7996 60.7191 11.0255C60.8069 11.1891 60.8512 11.3519 60.8512 11.5155C60.8512 11.5913 60.8452 11.6663 60.8324 11.7414C60.7949 11.8922 60.7506 12.0055 60.7004 12.0805C60.5495 12.3447 60.3109 12.5263 59.9845 12.6268C59.7459 12.7146 59.4382 12.7589 59.0608 12.7589H58.0808C57.515 12.7589 57.088 12.6208 56.7992 12.3439C56.6356 12.1683 56.523 11.9575 56.46 11.7129C56.397 11.4682 56.3654 11.0818 56.3654 10.5535V9.57354C56.3654 9.48574 56.3152 9.44147 56.2146 9.44147H54.7634C54.6628 9.44147 54.6126 9.49175 54.6126 9.5923C54.5375 10.8109 54.1226 11.8037 53.3684 12.5705C53.1673 12.7461 52.9415 12.8347 52.6901 12.8347H52.558C52.2564 12.7971 51.9922 12.6591 51.7664 12.4197C51.6283 12.2816 51.4963 12.1556 51.3709 12.043C51.3582 12.0303 51.3424 12.0303 51.3237 12.043C51.3049 12.0558 51.2952 12.0685 51.2952 12.0805C51.2952 12.2944 51.2231 12.473 51.0783 12.6178C50.9335 12.7626 50.7549 12.8347 50.541 12.8347H49.4852C49.4222 12.8347 49.3719 12.8159 49.3344 12.7784C49.2969 12.7409 49.2781 12.6906 49.2781 12.6276C49.2781 12.6148 49.2654 12.6088 49.2406 12.6088H47.4502C47.3497 12.6088 47.2934 12.6531 47.2806 12.7409C47.2056 13.1303 47.1426 13.4507 47.0923 13.7021C47.0668 13.7899 47.0983 13.8342 47.1868 13.8342H50.2214C50.5358 13.8342 50.7931 13.9475 50.9942 14.1733C51.1826 14.3744 51.2771 14.6003 51.2771 14.8517C51.2771 15.7311 51.1578 16.7426 50.9192 17.8862C50.7811 18.5398 50.586 18.9855 50.3347 19.2241C50.1336 19.45 49.9167 19.6076 49.6841 19.6953C49.4515 19.7831 49.1536 19.8462 48.7889 19.8837C48.4872 19.9085 48.079 19.9212 47.5635 19.9212H47.2619C46.973 19.9212 46.7156 19.8237 46.489 19.6293C46.2631 19.4342 46.1056 19.1926 46.0178 18.9037C45.9802 18.8159 45.9615 18.7401 45.9615 18.6778C45.9615 18.5398 46.0058 18.4137 46.0935 18.3012C46.2069 18.1256 46.3637 18.037 46.5648 18.037H46.6023C47.0923 18.0625 47.526 18.0745 47.9027 18.0745C48.2291 18.0745 48.4685 18.0115 48.6193 17.8862C48.8452 17.6851 49.0215 16.9377 49.1468 15.6433C49.1596 15.5428 49.1153 15.4925 49.0148 15.4925H46.7156C46.6908 15.4925 46.6713 15.5113 46.6593 15.5488C46.6338 15.6741 46.5715 15.7686 46.471 15.8317C46.3704 15.8947 46.2571 15.9195 46.1318 15.9075L45.6418 15.8129C45.3904 15.7754 45.1961 15.6561 45.0573 15.455C44.9695 15.3042 44.9252 15.1473 44.9252 14.9837C44.9252 14.9207 44.9312 14.8517 44.944 14.7766C45.1698 13.8597 45.3709 12.936 45.5473 12.0063C45.5975 11.6918 45.7454 11.4315 45.99 11.2244C46.2346 11.0173 46.5145 10.9137 46.8289 10.9137H49.1281C49.2286 10.9137 49.2789 10.8634 49.2789 10.7629V9.7071C49.2789 9.60655 49.2286 9.55628 49.1281 9.55628H46.2054C46.1303 9.55628 46.092 9.51876 46.092 9.44297C46.092 9.43021 46.086 9.42421 46.0733 9.42421C45.96 9.48724 45.8407 9.54352 45.7154 9.5938C45.5518 9.65683 45.3949 9.68834 45.2441 9.68834C45.1188 9.68834 44.9867 9.66958 44.8479 9.63207C44.5718 9.54427 44.3392 9.37469 44.1508 9.12331C44.0503 8.98524 44 8.83442 44 8.67084C44 8.6078 44.0128 8.53877 44.0375 8.46373C44.1126 8.22511 44.2634 8.06153 44.49 7.97374C45.2186 7.68484 45.9225 7.33292 46.6008 6.91796C46.6383 6.8932 46.6571 6.86468 46.6571 6.83317C46.6571 6.80165 46.6383 6.77314 46.6008 6.74837C46.3247 6.54727 46.029 6.34617 45.7146 6.14507C45.5008 6.007 45.3942 5.8059 45.3942 5.54177C45.3942 5.36618 45.4632 5.2086 45.6013 5.07053C45.7896 4.88219 46.0163 4.77489 46.2796 4.75013C46.3427 4.73737 46.399 4.73137 46.4492 4.73137C46.6503 4.73137 46.8387 4.78164 47.015 4.88219C47.4675 5.13357 47.8442 5.37219 48.1458 5.59805C48.2336 5.64832 48.3094 5.64232 48.3717 5.57929C48.7109 5.26488 49.0253 4.92571 49.3142 4.56178C49.3389 4.53702 49.3457 4.51151 49.3329 4.48674C49.3202 4.46198 49.2954 4.44922 49.2579 4.44922H46.5063C46.2549 4.44922 46.041 4.36143 45.8654 4.18509C45.6898 4.0095 45.6013 3.79565 45.6013 3.54427C45.6013 3.2929 45.6891 3.08279 45.8654 2.91321C46.041 2.74362 46.2549 2.65883 46.5063 2.65883H50.5966C50.6221 2.65883 50.6528 2.65283 50.6911 2.64007C50.7669 2.61456 50.8419 2.60255 50.917 2.60255C51.0678 2.60255 51.2126 2.64007 51.3507 2.71586L51.7274 2.9042C51.9285 3.00475 52.0665 3.15558 52.1423 3.35668C52.1798 3.44447 52.1986 3.53227 52.1986 3.62081C52.1986 3.73412 52.1671 3.84667 52.1041 3.95998C51.3627 5.39245 50.3069 6.64257 48.9375 7.71035C48.9247 7.72311 48.9217 7.74187 48.9277 7.76663C48.9337 7.7914 48.9495 7.80415 48.975 7.80415H50.1816C50.496 7.80415 50.7594 7.91071 50.9732 8.12456C51.1871 8.33842 51.2936 8.6018 51.2936 8.91621V11.5358C51.2936 11.5733 51.3094 11.5988 51.3409 11.6108C51.3724 11.6236 51.401 11.6236 51.4257 11.6108C51.9285 11.2589 52.2676 10.8724 52.4432 10.4515C52.6188 10.0305 52.7074 9.57504 52.7074 9.08504V8.82091C52.7074 8.5065 52.8177 8.24312 53.0375 8.02926C53.2574 7.81541 53.5185 7.70885 53.8194 7.70885H56.3827C56.4082 7.70885 56.4232 7.6961 56.43 7.67134C56.436 7.64582 56.433 7.62706 56.4202 7.61506C54.9877 6.497 53.8194 5.07654 52.9145 3.35518C52.8514 3.22986 52.8199 3.11056 52.8199 2.99725C52.8199 2.8967 52.8454 2.79015 52.895 2.67684C52.9955 2.45098 53.1651 2.30015 53.4037 2.22436C53.517 2.19885 53.6236 2.18684 53.7241 2.18684C53.8749 2.18684 54.0258 2.21836 54.1766 2.28139C54.428 2.3947 54.6223 2.57704 54.7611 2.82766C54.9495 3.15408 55.1506 3.45573 55.3644 3.73262C55.4147 3.80765 55.4777 3.81441 55.5528 3.75138C55.9175 3.43697 56.2499 3.12931 56.5515 2.82766C56.7654 2.62656 57.01 2.50725 57.2869 2.46973H57.419C57.6448 2.46973 57.8587 2.53877 58.0598 2.67684C58.2736 2.82766 58.3802 3.04152 58.3802 3.31766C58.3802 3.55628 58.2856 3.75138 58.0973 3.9022C57.5443 4.35468 57.073 4.72536 56.6836 5.01426C56.6086 5.07729 56.6018 5.13957 56.6648 5.2026C56.929 5.44122 57.2051 5.66783 57.494 5.88094C57.569 5.94397 57.6448 5.94397 57.7199 5.88094C58.1596 5.52901 58.5865 5.15233 59.0015 4.75013L59.003 4.75088ZM58.0418 13.3269C58.5948 13.3269 59.0218 13.3712 59.3234 13.459C59.499 13.522 59.6281 13.6346 59.7099 13.7981C59.7917 13.9617 59.7947 14.1246 59.7196 14.2881C59.2799 15.419 58.6518 16.3869 57.8347 17.1906C57.7596 17.2656 57.7656 17.3227 57.8534 17.3602C58.507 17.6116 59.2229 17.8187 60.0018 17.9822C60.2404 18.0198 60.398 18.1518 60.473 18.3784C60.5105 18.4535 60.5293 18.5353 60.5293 18.6238C60.5293 18.7491 60.485 18.8752 60.3972 19.0005C60.3717 19.0133 60.3529 19.032 60.3409 19.0568C60.1398 19.3329 59.8885 19.5408 59.5868 19.6788C59.4112 19.7539 59.2289 19.7921 59.0405 19.7921C58.9152 19.7921 58.7892 19.7734 58.6638 19.7359C57.7214 19.4717 56.8607 19.1138 56.0818 18.6613C55.994 18.6111 55.9122 18.6111 55.8364 18.6613C54.9945 19.1138 54.0205 19.4845 52.9152 19.7734C52.8147 19.7989 52.7201 19.8109 52.6323 19.8109C52.4687 19.8109 52.3059 19.7734 52.1423 19.6976C51.8909 19.5723 51.6898 19.3832 51.539 19.1318C51.476 19.0185 51.4445 18.906 51.4445 18.7926C51.4445 18.7049 51.4632 18.6171 51.5008 18.5285C51.5885 18.3274 51.7394 18.2021 51.9532 18.1518C52.7952 17.9635 53.5425 17.7181 54.1961 17.4165C54.2839 17.3789 54.2967 17.3287 54.2336 17.2656C53.8945 16.9265 53.5868 16.5558 53.3099 16.1536C53.2094 16.0028 53.1591 15.8579 53.1591 15.7199C53.1591 15.6193 53.1778 15.5128 53.2154 15.3995C53.3287 15.1353 53.523 14.9657 53.7999 14.8907H53.8374C53.8502 14.8779 53.8562 14.8689 53.8562 14.8622C53.8562 14.8554 53.8502 14.8524 53.8374 14.8524H52.895C52.6811 14.8524 52.4995 14.7774 52.3487 14.6266C52.1979 14.4757 52.1228 14.2934 52.1228 14.0803C52.1228 13.8672 52.1979 13.6878 52.3487 13.543C52.4995 13.3982 52.6818 13.3262 52.895 13.3262H58.0403L58.0418 13.3269ZM57.2501 14.9665C57.2629 14.941 57.2629 14.9162 57.2501 14.8914C57.2374 14.8659 57.2126 14.8539 57.1751 14.8539H54.6868C54.6493 14.8539 54.6238 14.8667 54.6118 14.8914C54.5991 14.917 54.5991 14.9417 54.6118 14.9665C54.951 15.4437 55.3659 15.8714 55.8559 16.2481C55.931 16.3112 56.0068 16.3112 56.0818 16.2481C56.5343 15.8714 56.9237 15.4437 57.2501 14.9665Z" fill="#6E7787"/>
<defs>
<linearGradient id="paint0_linear_201_3279" x1="21.0159" y1="0" x2="21.0159" y2="22.0005" gradientUnits="userSpaceOnUse">
<stop offset="0.2" stop-color="#7ECDF4"/>
<stop offset="0.85" stop-color="#057ABD"/>
</linearGradient>
</defs>
</svg>
