<svg width="16" height="16" viewBox="0 0 16 16" fill="none" xmlns="http://www.w3.org/2000/svg">
<path fill-rule="evenodd" clip-rule="evenodd" d="M15.1601 3.66C15.1601 4.63 14.6701 5.49 13.9301 6C14.3001 6.81 14.5001 7.71 14.5001 8.66C14.5001 10.43 13.8001 12.04 12.6501 13.21L13.7001 14.32C13.8901 14.52 13.8801 14.84 13.6801 15.03C13.4801 15.22 13.1601 15.21 12.9701 15.01L11.8901 13.87C10.8101 14.68 9.44008 15.16 8.00008 15.16C6.56008 15.16 5.23008 14.69 4.15008 13.9L3.01008 15.02C2.81008 15.22 2.49008 15.22 2.30008 15.02C2.10008 14.82 2.10008 14.5 2.30008 14.31L3.38008 13.25C2.21008 12.07 1.49008 10.45 1.49008 8.66C1.49008 7.71 1.70008 6.81 2.06008 6C1.32008 5.49 0.830078 4.63 0.830078 3.66C0.830078 2.1 2.10008 0.830002 3.67008 0.830002C4.78008 0.830002 5.75008 1.47 6.21008 2.41C6.78008 2.25 7.38008 2.16 8.00008 2.16C8.62008 2.16 9.22008 2.25 9.79008 2.41C10.2501 1.48 11.2101 0.830002 12.3301 0.830002C13.8901 0.830002 15.1601 2.1 15.1601 3.66ZM3.66008 1.83C2.65008 1.83 1.83008 2.65 1.83008 3.66C1.83008 4.25 2.11008 4.77 2.55008 5.11C3.21008 4.1 4.15008 3.28 5.26008 2.76C4.94008 2.21 4.35008 1.83 3.66008 1.83ZM8.00008 14.16C9.38008 14.16 10.6401 13.65 11.6101 12.81C12.7701 11.8 13.5001 10.32 13.5001 8.66C13.5001 7.71 13.2501 6.82 12.8301 6.04C12.2001 4.88 11.1601 3.97 9.91008 3.51C9.32008 3.29 8.67008 3.17 8.00008 3.17C7.33008 3.17 6.68008 3.29 6.09008 3.51C4.84008 3.97 3.80008 4.88 3.17008 6.04C2.74008 6.81 2.50008 7.71 2.50008 8.66C2.50008 10.34 3.25008 11.84 4.44008 12.85C5.40008 13.67 6.62008 14.16 8.00008 14.16ZM10.7401 2.77C11.8501 3.28 12.7901 4.1 13.4501 5.12C13.8901 4.79 14.1701 4.26 14.1701 3.67C14.1701 2.66 13.3501 1.84 12.3401 1.84C11.6501 1.84 11.0501 2.21 10.7401 2.77ZM8.5 8.16H11.33C11.61 8.16 11.83 8.38 11.83 8.66C11.83 8.94 11.61 9.16 11.33 9.16H8C7.72 9.16 7.5 8.94 7.5 8.66V5.33C7.5 5.05 7.72 4.83 8 4.83C8.28 4.83 8.5 5.05 8.5 5.33V8.16Z" fill="#3B404A"/>
</svg>
