<svg width="16" height="16" viewBox="0 0 16 16" fill="none" xmlns="http://www.w3.org/2000/svg">
<path fill-rule="evenodd" clip-rule="evenodd" d="M6.69348 2.29834C7.26737 1.28098 8.73252 1.28097 9.30641 2.29833L14.9276 12.263C15.4916 13.2629 14.7691 14.5 13.6211 14.5H2.3789C1.23085 14.5 0.508372 13.2629 1.07243 12.263L6.69348 2.29834ZM8.43544 2.78965C8.24414 2.45053 7.75576 2.45053 7.56446 2.78965L1.94341 12.7543C1.75539 13.0876 1.99622 13.5 2.3789 13.5H13.6211C14.0038 13.5 14.2446 13.0876 14.0566 12.7543L8.43544 2.78965Z" fill="#3B404A"/>
<path fill-rule="evenodd" clip-rule="evenodd" d="M7.99998 5.99999C8.27612 5.99999 8.49998 6.22385 8.49998 6.49999L8.5 8.99999C8.5 9.27613 8.27615 9.49999 8.00001 9.49999C7.72386 9.5 7.5 9.27614 7.5 9L7.49998 6.5C7.49998 6.22386 7.72383 6 7.99998 5.99999Z" fill="#3B404A"/>
<path fill-rule="evenodd" clip-rule="evenodd" d="M8.43309 11.75C8.47563 11.6764 8.49998 11.5911 8.49998 11.5C8.49998 11.2239 8.27612 11 7.99998 11C7.58577 11 7.24998 11.3358 7.24998 11.75C7.24998 12.1642 7.58577 12.5 7.99998 12.5C8.27612 12.5 8.49998 12.2761 8.49998 12C8.49998 11.9089 8.47563 11.8235 8.43309 11.75Z" fill="#3B404A"/>
<path fill-rule="evenodd" clip-rule="evenodd" d="M7.56687 11.75C7.52433 11.6764 7.49998 11.5911 7.49998 11.5C7.49998 11.2239 7.72384 11 7.99998 11C8.4142 11 8.74998 11.3358 8.74998 11.75C8.74998 12.1642 8.4142 12.5 7.99998 12.5C7.72384 12.5 7.49998 12.2761 7.49998 12C7.49998 11.9089 7.52433 11.8235 7.56687 11.75Z" fill="#3B404A"/>
</svg>
