<svg width="16" height="16" viewBox="0 0 16 16" fill="none" xmlns="http://www.w3.org/2000/svg">
<path fill-rule="evenodd" clip-rule="evenodd" d="M4.31299 1.64627C4.50825 1.45101 4.82484 1.45101 5.0201 1.64627L7.68676 4.31293C7.88203 4.5082 7.88203 4.82478 7.68676 5.02004C7.4915 5.2153 7.17492 5.2153 6.97966 5.02004L5.16654 3.20693V9.99982C5.16654 10.276 4.94269 10.4998 4.66654 10.4998C4.3904 10.4998 4.16654 10.276 4.16654 9.99982V3.20693L2.35343 5.02004C2.15817 5.2153 1.84159 5.2153 1.64632 5.02004C1.45106 4.82478 1.45106 4.5082 1.64632 4.31293L4.31299 1.64627ZM11.3332 5.49982C11.6094 5.49982 11.8332 5.72368 11.8332 5.99982V12.7927L13.6463 10.9796C13.8416 10.7843 14.1582 10.7843 14.3534 10.9796C14.5487 11.1749 14.5487 11.4914 14.3534 11.6867L11.6868 14.3534C11.4915 14.5486 11.1749 14.5486 10.9797 14.3534L8.31299 11.6867C8.11773 11.4914 8.11773 11.1749 8.31299 10.9796C8.50825 10.7843 8.82484 10.7843 9.0201 10.9796L10.8332 12.7927V5.99982C10.8332 5.72368 11.0571 5.49982 11.3332 5.49982Z" fill="#3B404A"/>
</svg>
