<svg width="16" height="16" viewBox="0 0 16 16" fill="none" xmlns="http://www.w3.org/2000/svg">
<path fill-rule="evenodd" clip-rule="evenodd" d="M8.00004 14.4998C8.13265 14.4998 8.25983 14.4471 8.3536 14.3534L13.3536 9.35337C13.5488 9.15811 13.5488 8.84153 13.3536 8.64627C13.1583 8.451 12.8417 8.45101 12.6464 8.64627L8.50003 12.7927L8.49997 1.99982C8.49997 1.72368 8.27611 1.49982 7.99997 1.49982C7.72383 1.49982 7.49997 1.72368 7.49997 1.99982L7.50003 12.7927L3.35355 8.64627C3.15829 8.451 2.84171 8.45101 2.64645 8.64627C2.45118 8.84153 2.45119 9.15811 2.64645 9.35338L7.64649 14.3534C7.74026 14.4471 7.86744 14.4998 8.00004 14.4998Z" fill="#3B404A"/>
</svg>
