<svg width="16" height="16" viewBox="0 0 16 16" fill="none" xmlns="http://www.w3.org/2000/svg">
<path fill-rule="evenodd" clip-rule="evenodd" d="M8 0.5C6.89543 0.5 6 1.39543 6 2.5H4C3.17157 2.5 2.5 3.17157 2.5 4V6C2.5 6.5188 2.65803 7.00068 2.92857 7.40015C2.65185 7.7767 2.5 8.23408 2.5 8.70711V9.5H1C0.723858 9.5 0.5 9.72386 0.5 10V12.5C0.5 13.3284 1.17157 14 2 14H2.99981C3.45591 14.6072 4.18209 15 5 15H11C11.8179 15 12.5441 14.6072 13.0002 14H14C14.8284 14 15.5 13.3284 15.5 12.5V10C15.5 9.72386 15.2761 9.5 15 9.5H13.5V8.70711C13.5 8.23408 13.3481 7.7767 13.0714 7.40015C13.342 7.00068 13.5 6.5188 13.5 6V4C13.5 3.17157 12.8284 2.5 12 2.5H10C10 1.39543 9.10457 0.5 8 0.5ZM8 1.5C8.55228 1.5 9 1.94772 9 2.5H7C7 1.94772 7.44772 1.5 8 1.5ZM3.5 8.70711C3.5 8.49581 3.5554 8.29021 3.65817 8.10975C4.04585 8.35684 4.5062 8.5 5 8.5H5.5V9.5C5.5 9.77614 5.72386 10 6 10C6.27614 10 6.5 9.77614 6.5 9.5V8.5H9.5V9.5C9.5 9.77614 9.72386 10 10 10C10.2761 10 10.5 9.77614 10.5 9.5V8.5H11C11.4938 8.5 11.9542 8.35683 12.3418 8.10975C12.4446 8.29021 12.5 8.49581 12.5 8.70711V12.5C12.5 13.3284 11.8284 14 11 14H5C4.17157 14 3.5 13.3284 3.5 12.5V8.70711ZM1.5 10.5H2.5V12.5C2.5 12.6712 2.51721 12.8384 2.55001 13H2C1.72386 13 1.5 12.7761 1.5 12.5V10.5ZM13.5 10.5V12.5C13.5 12.6712 13.4828 12.8384 13.45 13H14C14.2761 13 14.5 12.7761 14.5 12.5V10.5H13.5ZM4 3.5C3.72386 3.5 3.5 3.72386 3.5 4V6C3.5 6.82843 4.17157 7.5 5 7.5H11C11.8284 7.5 12.5 6.82843 12.5 6V4C12.5 3.72386 12.2761 3.5 12 3.5H4Z" fill="#3B404A"/>
</svg>
