<svg width="16" height="16" viewBox="0 0 16 16" fill="none" xmlns="http://www.w3.org/2000/svg">
<path fill-rule="evenodd" clip-rule="evenodd" d="M12.2426 3.05025C12.4379 2.85499 12.7545 2.85499 12.9497 3.05025C15.6834 5.78392 15.6834 10.2161 12.9497 12.9497C10.2161 15.6834 5.78392 15.6834 3.05025 12.9497C2.85499 12.7545 2.85499 12.4379 3.05025 12.2426L12.2426 3.05025ZM12.5817 4.12543L4.12544 12.5817C6.48282 14.5797 10.0186 14.4667 12.2426 12.2426C14.4667 10.0186 14.5797 6.48281 12.5817 4.12543Z" fill="#3B404A"/>
<path fill-rule="evenodd" clip-rule="evenodd" d="M11.8746 3.41832C9.51718 1.42026 5.98144 1.53327 3.75736 3.75735C1.53327 5.98144 1.42026 9.51718 3.41833 11.8746L11.8746 3.41832ZM3.05025 3.05025C5.78392 0.316577 10.2161 0.31658 12.9497 3.05025C13.145 3.24551 13.145 3.56209 12.9497 3.75735L3.75736 12.9497C3.5621 13.145 3.24552 13.145 3.05025 12.9497C0.316584 10.2161 0.316581 5.78392 3.05025 3.05025Z" fill="#3B404A"/>
<path fill-rule="evenodd" clip-rule="evenodd" d="M12.9536 3.75357L3.75355 12.9536L3.04645 12.2465L12.2464 3.04647L12.9536 3.75357Z" fill="#3B404A"/>
</svg>
