<svg width="16" height="16" viewBox="0 0 16 16" fill="none" xmlns="http://www.w3.org/2000/svg">
<path d="M3.50001 4.00001C3.22387 4.00001 3.00001 4.22387 3.00001 4.50001V11.5C3.00001 11.7761 3.22387 12 3.50001 12H4.14816V4.00001H3.50001Z" fill="#3B404A"/>
<path d="M5.00001 4.00001H6.00001V12H5.00001V4.00001Z" fill="#3B404A"/>
<path d="M6.66668 4.00001H7.33334V12H6.66668V4.00001Z" fill="#3B404A"/>
<path d="M10.3333 4.00001H11V12H10.3333V4.00001Z" fill="#3B404A"/>
<path d="M11.6667 4.00001V12H12.5C12.7762 12 13 11.7761 13 11.5V4.50001C13 4.22387 12.7762 4.00001 12.5 4.00001H11.6667Z" fill="#3B404A"/>
<path d="M9.66668 4.00001H8.00001V12H9.66668V4.00001Z" fill="#3B404A"/>
<path fill-rule="evenodd" clip-rule="evenodd" d="M2 2.5C1.72386 2.5 1.5 2.72386 1.5 3V5C1.5 5.27614 1.27614 5.5 1 5.5C0.723858 5.5 0.5 5.27614 0.5 5V3C0.5 2.17157 1.17157 1.5 2 1.5H4.5C4.77614 1.5 5 1.72386 5 2C5 2.27614 4.77614 2.5 4.5 2.5H2ZM11 2C11 1.72386 11.2239 1.5 11.5 1.5H14C14.8284 1.5 15.5 2.17157 15.5 3V5C15.5 5.27614 15.2761 5.5 15 5.5C14.7239 5.5 14.5 5.27614 14.5 5V3C14.5 2.72386 14.2761 2.5 14 2.5H11.5C11.2239 2.5 11 2.27614 11 2ZM1 10.5C1.27614 10.5 1.5 10.7239 1.5 11V13C1.5 13.2761 1.72386 13.5 2 13.5H4.5C4.77614 13.5 5 13.7239 5 14C5 14.2761 4.77614 14.5 4.5 14.5H2C1.17157 14.5 0.5 13.8284 0.5 13V11C0.5 10.7239 0.723858 10.5 1 10.5ZM15 10.5C15.2761 10.5 15.5 10.7239 15.5 11V13C15.5 13.8284 14.8284 14.5 14 14.5H11.5C11.2239 14.5 11 14.2761 11 14C11 13.7239 11.2239 13.5 11.5 13.5H14C14.2761 13.5 14.5 13.2761 14.5 13V11C14.5 10.7239 14.7239 10.5 15 10.5Z" fill="#3B404A"/>
</svg>
