<svg width="16" height="16" viewBox="0 0 16 16" fill="none" xmlns="http://www.w3.org/2000/svg">
<path d="M6.49999 5.00009C6.22385 5.00009 5.99999 5.16798 5.99999 5.37509V10.6251C5.99999 10.8322 6.22385 11.0001 6.49999 11.0001H7.39814V5.00009H6.49999Z" fill="#3B404A"/>
<path d="M8.14815 5.00009H9.14815V11.0001H8.14815V5.00009Z" fill="#3B404A"/>
<path d="M10.4815 5.00009H9.81482V11.0001H10.4815V5.00009Z" fill="#3B404A"/>
<path d="M13.6852 5.00009V11.0001H14.5C14.7761 11.0001 15 10.8322 15 10.6251V5.37509C15 5.16798 14.7761 5.00009 14.5 5.00009H13.6852Z" fill="#3B404A"/>
<path d="M11.1482 5.00009H13V11.0001H11.1482V5.00009Z" fill="#3B404A"/>
<path d="M3.5 1.49997C2.67157 1.49997 2 2.17154 2 2.99997V4.49997H1.5C1.22386 4.49997 1 4.72383 1 4.99997C1 5.27611 1.22386 5.49997 1.5 5.49997H2V7.49997H1.5C1.22386 7.49997 1 7.72383 1 7.99997C1 8.27611 1.22386 8.49997 1.5 8.49997H2V10.5H1.5C1.22386 10.5 1 10.7238 1 11C1 11.2761 1.22386 11.5 1.5 11.5H2V13C2 13.8284 2.67157 14.5 3.5 14.5H12.5C13.3284 14.5 14 13.8284 14 13V12.0001H13V13C13 13.2761 12.7762 13.5 12.5 13.5H3.5C3.22386 13.5 3 13.2761 3 13V11.5H3.5C3.77614 11.5 4 11.2761 4 11C4 10.7238 3.77614 10.5 3.5 10.5H3V8.49997H3.5C3.77614 8.49997 4 8.27611 4 7.99997C4 7.72383 3.77614 7.49997 3.5 7.49997H3V5.49997H3.5C3.77614 5.49997 4 5.27611 4 4.99997C4 4.72383 3.77614 4.49997 3.5 4.49997H3V2.99997C3 2.72383 3.22386 2.49997 3.5 2.49997H12.5C12.7762 2.49997 13 2.72383 13 2.99997V4.00009H14V2.99997C14 2.17154 13.3284 1.49997 12.5 1.49997H3.5Z" fill="#3B404A"/>
</svg>
