<svg width="16" height="16" viewBox="0 0 16 16" fill="none" xmlns="http://www.w3.org/2000/svg">
<path fill-rule="evenodd" clip-rule="evenodd" d="M7.99989 2C5.79076 2 3.99989 3.79086 3.99989 6V10C3.99989 10.1135 3.96125 10.2237 3.89033 10.3123L2.54021 12H13.4596L12.1095 10.3123C12.0385 10.2237 11.9999 10.1135 11.9999 10V6C11.9999 3.79086 10.209 2 7.99989 2ZM2.99989 6C2.99989 3.23858 5.23847 1 7.99989 1C10.7613 1 12.9999 3.23858 12.9999 6V9.82461L14.2405 11.3753C14.7643 12.0301 14.2981 13 13.4596 13H10.4499C10.2183 14.1411 9.20937 15 7.99989 15C6.79042 15 5.78154 14.1411 5.5499 13H2.54021C1.7017 13 1.23553 12.0301 1.75934 11.3753L2.99989 9.82461V6ZM6.58525 13C6.79117 13.5826 7.34679 14 7.99989 14C8.653 14 9.20862 13.5826 9.41454 13H6.58525Z" fill="#3B404A"/>
</svg>
