<svg width="16" height="16" viewBox="0 0 16 16" fill="none" xmlns="http://www.w3.org/2000/svg">
<path fill-rule="evenodd" clip-rule="evenodd" d="M2.5 2C1.67157 2 1 2.67157 1 3.5V12.5C1 13.3284 1.67157 14 2.5 14H10C10.1326 14 10.2598 13.9473 10.3536 13.8536L14.8536 9.35355C14.9473 9.25979 15 9.13261 15 9V3.5C15 2.67157 14.3284 2 13.5 2H2.5ZM2 3.5C2 3.22386 2.22386 3 2.5 3H13.5C13.7761 3 14 3.22386 14 3.5V8.5H11C10.1716 8.5 9.5 9.17157 9.5 10V13H2.5C2.22386 13 2 12.7761 2 12.5V3.5ZM11 9.5H13.2929L10.5 12.2929V10C10.5 9.72386 10.7239 9.5 11 9.5ZM4.5 5C4.5 4.72386 4.27614 4.5 4 4.5C3.72386 4.5 3.5 4.72386 3.5 5V6.5C3.5 6.77614 3.72386 7 4 7C4.27614 7 4.5 6.77614 4.5 6.5V5ZM6.5 5C6.5 4.72386 6.27614 4.5 6 4.5C5.72386 4.5 5.5 4.72386 5.5 5V6.5C5.5 6.77614 5.72386 7 6 7C6.27614 7 6.5 6.77614 6.5 6.5V5ZM8.5 5C8.5 4.72386 8.27614 4.5 8 4.5C7.72386 4.5 7.5 4.72386 7.5 5V6.5C7.5 6.77614 7.72386 7 8 7C8.27614 7 8.5 6.77614 8.5 6.5V5ZM10.5 5C10.5 4.72386 10.2761 4.5 10 4.5C9.72386 4.5 9.5 4.72386 9.5 5V6.5C9.5 6.77614 9.72386 7 10 7C10.2761 7 10.5 6.77614 10.5 6.5V5Z" fill="#3B404A"/>
</svg>
