<svg width="16" height="16" viewBox="0 0 16 16" fill="none" xmlns="http://www.w3.org/2000/svg">
<path d="M5.25 3C5.25 3 6 3 6 2.25C6 1.5 5.25 1 5.25 1C5.25 1 4.5 1.5 4.5 2.25C4.5 3 5.25 3 5.25 3Z" fill="#3B404A"/>
<path d="M10.75 3C10.75 3 11.5 3 11.5 2.25C11.5 1.5 10.75 1 10.75 1C10.75 1 10 1.5 10 2.25C10 3 10.75 3 10.75 3Z" fill="#3B404A"/>
<path fill-rule="evenodd" clip-rule="evenodd" d="M5.25 3.5C5.52614 3.5 5.75 3.72386 5.75 4V5H7.5V4C7.5 3.72386 7.72386 3.5 8 3.5C8.27614 3.5 8.5 3.72386 8.5 4V5H10.25V4C10.25 3.72386 10.4739 3.5 10.75 3.5C11.0261 3.5 11.25 3.72386 11.25 4V5H11.5C12.3284 5 13 5.67157 13 6.5V8H13.5C14.3284 8 15 8.67157 15 9.5V13.5C15 14.3284 14.3284 15 13.5 15H2.5C1.67157 15 1 14.3284 1 13.5V9.5C1 8.67157 1.67157 8 2.5 8H3V6.5C3 5.67157 3.67157 5 4.5 5H4.75V4C4.75 3.72386 4.97386 3.5 5.25 3.5ZM2.5 9H13.5C13.7761 9 14 9.22386 14 9.5V11.108L13.8924 11.0087C13.3179 10.4783 12.4322 10.4783 11.8576 11.0087L11.5892 11.2565C11.3976 11.4333 11.1024 11.4333 10.9109 11.2565L10.6424 11.0087C10.0679 10.4783 9.1822 10.4783 8.60761 11.0087L8.33917 11.2565C8.14764 11.4333 7.85242 11.4333 7.66089 11.2565L7.39245 11.0087C6.81786 10.4783 5.9322 10.4783 5.35761 11.0087L5.08917 11.2565C4.89764 11.4333 4.60242 11.4333 4.41089 11.2565L4.14245 11.0087C3.56786 10.4783 2.6822 10.4783 2.10761 11.0087L2 11.108V9.5C2 9.22386 2.22386 9 2.5 9ZM2 12.4689V13.5C2 13.7761 2.22386 14 2.5 14H13.5C13.7761 14 14 13.7761 14 13.5V12.4689L13.2142 11.7435C13.0226 11.5667 12.7274 11.5667 12.5359 11.7435L12.2674 11.9913C11.6929 12.5217 10.8072 12.5217 10.2326 11.9913L9.96417 11.7435C9.77264 11.5667 9.47742 11.5667 9.28589 11.7435L9.01745 11.9913C8.44286 12.5217 7.5572 12.5217 6.98261 11.9913L6.71417 11.7435C6.52264 11.5667 6.22742 11.5667 6.03589 11.7435L5.76745 11.9913C5.19286 12.5217 4.3072 12.5217 3.73261 11.9913L3.46417 11.7435C3.27264 11.5667 2.97742 11.5667 2.78589 11.7435L2 12.4689ZM4 6.5V8H12V6.5C12 6.22386 11.7761 6 11.5 6H4.5C4.22386 6 4 6.22386 4 6.5Z" fill="#3B404A"/>
<path d="M8.75 2.25C8.75 3 8 3 8 3C8 3 7.25 3 7.25 2.25C7.25 1.5 8 1 8 1C8 1 8.75 1.5 8.75 2.25Z" fill="#3B404A"/>
</svg>
