<svg width="16" height="16" viewBox="0 0 16 16" fill="none" xmlns="http://www.w3.org/2000/svg">
<path fill-rule="evenodd" clip-rule="evenodd" d="M2.99976 3.5C2.99976 2.39543 3.89519 1.5 4.99976 1.5H10.9998C12.1043 1.5 12.9998 2.39543 12.9998 3.5V14C12.9998 14.7987 12.1096 15.2751 11.4451 14.832L7.99976 12.5352L4.55446 14.832C3.8899 15.2751 2.99976 14.7987 2.99976 14V3.5ZM4.99976 2.5C4.44747 2.5 3.99976 2.94771 3.99976 3.5V14L7.44506 11.7031C7.78096 11.4792 8.21856 11.4792 8.55446 11.7031L11.9998 14V3.5C11.9998 2.94771 11.552 2.5 10.9998 2.5H4.99976Z" fill="#3B404A"/>
</svg>
