<svg width="16" height="16" viewBox="0 0 16 16" fill="none" xmlns="http://www.w3.org/2000/svg">
<path fill-rule="evenodd" clip-rule="evenodd" d="M1.49988 3.1656C1.49988 2.24628 2.31932 1.54327 3.22795 1.68306L8.57583 2.50581C8.81975 2.54333 8.9998 2.7532 8.9998 2.99999L8.9998 13.9999C8.9998 14.1458 8.93609 14.2844 8.82537 14.3794C8.71465 14.4743 8.56797 14.5162 8.42378 14.4941L2.77178 13.6245C2.04004 13.5119 1.49988 12.8823 1.49988 12.142L1.49988 3.1656ZM3.07589 2.67142C2.77301 2.62482 2.49987 2.85916 2.49987 3.1656L2.49987 12.142C2.49987 12.3888 2.67992 12.5986 2.92383 12.6362L7.99981 13.4171L7.99981 3.42894L3.07589 2.67142Z" fill="#3B404A"/>
<path fill-rule="evenodd" clip-rule="evenodd" d="M13.9998 3.1805C13.9998 2.87154 13.7223 2.63652 13.4176 2.68731L8.9998 3.4236V13.4097L13.582 12.646C13.823 12.6058 13.9998 12.3972 13.9998 12.1528V3.1805ZM13.2532 1.70093C14.1674 1.54855 14.9997 2.2536 14.9997 3.1805V12.1528C14.9997 12.8861 14.4696 13.5119 13.7464 13.6324L8.58201 14.4931C8.43703 14.5173 8.28877 14.4764 8.17662 14.3814C8.06448 14.2864 7.99981 14.1469 7.99981 13.9999V3.00004C7.99981 2.75563 8.17652 2.54703 8.41761 2.50685L13.2532 1.70093Z" fill="#3B404A"/>
<path fill-rule="evenodd" clip-rule="evenodd" d="M7.99981 13.9999V3.00004L8.9998 2.99999L8.9998 13.9999L7.99981 13.9999Z" fill="#3B404A"/>
</svg>
