<svg width="16" height="16" viewBox="0 0 16 16" fill="none" xmlns="http://www.w3.org/2000/svg">
<path fill-rule="evenodd" clip-rule="evenodd" d="M1.50007 12.5C1.50007 11.9477 1.94779 11.5 2.50007 11.5H13.5001C14.0524 11.5 14.5001 11.9477 14.5001 12.5V13.5C14.5001 14.0523 14.0524 14.5 13.5001 14.5H2.50007C1.94779 14.5 1.50007 14.0523 1.50007 13.5V12.5ZM13.5001 12.5H2.50007V13.5H13.5001V12.5Z" fill="#3B404A"/>
<path fill-rule="evenodd" clip-rule="evenodd" d="M2.50007 6.50003C2.50007 6.22389 2.72393 6.00003 3.00007 6.00003H5.00007C5.27622 6.00003 5.50007 6.22389 5.50007 6.50003V12C5.50007 12.2762 5.27622 12.5 5.00007 12.5H3.00007C2.72393 12.5 2.50007 12.2762 2.50007 12V6.50003ZM3.50007 7.00003V11.5H4.50007V7.00003H3.50007ZM6.50007 6.50003C6.50007 6.22389 6.72393 6.00003 7.00007 6.00003H9.00007C9.27622 6.00003 9.50007 6.22389 9.50007 6.50003V12C9.50007 12.2762 9.27622 12.5 9.00007 12.5H7.00007C6.72393 12.5 6.50007 12.2762 6.50007 12V6.50003ZM7.50007 7.00003V11.5H8.50007V7.00003H7.50007ZM10.5001 6.50003C10.5001 6.22389 10.7239 6.00003 11.0001 6.00003H13.0001C13.2762 6.00003 13.5001 6.22389 13.5001 6.50003V12C13.5001 12.2762 13.2762 12.5 13.0001 12.5H11.0001C10.7239 12.5 10.5001 12.2762 10.5001 12V6.50003ZM11.5001 7.00003V11.5H12.5001V7.00003H11.5001Z" fill="#3B404A"/>
<path fill-rule="evenodd" clip-rule="evenodd" d="M7.46133 1.24709C7.79461 1.03878 8.21901 1.04502 8.54603 1.26303L14.4034 5.16794C15.2266 5.71677 14.8381 6.99999 13.8487 6.99999H1.74348C0.738789 6.99999 0.3615 5.68448 1.21348 5.152L7.46133 1.24709ZM7.99133 2.09509L1.74348 5.99999H13.8487L7.99133 2.09509Z" fill="#3B404A"/>
<path fill-rule="evenodd" clip-rule="evenodd" d="M8.43318 4.25003C8.47573 4.17649 8.50007 4.0911 8.50007 4.00003C8.50007 3.72389 8.27622 3.50003 8.00007 3.50003C7.58586 3.50003 7.25007 3.83582 7.25007 4.25003C7.25007 4.66425 7.58586 5.00003 8.00007 5.00003C8.27622 5.00003 8.50007 4.77618 8.50007 4.50003C8.50007 4.40896 8.47573 4.32358 8.43318 4.25003Z" fill="#3B404A"/>
<path fill-rule="evenodd" clip-rule="evenodd" d="M7.56697 4.25003C7.52442 4.17649 7.50007 4.0911 7.50007 4.00003C7.50007 3.72389 7.72393 3.50003 8.00007 3.50003C8.41429 3.50003 8.75007 3.83582 8.75007 4.25003C8.75007 4.66425 8.41429 5.00003 8.00007 5.00003C7.72393 5.00003 7.50007 4.77618 7.50007 4.50003C7.50007 4.40896 7.52442 4.32358 7.56697 4.25003Z" fill="#3B404A"/>
</svg>
