<svg width="16" height="16" viewBox="0 0 16 16" fill="none" xmlns="http://www.w3.org/2000/svg">
<path fill-rule="evenodd" clip-rule="evenodd" d="M4 2.49999C3.72386 2.49999 3.5 2.72385 3.5 2.99999V13.5H5.5V10.5C5.5 9.94771 5.94772 9.49999 6.5 9.49999H9.5C10.0523 9.49999 10.5 9.94771 10.5 10.5V13.5H12.5V2.99999C12.5 2.72385 12.2761 2.49999 12 2.49999H4ZM2.5 2.99999C2.5 2.17156 3.17157 1.49999 4 1.49999H12C12.8284 1.49999 13.5 2.17157 13.5 2.99999V14C13.5 14.2761 13.2761 14.5 13 14.5H10C9.72386 14.5 9.5 14.2761 9.5 14V10.5H6.5V14C6.5 14.2761 6.27614 14.5 6 14.5H3C2.72386 14.5 2.5 14.2761 2.5 14V2.99999Z" fill="#3B404A"/>
<path fill-rule="evenodd" clip-rule="evenodd" d="M5.5 10.5C5.5 9.94771 5.94772 9.49999 6.5 9.49999H9.5C10.0523 9.49999 10.5 9.94771 10.5 10.5V14C10.5 14.2761 10.2761 14.5 10 14.5H6C5.72386 14.5 5.5 14.2761 5.5 14V10.5ZM9.5 10.5H6.5V13.5H9.5V10.5Z" fill="#3B404A"/>
<path fill-rule="evenodd" clip-rule="evenodd" d="M5.25 3.99999C5.25 3.72385 5.47386 3.49999 5.75 3.49999H6.75C7.02614 3.49999 7.25 3.72385 7.25 3.99999C7.25 4.27613 7.02614 4.49999 6.75 4.49999H5.75C5.47386 4.49999 5.25 4.27613 5.25 3.99999ZM8.75 3.99999C8.75 3.72385 8.97386 3.49999 9.25 3.49999H10.25C10.5261 3.49999 10.75 3.72385 10.75 3.99999C10.75 4.27613 10.5261 4.49999 10.25 4.49999H9.25C8.97386 4.49999 8.75 4.27613 8.75 3.99999ZM5.25 5.99999C5.25 5.72385 5.47386 5.49999 5.75 5.49999H6.75C7.02614 5.49999 7.25 5.72385 7.25 5.99999C7.25 6.27613 7.02614 6.49999 6.75 6.49999H5.75C5.47386 6.49999 5.25 6.27613 5.25 5.99999ZM8.75 5.99999C8.75 5.72385 8.97386 5.49999 9.25 5.49999H10.25C10.5261 5.49999 10.75 5.72385 10.75 5.99999C10.75 6.27613 10.5261 6.49999 10.25 6.49999H9.25C8.97386 6.49999 8.75 6.27613 8.75 5.99999ZM5.25 7.99999C5.25 7.72385 5.47386 7.49999 5.75 7.49999H6.75C7.02614 7.49999 7.25 7.72385 7.25 7.99999C7.25 8.27613 7.02614 8.49999 6.75 8.49999H5.75C5.47386 8.49999 5.25 8.27613 5.25 7.99999ZM8.75 7.99999C8.75 7.72385 8.97386 7.49999 9.25 7.49999H10.25C10.5261 7.49999 10.75 7.72385 10.75 7.99999C10.75 8.27613 10.5261 8.49999 10.25 8.49999H9.25C8.97386 8.49999 8.75 8.27613 8.75 7.99999Z" fill="#3B404A"/>
<path fill-rule="evenodd" clip-rule="evenodd" d="M2 14C2 13.7239 2.22386 13.5 2.5 13.5H13.5C13.7761 13.5 14 13.7239 14 14C14 14.2761 13.7761 14.5 13.5 14.5H2.5C2.22386 14.5 2 14.2761 2 14Z" fill="#3B404A"/>
</svg>
