<svg width="16" height="16" viewBox="0 0 16 16" fill="none" xmlns="http://www.w3.org/2000/svg">
<path fill-rule="evenodd" clip-rule="evenodd" d="M1.5 3.50001C1.5 2.67158 2.17157 2.00001 3 2.00001H13C13.8284 2.00001 14.5 2.67158 14.5 3.50001V13C14.5 13.8284 13.8284 14.5 13 14.5H3C2.17157 14.5 1.5 13.8284 1.5 13V3.50001ZM3 3.00001C2.72386 3.00001 2.5 3.22387 2.5 3.50001V13C2.5 13.2761 2.72386 13.5 3 13.5H13C13.2761 13.5 13.5 13.2761 13.5 13V3.50001C13.5 3.22387 13.2761 3.00001 13 3.00001H3Z" fill="#3B404A"/>
<path fill-rule="evenodd" clip-rule="evenodd" d="M8 5.50001C8.27614 5.50001 8.5 5.72387 8.5 6.00001V8.00001H10.5C10.7761 8.00001 11 8.22387 11 8.50001C11 8.77615 10.7761 9.00001 10.5 9.00001H8.5V11C8.5 11.2762 8.27614 11.5 8 11.5C7.72386 11.5 7.5 11.2762 7.5 11V9.00001H5.5C5.22386 9.00001 5 8.77615 5 8.50001C5 8.22387 5.22386 8.00001 5.5 8.00001H7.5V6.00001C7.5 5.72387 7.72386 5.50001 8 5.50001Z" fill="#3B404A"/>
<path fill-rule="evenodd" clip-rule="evenodd" d="M5.5 1.00001C5.77614 1.00001 6 1.22387 6 1.50001V3.50001C6 3.77615 5.77614 4.00001 5.5 4.00001C5.22386 4.00001 5 3.77615 5 3.50001V1.50001C5 1.22387 5.22386 1.00001 5.5 1.00001ZM10.5 1.00001C10.7761 1.00001 11 1.22387 11 1.50001V3.50001C11 3.77615 10.7761 4.00001 10.5 4.00001C10.2239 4.00001 10 3.77615 10 3.50001V1.50001C10 1.22387 10.2239 1.00001 10.5 1.00001Z" fill="#3B404A"/>
</svg>
