<svg width="16" height="16" viewBox="0 0 16 16" fill="none" xmlns="http://www.w3.org/2000/svg">
<path fill-rule="evenodd" clip-rule="evenodd" d="M1 3.5C1 2.67157 1.67157 2 2.5 2H4.5C4.77614 2 5 2.22386 5 2.5C5 2.77614 4.77614 3 4.5 3H2.5C2.22386 3 2 3.22386 2 3.5V5.5C2 5.77614 1.77614 6 1.5 6C1.22386 6 1 5.77614 1 5.5V3.5ZM11 2.5C11 2.22386 11.2239 2 11.5 2H13.5C14.3284 2 15 2.67157 15 3.5V5.5C15 5.77614 14.7761 6 14.5 6C14.2239 6 14 5.77614 14 5.5V3.5C14 3.22386 13.7761 3 13.5 3H11.5C11.2239 3 11 2.77614 11 2.5ZM1.5 10C1.77614 10 2 10.2239 2 10.5V12.5C2 12.7761 2.22386 13 2.5 13H4.5C4.77614 13 5 13.2239 5 13.5C5 13.7761 4.77614 14 4.5 14H2.5C1.67157 14 1 13.3284 1 12.5V10.5C1 10.2239 1.22386 10 1.5 10ZM14.5 10C14.7761 10 15 10.2239 15 10.5V12.5C15 13.3284 14.3284 14 13.5 14H11.5C11.2239 14 11 13.7761 11 13.5C11 13.2239 11.2239 13 11.5 13H13.5C13.7761 13 14 12.7761 14 12.5V10.5C14 10.2239 14.2239 10 14.5 10Z" fill="#3B404A"/>
<path fill-rule="evenodd" clip-rule="evenodd" d="M8 5.5C6.61929 5.5 5.5 6.61929 5.5 8C5.5 9.38071 6.61929 10.5 8 10.5C9.38071 10.5 10.5 9.38071 10.5 8C10.5 6.61929 9.38071 5.5 8 5.5ZM4.5 8C4.5 6.067 6.067 4.5 8 4.5C9.933 4.5 11.5 6.067 11.5 8C11.5 9.933 9.933 11.5 8 11.5C6.067 11.5 4.5 9.933 4.5 8Z" fill="#3B404A"/>
</svg>
