<svg width="16" height="16" viewBox="0 0 16 16" fill="none" xmlns="http://www.w3.org/2000/svg">
<path fill-rule="evenodd" clip-rule="evenodd" d="M1 5.50008H1.5C1.81476 5.50008 2.11115 4.69127 2.3 4.43946L3.2 3.42357C3.38885 3.17176 3.68524 3.02357 4 3.02357H10.2218C10.487 3.02357 10.7414 3.12893 10.9289 3.31646L13.3787 6.24273C13.5435 6.40751 13.767 6.50008 14 6.50008C15 6.50008 16 7.50014 16 9.13612V10.5001C16 11.0524 15.5523 11.5001 15 11.5001L14.5 11.5C14.5 10.1192 13.3807 8.99996 12 8.99996C10.6193 8.99996 9.5 10.1194 9.5 11.5001L6 11.5C6 10.1192 4.88071 8.99996 3.5 8.99996C2.11929 8.99996 1 10.1194 1 11.5001C0.447715 11.5001 0 11.0524 0 10.5001V6.50008C0 5.9478 0.447715 5.50008 1 5.50008ZM6.5 4.00014H9.81646C9.95588 4.00014 10.089 4.05835 10.1836 4.16073L12.25 6.50014L7 6.50026C6.72386 6.50026 6.5 6.2764 6.5 6.00026V4.00014Z" fill="#3B404A"/>
<path d="M5 11.5C5 10.6715 4.32843 9.99996 3.5 9.99996C2.67157 9.99996 2 10.6715 2 11.5C2 12.3284 2.67157 13 3.5 13C4.32843 13 5 12.3284 5 11.5Z" fill="#3B404A"/>
<path d="M13.5 11.5C13.5 10.6715 12.8284 9.99996 12 9.99996C11.1716 9.99996 10.5 10.6715 10.5 11.5C10.5 12.3284 11.1716 13 12 13C12.8284 13 13.5 12.3284 13.5 11.5Z" fill="#3B404A"/>
</svg>
