<svg width="16" height="16" viewBox="0 0 16 16" fill="none" xmlns="http://www.w3.org/2000/svg">
<path fill-rule="evenodd" clip-rule="evenodd" d="M12.71 6.01L10.15 3.44C9.87 3.16 9.49 3 9.09 3H4.5C4.03 3 3.58 3.22 3.3 3.6L2.4 4.8C2.31 4.93 2.16 5 2 5H1.75C0.92 5 0.25 5.67 0.25 6.5V10.5C0.25 11.33 0.92 12 1.75 12H2C2 12 2.04 12 2.06 12C2.29 13 3.18 13.75 4.25 13.75C5.32 13.75 6.22 13 6.44 12H9.55C9.78 13 10.67 13.75 11.74 13.75C12.81 13.75 13.71 13 13.93 12H14.24C15.07 12 15.74 11.33 15.74 10.5V9.25C15.74 7.53 14.4 6.12 12.7 6.01H12.71ZM7.25 4H9.09C9.22 4 9.35 4.05 9.44 4.15L11.29 6H7.75C7.47 6 7.25 5.78 7.25 5.5V4ZM4.25 12.75C3.56 12.75 3 12.19 3 11.5C3 10.81 3.56 10.25 4.25 10.25C4.94 10.25 5.5 10.81 5.5 11.5C5.5 12.19 4.94 12.75 4.25 12.75ZM11.75 12.75C11.06 12.75 10.5 12.19 10.5 11.5C10.5 10.81 11.06 10.25 11.75 10.25C12.44 10.25 13 10.81 13 11.5C13 12.19 12.44 12.75 11.75 12.75ZM14.75 10.5C14.75 10.78 14.53 11 14.25 11H13.94C13.71 10 12.82 9.25 11.75 9.25C10.68 9.25 9.78 10 9.56 11H6.45C6.22 10 5.33 9.25 4.26 9.25C3.19 9.25 2.29 10 2.07 11C2.05 11 2.03 11 2.01 11H1.76C1.48 11 1.26 10.78 1.26 10.5V6.5C1.26 6.22 1.48 6 1.76 6H2.01C2.48 6 2.93 5.78 3.21 5.4L4.11 4.2C4.2 4.07 4.35 4 4.51 4H6.26V5.5C6.26 6.33 6.93 7 7.76 7H12.51C13.75 7 14.76 8.01 14.76 9.25V10.5H14.75Z" fill="#3B404A"/>
</svg>
