<svg width="16" height="16" viewBox="0 0 16 16" fill="none" xmlns="http://www.w3.org/2000/svg">
<path fill-rule="evenodd" clip-rule="evenodd" d="M13.9793 7.4999H8.49988V2.02044C11.4148 2.26091 13.7389 4.585 13.9793 7.4999ZM14.9999 7.9999C14.9999 4.13391 11.8659 0.999901 7.99988 0.999901C7.72374 0.999901 7.49988 1.22376 7.49988 1.4999V7.9999C7.49988 8.27604 7.72374 8.4999 7.99988 8.4999H14.4999C14.776 8.4999 14.9999 8.27604 14.9999 7.9999Z" fill="#3B404A"/>
<path fill-rule="evenodd" clip-rule="evenodd" d="M6.47567 1.65968C6.56055 1.92245 6.41635 2.20428 6.15358 2.28917C3.74268 3.068 1.99988 5.33107 1.99988 7.99988C1.99988 11.3136 4.68617 13.9999 7.99988 13.9999C10.6687 13.9999 12.9318 12.2571 13.7106 9.84617C13.7955 9.5834 14.0773 9.4392 14.3401 9.52409C14.6029 9.60897 14.7471 9.89081 14.6622 10.1536C13.7539 12.9652 11.1151 14.9999 7.99988 14.9999C4.13388 14.9999 0.999878 11.8659 0.999878 7.99988C0.999878 4.88461 3.03455 2.24587 5.84618 1.33759C6.10895 1.2527 6.39078 1.3969 6.47567 1.65968Z" fill="#3B404A"/>
</svg>
