<svg width="16" height="16" viewBox="0 0 16 16" fill="none" xmlns="http://www.w3.org/2000/svg">
<path fill-rule="evenodd" clip-rule="evenodd" d="M2.00005 1.5C2.27622 1.5 2.5001 1.72388 2.5001 2.00005V13.0012C2.5001 13.2773 2.72398 13.5012 3.00015 13.5012H14.0013C14.2774 13.5012 14.5013 13.7251 14.5013 14.0013C14.5013 14.2774 14.2774 14.5013 14.0013 14.5013H3.00015C2.17164 14.5013 1.5 13.8297 1.5 13.0012V2.00005C1.5 1.72388 1.72388 1.5 2.00005 1.5ZM13.5012 4.00025C13.7774 4.00025 14.0013 4.22413 14.0013 4.5003V12.001C14.0013 12.2772 13.7774 12.5011 13.5012 12.5011C13.225 12.5011 13.0012 12.2772 13.0012 12.001V4.5003C13.0012 4.22413 13.225 4.00025 13.5012 4.00025ZM7.5006 5.5004C7.77677 5.5004 8.00065 5.72428 8.00065 6.00045V12.001C8.00065 12.2772 7.77677 12.5011 7.5006 12.5011C7.22443 12.5011 7.00055 12.2772 7.00055 12.001V6.00045C7.00055 5.72428 7.22443 5.5004 7.5006 5.5004ZM10.5009 7.00055C10.7771 7.00055 11.0009 7.22443 11.0009 7.5006V12.001C11.0009 12.2772 10.7771 12.5011 10.5009 12.5011C10.2247 12.5011 10.0008 12.2772 10.0008 12.001V7.5006C10.0008 7.22443 10.2247 7.00055 10.5009 7.00055ZM4.5003 8.00065C4.77647 8.00065 5.00035 8.22453 5.00035 8.5007V12.001C5.00035 12.2772 4.77647 12.5011 4.5003 12.5011C4.22413 12.5011 4.00025 12.2772 4.00025 12.001V8.5007C4.00025 8.22453 4.22413 8.00065 4.5003 8.00065Z" fill="#3B404A"/>
</svg>
