<svg width="16" height="16" viewBox="0 0 16 16" fill="none" xmlns="http://www.w3.org/2000/svg">
<path fill-rule="evenodd" clip-rule="evenodd" d="M1.99981 1.49985C2.27595 1.49985 2.49981 1.72371 2.49981 1.99985V12.9999C2.49981 13.276 2.72367 13.4999 2.99981 13.4999H13.9998C14.276 13.4999 14.4998 13.7237 14.4998 13.9999C14.4998 14.276 14.276 14.4999 13.9998 14.4999H2.99981C2.17138 14.4999 1.49981 13.8283 1.49981 12.9999V1.99985C1.49981 1.72371 1.72367 1.49985 1.99981 1.49985Z" fill="#3B404A"/>
<path fill-rule="evenodd" clip-rule="evenodd" d="M14.2648 4.07585C14.499 4.22221 14.5702 4.53068 14.4238 4.76485L11.9238 8.76485C11.8379 8.90232 11.6907 8.9896 11.5288 8.99901C11.367 9.00842 11.2106 8.93878 11.1094 8.8122L9.54999 6.86296L7.42381 10.2649C7.33789 10.4023 7.19066 10.4896 7.02883 10.499C6.86699 10.5084 6.71064 10.4388 6.60938 10.3122L5.03654 8.34615L2.41583 12.2772C2.26266 12.507 1.95222 12.5691 1.72246 12.4159C1.49269 12.2627 1.43061 11.9523 1.58378 11.7225L4.58378 7.2225C4.67227 7.08978 4.81877 7.00724 4.97813 7.00032C5.1375 6.99341 5.2906 7.06294 5.39024 7.1875L6.94963 9.13674L9.07581 5.73485C9.16173 5.59739 9.30896 5.5101 9.47079 5.50069C9.63262 5.49129 9.78898 5.56092 9.89024 5.6875L11.4496 7.63674L13.5758 4.23485C13.7222 4.00068 14.0306 3.9295 14.2648 4.07585Z" fill="#3B404A"/>
</svg>
