<svg width="16" height="16" viewBox="0 0 16 16" fill="none" xmlns="http://www.w3.org/2000/svg">
<path fill-rule="evenodd" clip-rule="evenodd" d="M10.5 1.99999L12.5 1.99999C13.3284 1.99999 14 2.67157 14 3.49999V13.5C14 14.3284 13.3284 15 12.5 15H3.5C2.67157 15 2 14.3284 2 13.5V3.49999C2 2.67157 2.67157 1.99999 3.5 1.99999L4.99977 2L5.5 2V2.49548C5.50008 2.49748 5.50027 2.50151 5.50068 2.50734C5.50169 2.52139 5.50394 2.54473 5.50882 2.57405C5.51899 2.63505 5.53839 2.70875 5.57221 2.77639C5.60506 2.84207 5.64647 2.89255 5.69922 2.92772C5.74885 2.9608 5.83749 2.99999 6 2.99999H10C10.1625 2.99999 10.2511 2.9608 10.3008 2.92772C10.3535 2.89255 10.3949 2.84207 10.4278 2.77639C10.4616 2.70874 10.481 2.63505 10.4912 2.57404C10.4961 2.54473 10.4983 2.52139 10.4993 2.50734C10.4997 2.50152 10.4999 2.49748 10.5 2.49549V1.99999ZM4.58632 3L3.5 2.99999C3.22386 2.99999 3 3.22385 3 3.49999V13.5C3 13.7761 3.22386 14 3.5 14H12.5C12.7761 14 13 13.7761 13 13.5V3.49999C13 3.22385 12.7761 2.99999 12.5 2.99999L11.4137 2.99999C11.3904 3.07129 11.3606 3.14691 11.3222 3.2236C11.2301 3.40792 11.084 3.60744 10.8555 3.75977C10.6239 3.91418 10.3375 3.99999 10 3.99999H6C5.66251 3.99999 5.37615 3.91418 5.14453 3.75977C4.91603 3.60744 4.76994 3.40792 4.67779 3.2236C4.63944 3.14691 4.6096 3.07129 4.58632 3Z" fill="#3B404A"/>
<path fill-rule="evenodd" clip-rule="evenodd" d="M4.5 6.49999C4.5 6.22385 4.72386 5.99999 5 5.99999H11C11.2761 5.99999 11.5 6.22385 11.5 6.49999C11.5 6.77613 11.2761 6.99999 11 6.99999H5C4.72386 6.99999 4.5 6.77613 4.5 6.49999ZM4.5 8.99999C4.5 8.72385 4.72386 8.49999 5 8.49999H11C11.2761 8.49999 11.5 8.72385 11.5 8.99999C11.5 9.27614 11.2761 9.49999 11 9.49999H5C4.72386 9.49999 4.5 9.27614 4.5 8.99999ZM4.5 11.5C4.5 11.2239 4.72386 11 5 11H9C9.27614 11 9.5 11.2239 9.5 11.5C9.5 11.7761 9.27614 12 9 12H5C4.72386 12 4.5 11.7761 4.5 11.5Z" fill="#3B404A"/>
<path fill-rule="evenodd" clip-rule="evenodd" d="M4.5 2.49999C4.5 1.67157 5.17157 0.999992 6 0.999992H10C10.8284 0.999992 11.5 1.67157 11.5 2.49999C11.5 3.32842 10.8284 3.99999 10 3.99999H6C5.17157 3.99999 4.5 3.32842 4.5 2.49999ZM6 1.99999C5.72386 1.99999 5.5 2.22385 5.5 2.49999C5.5 2.77613 5.72386 2.99999 6 2.99999H10C10.2761 2.99999 10.5 2.77613 10.5 2.49999C10.5 2.22385 10.2761 1.99999 10 1.99999H6Z" fill="#3B404A"/>
</svg>
