<svg width="16" height="16" viewBox="0 0 16 16" fill="none" xmlns="http://www.w3.org/2000/svg">
<path fill-rule="evenodd" clip-rule="evenodd" d="M12.6124 2.91957C12.7453 2.91974 12.8728 2.97287 12.9665 3.06721C14.2228 4.33207 14.9999 6.07582 14.9999 8.0001C14.9999 11.8661 11.8659 15.0001 7.99994 15.0001C6.07983 15.0001 4.33947 14.2264 3.07528 12.9748C2.98079 12.8813 2.92745 12.7539 2.92706 12.621C2.92667 12.488 2.97926 12.3603 3.07321 12.2662L12.2579 3.06631C12.3518 2.97221 12.4794 2.9194 12.6124 2.91957ZM4.15042 12.6026C5.19256 13.4753 6.53458 14.0001 7.99994 14.0001C11.3136 14.0001 13.9999 11.3138 13.9999 8.0001C13.9999 6.53118 13.4726 5.18619 12.5961 4.14296L4.15042 12.6026Z" fill="#3B404A"/>
<path fill-rule="evenodd" clip-rule="evenodd" d="M3.05044 3.04243C5.12392 0.968947 8.00991 0.465548 10.6855 1.53578C10.9419 1.63833 11.0666 1.92932 10.964 2.18571C10.8615 2.4421 10.5705 2.56681 10.3141 2.46425C7.98967 1.53448 5.53305 1.97404 3.75755 3.74954C1.986 5.52109 1.535 7.99124 2.46406 10.3101C2.56676 10.5664 2.44222 10.8574 2.18589 10.9601C1.92956 11.0629 1.6385 10.9383 1.5358 10.682C0.464758 8.0088 0.983033 5.10984 3.05044 3.04243Z" fill="#3B404A"/>
<path fill-rule="evenodd" clip-rule="evenodd" d="M7.58387 7.72279C7.73705 7.49302 8.04748 7.43093 8.27725 7.58411L11.2772 9.58411C11.507 9.73729 11.5691 10.0477 11.4159 10.2775C11.2627 10.5073 10.9523 10.5693 10.7225 10.4162L7.72255 8.41616C7.49278 8.26299 7.4307 7.95255 7.58387 7.72279Z" fill="#3B404A"/>
<path fill-rule="evenodd" clip-rule="evenodd" d="M7.99988 3.50014C8.27602 3.50014 8.49988 3.72399 8.49988 4.00014V5.00014C8.49988 5.27628 8.27602 5.50014 7.99988 5.50014C7.72373 5.50014 7.49988 5.27628 7.49988 5.00014V4.00014C7.49988 3.72399 7.72373 3.50014 7.99988 3.50014Z" fill="#3B404A"/>
<path fill-rule="evenodd" clip-rule="evenodd" d="M14.3535 1.64646C14.5487 1.84172 14.5487 2.15831 14.3535 2.35357L2.35348 14.3536C2.15822 14.5488 1.84164 14.5488 1.64638 14.3536C1.45111 14.1583 1.45111 13.8417 1.64638 13.6465L13.6464 1.64646C13.8416 1.4512 14.1582 1.4512 14.3535 1.64646Z" fill="#3B404A"/>
</svg>
