<svg width="16" height="16" viewBox="0 0 16 16" fill="none" xmlns="http://www.w3.org/2000/svg">
<path fill-rule="evenodd" clip-rule="evenodd" d="M5.82556 2.13618C5.9925 1.46843 6.59247 0.999985 7.28077 0.999985H8.71922C9.40752 0.999985 10.0075 1.46843 10.1744 2.13618L10.4033 3.05158C10.6399 3.16669 10.867 3.29824 11.083 3.44471L11.991 3.18497C12.6528 2.99566 13.3584 3.28103 13.7026 3.87712L14.4218 5.12285C14.766 5.71894 14.6603 6.47275 14.1654 6.9512L13.4862 7.60796C13.4954 7.73751 13.5 7.86825 13.5 7.99998C13.5 8.13173 13.4954 8.26248 13.4862 8.39205L14.1654 9.04877C14.6602 9.52722 14.7659 10.281 14.4218 10.8771L13.7026 12.1229C13.3584 12.7189 12.6527 13.0043 11.991 12.815L11.083 12.5553C10.867 12.7017 10.6399 12.8333 10.4033 12.9484L10.1744 13.8638C10.0075 14.5315 9.40752 15 8.71922 15H7.28077C6.59247 15 5.9925 14.5315 5.82556 13.8638L5.59671 12.9484C5.36009 12.8333 5.13303 12.7017 4.917 12.5553L4.00904 12.815C3.34728 13.0043 2.64161 12.7189 2.29746 12.1229L1.57823 10.8771C1.23408 10.281 1.33978 9.52722 1.8346 9.04877L2.51378 8.39207C2.50464 8.26249 2.49999 8.13174 2.49999 7.99998C2.49999 7.86824 2.50464 7.7375 2.51377 7.60793L1.83457 6.9512C1.33975 6.47276 1.23405 5.71894 1.5782 5.12285L2.29742 3.87712C2.64158 3.28103 3.34725 2.99566 4.00901 3.18497L4.91699 3.44471C5.13302 3.29824 5.36009 3.16669 5.59671 3.05158L5.82556 2.13618ZM7.28077 1.99998C7.05134 1.99998 6.85135 2.15613 6.7957 2.37872L6.51492 3.50182L6.51196 3.51436C6.47707 3.67101 6.3691 3.80139 6.2217 3.86487C5.89618 4.00507 5.59034 4.18269 5.30962 4.39241C5.18073 4.4887 5.01337 4.51709 4.85993 4.46868L4.84701 4.4648L3.73398 4.1464C3.51339 4.0833 3.27817 4.17843 3.16345 4.37712L2.44423 5.62285C2.32951 5.82155 2.36474 6.07282 2.52968 6.2323L3.36193 7.03702L3.37169 7.0462C3.49002 7.15464 3.54909 7.31329 3.53051 7.47271C3.51037 7.64548 3.49999 7.82142 3.49999 7.99998C3.49999 8.17856 3.51037 8.3545 3.53051 8.52728C3.5491 8.6867 3.49002 8.84536 3.3717 8.95379L3.36197 8.96296L2.52972 9.76767C2.36478 9.92715 2.32954 10.1784 2.44426 10.3771L3.16348 11.6229C3.2782 11.8215 3.51342 11.9167 3.73401 11.8536L4.84704 11.5352L4.85994 11.5313C5.01338 11.4829 5.18074 11.5113 5.30963 11.6076C5.59034 11.8173 5.89618 11.9949 6.2217 12.1351C6.3691 12.1986 6.47706 12.329 6.51196 12.4856L6.51492 12.4981L6.7957 13.6213C6.85135 13.8438 7.05134 14 7.28077 14H8.71922C8.94865 14 9.14864 13.8438 9.20429 13.6213L9.48507 12.4981L9.48803 12.4856C9.52293 12.329 9.63089 12.1986 9.77829 12.1351C10.1038 11.9949 10.4096 11.8173 10.6904 11.6076C10.8193 11.5113 10.9866 11.4829 11.14 11.5313L11.153 11.5352L12.266 11.8536C12.4866 11.9167 12.7218 11.8215 12.8365 11.6229L13.5558 10.3771C13.6705 10.1784 13.6352 9.92715 13.4703 9.76767L12.6381 8.96297L12.6283 8.95378C12.51 8.84534 12.4509 8.68669 12.4695 8.52727C12.4896 8.35449 12.5 8.17855 12.5 7.99998C12.5 7.82143 12.4896 7.6455 12.4695 7.47273C12.4509 7.31331 12.51 7.15466 12.6283 7.04622L12.6338 7.0411L12.6381 7.03704L13.4703 6.2323C13.6353 6.07282 13.6705 5.82155 13.5558 5.62285L12.8366 4.37712C12.7218 4.17842 12.4866 4.0833 12.266 4.1464L11.153 4.46479L11.1401 4.46868C10.9866 4.5171 10.8193 4.48871 10.6904 4.39241C10.4097 4.18269 10.1038 4.00507 9.77829 3.86487C9.63089 3.80139 9.52293 3.67101 9.48803 3.51436L9.48507 3.50183L9.20429 2.37872C9.14864 2.15613 8.94865 1.99998 8.71922 1.99998H7.28077ZM7.99997 6.49998C7.17155 6.49998 6.49997 7.17156 6.49997 7.99998C6.49997 8.82841 7.17155 9.49998 7.99997 9.49998C8.8284 9.49998 9.49997 8.82841 9.49997 7.99998C9.49997 7.17156 8.8284 6.49998 7.99997 6.49998ZM5.49997 7.99998C5.49997 6.61927 6.61926 5.49998 7.99997 5.49998C9.38068 5.49998 10.5 6.61927 10.5 7.99998C10.5 9.3807 9.38068 10.5 7.99997 10.5C6.61926 10.5 5.49997 9.3807 5.49997 7.99998Z" fill="#3B404A"/>
<path fill-rule="evenodd" clip-rule="evenodd" d="M7.99997 6.49998C7.17155 6.49998 6.49997 7.17156 6.49997 7.99998C6.49997 8.82841 7.17155 9.49998 7.99997 9.49998C8.8284 9.49998 9.49997 8.82841 9.49997 7.99998C9.49997 7.17156 8.8284 6.49998 7.99997 6.49998ZM5.49997 7.99998C5.49997 6.61927 6.61926 5.49998 7.99997 5.49998C9.38068 5.49998 10.5 6.61927 10.5 7.99998C10.5 9.3807 9.38068 10.5 7.99997 10.5C6.61926 10.5 5.49997 9.3807 5.49997 7.99998Z" fill="#3B404A"/>
</svg>
