<svg width="16" height="16" viewBox="0 0 16 16" fill="none" xmlns="http://www.w3.org/2000/svg">
<path d="M7.27647 5.25034H7.50077V7.37704L7.05394 7.27775C6.58453 7.17345 6.25055 6.75711 6.25055 6.27626C6.25055 5.70966 6.70987 5.25034 7.27647 5.25034Z" fill="#3B404A"/>
<path d="M8.50077 10.7503V8.62363L8.94761 8.72292C9.41702 8.82722 9.751 9.24356 9.751 9.72441C9.751 10.291 9.29168 10.7503 8.72508 10.7503H8.50077Z" fill="#3B404A"/>
<path fill-rule="evenodd" clip-rule="evenodd" d="M8 0.999969C4.13401 0.999969 1 4.13398 1 7.99997C1 11.866 4.13401 15 8 15C11.866 15 15 11.866 15 7.99997C15 4.13398 11.866 0.999969 8 0.999969ZM8.50077 3.75034C8.50077 3.47419 8.27692 3.25034 8.00077 3.25034C7.72463 3.25034 7.50077 3.47419 7.50077 3.75034V4.25034H7.27647C6.15759 4.25034 5.25055 5.15737 5.25055 6.27626C5.25055 7.22582 5.91007 8.04798 6.83703 8.25395L7.50077 8.40143V10.7503H7.25055C6.69827 10.7503 6.25055 10.3026 6.25055 9.75034C6.25055 9.47419 6.02669 9.25034 5.75055 9.25034C5.47441 9.25034 5.25055 9.47419 5.25055 9.75034C5.25055 10.8549 6.14598 11.7503 7.25055 11.7503H7.50077V12.2503C7.50077 12.5265 7.72463 12.7503 8.00077 12.7503C8.27692 12.7503 8.50077 12.5265 8.50077 12.2503V11.7503H8.72508C9.84396 11.7503 10.751 10.8433 10.751 9.72441C10.751 8.77485 10.0915 7.9527 9.16452 7.74673L8.50077 7.59924V5.25034H8.751C9.30328 5.25034 9.751 5.69805 9.751 6.25034C9.751 6.52648 9.97486 6.75034 10.251 6.75034C10.5271 6.75034 10.751 6.52648 10.751 6.25034C10.751 5.14577 9.85557 4.25034 8.751 4.25034H8.50077V3.75034Z" fill="#3B404A"/>
</svg>
