<svg width="16" height="16" viewBox="0 0 16 16" fill="none" xmlns="http://www.w3.org/2000/svg">
<path fill-rule="evenodd" clip-rule="evenodd" d="M1 7.97278C1 4.12551 4.18013 1.00012 8.02734 1.00012C11.8746 1.00012 15 4.12551 15 7.97278C15 11.82 11.8746 15.0001 8.02734 15.0001C4.18013 15.0001 1 11.82 1 7.97278ZM8.76905 7.4484L8.50339 7.90269L8.26106 8.31708L7.8938 8.94615C7.60228 9.44566 7.3108 9.9451 7.01798 10.4438C6.79671 10.8207 6.45909 11.008 6.02174 10.9997C5.54865 10.9909 5.13312 10.6675 5.00721 10.2171C4.90914 9.86655 4.99724 9.55707 5.17758 9.2521C5.55271 8.61833 5.92352 7.982 6.29432 7.34568L6.29463 7.34515C6.46898 7.04596 6.64332 6.74678 6.81811 6.44787C6.84223 6.40669 6.86592 6.36517 6.88962 6.32364C6.96473 6.19198 7.03996 6.06013 7.12935 5.93836C7.44723 5.50628 8.10876 5.35698 8.61322 5.69193C8.96892 5.9283 9.233 6.24702 9.44305 6.60887C9.52752 6.75439 9.59882 6.9073 9.67013 7.06023L9.67015 7.06027C9.70249 7.12963 9.73483 7.19899 9.76841 7.26768L9.7921 7.31697C9.80021 7.30635 9.80781 7.29695 9.81486 7.28825L9.81487 7.28822C9.82839 7.27152 9.83988 7.25733 9.84903 7.2418C10.088 6.83498 10.3263 6.42754 10.5644 6.0201C10.7804 5.65024 11.2602 5.43748 11.682 5.51634C12.1135 5.59664 12.4029 5.84061 12.5429 6.24702C12.657 6.5791 12.5928 6.89207 12.4152 7.19334C11.8083 8.22241 11.206 9.25375 10.6061 10.2865C10.4998 10.4697 10.3909 10.6461 10.218 10.7771C9.63482 11.2193 8.74453 10.9441 8.52222 10.2528C8.42062 9.93658 8.45366 9.63613 8.6207 9.34965C8.66378 9.27578 8.70711 9.20209 8.75043 9.12843L8.75057 9.1282C8.86075 8.94082 8.97084 8.75359 9.07655 8.56393C9.10605 8.51115 9.1181 8.43948 9.11291 8.37869C9.08506 8.05648 8.97079 7.76096 8.80915 7.48208C8.80525 7.4754 8.79835 7.47041 8.78884 7.46354C8.78315 7.45942 8.77652 7.45463 8.76905 7.4484ZM4.5116 7.69276C3.89453 7.70056 3.39651 7.18202 3.40004 6.5953C3.40358 6.00282 3.88289 5.50728 4.48106 5.50051C5.12327 5.49332 5.61921 5.97797 5.61921 6.59817C5.619 7.20173 5.12181 7.69337 4.5116 7.69276Z" fill="#3B404A"/>
</svg>
