<svg width="16" height="16" viewBox="0 0 16 16" fill="none" xmlns="http://www.w3.org/2000/svg">
<path fill-rule="evenodd" clip-rule="evenodd" d="M8 2C4.68629 2 2 4.68629 2 8C2 11.3137 4.68629 14 8 14C11.3137 14 14 11.3137 14 8C14 4.68629 11.3137 2 8 2ZM1 8C1 4.13401 4.13401 1 8 1C11.866 1 15 4.13401 15 8C15 11.866 11.866 15 8 15C4.13401 15 1 11.866 1 8ZM11.3536 4.64645C11.4875 4.78036 11.5342 4.97845 11.4743 5.15811L9.97434 9.65811C9.92457 9.80742 9.80742 9.92457 9.65811 9.97434L5.15811 11.4743C4.97845 11.5342 4.78036 11.4875 4.64645 11.3536C4.51253 11.2196 4.46577 11.0216 4.52566 10.8419L6.02566 6.34189C6.07543 6.19258 6.19258 6.07543 6.34189 6.02566L10.8419 4.52566C11.0216 4.46577 11.2196 4.51253 11.3536 4.64645ZM6.89528 6.89528L5.79057 10.2094L9.10472 9.10472L10.2094 5.79057L6.89528 6.89528Z" fill="#3B404A"/>
<path fill-rule="evenodd" clip-rule="evenodd" d="M11.3536 4.64645C11.4875 4.78036 11.5342 4.97845 11.4743 5.15811L9.97434 9.65811C9.92457 9.80742 9.80742 9.92457 9.65811 9.97434L5.15811 11.4743C4.97845 11.5342 4.78036 11.4875 4.64645 11.3536C4.51253 11.2196 4.46577 11.0216 4.52566 10.8419L6.02566 6.34189C6.07543 6.19258 6.19258 6.07543 6.34189 6.02566L10.8419 4.52566C11.0216 4.46577 11.2196 4.51253 11.3536 4.64645ZM6.89528 6.89528L5.79057 10.2094L9.10472 9.10472L10.2094 5.79057L6.89528 6.89528Z" fill="#3B404A"/>
<path fill-rule="evenodd" clip-rule="evenodd" d="M8.42311 8C8.46565 7.92646 8.49 7.84107 8.49 7.75C8.49 7.47386 8.26614 7.25 7.99 7.25C7.57578 7.25 7.24 7.58579 7.24 8C7.24 8.41421 7.57578 8.75 7.99 8.75C8.26614 8.75 8.49 8.52614 8.49 8.25C8.49 8.15893 8.46565 8.07354 8.42311 8Z" fill="#3B404A"/>
<path fill-rule="evenodd" clip-rule="evenodd" d="M7.55689 8C7.51435 7.92646 7.49 7.84107 7.49 7.75C7.49 7.47386 7.71386 7.25 7.99 7.25C8.40421 7.25 8.74 7.58579 8.74 8C8.74 8.41421 8.40421 8.75 7.99 8.75C7.71386 8.75 7.49 8.52614 7.49 8.25C7.49 8.15893 7.51435 8.07354 7.55689 8Z" fill="#3B404A"/>
</svg>
