<svg width="16" height="16" viewBox="0 0 16 16" fill="none" xmlns="http://www.w3.org/2000/svg">
<path fill-rule="evenodd" clip-rule="evenodd" d="M8.66675 3.5C7.28604 3.5 6.16675 4.61929 6.16675 6C6.16675 6.9511 6.69786 7.77815 7.47968 8.20074C6.03659 8.69903 5.00006 10.0694 5.00006 11.6818C5.00006 12.1337 5.36637 12.5 5.81824 12.5H11.6819C12.1337 12.5 12.5001 12.1337 12.5001 11.6818C12.5001 10.0305 11.413 8.63317 9.91549 8.16627C10.6634 7.73419 11.1667 6.92587 11.1667 6C11.1667 4.61929 10.0475 3.5 8.66675 3.5ZM7.16675 6C7.16675 5.17157 7.83832 4.5 8.66675 4.5C9.49518 4.5 10.1667 5.17157 10.1667 6C10.1667 6.82843 9.49518 7.5 8.66675 7.5C7.83832 7.5 7.16675 6.82843 7.16675 6ZM11.494 11.5H6.00613C6.09961 10.1037 7.26186 9 8.68188 9H8.81824C10.2383 9 11.4005 10.1037 11.494 11.5Z" fill="#3B404A"/>
<path fill-rule="evenodd" clip-rule="evenodd" d="M2.16675 3C2.16675 2.17157 2.83832 1.5 3.66675 1.5H13.0001C13.8285 1.5 14.5001 2.17157 14.5001 3V13C14.5001 13.8284 13.8285 14.5 13.0001 14.5H3.66675C2.83832 14.5 2.16675 13.8284 2.16675 13V11.5H1.66675C1.39061 11.5 1.16675 11.2761 1.16675 11C1.16675 10.7239 1.39061 10.5 1.66675 10.5H2.16675V8.5H1.66675C1.39061 8.5 1.16675 8.27614 1.16675 8C1.16675 7.72386 1.39061 7.5 1.66675 7.5H2.16675V5.5H1.66675C1.39061 5.5 1.16675 5.27614 1.16675 5C1.16675 4.72386 1.39061 4.5 1.66675 4.5H2.16675V3ZM3.16675 13V11.5H3.66675C3.94289 11.5 4.16675 11.2761 4.16675 11C4.16675 10.7239 3.94289 10.5 3.66675 10.5H3.16675V8.5H3.66675C3.94289 8.5 4.16675 8.27614 4.16675 8C4.16675 7.72386 3.94289 7.5 3.66675 7.5H3.16675V5.5H3.66675C3.94289 5.5 4.16675 5.27614 4.16675 5C4.16675 4.72386 3.94289 4.5 3.66675 4.5H3.16675V3C3.16675 2.72386 3.39061 2.5 3.66675 2.5H13.0001C13.2762 2.5 13.5001 2.72386 13.5001 3V13C13.5001 13.2761 13.2762 13.5 13.0001 13.5H3.66675C3.39061 13.5 3.16675 13.2761 3.16675 13Z" fill="#3B404A"/>
</svg>
