<svg width="16" height="16" viewBox="0 0 16 16" fill="none" xmlns="http://www.w3.org/2000/svg">
<path fill-rule="evenodd" clip-rule="evenodd" d="M3.14645 3.14657C3.34171 2.95131 3.65829 2.95131 3.85355 3.14657L8 7.29302L12.1464 3.14657C12.3417 2.95131 12.6583 2.95131 12.8536 3.14657C13.0488 3.34183 13.0488 3.65841 12.8536 3.85368L8.70711 8.00012L12.8536 12.1466C13.0488 12.3418 13.0488 12.6584 12.8536 12.8537C12.6583 13.0489 12.3417 13.0489 12.1464 12.8537L8 8.70723L3.85355 12.8537C3.65829 13.0489 3.34171 13.0489 3.14645 12.8537C2.95118 12.6584 2.95118 12.3418 3.14645 12.1466L7.29289 8.00012L3.14645 3.85368C2.95118 3.65841 2.95118 3.34183 3.14645 3.14657Z" fill="#3B404A"/>
</svg>
