<svg width="16" height="16" viewBox="0 0 16 16" fill="none" xmlns="http://www.w3.org/2000/svg">
<path fill-rule="evenodd" clip-rule="evenodd" d="M8 0.999908C4.13401 0.999908 1 4.13391 1 7.99991C1 11.8659 4.13401 14.9999 8 14.9999C11.866 14.9999 15 11.8659 15 7.99991C15 4.13391 11.866 0.999908 8 0.999908ZM5.70726 5.00014C5.512 4.80487 5.19541 4.80487 5.00015 5.00014C4.80489 5.1954 4.80489 5.51198 5.00015 5.70724L7.29304 8L5.00013 10.293C4.80487 10.4883 4.80487 10.8049 5.00013 11.0001C5.19539 11.1954 5.51197 11.1954 5.70723 11.0001L8.00015 8.70711L10.293 11.0001C10.4883 11.1954 10.8049 11.1954 11.0001 11.0001C11.1954 10.8049 11.1954 10.4883 11.0001 10.293L8.70725 8L11.0001 5.70724C11.1954 5.51197 11.1954 5.19539 11.0001 5.00013C10.8049 4.80487 10.4883 4.80487 10.293 5.00013L8.00015 7.29289L5.70726 5.00014Z" fill="#3B404A"/>
</svg>
