<svg width="16" height="16" viewBox="0 0 16 16" fill="none" xmlns="http://www.w3.org/2000/svg">
<path d="M4.75 8C5.16421 8 5.5 7.66421 5.5 7.25C5.5 6.83579 5.16421 6.5 4.75 6.5C4.33579 6.5 4 6.83579 4 7.25C4 7.66421 4.33579 8 4.75 8Z" fill="#3B404A"/>
<path d="M8.75 7.25C8.75 7.66421 8.41421 8 8 8C7.58579 8 7.25 7.66421 7.25 7.25C7.25 6.83579 7.58579 6.5 8 6.5C8.41421 6.5 8.75 6.83579 8.75 7.25Z" fill="#3B404A"/>
<path d="M12 7.25C12 7.66421 11.6642 8 11.25 8C10.8358 8 10.5 7.66421 10.5 7.25C10.5 6.83579 10.8358 6.5 11.25 6.5C11.6642 6.5 12 6.83579 12 7.25Z" fill="#3B404A"/>
<path fill-rule="evenodd" clip-rule="evenodd" d="M2.5 1.5C1.67157 1.5 1 2.17157 1 3V11C1 11.8284 1.67157 12.5 2.5 12.5H4.5V14.5C4.5 14.6873 4.60467 14.8589 4.77121 14.9446C4.93774 15.0303 5.13821 15.0157 5.29062 14.9069L8.66023 12.5H13.5C14.3284 12.5 15 11.8284 15 11V3C15 2.17157 14.3284 1.5 13.5 1.5H2.5ZM2 3C2 2.72386 2.22386 2.5 2.5 2.5H13.5C13.7761 2.5 14 2.72386 14 3V11C14 11.2761 13.7761 11.5 13.5 11.5H8.5C8.39579 11.5 8.29418 11.5326 8.20938 11.5931L5.5 13.5284V12C5.5 11.7239 5.27614 11.5 5 11.5H2.5C2.22386 11.5 2 11.2761 2 11V3Z" fill="#3B404A"/>
</svg>
