<svg width="16" height="16" viewBox="0 0 16 16" fill="none" xmlns="http://www.w3.org/2000/svg">
<path fill-rule="evenodd" clip-rule="evenodd" d="M9.35 1.15L14.35 6.15C14.45 6.24 14.5 6.37 14.5 6.5V13.5C14.5 14.33 13.83 15 13 15H4C3.17 15 2.5 14.33 2.5 13.5V2.5C2.5 1.67 3.17 1 4 1H9C9.13 1 9.26 1.06 9.35 1.15ZM12.79 6L9.5 2.71V5.5C9.5 5.78 9.72 6 10 6H12.79ZM13 14C13.28 14 13.5 13.78 13.5 13.5V7H10C9.17 7 8.5 6.33 8.5 5.5V2H4C3.72 2 3.5 2.22 3.5 2.5V13.5C3.5 13.78 3.72 14 4 14H13ZM5.49927 9C5.22312 9 4.99927 9.22386 4.99927 9.5C4.99927 9.77614 5.22312 10 5.49927 10H11.4993C11.7754 10 11.9993 9.77614 11.9993 9.5C11.9993 9.22386 11.7754 9 11.4993 9H5.49927ZM5.49927 11.5C5.22312 11.5 4.99927 11.7239 4.99927 12C4.99927 12.2761 5.22312 12.5 5.49927 12.5H8.99927C9.27541 12.5 9.49927 12.2761 9.49927 12C9.49927 11.7239 9.27541 11.5 8.99927 11.5H5.49927Z" fill="#3B404A"/>
</svg>
