<svg width="16" height="16" viewBox="0 0 16 16" fill="none" xmlns="http://www.w3.org/2000/svg">
<path fill-rule="evenodd" clip-rule="evenodd" d="M9.35 1.15L14.35 6.15C14.45 6.24 14.5 6.37 14.5 6.5V13.5C14.5 14.33 13.83 15 13 15H4C3.17 15 2.5 14.33 2.5 13.5V2.5C2.5 1.67 3.17 1 4 1H9C9.13 1 9.26 1.06 9.35 1.15ZM12.79 6L9.5 2.71V5.5C9.5 5.78 9.72 6 10 6H12.79ZM13 14C13.28 14 13.5 13.78 13.5 13.5V7H10C9.17 7 8.5 6.33 8.5 5.5V2H4C3.72 2 3.5 2.22 3.5 2.5V13.5C3.5 13.78 3.72 14 4 14H13ZM11.4995 8.5C11.4995 8.22386 11.2757 8 10.9995 8C10.7234 8 10.4995 8.22386 10.4995 8.5V12.5C10.4995 12.7761 10.7234 13 10.9995 13C11.2757 13 11.4995 12.7761 11.4995 12.5V8.5ZM8.99951 10C8.99951 9.72386 8.77565 9.5 8.49951 9.5C8.22337 9.5 7.99951 9.72386 7.99951 10V12.5C7.99951 12.7761 8.22337 13 8.49951 13C8.77565 13 8.99951 12.7761 8.99951 12.5V10ZM5.99951 11C6.27565 11 6.49951 11.2239 6.49951 11.5V12.5C6.49951 12.7761 6.27565 13 5.99951 13C5.72337 13 5.49951 12.7761 5.49951 12.5V11.5C5.49951 11.2239 5.72337 11 5.99951 11Z" fill="#3B404A"/>
</svg>
