<svg width="16" height="16" viewBox="0 0 16 16" fill="none" xmlns="http://www.w3.org/2000/svg">
<path fill-rule="evenodd" clip-rule="evenodd" d="M9.35 1.15L14.35 6.15C14.45 6.24 14.5 6.37 14.5 6.5V13.5C14.5 14.33 13.83 15 13 15H4C3.17 15 2.5 14.33 2.5 13.5V2.5C2.5 1.67 3.17 1 4 1H9C9.13 1 9.26 1.06 9.35 1.15ZM12.79 6L9.5 2.71V5.5C9.5 5.78 9.72 6 10 6H12.79ZM13 14C13.28 14 13.5 13.78 13.5 13.5V7H10C9.17 7 8.5 6.33 8.5 5.5V2H4C3.72 2 3.5 2.22 3.5 2.5V13.5C3.5 13.78 3.72 14 4 14H13ZM8.85331 7.64645L10.8533 9.64645C11.0486 9.84171 11.0486 10.1583 10.8533 10.3536C10.658 10.5488 10.3415 10.5488 10.1462 10.3536L8.99976 9.20711V12.5C8.99976 12.7761 8.7759 13 8.49976 13C8.22361 13 7.99976 12.7761 7.99976 12.5V9.20711L6.85331 10.3536C6.65805 10.5488 6.34146 10.5488 6.1462 10.3536C5.95094 10.1583 5.95094 9.84171 6.1462 9.64645L8.1462 7.64645C8.34146 7.45118 8.65805 7.45118 8.85331 7.64645Z" fill="#3B404A"/>
</svg>
