<svg width="16" height="16" viewBox="0 0 16 16" fill="none" xmlns="http://www.w3.org/2000/svg">
<path d="M10 5.24999C10 5.31328 10.0118 5.37386 10.0332 5.42959C10.0815 5.5715 10.2 5.74635 10.4909 5.74994C10.4939 5.75 10.4969 5.75003 10.5 5.75003L13.6695 5.75C13.8888 5.75 14.0018 5.4878 13.8512 5.32836L10.4318 1.70723C10.2765 1.54277 10 1.65268 10 1.87887L10 5.24999Z" fill="#3B404A"/>
<path d="M9 1.25L4.24939 1.25001C3.42096 1.25001 2.74939 1.92158 2.74939 2.75001V13.25C2.74939 14.0784 3.42096 14.75 4.24939 14.75L12.7495 14.75C13.5779 14.75 14.2495 14.0784 14.2495 13.25V6.75003H10.5C9.67157 6.75003 9 6.07845 9 5.25003V1.25Z" fill="#3B404A"/>
</svg>
