<svg width="16" height="16" viewBox="0 0 16 16" fill="none" xmlns="http://www.w3.org/2000/svg">
<path d="M10 10.5001C10 9.50018 9.43192 9.00006 8.5 9.00006H7.47722C7.34461 9.00006 7.21744 8.94738 7.12367 8.85361L6.50235 8.23229C6.03351 7.76345 5.39762 7.50006 4.73458 7.50006H2C2 7.50006 1 7.50006 1 8.50006V12.0001C1 13.0001 2 12.9999 2 12.9999H3.91886L7.57496 14.3853C7.8368 14.4726 8.11765 14.4859 8.38659 14.4239L14.25 12.5001C14.25 12.5001 15 12.2499 15 11.7499C15 11.7499 15 10.5001 13 10.5001H11V11.0001C11 11.5524 10.5523 12.0001 10 12.0001H7.25C6.97386 12.0001 6.75 11.7762 6.75 11.5001C6.75 11.2239 6.97386 11.0001 7.25 11.0001H9.75C9.88807 11.0001 10 10.8882 10 10.7501V10.5001Z" fill="#3B404A"/>
<path d="M8.36938 0.999969C9.17364 0.999969 9.69443 1.38388 10.01 1.79962C10.3256 1.38387 10.8464 0.999969 11.6506 0.999969C12.1428 0.999969 12.5431 1.12792 12.8591 1.34463C13.1722 1.55932 13.3751 1.84213 13.5054 2.11027C13.6349 2.37652 13.6972 2.63694 13.728 2.82672C13.7435 2.92275 13.7515 3.00384 13.7556 3.0628C13.7577 3.09236 13.7588 3.1166 13.7593 3.13465L13.7599 3.15705L13.76 3.16461L13.76 3.16746L13.76 3.16864L13.76 3.16966C13.76 3.83731 13.5084 4.45604 13.1714 4.98846C12.8333 5.52241 12.391 5.99887 11.9628 6.39211C11.5329 6.78695 11.1051 7.10888 10.7859 7.3317C10.6258 7.44342 10.4919 7.531 10.3972 7.59114C10.3498 7.62122 10.3122 7.64449 10.2859 7.66053L10.2551 7.67913L10.2465 7.68427L10.2439 7.68579L10.2426 7.6866C10.0985 7.7713 9.92101 7.77099 9.7769 7.68629L9.7735 7.68427L9.76486 7.67913L9.7341 7.66053C9.7078 7.64449 9.67015 7.62122 9.62277 7.59114C9.52806 7.531 9.39417 7.44342 9.2341 7.3317C8.91487 7.10888 8.4871 6.78695 8.05718 6.39211C7.629 5.99887 7.18666 5.52241 6.84863 4.98846C6.51158 4.45604 6.26 3.83731 6.26 3.16966L6.26 3.16864L6.26 3.16746L6.26002 3.16461L6.26011 3.15705L6.26066 3.13465C6.26125 3.1166 6.26234 3.09236 6.2644 3.0628C6.26849 3.00384 6.27645 2.92275 6.29201 2.82672C6.32276 2.63694 6.38514 2.37652 6.51457 2.11027C6.64491 1.84213 6.84778 1.55932 7.16087 1.34463C7.4769 1.12792 7.87719 0.999969 8.36938 0.999969Z" fill="#3B404A"/>
</svg>
