<svg width="16" height="16" viewBox="0 0 16 16" fill="none" xmlns="http://www.w3.org/2000/svg">
<path fill-rule="evenodd" clip-rule="evenodd" d="M7.00015 3.247L7 3.25254C7.00066 3.6844 7.16973 4.13565 7.46587 4.59044C7.76156 5.04454 8.16474 5.47232 8.58301 5.84578C8.99942 6.21758 9.41814 6.52436 9.73388 6.73861C9.83477 6.80707 9.92466 6.86575 10 6.91376C10.0753 6.86575 10.1652 6.80707 10.2661 6.73861C10.5819 6.52436 11.0006 6.21758 11.417 5.84578C11.8353 5.47232 12.2384 5.04454 12.5341 4.59044C12.8303 4.13565 12.9993 3.68441 13 3.25254L12.9999 3.247C12.9996 3.24008 12.9991 3.22762 12.9979 3.21043C12.9954 3.17587 12.9902 3.12324 12.9795 3.05876C12.9576 2.92745 12.9147 2.76 12.834 2.59861C12.7543 2.43917 12.6426 2.29495 12.4844 2.18946C12.3293 2.08607 12.1 2 11.75 2C11.2025 2 10.9073 2.25921 10.7285 2.52735C10.6345 2.66836 10.5738 2.81284 10.5368 2.92374C10.5186 2.9784 10.5069 3.02271 10.5001 3.05136C10.4967 3.06562 10.4945 3.0758 10.4935 3.08121L10.4927 3.08539C10.4512 3.32485 10.2433 3.5 10 3.5C9.75666 3.5 9.54883 3.32485 9.50735 3.08539L9.50654 3.08122C9.50546 3.07581 9.50332 3.06563 9.49993 3.05137C9.4931 3.02272 9.48138 2.9784 9.46316 2.92375C9.42619 2.81284 9.36547 2.66836 9.27146 2.52735C9.0927 2.2592 8.79745 2 8.25 2C7.89999 2 7.67073 2.08607 7.51563 2.18946C7.35741 2.29495 7.24568 2.43917 7.16596 2.59861C7.08527 2.76 7.04243 2.92745 7.02054 3.05876C7.0098 3.12324 7.00462 3.17587 7.00215 3.21043C7.00092 3.22762 7.00038 3.24008 7.00015 3.247ZM9.99999 1.82925C9.66339 1.39812 9.10788 1 8.25 1C7.72501 1 7.29802 1.13268 6.96093 1.35741C6.62697 1.58005 6.41057 1.87333 6.27154 2.15139C6.13348 2.4275 6.06695 2.69755 6.03415 2.89436C6.01755 2.99395 6.00906 3.07804 6.00469 3.13918C6.0025 3.16984 6.00133 3.19498 6.0007 3.21369L6.00012 3.23692L6.00002 3.24476L6 3.24771L6 3.24894L6 3.25C6 3.94236 6.26835 4.58399 6.62788 5.13612C6.98843 5.68983 7.46026 6.18393 7.91699 6.59172C8.37558 7.00117 8.83186 7.33502 9.17237 7.56608C9.34311 7.68194 9.48593 7.77276 9.58696 7.83512C9.6375 7.86632 9.67765 7.89045 9.70571 7.90709L9.73852 7.92637L9.74773 7.93171L9.75047 7.93328L9.75136 7.93379C9.75136 7.93379 9.75193 7.93412 10 7.5L9.75136 7.93379C9.90507 8.02163 10.0944 8.02196 10.2481 7.93412L10 7.5C10.2481 7.93412 10.2481 7.93412 10.2481 7.93412L10.2495 7.93328L10.2523 7.93171L10.2615 7.92637L10.2943 7.90709C10.3223 7.89045 10.3625 7.86632 10.413 7.83512C10.5141 7.77276 10.6569 7.68194 10.8276 7.56608C11.1681 7.33502 11.6244 7.00117 12.083 6.59172C12.5397 6.18393 13.0116 5.68983 13.3721 5.13612C13.7316 4.58399 14 3.94236 14 3.25L14 3.24894L14 3.24771L14 3.24476L13.9999 3.23692L13.9993 3.21369C13.9987 3.19498 13.9975 3.16984 13.9953 3.13918C13.9909 3.07804 13.9825 2.99395 13.9659 2.89436C13.9331 2.69755 13.8665 2.4275 13.7285 2.15139C13.5894 1.87333 13.373 1.58005 13.0391 1.35741C12.702 1.13268 12.275 1 11.75 1C10.8921 1 10.3366 1.39811 9.99999 1.82925Z" fill="#3B404A"/>
<path fill-rule="evenodd" clip-rule="evenodd" d="M9 8.5C9.93192 8.5 10.715 9.13739 10.937 10H12.8318C14.0293 10 15 10.9707 15 12.1682C15 12.5953 14.7052 12.9658 14.2892 13.0618L8.38659 14.4239C8.11765 14.486 7.8368 14.4726 7.57496 14.3854L3.91886 13H2.5C1.67157 13 1 12.3284 1 11.5V8.5C1 7.67157 1.67157 7 2.5 7H5.67157C6.33461 7 6.9705 7.26339 7.43934 7.73223L8.06066 8.35355C8.15443 8.44732 8.2816 8.5 8.41421 8.5H9ZM2.5 8C2.22386 8 2 8.22386 2 8.5V11.5C2 11.7761 2.22386 12 2.5 12H3.82129C3.93949 12 4.05676 12.021 4.16765 12.0619L7.89119 13.4367C7.97847 13.4658 8.07208 13.4702 8.16173 13.4495L13.9982 12.1027C13.9642 11.488 13.455 11 12.8318 11H11C11 11.5523 10.5523 12 10 12H7.5C7.22386 12 7 11.7761 7 11.5C7 11.2239 7.22386 11 7.5 11H10V10.5C10 9.94772 9.55229 9.5 9 9.5H8.41421C8.01639 9.5 7.63486 9.34196 7.35355 9.06066L6.73223 8.43934C6.45093 8.15804 6.0694 8 5.67157 8H2.5Z" fill="#3B404A"/>
</svg>
