<svg width="16" height="16" viewBox="0 0 16 16" fill="none" xmlns="http://www.w3.org/2000/svg">
<path fill-rule="evenodd" clip-rule="evenodd" d="M1 8C1 4.13401 4.13401 1 8 1C11.866 1 15 4.13401 15 8C15 11.866 11.866 15 8 15C4.13401 15 1 11.866 1 8ZM5.21877 9.88549C4.98445 10.1198 4.98445 10.4997 5.21877 10.734C5.45308 10.9683 5.83298 10.9683 6.06729 10.734C7.13473 9.66658 8.86538 9.66658 9.93281 10.734C10.1671 10.9683 10.547 10.9683 10.7813 10.734C11.0157 10.4997 11.0157 10.1198 10.7813 9.88548C9.24528 8.34942 6.75483 8.34942 5.21877 9.88549ZM6.00001 6.85003C6.46946 6.85003 6.85001 6.46947 6.85001 6.00002C6.85001 5.53058 6.46946 5.15002 6.00001 5.15002C5.53057 5.15002 5.15001 5.53058 5.15001 6.00002C5.15001 6.46947 5.53057 6.85003 6.00001 6.85003ZM10 6.85002C10.4695 6.85002 10.85 6.46947 10.85 6.00002C10.85 5.53058 10.4695 5.15002 10 5.15002C9.53057 5.15002 9.15001 5.53058 9.15001 6.00002C9.15001 6.46947 9.53057 6.85002 10 6.85002Z" fill="#3B404A"/>
</svg>
