<svg width="16" height="16" viewBox="0 0 16 16" fill="none" xmlns="http://www.w3.org/2000/svg">
<path d="M5.33331 9.5C5.05717 9.5 4.83331 9.72386 4.83331 10C4.83331 10.2761 5.05717 10.5 5.33331 10.5H10.6666C10.9428 10.5 11.1666 10.2761 11.1666 10C11.1666 9.72386 10.9428 9.5 10.6666 9.5H5.33331Z" fill="#3B404A"/>
<path d="M6.75 6C6.75 6.41421 6.41421 6.75 6 6.75C5.58579 6.75 5.25 6.41421 5.25 6C5.25 5.58579 5.58579 5.25 6 5.25C6.41421 5.25 6.75 5.58579 6.75 6Z" fill="#3B404A"/>
<path d="M10.75 6C10.75 6.41421 10.4142 6.75 10 6.75C9.58579 6.75 9.25 6.41421 9.25 6C9.25 5.58579 9.58579 5.25 10 5.25C10.4142 5.25 10.75 5.58579 10.75 6Z" fill="#3B404A"/>
<path fill-rule="evenodd" clip-rule="evenodd" d="M8 2C4.68629 2 2 4.68629 2 8C2 11.3137 4.68629 14 8 14C11.3137 14 14 11.3137 14 8C14 4.68629 11.3137 2 8 2ZM1 8C1 4.13401 4.13401 1 8 1C11.866 1 15 4.13401 15 8C15 11.866 11.866 15 8 15C4.13401 15 1 11.866 1 8Z" fill="#3B404A"/>
</svg>
