<svg width="16" height="16" viewBox="0 0 16 16" fill="none" xmlns="http://www.w3.org/2000/svg">
<path d="M6.75001 5.99997C6.75001 6.41418 6.41423 6.74997 6.00001 6.74997C5.5858 6.74997 5.25001 6.41418 5.25001 5.99997C5.25001 5.58576 5.5858 5.24997 6.00001 5.24997C6.41423 5.24997 6.75001 5.58576 6.75001 5.99997Z" fill="#3B404A"/>
<path d="M10.75 5.99997C10.75 6.41418 10.4142 6.74997 10 6.74997C9.5858 6.74997 9.25001 6.41418 9.25001 5.99997C9.25001 5.58576 9.5858 5.24997 10 5.24997C10.4142 5.24997 10.75 5.58576 10.75 5.99997Z" fill="#3B404A"/>
<path fill-rule="evenodd" clip-rule="evenodd" d="M8 1.99997C4.68629 1.99997 2 4.68626 2 7.99997C2 11.3137 4.68629 14 8 14C11.3137 14 14 11.3137 14 7.99997C14 4.68626 11.3137 1.99997 8 1.99997ZM1 7.99997C1 4.13398 4.13401 0.999969 8 0.999969C11.866 0.999969 15 4.13398 15 7.99997C15 11.866 11.866 15 8 15C4.13401 15 1 11.866 1 7.99997Z" fill="#3B404A"/>
<path fill-rule="evenodd" clip-rule="evenodd" d="M4.69903 8.83348C4.60701 8.57312 4.32135 8.43666 4.06099 8.52868C3.80063 8.62071 3.66417 8.90637 3.75619 9.16673C4.37371 10.9138 6.0399 12.1668 8.00001 12.1668C9.96012 12.1668 11.6263 10.9138 12.2438 9.16673C12.3358 8.90637 12.1994 8.62071 11.939 8.52868C11.6787 8.43666 11.393 8.57312 11.301 8.83348C10.8203 10.1935 9.52315 11.1668 8.00001 11.1668C6.47687 11.1668 5.17975 10.1935 4.69903 8.83348Z" fill="#3B404A"/>
</svg>
