<svg width="16" height="16" viewBox="0 0 16 16" fill="none" xmlns="http://www.w3.org/2000/svg">
<path fill-rule="evenodd" clip-rule="evenodd" d="M1 8C1 4.13401 4.13401 1 8 1C11.866 1 15 4.13401 15 8C15 11.866 11.866 15 8 15C4.13401 15 1 11.866 1 8ZM5.33334 9.40002C5.00197 9.40002 4.73334 9.66865 4.73334 10C4.73334 10.3314 5.00197 10.6 5.33334 10.6H10.6667C10.998 10.6 11.2667 10.3314 11.2667 10C11.2667 9.66865 10.998 9.40002 10.6667 9.40002H5.33334ZM6.00002 6.85003C6.46947 6.85003 6.85002 6.46947 6.85002 6.00002C6.85002 5.53058 6.46947 5.15002 6.00002 5.15002C5.53058 5.15002 5.15002 5.53058 5.15002 6.00002C5.15002 6.46947 5.53058 6.85003 6.00002 6.85003ZM10 6.85002C10.4695 6.85002 10.85 6.46947 10.85 6.00002C10.85 5.53058 10.4695 5.15002 10 5.15002C9.53058 5.15002 9.15002 5.53058 9.15002 6.00002C9.15002 6.46947 9.53058 6.85002 10 6.85002Z" fill="#3B404A"/>
</svg>
