<svg width="16" height="16" viewBox="0 0 16 16" fill="none" xmlns="http://www.w3.org/2000/svg">
<path fill-rule="evenodd" clip-rule="evenodd" d="M14.3535 2.35355C14.5487 2.15829 14.5487 1.84171 14.3535 1.64645C14.1582 1.45118 13.8416 1.45118 13.6464 1.64645L1.64637 13.6464C1.4511 13.8417 1.4511 14.1583 1.64637 14.3536C1.84163 14.5488 2.15821 14.5488 2.35347 14.3536L4.05362 12.6534C5.11546 13.3482 6.43727 13.8333 7.99992 13.8333C10.3464 13.8333 12.1367 12.6578 13.3242 11.3824C13.9185 10.744 14.3711 10.0717 14.6772 9.48721C14.8303 9.19497 14.9495 8.91944 15.0316 8.67612C15.1106 8.44212 15.1666 8.20494 15.1666 8C15.1666 7.749 15.082 7.44069 14.962 7.13264C14.8366 6.81068 14.6534 6.44103 14.4162 6.05322C14.0111 5.39128 13.4373 4.65841 12.6983 4.00872L14.3535 2.35355ZM11.9895 4.71749L10.3256 6.38139C10.6454 6.84014 10.8333 7.39844 10.8333 8C10.8333 9.56481 9.56473 10.8333 7.99992 10.8333C7.39835 10.8333 6.84006 10.6455 6.38131 10.3257L4.77838 11.9286C5.66546 12.4694 6.74096 12.8333 7.99992 12.8333C9.9868 12.8333 11.5298 11.8422 12.5923 10.701C13.123 10.131 13.5246 9.53251 13.7914 9.0232C13.9248 8.76857 14.0217 8.5415 14.0841 8.35643C14.1497 8.16205 14.1666 8.04506 14.1666 8C14.1666 7.93768 14.1367 7.76906 14.0302 7.49553C13.929 7.23589 13.7737 6.9193 13.5632 6.57514C13.1937 5.97136 12.6659 5.30181 11.9895 4.71749ZM7.10593 9.6011C7.37039 9.74915 7.67511 9.83333 7.99992 9.83333C9.01244 9.83333 9.83325 9.01252 9.83325 8C9.83325 7.6752 9.74907 7.37048 9.60101 7.10601L7.10593 9.6011ZM2.21109 6.83107C1.93925 7.36486 1.83325 7.78175 1.83325 8C1.83325 8.16159 1.89233 8.44505 2.04938 8.82078C2.20243 9.18697 2.43524 9.60894 2.74777 10.0397C2.84172 10.1692 2.94264 10.2992 3.05046 10.4284C3.2274 10.6404 3.19897 10.9557 2.98696 11.1326C2.77495 11.3096 2.45965 11.2811 2.28271 11.0691C2.16021 10.9223 2.04541 10.7745 1.93836 10.627C1.58394 10.1385 1.31184 9.64931 1.12673 9.20642C0.945605 8.77309 0.833252 8.34952 0.833252 8C0.833252 7.55158 1.01892 6.96847 1.31999 6.37727C1.62854 5.77138 2.0843 5.10575 2.68166 4.48627C3.87759 3.24605 5.66722 2.16667 7.99992 2.16667C8.77933 2.16667 9.50037 2.29683 10.1596 2.51899C10.4213 2.60717 10.5619 2.8908 10.4737 3.15248C10.3856 3.41416 10.1019 3.55481 9.84024 3.46662C9.2795 3.27765 8.66617 3.16667 7.99992 3.16667C5.99929 3.16667 4.45558 4.08728 3.40151 5.1804C2.87387 5.72758 2.47546 6.31195 2.21109 6.83107Z" fill="#3B404A"/>
</svg>
