<svg width="16" height="16" viewBox="0 0 16 16" fill="none" xmlns="http://www.w3.org/2000/svg">
<path fill-rule="evenodd" clip-rule="evenodd" d="M1.83325 8C1.83325 7.78175 1.93925 7.36487 2.21109 6.83107C2.47546 6.31196 2.87387 5.72759 3.40151 5.18041C4.45558 4.08729 5.99928 3.16667 7.99992 3.16667C9.9868 3.16667 11.5298 4.15782 12.5923 5.29905C13.123 5.86901 13.5246 6.46749 13.7914 6.9768C13.9248 7.23143 14.0217 7.4585 14.0841 7.64357C14.1497 7.83796 14.1666 7.95495 14.1666 8C14.1666 8.04506 14.1497 8.16205 14.0841 8.35644C14.0217 8.5415 13.9248 8.76858 13.7914 9.02321C13.5246 9.53252 13.123 10.131 12.5923 10.701C11.5298 11.8422 9.9868 12.8333 7.99992 12.8333C5.99928 12.8333 4.45558 11.9127 3.40151 10.8196C2.87387 10.2724 2.47546 9.68805 2.21109 9.16894C1.93925 8.63514 1.83325 8.21826 1.83325 8ZM7.99992 2.16667C5.66722 2.16667 3.87759 3.24605 2.68166 4.48627C2.0843 5.10575 1.62854 5.77139 1.31999 6.37727C1.01892 6.96847 0.833252 7.55159 0.833252 8C0.833252 8.44842 1.01892 9.03153 1.31999 9.62274C1.62854 10.2286 2.0843 10.8943 2.68166 11.5137C3.87759 12.754 5.66722 13.8333 7.99992 13.8333C10.3464 13.8333 12.1367 12.6578 13.3242 11.3824C13.9185 10.744 14.3711 10.0717 14.6772 9.48722C14.8303 9.19497 14.9495 8.91944 15.0316 8.67612C15.1106 8.44213 15.1666 8.20495 15.1666 8C15.1666 7.79506 15.1106 7.55788 15.0316 7.32389C14.9495 7.08057 14.8303 6.80504 14.6772 6.51279C14.3711 5.92835 13.9185 5.256 13.3242 4.61763C12.1367 3.34219 10.3464 2.16667 7.99992 2.16667ZM6.16658 8C6.16658 6.98748 6.9874 6.16667 7.99992 6.16667C9.01244 6.16667 9.83325 6.98748 9.83325 8C9.83325 9.01253 9.01244 9.83334 7.99992 9.83334C6.9874 9.83334 6.16658 9.01253 6.16658 8ZM7.99992 5.16667C6.43511 5.16667 5.16658 6.4352 5.16658 8C5.16658 9.56481 6.43511 10.8333 7.99992 10.8333C9.56472 10.8333 10.8333 9.56481 10.8333 8C10.8333 6.4352 9.56472 5.16667 7.99992 5.16667Z" fill="#3B404A"/>
</svg>
