<svg width="16" height="16" viewBox="0 0 16 16" fill="none" xmlns="http://www.w3.org/2000/svg">
<path d="M2.83325 1.33331C2.00482 1.33331 1.33325 2.00489 1.33325 2.83331V4.83331C1.33325 5.10946 1.55711 5.33331 1.83325 5.33331C2.10939 5.33331 2.33325 5.10946 2.33325 4.83331V2.83331C2.33325 2.55717 2.55711 2.33331 2.83325 2.33331H4.83325C5.10939 2.33331 5.33325 2.10946 5.33325 1.83331C5.33325 1.55717 5.10939 1.33331 4.83325 1.33331H2.83325Z" fill="#3B404A"/>
<path d="M11.1666 1.33331C10.8904 1.33331 10.6666 1.55717 10.6666 1.83331C10.6666 2.10946 10.8904 2.33331 11.1666 2.33331H13.1666C13.4427 2.33331 13.6666 2.55717 13.6666 2.83331V4.83331C13.6666 5.10946 13.8904 5.33331 14.1666 5.33331C14.4427 5.33331 14.6666 5.10946 14.6666 4.83331V2.83331C14.6666 2.00489 13.995 1.33331 13.1666 1.33331H11.1666Z" fill="#3B404A"/>
<path d="M2.33325 11.1666C2.33325 10.8905 2.10939 10.6666 1.83325 10.6666C1.55711 10.6666 1.33325 10.8905 1.33325 11.1666V13.1666C1.33325 13.9951 2.00482 14.6666 2.83325 14.6666H4.83325C5.10939 14.6666 5.33325 14.4428 5.33325 14.1666C5.33325 13.8905 5.10939 13.6666 4.83325 13.6666H2.83325C2.55711 13.6666 2.33325 13.4428 2.33325 13.1666V11.1666Z" fill="#3B404A"/>
<path d="M14.6666 11.1666C14.6666 10.8905 14.4427 10.6666 14.1666 10.6666C13.8904 10.6666 13.6666 10.8905 13.6666 11.1666V13.1666C13.6666 13.4428 13.4427 13.6666 13.1666 13.6666H11.1666C10.8904 13.6666 10.6666 13.8905 10.6666 14.1666C10.6666 14.4428 10.8904 14.6666 11.1666 14.6666H13.1666C13.995 14.6666 14.6666 13.9951 14.6666 13.1666V11.1666Z" fill="#3B404A"/>
<path d="M5.49994 5C5.49994 4.72386 5.27608 4.5 4.99994 4.5C4.7238 4.5 4.49994 4.72386 4.49994 5V6.5C4.49994 6.77614 4.7238 7 4.99994 7C5.27608 7 5.49994 6.77614 5.49994 6.5V5Z" fill="#3B404A"/>
<path d="M11.4999 5C11.4999 4.72386 11.2761 4.5 10.9999 4.5C10.7238 4.5 10.4999 4.72386 10.4999 5V6.5C10.4999 6.77614 10.7238 7 10.9999 7C11.2761 7 11.4999 6.77614 11.4999 6.5V5Z" fill="#3B404A"/>
<path d="M8.49994 5.5C8.49994 5.22386 8.27608 5 7.99994 5C7.7238 5 7.49994 5.22386 7.49994 5.5V8.5C7.2238 8.5 6.99994 8.72386 6.99994 9C6.99994 9.27614 7.2238 9.5 7.49994 9.5C8.05222 9.5 8.49994 9.05228 8.49994 8.5V5.5Z" fill="#3B404A"/>
<path d="M5.35363 10.1465L5.35143 10.1444C5.15597 9.95164 4.84081 9.95202 4.64639 10.1464C4.45112 10.3417 4.45112 10.6583 4.64639 10.8536L4.99994 10.5C4.64639 10.8536 4.64639 10.8536 4.64639 10.8536L4.64712 10.8543L4.64796 10.8551L4.64991 10.8571L4.65497 10.862L4.66969 10.876C4.68154 10.8871 4.6975 10.9017 4.71756 10.9193C4.75767 10.9544 4.81429 11.0014 4.88744 11.0562C5.03367 11.1659 5.24658 11.3073 5.52633 11.4472C6.08748 11.7278 6.91356 12 7.99994 12C9.08632 12 9.9124 11.7278 10.4735 11.4472C10.7533 11.3073 10.9662 11.1659 11.1124 11.0562C11.1856 11.0014 11.2422 10.9544 11.2823 10.9193C11.3024 10.9017 11.3183 10.8871 11.3302 10.876L11.3449 10.862L11.35 10.8571L11.3519 10.8551L11.3528 10.8543C11.3528 10.8543 11.3535 10.8536 10.9999 10.5L11.3535 10.8536C11.5488 10.6583 11.5488 10.3417 11.3535 10.1464C11.1591 9.95202 10.8444 9.95119 10.6489 10.1439L10.6462 10.1465C10.6425 10.15 10.635 10.1569 10.6238 10.1667C10.6014 10.1863 10.5643 10.2174 10.5124 10.2563C10.4087 10.3341 10.2466 10.4427 10.0263 10.5528C9.58748 10.7722 8.91356 11 7.99994 11C7.08632 11 6.4124 10.7722 5.97355 10.5528C5.7533 10.4427 5.59121 10.3341 5.48744 10.2563C5.43559 10.2174 5.39845 10.1863 5.37607 10.1667C5.36488 10.1569 5.3574 10.15 5.35363 10.1465Z" fill="#3B404A"/>
</svg>
