<svg width="16" height="16" viewBox="0 0 16 16" fill="none" xmlns="http://www.w3.org/2000/svg">
<path d="M8 5C7.30964 5 6.75 5.55964 6.75 6.25C6.75 6.52614 6.52614 6.75 6.25 6.75C5.97386 6.75 5.75 6.52614 5.75 6.25C5.75 5.00736 6.75736 4 8 4C9.24264 4 10.25 5.00736 10.25 6.25C10.25 7.32079 9.50199 8.21688 8.5 8.44425V9.5C8.5 9.77614 8.27614 10 8 10C7.72386 10 7.5 9.77614 7.5 9.5V8C7.5 7.72386 7.72386 7.5 8 7.5C8.69036 7.5 9.25 6.94036 9.25 6.25C9.25 5.55964 8.69036 5 8 5Z" fill="#3B404A"/>
<path d="M8 12.25C8.41421 12.25 8.75 11.9142 8.75 11.5C8.75 11.0858 8.41421 10.75 8 10.75C7.58579 10.75 7.25 11.0858 7.25 11.5C7.25 11.9142 7.58579 12.25 8 12.25Z" fill="#3B404A"/>
<path fill-rule="evenodd" clip-rule="evenodd" d="M8 15C11.866 15 15 11.866 15 8C15 4.13401 11.866 1 8 1C4.13401 1 1 4.13401 1 8C1 11.866 4.13401 15 8 15ZM8 14C11.3137 14 14 11.3137 14 8C14 4.68629 11.3137 2 8 2C4.68629 2 2 4.68629 2 8C2 11.3137 4.68629 14 8 14Z" fill="#3B404A"/>
</svg>
