<svg width="16" height="16" viewBox="0 0 16 16" fill="none" xmlns="http://www.w3.org/2000/svg">
<path fill-rule="evenodd" clip-rule="evenodd" d="M12 2C12.2761 2 12.5 2.22386 12.5 2.5V3.5H14C14.2761 3.5 14.5 3.72386 14.5 4C14.5 4.27614 14.2761 4.5 14 4.5H12.5V5.5C12.5 5.77614 12.2761 6 12 6C11.7239 6 11.5 5.77614 11.5 5.5V2.5C11.5 2.22386 11.7239 2 12 2ZM1.5 4C1.5 3.72386 1.72386 3.5 2 3.5H9C9.27614 3.5 9.5 3.72386 9.5 4C9.5 4.27614 9.27614 4.5 9 4.5H2C1.72386 4.5 1.5 4.27614 1.5 4ZM4 6C4.27614 6 4.5 6.22386 4.5 6.5V9.5C4.5 9.77614 4.27614 10 4 10C3.72386 10 3.5 9.77614 3.5 9.5V8.5H2C1.72386 8.5 1.5 8.27614 1.5 8C1.5 7.72386 1.72386 7.5 2 7.5H3.5V6.5C3.5 6.22386 3.72386 6 4 6ZM6.5 8C6.5 7.72386 6.72386 7.5 7 7.5H14C14.2761 7.5 14.5 7.72386 14.5 8C14.5 8.27614 14.2761 8.5 14 8.5H7C6.72386 8.5 6.5 8.27614 6.5 8ZM10 10C10.2761 10 10.5 10.2239 10.5 10.5V11.5H14C14.2761 11.5 14.5 11.7239 14.5 12C14.5 12.2761 14.2761 12.5 14 12.5H10.5V13.5C10.5 13.7761 10.2761 14 10 14C9.72386 14 9.5 13.7761 9.5 13.5V10.5C9.5 10.2239 9.72386 10 10 10ZM1.5 12C1.5 11.7239 1.72386 11.5 2 11.5H7C7.27614 11.5 7.5 11.7239 7.5 12C7.5 12.2761 7.27614 12.5 7 12.5H2C1.72386 12.5 1.5 12.2761 1.5 12Z" fill="#3B404A"/>
</svg>
