<svg width="16" height="16" viewBox="0 0 16 16" fill="none" xmlns="http://www.w3.org/2000/svg">
<path fill-rule="evenodd" clip-rule="evenodd" d="M14.9701 13.45L11.9001 8.85C11.5001 8.26 10.6301 8.26 10.2401 8.85L9.0701 10.6L6.5701 6.85V5.5H11.0701C11.2701 5.5 11.4401 5.39 11.5201 5.21C11.6001 5.03 11.5701 4.82 11.4501 4.68L10.2301 3.26L11.4501 1.84C11.5801 1.69 11.6101 1.48 11.5201 1.31C11.4401 1.13 11.2601 1.02 11.0701 1.02H6.0701C5.7901 1.02 5.5701 1.24 5.5701 1.52V6.87L1.1701 13.45C0.730102 14.11 1.2001 15 2.0001 15H14.1301C14.9301 15 15.4101 14.11 14.9601 13.45H14.9701ZM6.5701 2H9.9801L9.1901 2.92C9.0301 3.11 9.0301 3.38 9.1901 3.57L9.9801 4.49H6.5701V2ZM2.0001 14L6.0001 8H6.1301L10.1301 14H2.0001ZM11.3301 14L9.6601 11.5L11.0601 9.4L14.1301 14H11.3301Z" fill="#3B404A"/>
</svg>
