<svg width="16" height="16" viewBox="0 0 16 16" fill="none" xmlns="http://www.w3.org/2000/svg">
<path fill-rule="evenodd" clip-rule="evenodd" d="M6.12983 2.09962C6.02414 2.05432 5.90607 2.04684 5.79551 2.07843L3 2.87714V9.33713L5.52079 8.6169C5.85247 8.52214 6.20668 8.54459 6.52375 8.68047L9.38732 9.90772C9.48776 9.95076 9.59954 9.95972 9.70555 9.93322L12.6213 9.20429C12.8439 9.14864 13 8.94865 13 8.71922V3.28077C13 2.95548 12.6943 2.7168 12.3787 2.7957L9.94809 3.40336C9.63005 3.48287 9.29472 3.456 8.9934 3.32686L6.12983 2.09962ZM3 10.3771L5.79551 9.57843C5.90607 9.54684 6.02414 9.55432 6.12983 9.59962L8.9934 10.8269C9.29472 10.956 9.63005 10.9829 9.94809 10.9034L12.8638 10.1744C13.5316 10.0075 14 9.40752 14 8.71922V3.28077C14 2.30491 13.0829 1.58888 12.1362 1.82556L9.70555 2.43322C9.59954 2.45972 9.48776 2.45076 9.38732 2.40772L6.52375 1.18047C6.20668 1.04459 5.85247 1.02214 5.52079 1.1169L2.72528 1.91562C2.29598 2.03828 2 2.43066 2 2.87714V14.5C2 14.7761 2.22386 15 2.5 15C2.77614 15 3 14.7761 3 14.5V10.3771Z" fill="#3B404A"/>
</svg>
