<svg width="16" height="16" viewBox="0 0 16 16" fill="none" xmlns="http://www.w3.org/2000/svg">
<path fill-rule="evenodd" clip-rule="evenodd" d="M3.81881 2.11349C3.99391 1.45686 4.58859 0.999985 5.26817 0.999985H10.1909C10.9343 0.999985 11.4177 1.7823 11.0853 2.4472L9.8089 4.99998H12.4776C13.3097 4.99998 13.7778 5.95707 13.2669 6.61393L6.98934 14.6851C6.83481 14.8838 6.59721 15 6.34552 15C5.8659 15 5.48981 14.5882 5.53323 14.1105L5.95237 9.49998H3.15069C2.49366 9.49998 2.01517 8.87717 2.18446 8.24232L3.81881 2.11349ZM5.26817 1.99998C5.04164 1.99998 4.84341 2.15228 4.78505 2.37115L3.15069 8.49998H5.95237C6.5404 8.49998 7.0015 9.0049 6.94826 9.59052L6.58606 13.5748L12.4776 5.99998H8.99989C8.8266 5.99998 8.66566 5.91026 8.57456 5.76285C8.48346 5.61544 8.47518 5.43137 8.55267 5.27638L10.1909 1.99998H5.26817Z" fill="#3B404A"/>
</svg>
