<svg width="16" height="16" viewBox="0 0 16 16" fill="none" xmlns="http://www.w3.org/2000/svg">
<path d="M5.50012 5C5.77626 5 6.00012 5.22386 6.00012 5.5V6.5H7.00012C7.27626 6.5 7.50012 6.72386 7.50012 7C7.50012 7.27614 7.27626 7.5 7.00012 7.5H6.00012V8.5C6.00012 8.77614 5.77626 9 5.50012 9C5.22398 9 5.00012 8.77614 5.00012 8.5V7.5H4.00012C3.72398 7.5 3.50012 7.27614 3.50012 7C3.50012 6.72386 3.72398 6.5 4.00012 6.5H5.00012V5.5C5.00012 5.22386 5.22398 5 5.50012 5Z" fill="#3B404A"/>
<path d="M9.25012 8.75C8.83591 8.75 8.50012 8.41421 8.50012 8C8.50012 7.58579 8.83591 7.25 9.25012 7.25C9.66434 7.25 10.0001 7.58579 10.0001 8C10.0001 8.41421 9.66434 8.75 9.25012 8.75Z" fill="#3B404A"/>
<path d="M11.7501 8.75C11.3359 8.75 11.0001 8.41421 11.0001 8C11.0001 7.58579 11.3359 7.25 11.7501 7.25C12.1643 7.25 12.5001 7.58579 12.5001 8C12.5001 8.41421 12.1643 8.75 11.7501 8.75Z" fill="#3B404A"/>
<path d="M11.2501 6C11.2501 5.58579 10.9143 5.25 10.5001 5.25C10.0859 5.25 9.75012 5.58579 9.75012 6C9.75012 6.41421 10.0859 6.75 10.5001 6.75C10.9143 6.75 11.2501 6.41421 11.2501 6Z" fill="#3B404A"/>
<path fill-rule="evenodd" clip-rule="evenodd" d="M4.13976 2.5C2.94806 2.5 1.92202 3.34115 1.68831 4.50971L0.42716 10.8155C0.149398 12.2043 1.21165 13.5 2.62796 13.5C3.3344 13.5 3.99961 13.1674 4.42347 12.6022L5.10015 11.7C5.19458 11.5741 5.34277 11.5 5.50015 11.5H10.5002C10.6575 11.5 10.8057 11.5741 10.9002 11.7L11.5768 12.6022C12.0007 13.1674 12.6659 13.5 13.3723 13.5C14.7887 13.5 15.8509 12.2043 15.5731 10.8155L14.312 4.50971C14.0783 3.34115 13.0522 2.5 11.8605 2.5H4.13976ZM2.66889 4.70583C2.80912 4.00469 3.42474 3.5 4.13976 3.5H11.8605C12.5756 3.5 13.1912 4.00469 13.3314 4.70583L14.5926 11.0116C14.7466 11.7816 14.1576 12.5 13.3723 12.5C12.9807 12.5 12.6118 12.3156 12.3768 12.0022L11.7002 11.1C11.4169 10.7223 10.9723 10.5 10.5002 10.5H5.50015C5.02802 10.5 4.58343 10.7223 4.30015 11.1L3.62347 12.0022C3.38846 12.3156 3.01964 12.5 2.62796 12.5C1.8427 12.5 1.25374 11.7816 1.40774 11.0116L2.66889 4.70583Z" fill="#3B404A"/>
</svg>
