<svg width="16" height="16" viewBox="0 0 16 16" fill="none" xmlns="http://www.w3.org/2000/svg">
<path fill-rule="evenodd" clip-rule="evenodd" d="M12.75 4.64927H11.71C12.4 3.92927 12.68 2.88927 12.17 2.00927C11.53 0.899269 10.04 0.739269 8.92 1.37927C8.55 1.58927 8.23 1.88927 8 2.22927C7.77 1.88927 7.45 1.59927 7.08 1.37927C5.96 0.729269 4.47 0.899269 3.83 2.00927C3.32 2.88927 3.6 3.92927 4.29 4.64927H3.25C2.42 4.64927 1.75 5.31927 1.75 6.14927V8.81927H7.5V4.81927H8.5V8.81927H14.25V6.14927C14.25 5.31927 13.58 4.64927 12.75 4.64927ZM7.3 4.00927C7.02 4.49927 6.21 4.72927 5.42 4.26927C4.63 3.80927 4.42 2.99927 4.7 2.50927C4.98 2.01927 5.79 1.78927 6.58 2.24927C7.37 2.70927 7.58 3.51927 7.3 4.00927ZM10.58 4.26927C9.79 4.72927 8.98 4.49927 8.7 4.00927C8.42 3.51927 8.62 2.70927 9.42 2.24927C10.21 1.78927 11.02 2.01927 11.3 2.50927C11.58 2.99927 11.38 3.80927 10.58 4.26927ZM1.75 12.5693C1.75 13.3993 2.42 14.0693 3.25 14.0693H7.5V9.81927H1.75V12.5693ZM12.75 14.0693H8.5V9.81927H14.25V12.5693C14.25 13.3993 13.58 14.0693 12.75 14.0693Z" fill="#3B404A"/>
</svg>
