<svg width="16" height="16" viewBox="0 0 16 16" fill="none" xmlns="http://www.w3.org/2000/svg">
<path fill-rule="evenodd" clip-rule="evenodd" d="M1.5 6.1441C1.5 5.31567 2.17157 4.64409 3 4.64409H13C13.8284 4.64409 14.5 5.31567 14.5 6.14409V12.8108C14.5 13.6392 13.8284 14.3108 13 14.3108H3C2.17157 14.3108 1.5 13.6392 1.5 12.8108V6.1441ZM3 5.64409C2.72386 5.64409 2.5 5.86795 2.5 6.1441V12.8108C2.5 13.0869 2.72386 13.3108 3 13.3108H13C13.2761 13.3108 13.5 13.0869 13.5 12.8108V6.14409C13.5 5.86795 13.2761 5.64409 13 5.64409H3Z" fill="#3B404A"/>
<path fill-rule="evenodd" clip-rule="evenodd" d="M7.5 8.97743V5.14409H8.5V8.97743H14V9.97743H8.5V13.8108H7.5V9.97743H2V8.97743H7.5Z" fill="#3B404A"/>
<path fill-rule="evenodd" clip-rule="evenodd" d="M6.58333 2.24377C5.78861 1.78495 4.98238 2.0167 4.70096 2.50414C4.41953 2.99158 4.62195 3.80567 5.41666 4.2645C6.21138 4.72333 7.01761 4.49158 7.29903 4.00414C7.58046 3.5167 7.37804 2.7026 6.58333 2.24377ZM3.83493 2.00414C4.47398 0.897268 5.96487 0.732008 7.08333 1.37775C8.20178 2.02349 8.80411 3.39727 8.16506 4.50414C7.52601 5.61101 6.03512 5.77627 4.91666 5.13053C3.79821 4.48478 3.19588 3.11101 3.83493 2.00414Z" fill="#3B404A"/>
<path fill-rule="evenodd" clip-rule="evenodd" d="M9.4167 2.24377C8.62199 2.7026 8.41957 3.5167 8.701 4.00414C8.98242 4.49158 9.78866 4.72333 10.5834 4.2645C11.3781 3.80567 11.5805 2.99158 11.2991 2.50414C11.0177 2.0167 10.2114 1.78495 9.4167 2.24377ZM7.83497 4.50414C7.19592 3.39727 7.79825 2.02349 8.9167 1.37775C10.0352 0.732008 11.526 0.897268 12.1651 2.00414C12.8042 3.11101 12.2018 4.48478 11.0834 5.13053C9.96491 5.77627 8.47402 5.61101 7.83497 4.50414Z" fill="#3B404A"/>
</svg>
