<svg width="16" height="16" viewBox="0 0 16 16" fill="none" xmlns="http://www.w3.org/2000/svg">
<path fill-rule="evenodd" clip-rule="evenodd" d="M2.22801 3.55697C1.73273 4.19376 1.5 5.07397 1.5 6C1.5 7.91934 2.64332 9.64711 4.05696 11.0404C5.46081 12.4241 7.05827 13.4051 7.80727 13.8277C7.92891 13.8964 8.07065 13.8964 8.19229 13.8277C8.94133 13.4051 10.5389 12.4241 11.9429 11.0404C13.3566 9.64711 14.5 7.91934 14.5 6C14.5 5.07392 14.2672 4.18955 13.7875 3.55C13.3226 2.93007 12.5979 2.5 11.5 2.5C10.4163 2.5 9.66157 2.98297 9.16592 3.47857C8.91665 3.72781 8.73595 3.97792 8.61822 4.16487C8.5596 4.25796 8.51731 4.33425 8.49053 4.38536C8.47716 4.41088 8.46772 4.43 8.4621 4.44168L8.45654 4.45342C8.37619 4.63376 8.19718 4.75002 7.99973 4.75C7.80264 4.74998 7.624 4.63419 7.54346 4.45441L7.54285 4.45303L7.53702 4.4407C7.53128 4.42872 7.52175 4.40928 7.50836 4.38344C7.48154 4.3317 7.43946 4.25476 7.38161 4.16104C7.26538 3.97272 7.08857 3.72161 6.84804 3.4718C6.36756 2.97279 5.65613 2.5 4.66667 2.5C3.47383 2.5 2.70846 2.93925 2.22801 3.55697ZM8.00363 3.2962C7.8842 3.13333 7.73957 2.95597 7.5684 2.7782C6.96566 2.15221 6.01054 1.5 4.66667 1.5C3.19283 1.5 2.12488 2.06075 1.43866 2.94303C0.767273 3.80624 0.5 4.92603 0.5 6C0.5 8.31863 1.87105 10.29 3.35499 11.7526C4.84872 13.2248 6.53205 14.2564 7.31586 14.6987C7.74249 14.9394 8.25704 14.9394 8.68367 14.6987C9.46752 14.2564 11.151 13.2249 12.6448 11.7526C14.1288 10.2901 15.5 8.31866 15.5 6C15.5 4.92608 15.2328 3.81045 14.5875 2.95C13.9274 2.06993 12.9021 1.5 11.5 1.5C10.0837 1.5 9.08831 2.14203 8.45885 2.77143C8.27877 2.95149 8.12767 3.13126 8.00363 3.2962Z" fill="#3B404A"/>
</svg>
