<svg width="16" height="16" viewBox="0 0 16 16" fill="none" xmlns="http://www.w3.org/2000/svg">
<path d="M14.1783 6.70311L8.67828 1.62619C8.29522 1.27259 7.70478 1.27259 7.32172 1.62619L1.82172 6.70311C1.61664 6.89242 1.5 7.15882 1.5 7.43792V13.5001C1.5 14.0524 1.94772 14.5001 2.5 14.5001H6C6.27614 14.5001 6.5 14.2762 6.5 14.0001V10.5C6.5 9.94768 6.94772 9.49996 7.5 9.49996H8.5C9.05228 9.49996 9.5 9.94768 9.5 10.5V14.0001C9.5 14.2762 9.72386 14.5001 10 14.5001H13.5C14.0523 14.5001 14.5 14.0524 14.5 13.5001V7.43792C14.5 7.15882 14.3834 6.89242 14.1783 6.70311Z" fill="#3B404A"/>
</svg>
