<svg width="16" height="16" viewBox="0 0 16 16" fill="none" xmlns="http://www.w3.org/2000/svg">
<path fill-rule="evenodd" clip-rule="evenodd" d="M8.33786 2.48799C8.1467 2.31276 7.8533 2.31276 7.66214 2.48799L2.66214 7.07132C2.55882 7.16603 2.5 7.29975 2.5 7.4399V13C2.5 13.2761 2.72386 13.5 3 13.5H6V10C6 9.17157 6.67157 8.5 7.5 8.5H8.5C9.32843 8.5 10 9.17157 10 10V13.5H13C13.2761 13.5 13.5 13.2761 13.5 13V7.4399C13.5 7.29975 13.4412 7.16603 13.3379 7.07132L8.33786 2.48799ZM6.98641 1.75084C7.5599 1.22514 8.4401 1.22514 9.01359 1.75084L14.0136 6.33417C14.3235 6.61828 14.5 7.01944 14.5 7.4399V13C14.5 13.8284 13.8284 14.5 13 14.5H9.5C9.22386 14.5 9 14.2761 9 14V10C9 9.72386 8.77614 9.5 8.5 9.5H7.5C7.22386 9.5 7 9.72386 7 10V14C7 14.2761 6.77614 14.5 6.5 14.5H3C2.17157 14.5 1.5 13.8284 1.5 13V7.4399C1.5 7.01944 1.67647 6.61828 1.98641 6.33417L6.98641 1.75084Z" fill="#3B404A"/>
<path fill-rule="evenodd" clip-rule="evenodd" d="M6 10C6 9.17157 6.67157 8.5 7.5 8.5H8.5C9.32843 8.5 10 9.17157 10 10V14L9 14V10C9 9.72386 8.77614 9.5 8.5 9.5H7.5C7.22386 9.5 7 9.72386 7 10V14L6 14V10Z" fill="#3B404A"/>
</svg>
