<svg width="16" height="16" viewBox="0 0 16 16" fill="none" xmlns="http://www.w3.org/2000/svg">
<path d="M4 11.5C3.72386 11.5 3.5 11.7239 3.5 12C3.5 12.2761 3.72386 12.5 4 12.5H9.5C9.77614 12.5 10 12.2761 10 12C10 11.7239 9.77614 11.5 9.5 11.5H4Z" fill="#3B404A"/>
<path fill-rule="evenodd" clip-rule="evenodd" d="M6.74999 4.32925C6.41339 3.89812 5.85788 3.5 5 3.5C4.47501 3.5 4.04802 3.63269 3.71093 3.85741C3.37697 4.08005 3.16057 4.37333 3.02154 4.65139C2.88348 4.9275 2.81695 5.19756 2.78415 5.39436C2.76755 5.49395 2.75906 5.57804 2.75469 5.63918C2.7525 5.66984 2.75133 5.69498 2.7507 5.71369L2.75 5.75C2.75 6.44236 3.01835 7.08399 3.37788 7.63612C3.73843 8.18983 4.21026 8.68393 4.66699 9.09172C5.12558 9.50117 5.58186 9.83502 5.92237 10.0661C6.09311 10.1819 6.23593 10.2728 6.33696 10.3351C6.38749 10.3663 6.42765 10.3905 6.45571 10.4071C6.45571 10.4071 6.62891 10.5 6.75 10.5C6.87109 10.5 7.04429 10.4071 7.04429 10.4071C7.07234 10.3905 7.1125 10.3663 7.16304 10.3351C7.26407 10.2728 7.40689 10.1819 7.57763 10.0661C7.91814 9.83502 8.37442 9.50117 8.83301 9.09172C9.28974 8.68393 9.76157 8.18983 10.1221 7.63612C10.4816 7.08399 10.75 6.44236 10.75 5.75L10.75 5.74894L10.75 5.74771L10.7453 5.63918C10.7409 5.57804 10.7325 5.49395 10.7159 5.39436C10.6831 5.19756 10.6165 4.9275 10.4785 4.65139C10.3394 4.37333 10.123 4.08005 9.78907 3.85741C9.45198 3.63269 9.02499 3.5 8.5 3.5C7.64211 3.5 7.0866 3.89811 6.74999 4.32925ZM3.75015 5.74701L3.75 5.75254C3.75066 6.1844 3.91973 6.63565 4.21587 7.09045C4.51156 7.54454 4.91474 7.97233 5.33301 8.34578C5.74942 8.71758 6.16814 9.02436 6.48388 9.23861C6.58477 9.30707 6.67466 9.36576 6.75 9.41376C6.82534 9.36576 6.91523 9.30707 7.01612 9.23861C7.33186 9.02436 7.75058 8.71758 8.16699 8.34578C8.58526 7.97233 8.98843 7.54454 9.28413 7.09045C9.58027 6.63565 9.74934 6.18441 9.75 5.75254L9.74985 5.74701C9.74962 5.74008 9.74908 5.72762 9.74785 5.71043C9.74538 5.67587 9.7402 5.62324 9.72946 5.55876C9.70757 5.42745 9.66473 5.26 9.58404 5.09861C9.50432 4.93917 9.39259 4.79495 9.23437 4.68946C9.07927 4.58607 8.85001 4.5 8.5 4.5C7.95253 4.5 7.65729 4.75921 7.47853 5.02735C7.38452 5.16836 7.32381 5.31284 7.28684 5.42374C7.26862 5.4784 7.2569 5.52271 7.25007 5.55136C7.24668 5.56562 7.24455 5.5758 7.24346 5.58121L7.24265 5.58539C7.20117 5.82485 6.99334 6 6.75001 6C6.50666 6 6.29883 5.82485 6.25735 5.58539L6.25654 5.58122C6.25545 5.57581 6.25332 5.56563 6.24993 5.55137C6.2431 5.52272 6.23138 5.47841 6.21316 5.42375C6.17619 5.31284 6.11547 5.16836 6.02146 5.02735C5.8427 4.75921 5.54745 4.5 5 4.5C4.64999 4.5 4.42073 4.58607 4.26563 4.68946C4.1074 4.79495 3.99568 4.93917 3.91596 5.09861C3.83527 5.26 3.79243 5.42745 3.77054 5.55876C3.75979 5.62324 3.75462 5.67587 3.75215 5.71043C3.75092 5.72762 3.75038 5.74008 3.75015 5.74701Z" fill="#3B404A"/>
<path fill-rule="evenodd" clip-rule="evenodd" d="M13.0868 14.9925C13.0586 14.9974 13.0296 15 13 15H3.5C2.11929 15 1 13.8807 1 12.5V2.5C1 1.67157 1.67157 1 2.5 1H11C11.8284 1 12.5 1.67157 12.5 2.5V5.5L14 5.5C14.5523 5.5 15 5.94772 15 6.5V13.25C15 14.2165 14.2165 15 13.25 15C13.195 15 13.1405 14.9975 13.0868 14.9925ZM12.5 6.5V13.25C12.5 13.6642 12.8358 14 13.25 14C13.6642 14 14 13.6642 14 13.25V6.5H12.5ZM11.5 2.5C11.5 2.22386 11.2761 2 11 2L2.5 2C2.22386 2 2 2.22386 2 2.5L2 12.5C2 13.3284 2.67157 14 3.5 14L11.5 14L11.5 2.5Z" fill="#3B404A"/>
</svg>
