<svg width="16" height="16" viewBox="0 0 16 16" fill="none" xmlns="http://www.w3.org/2000/svg">
<path d="M6.75 2.99997C7.02614 2.99997 7.25 3.22383 7.25 3.49997V3.74997H7.5C8.32843 3.74997 9 4.42154 9 5.24997C9 5.52611 8.77614 5.74997 8.5 5.74997C8.22386 5.74997 8 5.52611 8 5.24997C8 4.97383 7.77614 4.74997 7.5 4.74997H6.18649C6.02621 4.74997 5.87138 4.80814 5.75076 4.91369C5.34874 5.26545 5.50776 5.92402 6.026 6.05358L7.71653 6.47621C9.01799 6.80158 9.41733 8.45544 8.40774 9.33883C8.10483 9.60388 7.71601 9.74997 7.31351 9.74997H7.25V9.99997C7.25 10.2761 7.02614 10.5 6.75 10.5C6.47386 10.5 6.25 10.2761 6.25 9.99997V9.74997H6C5.17157 9.74997 4.5 9.0784 4.5 8.24997C4.5 7.97383 4.72386 7.74997 5 7.74997C5.27614 7.74997 5.5 7.97383 5.5 8.24997C5.5 8.52611 5.72386 8.74997 6 8.74997H7.31351C7.47379 8.74997 7.62862 8.6918 7.74924 8.58625C8.15126 8.23449 7.99224 7.57592 7.474 7.44636L5.78347 7.02372C4.48201 6.69836 4.08267 5.0445 5.09226 4.16111C5.39517 3.89606 5.78399 3.74997 6.18649 3.74997H6.25V3.49997C6.25 3.22383 6.47386 2.99997 6.75 2.99997Z" fill="#3B404A"/>
<path d="M4.5 11.5C4.22386 11.5 4 11.7238 4 12C4 12.2761 4.22386 12.5 4.5 12.5H9C9.27614 12.5 9.5 12.2761 9.5 12C9.5 11.7238 9.27614 11.5 9 11.5H4.5Z" fill="#3B404A"/>
<path fill-rule="evenodd" clip-rule="evenodd" d="M13 15C13.0296 15 13.0586 14.9974 13.0868 14.9925C13.1405 14.9974 13.195 15 13.25 15C14.2165 15 15 14.2165 15 13.25V6.49997C15 5.94769 14.5523 5.49997 14 5.49997L12.5 5.49997V2.49997C12.5 1.67154 11.8284 0.999969 11 0.999969H2.5C1.67157 0.999969 1 1.67154 1 2.49997V12.5C1 13.8807 2.11929 15 3.5 15H13ZM12.5 13.25V6.49997H14V13.25C14 13.6642 13.6642 14 13.25 14C12.8358 14 12.5 13.6642 12.5 13.25ZM11 1.99997C11.2761 1.99997 11.5 2.22383 11.5 2.49997L11.5 14L3.5 14C2.67157 14 2 13.3284 2 12.5L2 2.49997C2 2.22383 2.22386 1.99997 2.5 1.99997L11 1.99997Z" fill="#3B404A"/>
</svg>
