<svg width="16" height="16" viewBox="0 0 16 16" fill="none" xmlns="http://www.w3.org/2000/svg">
<path d="M2.66667 4.66665C3.03486 4.66665 3.33333 4.36817 3.33333 3.99998C3.33333 3.63179 3.03486 3.33331 2.66667 3.33331C2.29848 3.33331 2 3.63179 2 3.99998C2 4.36817 2.29848 4.66665 2.66667 4.66665Z" fill="#3B404A"/>
<path d="M5.33333 3.49998C5.05719 3.49998 4.83333 3.72384 4.83333 3.99998C4.83333 4.27612 5.05719 4.49998 5.33333 4.49998H14C14.2761 4.49998 14.5 4.27612 14.5 3.99998C14.5 3.72384 14.2761 3.49998 14 3.49998H5.33333Z" fill="#3B404A"/>
<path d="M5.33333 7.49998C5.05719 7.49998 4.83333 7.72384 4.83333 7.99998C4.83333 8.27612 5.05719 8.49998 5.33333 8.49998H14C14.2761 8.49998 14.5 8.27612 14.5 7.99998C14.5 7.72384 14.2761 7.49998 14 7.49998H5.33333Z" fill="#3B404A"/>
<path d="M5.33333 11.5C5.05719 11.5 4.83333 11.7238 4.83333 12C4.83333 12.2761 5.05719 12.5 5.33333 12.5H14C14.2761 12.5 14.5 12.2761 14.5 12C14.5 11.7238 14.2761 11.5 14 11.5H5.33333Z" fill="#3B404A"/>
<path d="M3.33333 7.99998C3.33333 8.36817 3.03486 8.66665 2.66667 8.66665C2.29848 8.66665 2 8.36817 2 7.99998C2 7.63179 2.29848 7.33331 2.66667 7.33331C3.03486 7.33331 3.33333 7.63179 3.33333 7.99998Z" fill="#3B404A"/>
<path d="M2.66667 12.6666C3.03486 12.6666 3.33333 12.3682 3.33333 12C3.33333 11.6318 3.03486 11.3333 2.66667 11.3333C2.29848 11.3333 2 11.6318 2 12C2 12.3682 2.29848 12.6666 2.66667 12.6666Z" fill="#3B404A"/>
</svg>
