<svg width="16" height="16" viewBox="0 0 16 16" fill="none" xmlns="http://www.w3.org/2000/svg">
<path fill-rule="evenodd" clip-rule="evenodd" d="M11.5 6H13C13.83 6 14.5 6.67 14.5 7.5V13.5C14.5 14.33 13.83 15 13 15H3C2.17 15 1.5 14.33 1.5 13.5V7.5C1.5 6.67 2.17 6 3 6H4.5V4.5C4.5 2.57 6.07 1 8 1C9.93 1 11.5 2.57 11.5 4.5V6ZM8 2C6.62 2 5.5 3.12 5.5 4.5V6H10.5V4.5C10.5 3.12 9.38 2 8 2ZM13 14C13.28 14 13.5 13.78 13.5 13.5V7.5C13.5 7.22 13.28 7 13 7H3C2.72 7 2.5 7.22 2.5 7.5V13.5C2.5 13.78 2.72 14 3 14H13ZM6 10.5C6 9.4 6.9 8.5 8 8.5C9.1 8.5 10 9.4 10 10.5C10 11.6 9.1 12.5 8 12.5C6.9 12.5 6 11.6 6 10.5ZM7 10.5C7 11.05 7.45 11.5 8 11.5C8.55 11.5 9 11.05 9 10.5C9 9.95 8.55 9.5 8 9.5C7.45 9.5 7 9.95 7 10.5Z" fill="#3B404A"/>
</svg>
