<svg width="16" height="16" viewBox="0 0 16 16" fill="none" xmlns="http://www.w3.org/2000/svg">
<path d="M8.82067 7.4317C8.96371 7.1863 9.10776 6.93915 9.25383 6.68829C9.26601 6.69848 9.27681 6.70632 9.28609 6.71306C9.30159 6.7243 9.31285 6.73247 9.3192 6.7434C9.58276 7.19975 9.76907 7.68333 9.81446 8.21059C9.82293 8.31006 9.80328 8.42734 9.75518 8.5137C9.58283 8.82406 9.40333 9.13044 9.22368 9.43706C9.15299 9.55773 9.08227 9.67843 9.01196 9.79943C8.7396 10.2682 8.68574 10.7599 8.85139 11.2774C9.21385 12.4085 10.6654 12.8588 11.6163 12.1353C11.8981 11.9209 12.0756 11.6322 12.2491 11.3325C13.2271 9.64249 14.2091 7.95485 15.1986 6.27092C15.4882 5.77793 15.5929 5.26579 15.4069 4.7224C15.1786 4.05736 14.7067 3.65814 14.0032 3.52674C13.3155 3.3977 12.5333 3.74585 12.181 4.35107C11.7928 5.01779 11.4042 5.68451 11.0147 6.35022C10.9997 6.37563 10.981 6.39886 10.959 6.42622C10.9475 6.44047 10.9351 6.45584 10.9218 6.47322C10.9089 6.44596 10.9004 6.42844 10.8937 6.41435C10.8898 6.40637 10.8865 6.39949 10.8832 6.39257C10.8285 6.28015 10.7757 6.16662 10.723 6.05311C10.6067 5.80285 10.4905 5.55264 10.3527 5.31452C10.0103 4.7224 9.57971 4.20086 8.99976 3.81406C8.17727 3.26597 7.09867 3.51028 6.58038 4.21732C6.43463 4.41657 6.31198 4.63233 6.18951 4.84777C6.15087 4.91574 6.11225 4.98368 6.07293 5.05106C5.78778 5.54047 5.50335 6.03034 5.21892 6.52021C4.61435 7.56145 4.00977 8.60272 3.39813 9.6398C3.10409 10.1388 2.96046 10.6453 3.12035 11.2189C3.32564 11.9558 4.00314 12.4851 4.77449 12.4996C5.48756 12.513 6.03804 12.2065 6.39881 11.5899C6.87626 10.7738 7.35152 9.95645 7.82684 9.13904C8.02635 8.79595 8.22587 8.45283 8.42557 8.10977C8.55693 7.88419 8.68837 7.65869 8.82067 7.4317Z" fill="#3B404A"/>
<path d="M0.50003 5.29278C0.494272 6.25288 1.30626 7.1014 2.31236 7.08863C3.30728 7.08964 4.11792 6.28514 4.11826 5.29749C4.11826 4.28262 3.30965 3.48955 2.26257 3.50131C1.28729 3.5124 0.505789 4.32328 0.50003 5.29278Z" fill="#3B404A"/>
</svg>
