<svg width="16" height="16" viewBox="0 0 16 16" fill="none" xmlns="http://www.w3.org/2000/svg">
<path fill-rule="evenodd" clip-rule="evenodd" d="M13.5 2.61802C13.5 2.24633 13.1088 2.00459 12.7764 2.17081L7 5.30902V9.6535L12.8244 12.0252C13.1513 12.1477 13.5 11.9061 13.5 11.557V2.61802ZM7 10.7215L12.4733 12.9615C13.4539 13.3292 14.5 12.6043 14.5 11.557V2.61802C14.5 1.50295 13.3265 0.777707 12.3292 1.27638L6.38197 4.5H3C2.17157 4.5 1.5 5.17158 1.5 6V9C1.5 9.82843 2.17157 10.5 3 10.5H3.5V13.5C3.5 14.3284 4.17157 15 5 15H5.5C6.32843 15 7 14.3284 7 13.5V10.7215ZM6 9.5H3C2.72386 9.5 2.5 9.27615 2.5 9V6C2.5 5.72386 2.72386 5.5 3 5.5H6V9.5ZM6 10.5V13.5C6 13.7761 5.77614 14 5.5 14H5C4.72386 14 4.5 13.7761 4.5 13.5V10.5H6Z" fill="#3B404A"/>
</svg>
