<svg width="16" height="16" viewBox="0 0 16 16" fill="none" xmlns="http://www.w3.org/2000/svg">
<path fill-rule="evenodd" clip-rule="evenodd" d="M2.49902 2.5C1.6706 2.5 0.999023 3.17157 0.999023 4V5.98866C0.99886 5.99602 0.998861 6.00337 0.999023 6.0107V12C0.999023 12.8284 1.6706 13.5 2.49902 13.5H13.499C14.3275 13.5 14.999 12.8284 14.999 12V6.01055C14.9992 6.00332 14.9992 5.99607 14.999 5.98882V4C14.999 3.17157 14.3275 2.5 13.499 2.5H2.49902ZM13.999 5.68008V4C13.999 3.72386 13.7752 3.5 13.499 3.5H2.49902C2.22288 3.5 1.99902 3.72386 1.99902 4V5.68008L7.78949 8.35261C7.92244 8.41397 8.0756 8.41397 8.20855 8.35261L13.999 5.68008ZM1.99902 6.78145V12C1.99902 12.2761 2.22288 12.5 2.49902 12.5H13.499C13.7752 12.5 13.999 12.2761 13.999 12V6.78145L8.62761 9.26057C8.22877 9.44465 7.76928 9.44465 7.37043 9.26057L1.99902 6.78145Z" fill="#3B404A"/>
</svg>
