<svg width="16" height="16" viewBox="0 0 16 16" fill="none" xmlns="http://www.w3.org/2000/svg">
<path fill-rule="evenodd" clip-rule="evenodd" d="M5.24165 1.84932C5.71878 1.58424 6.30225 1.59927 6.7651 1.88855L9.76489 3.76341C9.91918 3.85984 10.1137 3.86485 10.2727 3.77649L13.5144 1.97559C14.1809 1.60529 15 2.08726 15 2.84974V11.2058C15 11.5689 14.8031 11.9036 14.4856 12.0799L10.7584 14.1507C10.2812 14.4157 9.69775 14.4007 9.23489 14.1114L6.23511 12.2365C6.08082 12.1401 5.88633 12.1351 5.72729 12.2235L2.48564 14.0244C1.81911 14.3947 1 13.9127 1 13.1502V4.79418C1 4.43101 1.19689 4.09639 1.51436 3.92002L5.24165 1.84932ZM6.5 2.90211V11.2572C6.59149 11.2918 6.68032 11.3356 6.76511 11.3885L9.5 13.0979V4.74999H9.5196C9.4212 4.71439 9.32572 4.66818 9.2349 4.61141L6.5 2.90211ZM10.5 4.76388V13.1502L14 11.2058V2.84974L10.7584 4.65065C10.6751 4.69692 10.5886 4.73465 10.5 4.76388ZM5.5 11.2361V2.84974L2 4.79418V13.1502L5.24164 11.3493C5.32493 11.303 5.41145 11.2653 5.5 11.2361Z" fill="#3B404A"/>
</svg>
