<svg width="16" height="16" viewBox="0 0 16 16" fill="none" xmlns="http://www.w3.org/2000/svg">
<path fill-rule="evenodd" clip-rule="evenodd" d="M0.999023 8.25C0.999023 5.90279 2.90181 4 5.24902 4H11.999C13.6559 4 14.999 5.34315 14.999 7C14.999 8.65685 13.6559 10 11.999 10L5.24902 10C4.28252 10 3.49902 9.2165 3.49902 8.25C3.49902 7.2835 4.28252 6.5 5.24902 6.5H11.999C12.2752 6.5 12.499 6.72386 12.499 7C12.499 7.27614 12.2752 7.5 11.999 7.5H5.24902C4.83481 7.5 4.49902 7.83579 4.49902 8.25C4.49902 8.66421 4.83481 9 5.24902 9L11.999 9C13.1036 9 13.999 8.10457 13.999 7C13.999 5.89543 13.1036 5 11.999 5H5.24902C3.4541 5 1.99902 6.45507 1.99902 8.25C1.99902 10.0449 3.4541 11.5 5.24902 11.5H9.99902C10.2752 11.5 10.499 11.7239 10.499 12C10.499 12.2761 10.2752 12.5 9.99902 12.5H5.24902C2.90181 12.5 0.999023 10.5972 0.999023 8.25Z" fill="#3B404A"/>
</svg>
