<svg width="16" height="16" viewBox="0 0 16 16" fill="none" xmlns="http://www.w3.org/2000/svg">
<path fill-rule="evenodd" clip-rule="evenodd" d="M12.5791 1.8729C11.982 1.27589 11.0101 1.28903 10.4295 1.90195L2.24553 10.5405C2.10308 10.6909 2.01083 10.8818 1.98154 11.0869L1.59833 13.7693C1.50405 14.4293 2.06973 14.995 2.7297 14.9007L5.39728 14.5196C5.62064 14.4877 5.82664 14.3812 5.98181 14.2174L14.1926 5.55045C14.7515 4.96051 14.7389 4.0328 14.1643 3.45817L12.5791 1.8729ZM11.1554 2.58969C11.349 2.38538 11.6729 2.38101 11.8719 2.58001L13.4572 4.16528C13.6488 4.35682 13.6529 4.66606 13.4666 4.86271L12.5435 5.83714L10.2509 3.54451L11.1554 2.58969ZM9.56286 4.27073L2.97149 11.2283L2.58828 13.9107L5.25586 13.5296L11.8555 6.56336L9.56286 4.27073Z" fill="#3B404A"/>
</svg>
