<svg width="16" height="16" viewBox="0 0 16 16" fill="none" xmlns="http://www.w3.org/2000/svg">
<path fill-rule="evenodd" clip-rule="evenodd" d="M8.49996 2C8.49996 1.72386 8.72382 1.5 8.99996 1.5C12.0375 1.5 14.5 3.96243 14.5 7C14.5 7.27614 14.2761 7.5 14 7.5C13.7238 7.5 13.5 7.27614 13.5 7C13.5 4.51472 11.4852 2.5 8.99996 2.5C8.72382 2.5 8.49996 2.27614 8.49996 2ZM8.24996 4.24001C8.24996 3.96386 8.47382 3.74001 8.74996 3.74001C10.683 3.74001 12.25 5.30701 12.25 7.24001C12.25 7.51615 12.0261 7.74001 11.75 7.74001C11.4738 7.74001 11.25 7.51615 11.25 7.24001C11.25 5.85929 10.1307 4.74001 8.74996 4.74001C8.47382 4.74001 8.24996 4.51615 8.24996 4.24001Z" fill="#3B404A"/>
<path fill-rule="evenodd" clip-rule="evenodd" d="M6.31976 7.61271C6.17833 7.47128 6.13479 7.25917 6.20908 7.07346L6.74776 5.72674C6.94839 5.22517 6.86382 4.65445 6.52635 4.23261L5.32597 2.73214C4.93338 2.24141 4.27651 2.04743 3.68032 2.24616L2.0256 2.79773C1.42291 2.99863 0.955692 3.60039 1.10935 4.31639C1.36977 5.52992 2.24261 7.94977 5.14639 10.8536C8.05017 13.7573 10.47 14.6302 11.6836 14.8906C12.3996 15.0442 13.0013 14.577 13.2022 13.9743L13.7538 12.3196C13.9525 11.7234 13.7585 11.0666 13.2678 10.674L11.7673 9.47359C11.3455 9.13612 10.7748 9.05155 10.2732 9.25218L8.92648 9.79087C8.74078 9.86515 8.52867 9.82161 8.38723 9.68018L6.31976 7.61271ZM5.8535 10.1464C8.62404 12.917 10.8723 13.6937 11.8934 13.9129C12.0191 13.9398 12.1822 13.8721 12.2535 13.6581L12.8051 12.0034C12.8713 11.8047 12.8067 11.5857 12.6431 11.4548L11.1426 10.2545C11.002 10.142 10.8118 10.1138 10.6446 10.1807L9.29787 10.7193C8.74075 10.9422 8.10442 10.8116 7.68013 10.3873L5.61265 8.31981C5.18836 7.89552 5.05775 7.25919 5.2806 6.70207L5.81928 5.35535C5.88616 5.18816 5.85797 4.99792 5.74548 4.85731L4.5451 3.35683C4.41424 3.19326 4.19528 3.1286 3.99655 3.19484L2.34183 3.74641C2.12783 3.81775 2.06011 3.98086 2.08709 4.10656C2.30621 5.12763 3.08296 7.3759 5.8535 10.1464Z" fill="#3B404A"/>
</svg>
