<svg width="16" height="16" viewBox="0 0 16 16" fill="none" xmlns="http://www.w3.org/2000/svg">
<path fill-rule="evenodd" clip-rule="evenodd" d="M1.50146 3.00015C1.50146 2.17164 2.17311 1.5 3.00161 1.5H13.0026C13.8311 1.5 14.5028 2.17164 14.5028 3.00015V13.0012C14.5028 13.8297 13.8311 14.5013 13.0026 14.5013H3.00161C2.1731 14.5013 1.50146 13.8297 1.50146 13.0012V3.00015ZM3.00161 2.5001C2.72544 2.5001 2.50156 2.72398 2.50156 3.00015V9.91366L4.85101 7.90005C5.22554 7.57906 5.77819 7.57906 6.15272 7.90005L9.01321 10.3517L10.8777 8.86021C11.243 8.56804 11.762 8.56803 12.1272 8.86021L13.5027 9.96045V3.00015C13.5027 2.72398 13.2788 2.5001 13.0026 2.5001H3.00161ZM13.5027 11.2411L11.5025 9.64108L9.63797 11.1325C9.26278 11.4326 8.72717 11.4236 8.36236 11.1109L5.50186 8.65931L2.50156 11.2307V13.0012C2.50156 13.2773 2.72544 13.5012 3.00161 13.5012H13.0026C13.2788 13.5012 13.5027 13.2773 13.5027 13.0012V11.2411ZM10.5023 4.50035C9.95003 4.50035 9.50232 4.94807 9.50232 5.50035C9.50232 6.05263 9.95003 6.50035 10.5023 6.50035C11.0546 6.50035 11.5023 6.05263 11.5023 5.50035C11.5023 4.94807 11.0546 4.50035 10.5023 4.50035ZM8.50232 5.50035C8.50232 4.39578 9.39775 3.50035 10.5023 3.50035C11.6069 3.50035 12.5023 4.39578 12.5023 5.50035C12.5023 6.60492 11.6069 7.50035 10.5023 7.50035C9.39775 7.50035 8.50232 6.60492 8.50232 5.50035Z" fill="#3B404A"/>
</svg>
