<svg width="16" height="16" viewBox="0 0 16 16" fill="none" xmlns="http://www.w3.org/2000/svg">
<path fill-rule="evenodd" clip-rule="evenodd" d="M15.01 6.37C15.08 6.11 15.35 5.94 15.62 6.01L15.61 6C15.87 6.07 16.04 6.34 15.97 6.61L15.66 7.85C15.51 8.43 15.04 8.86 14.46 8.96C14.33 10.26 13.66 11.42 12.68 12.29L13 12.7C13.39 13.2 13.22 13.93 12.66 14.21L11.59 14.75C11.16 14.97 10.64 14.85 10.35 14.47L9.80999 13.77C9.22999 13.91 8.61999 13.99 7.98999 13.99C7.35999 13.99 6.75999 13.91 6.17999 13.77L5.63999 14.47C5.33999 14.85 4.82999 14.96 4.39999 14.75L3.30999 14.21C2.74999 13.93 2.57999 13.2 2.96999 12.7L3.27999 12.3L2.18999 11.39L1.51999 11.19C0.89999 10.99 0.48999 10.42 0.48999 9.77V7.99C0.48999 7.16 1.15999 6.49 1.98999 6.49H2.06999C2.13999 6.27 2.23999 6.05 2.34999 5.85C2.50999 5.57 2.70999 5.29 2.92999 5.04L2.50999 3.63C2.46999 3.48 2.49999 3.32 2.58999 3.19C2.67999 3.06 2.82999 2.99 2.98999 2.99H3.00999H3.06999C3.11999 3 3.18999 3 3.26999 3C3.42999 3.01 3.65999 3.03 3.89999 3.08C4.13999 3.12 4.40999 3.2 4.66999 3.31C4.82999 3.38 4.98999 3.47 5.13999 3.59L6.01999 3.34C5.98999 3.22 5.98999 3.1 5.98999 2.98C5.98999 1.6 7.10999 0.480003 8.48999 0.480003C9.86999 0.480003 10.99 1.6 10.99 2.98C10.99 3.18 10.97 3.38 10.92 3.57C12.82 4.38 14.23 5.98 14.46 7.92C14.58 7.86 14.67 7.75 14.7 7.61L15.01 6.37ZM9.99999 3C9.99999 2.17 9.32999 1.5 8.49999 1.5C7.66999 1.5 6.99999 2.17 6.99999 3C6.99999 3.83 7.66999 4.5 8.49999 4.5C9.32999 4.5 9.99999 3.83 9.99999 3ZM11.5 12.16C11.52 12.03 11.59 11.91 11.7 11.83L11.68 11.84C12.8 11 13.48 9.81 13.48 8.51C13.48 6.8 12.3 5.26 10.48 4.5L10.48 4.50002C10.38 4.62002 10.28 4.74001 10.17 4.84C10.2011 4.85199 10.2311 4.86339 10.26 4.87436C10.3516 4.90917 10.4316 4.93959 10.5 4.97C10.56 4.99 10.61 5.01 10.64 5.03C10.66 5.03 10.68 5.05 10.68 5.05H10.69C10.93 5.17 11.03 5.47 10.91 5.72C10.79 5.96 10.49 6.06 10.24 5.94V5.92H10.21C10.19 5.91 10.15 5.89 10.1 5.87C10.0212 5.82621 9.89633 5.78243 9.75234 5.73192C9.73192 5.72476 9.71111 5.71746 9.68999 5.71C9.33999 5.6 8.89999 5.49 8.46999 5.49C8.03999 5.49 7.59999 5.59 7.24999 5.71C7.11911 5.7562 7.00602 5.80239 6.91527 5.83945C6.88814 5.85053 6.863 5.8608 6.83999 5.87C6.78999 5.89 6.74999 5.91 6.72999 5.92L6.69999 5.94C6.44999 6.07 6.14999 5.97 6.02999 5.72C5.89999 5.47 5.99999 5.17 6.24999 5.05H6.25999C6.26999 5.04 6.27999 5.03 6.29999 5.03C6.32999 5.02 6.37999 5 6.43999 4.97C6.50842 4.93959 6.58842 4.90917 6.67998 4.87436C6.70883 4.86339 6.73884 4.85199 6.76999 4.84C6.60999 4.68 6.45999 4.51 6.33999 4.31L5.10999 4.65C4.91999 4.71 4.69999 4.64 4.57999 4.47C4.51999 4.4 4.41999 4.31 4.24999 4.24C4.08999 4.17 3.89999 4.11 3.69999 4.07H3.66999L3.95999 5.05C4.00999 5.24 3.95999 5.43 3.81999 5.56C3.58999 5.78 3.36999 6.07 3.20999 6.35C3.04999 6.64 2.97999 6.88 2.97999 7C2.97999 7.28 2.75999 7.5 2.47999 7.5H1.97999C1.69999 7.5 1.47999 7.72 1.47999 8V9.78C1.47999 9.99 1.61999 10.18 1.81999 10.25L2.63999 10.52C2.71999 10.54 2.78999 10.59 2.83999 10.64L2.91999 10.72C2.97999 10.78 3.06999 10.86 3.18999 10.96C3.42999 11.17 3.78999 11.46 4.27999 11.81C4.38999 11.88 4.45999 12.01 4.47999 12.14C4.49999 12.28 4.45999 12.41 4.37999 12.52L3.74999 13.32L4.83999 13.86L5.58999 12.9C5.71999 12.73 5.92999 12.67 6.12999 12.73C6.70999 12.91 7.32999 13 7.98999 13C8.64999 13 9.27999 12.9 9.85999 12.73C10.06 12.67 10.27 12.74 10.4 12.9L11.15 13.86L12.22 13.32L11.6 12.53C11.52 12.43 11.48 12.29 11.5 12.16ZM5.5 6.75C5.5 7.16421 5.16421 7.5 4.75 7.5C4.33579 7.5 4 7.16421 4 6.75C4 6.33579 4.33579 6 4.75 6C5.16421 6 5.5 6.33579 5.5 6.75Z" fill="#3B404A"/>
</svg>
