<svg width="16" height="16" viewBox="0 0 16 16" fill="none" xmlns="http://www.w3.org/2000/svg">
<path fill-rule="evenodd" clip-rule="evenodd" d="M7.89263 2.08656C7.98871 1.25566 9.00167 0.902861 9.59312 1.49431L14.4942 6.39541C15.0857 6.98685 14.7329 7.99981 13.902 8.09589L11.9043 8.3269L9.67657 10.5546L9.45727 12.5283C9.36467 13.3617 8.34919 13.7179 7.75628 13.125L5.66346 11.0322L2.48148 14.2142C2.28622 14.4094 1.96964 14.4094 1.77438 14.2142C1.57911 14.0189 1.57911 13.7023 1.77438 13.5071L4.95931 10.3221L2.87786 8.20552C2.29105 7.6088 2.6531 6.59826 3.48534 6.50994L5.4438 6.30211L7.66165 4.08426L7.89263 2.08656ZM6.01854 9.97303L8.46339 12.4179L8.68269 10.4442C8.70776 10.2185 8.8089 10.0081 8.96946 9.84751L11.1972 7.61979C11.3567 7.46031 11.5654 7.35942 11.7894 7.33352L13.7871 7.10251L8.88601 2.20142L8.65503 4.19912C8.62912 4.42317 8.52824 4.63188 8.36875 4.79136L6.1509 7.00922C5.98914 7.17098 5.77681 7.27239 5.54932 7.29653L3.59086 7.50436L6.01854 9.97303Z" fill="#3B404A"/>
</svg>
