<svg width="16" height="16" viewBox="0 0 16 16" fill="none" xmlns="http://www.w3.org/2000/svg">
<path fill-rule="evenodd" clip-rule="evenodd" d="M8 0.999908C4.13401 0.999908 1 4.13391 1 7.99991C1 11.8659 4.13401 14.9999 8 14.9999C11.866 14.9999 15 11.8659 15 7.99991C15 4.13391 11.866 0.999908 8 0.999908ZM8.50012 4.74999C8.50012 4.47384 8.27626 4.24999 8.00012 4.24999C7.72398 4.24999 7.50012 4.47384 7.50012 4.74999V7.50012H4.75013C4.47399 7.50012 4.25013 7.72398 4.25013 8.00012C4.25013 8.27626 4.47399 8.50012 4.75013 8.50012H7.50012V11.25C7.50012 11.5261 7.72398 11.75 8.00012 11.75C8.27626 11.75 8.50012 11.5261 8.50012 11.25V8.50012H11.2501C11.5263 8.50012 11.7501 8.27626 11.7501 8.00012C11.7501 7.72398 11.5263 7.50012 11.2501 7.50012H8.50012V4.74999Z" fill="#3B404A"/>
</svg>
