<svg width="16" height="16" viewBox="0 0 16 16" fill="none" xmlns="http://www.w3.org/2000/svg">
<path fill-rule="evenodd" clip-rule="evenodd" d="M3 2.5C2.72386 2.5 2.5 2.72386 2.5 3V4.76923C2.5 5.04537 2.27614 5.26923 2 5.26923C1.72386 5.26923 1.5 5.04537 1.5 4.76923V3C1.5 2.17157 2.17157 1.5 3 1.5H5.23077C5.50691 1.5 5.73077 1.72386 5.73077 2C5.73077 2.27614 5.50691 2.5 5.23077 2.5H3ZM10.2692 2C10.2692 1.72386 10.4931 1.5 10.7692 1.5H13C13.8284 1.5 14.5 2.17157 14.5 3V4.76923C14.5 5.04537 14.2761 5.26923 14 5.26923C13.7239 5.26923 13.5 5.04537 13.5 4.76923V3C13.5 2.72386 13.2761 2.5 13 2.5H10.7692C10.4931 2.5 10.2692 2.27614 10.2692 2ZM2 10.7308C2.27614 10.7308 2.5 10.9546 2.5 11.2308V13C2.5 13.2761 2.72386 13.5 3 13.5H5.23077C5.50691 13.5 5.73077 13.7239 5.73077 14C5.73077 14.2761 5.50691 14.5 5.23077 14.5H3C2.17157 14.5 1.5 13.8284 1.5 13V11.2308C1.5 10.9546 1.72386 10.7308 2 10.7308ZM14 10.7308C14.2761 10.7308 14.5 10.9546 14.5 11.2308V13C14.5 13.8284 13.8284 14.5 13 14.5H10.7692C10.4931 14.5 10.2692 14.2761 10.2692 14C10.2692 13.7239 10.4931 13.5 10.7692 13.5H13C13.2761 13.5 13.5 13.2761 13.5 13V11.2308C13.5 10.9546 13.7239 10.7308 14 10.7308Z" fill="#3B404A"/>
<path fill-rule="evenodd" clip-rule="evenodd" d="M3.5 4.5C3.5 3.94772 3.94772 3.5 4.5 3.5H6.5C7.05228 3.5 7.5 3.94772 7.5 4.5V6.5C7.5 7.05228 7.05228 7.5 6.5 7.5H4.5C3.94772 7.5 3.5 7.05228 3.5 6.5V4.5ZM6.5 4.5H4.5V6.5H6.5V4.5Z" fill="#3B404A"/>
<path fill-rule="evenodd" clip-rule="evenodd" d="M8.5 4.5C8.5 3.94772 8.94772 3.5 9.5 3.5H11.5C12.0523 3.5 12.5 3.94772 12.5 4.5V6.5C12.5 7.05228 12.0523 7.5 11.5 7.5H9.5C8.94772 7.5 8.5 7.05228 8.5 6.5V4.5ZM11.5 4.5H9.5V6.5H11.5V4.5Z" fill="#3B404A"/>
<path fill-rule="evenodd" clip-rule="evenodd" d="M3.5 9.5C3.5 8.94772 3.94772 8.5 4.5 8.5H6.5C7.05228 8.5 7.5 8.94772 7.5 9.5V11.5C7.5 12.0523 7.05228 12.5 6.5 12.5H4.5C3.94772 12.5 3.5 12.0523 3.5 11.5V9.5ZM6.5 9.5H4.5V11.5H6.5V9.5Z" fill="#3B404A"/>
<path d="M10 9.25C10 9.66421 9.66421 10 9.25 10C8.83579 10 8.5 9.66421 8.5 9.25C8.5 8.83579 8.83579 8.5 9.25 8.5C9.66421 8.5 10 8.83579 10 9.25Z" fill="#3B404A"/>
<path d="M12.5 11.75C12.5 12.1642 12.1642 12.5 11.75 12.5C11.3358 12.5 11 12.1642 11 11.75C11 11.3358 11.3358 11 11.75 11C12.1642 11 12.5 11.3358 12.5 11.75Z" fill="#3B404A"/>
<path fill-rule="evenodd" clip-rule="evenodd" d="M12.3536 8.64645C12.5488 8.84171 12.5488 9.15829 12.3536 9.35355L9.35355 12.3536C9.15829 12.5488 8.84171 12.5488 8.64645 12.3536C8.45118 12.1583 8.45118 11.8417 8.64645 11.6464L11.6464 8.64645C11.8417 8.45118 12.1583 8.45118 12.3536 8.64645Z" fill="#3B404A"/>
</svg>
