<svg width="16" height="16" viewBox="0 0 16 16" fill="none" xmlns="http://www.w3.org/2000/svg">
<path d="M4 3.5C3.72386 3.5 3.5 3.72386 3.5 4V5C3.5 5.27614 3.72386 5.5 4 5.5H5C5.27614 5.5 5.5 5.27614 5.5 5V4C5.5 3.72386 5.27614 3.5 5 3.5H4Z" fill="#3B404A"/>
<path fill-rule="evenodd" clip-rule="evenodd" d="M1.5 3C1.5 2.17157 2.17157 1.5 3 1.5H6C6.82843 1.5 7.5 2.17157 7.5 3V6C7.5 6.82843 6.82843 7.5 6 7.5H3C2.17157 7.5 1.5 6.82843 1.5 6V3ZM3 2.5C2.72386 2.5 2.5 2.72386 2.5 3V6C2.5 6.27614 2.72386 6.5 3 6.5H6C6.27614 6.5 6.5 6.27614 6.5 6V3C6.5 2.72386 6.27614 2.5 6 2.5H3Z" fill="#3B404A"/>
<path d="M10.5 4C10.5 3.72386 10.7239 3.5 11 3.5H12C12.2761 3.5 12.5 3.72386 12.5 4V5C12.5 5.27614 12.2761 5.5 12 5.5H11C10.7239 5.5 10.5 5.27614 10.5 5V4Z" fill="#3B404A"/>
<path fill-rule="evenodd" clip-rule="evenodd" d="M8.5 3C8.5 2.17157 9.17157 1.5 10 1.5H13C13.8284 1.5 14.5 2.17157 14.5 3V6C14.5 6.82843 13.8284 7.5 13 7.5H10C9.17157 7.5 8.5 6.82843 8.5 6V3ZM10 2.5C9.72386 2.5 9.5 2.72386 9.5 3V6C9.5 6.27614 9.72386 6.5 10 6.5H13C13.2761 6.5 13.5 6.27614 13.5 6V3C13.5 2.72386 13.2761 2.5 13 2.5H10Z" fill="#3B404A"/>
<path d="M4 10.5C3.72386 10.5 3.5 10.7239 3.5 11V12C3.5 12.2761 3.72386 12.5 4 12.5H5C5.27614 12.5 5.5 12.2761 5.5 12V11C5.5 10.7239 5.27614 10.5 5 10.5H4Z" fill="#3B404A"/>
<path fill-rule="evenodd" clip-rule="evenodd" d="M3 8.5C2.17157 8.5 1.5 9.17157 1.5 10V13C1.5 13.8284 2.17157 14.5 3 14.5H6C6.82843 14.5 7.5 13.8284 7.5 13V10C7.5 9.17157 6.82843 8.5 6 8.5H3ZM2.5 10C2.5 9.72386 2.72386 9.5 3 9.5H6C6.27614 9.5 6.5 9.72386 6.5 10V13C6.5 13.2761 6.27614 13.5 6 13.5H3C2.72386 13.5 2.5 13.2761 2.5 13V10Z" fill="#3B404A"/>
<path d="M8.5 10C8.5 9.17157 9.17157 8.5 10 8.5H11.5C11.7761 8.5 12 8.72386 12 9C12 9.27614 11.7761 9.5 11.5 9.5H10C9.72386 9.5 9.5 9.72386 9.5 10V11.5C9.5 11.7761 9.27614 12 9 12C8.72386 12 8.5 11.7761 8.5 11.5V10Z" fill="#3B404A"/>
<path d="M13 14.5C13.8284 14.5 14.5 13.8284 14.5 13V10C14.5 9.72386 14.2761 9.5 14 9.5C13.7239 9.5 13.5 9.72386 13.5 10V13C13.5 13.2761 13.2761 13.5 13 13.5H10C9.72386 13.5 9.5 13.7239 9.5 14C9.5 14.2761 9.72386 14.5 10 14.5H13Z" fill="#3B404A"/>
<path d="M12 12.5C12.2761 12.5 12.5 12.2761 12.5 12V11C12.5 10.7239 12.2761 10.5 12 10.5H11C10.7239 10.5 10.5 10.7239 10.5 11V12C10.5 12.2761 10.7239 12.5 11 12.5H12Z" fill="#3B404A"/>
</svg>
