<svg width="16" height="16" viewBox="0 0 16 16" fill="none" xmlns="http://www.w3.org/2000/svg">
<path fill-rule="evenodd" clip-rule="evenodd" d="M7.99996 2.16666C4.7783 2.16666 2.16663 4.77833 2.16663 8C2.16663 11.2217 4.7783 13.8333 7.99996 13.8333C9.66114 13.8333 11.1595 13.1396 12.2225 12.0246L13.4676 10.0652C13.6059 9.8475 13.8871 9.77074 14.1169 9.88795C14.3466 10.0052 14.4495 10.2779 14.3544 10.5176C14.0347 11.3239 13.5663 12.0544 12.9834 12.6755C11.7374 14.003 9.96525 14.8333 7.99996 14.8333C4.22601 14.8333 1.16663 11.7739 1.16663 8C1.16663 4.22605 4.22601 1.16666 7.99996 1.16666C10.1373 1.16666 12.0458 2.14856 13.298 3.68399C13.6137 4.07107 13.8879 4.49354 14.1137 4.94462C14.2373 5.19155 14.1374 5.49194 13.8905 5.61556C13.6435 5.73918 13.3432 5.63923 13.2195 5.3923C13.0268 5.00745 12.7928 4.64673 12.523 4.316C11.4526 3.00344 9.82418 2.16666 7.99996 2.16666Z" fill="#3B404A"/>
<path fill-rule="evenodd" clip-rule="evenodd" d="M14 0.833328C14.2761 0.833328 14.5 1.05719 14.5 1.33333V5.33333C14.5 5.60947 14.2761 5.83333 14 5.83333H9.99996C9.72382 5.83333 9.49996 5.60947 9.49996 5.33333C9.49996 5.05719 9.72382 4.83333 9.99996 4.83333H13.5V1.33333C13.5 1.05719 13.7238 0.833328 14 0.833328Z" fill="#3B404A"/>
</svg>
