<svg width="16" height="16" viewBox="0 0 16 16" fill="none" xmlns="http://www.w3.org/2000/svg">
<path fill-rule="evenodd" clip-rule="evenodd" d="M0.5 8.00001C0.5 7.72387 0.723858 7.50001 1 7.50001H15C15.2761 7.50001 15.5 7.72387 15.5 8.00001C15.5 8.27615 15.2761 8.50001 15 8.50001H1C0.723858 8.50001 0.5 8.27615 0.5 8.00001Z" fill="#3B404A"/>
<path fill-rule="evenodd" clip-rule="evenodd" d="M3.00001 2.5C2.72386 2.5 2.50001 2.72386 2.50001 3V5C2.50001 5.27614 2.27615 5.5 2.00001 5.5C1.72386 5.5 1.50001 5.27614 1.50001 5V3C1.50001 2.17157 2.17158 1.5 3.00001 1.5H6.00001C6.27615 1.5 6.50001 1.72386 6.50001 2C6.50001 2.27614 6.27615 2.5 6.00001 2.5H3.00001ZM10 1.99999C10 1.72385 10.2239 1.49999 10.5 1.49999L13 1.5C13.8284 1.5 14.5 2.17157 14.5 3V5C14.5 5.27614 14.2761 5.5 14 5.5C13.7239 5.5 13.5 5.27614 13.5 5V3C13.5 2.72386 13.2761 2.5 13 2.5L10.5 2.49999C10.2239 2.49999 10 2.27614 10 1.99999ZM2.00001 10.5C2.27615 10.5 2.50001 10.7239 2.50001 11V13C2.50001 13.2761 2.72386 13.5 3.00001 13.5H6.00001C6.27615 13.5 6.50001 13.7239 6.50001 14C6.50001 14.2761 6.27615 14.5 6.00001 14.5H3.00001C2.17158 14.5 1.50001 13.8284 1.50001 13V11C1.50001 10.7239 1.72386 10.5 2.00001 10.5ZM14 10.5C14.2761 10.5 14.5 10.7239 14.5 11V13C14.5 13.8284 13.8284 14.5 13 14.5H10C9.72386 14.5 9.5 14.2761 9.5 14C9.5 13.7239 9.72386 13.5 10 13.5H13C13.2761 13.5 13.5 13.2761 13.5 13V11C13.5 10.7239 13.7239 10.5 14 10.5Z" fill="#3B404A"/>
</svg>
