<svg width="16" height="16" viewBox="0 0 16 16" fill="none" xmlns="http://www.w3.org/2000/svg">
<path fill-rule="evenodd" clip-rule="evenodd" d="M5.02064 1.91074C5.97332 1.43798 7.08572 1 8 1C8.91428 1 10.0267 1.43798 10.9794 1.91074C11.9537 2.39428 12.8481 2.9596 13.3525 3.29413C13.7676 3.56949 14 4.03125 14 4.51405V8.5C14 10.1779 12.9084 11.5893 11.7635 12.6193C10.6029 13.6632 9.28645 14.4064 8.63501 14.7438C8.23435 14.9513 7.76565 14.9513 7.36499 14.7438C6.71355 14.4064 5.39712 13.6632 4.23654 12.6193C3.09157 11.5893 2 10.1779 2 8.5V4.51405C2 4.03125 2.23241 3.56949 2.64752 3.29413C3.15185 2.9596 4.04626 2.39428 5.02064 1.91074ZM5.46517 2.80651C4.54357 3.26386 3.68803 3.80394 3.2003 4.12747C3.07715 4.20915 3 4.35094 3 4.51405V8.5C3 9.74062 3.82051 10.9 4.90532 11.8758C5.97452 12.8376 7.20556 13.5351 7.82491 13.8559C7.93715 13.914 8.06285 13.914 8.17509 13.8559C8.79444 13.5351 10.0255 12.8376 11.0947 11.8758C12.1795 10.9 13 9.74062 13 8.5V4.51405C13 4.35094 12.9228 4.20915 12.7997 4.12747C12.312 3.80394 11.4564 3.26386 10.5348 2.80651C9.59152 2.33839 8.66192 2 8 2C7.33808 2 6.40848 2.33839 5.46517 2.80651ZM11.3536 5.14645C11.5488 5.34171 11.5488 5.65829 11.3536 5.85355L7.35355 9.85355C7.15829 10.0488 6.84171 10.0488 6.64645 9.85355L4.64645 7.85355C4.45118 7.65829 4.45118 7.34171 4.64645 7.14645C4.84171 6.95118 5.15829 6.95118 5.35355 7.14645L7 8.79289L10.6464 5.14645C10.8417 4.95118 11.1583 4.95118 11.3536 5.14645Z" fill="#3B404A"/>
</svg>
