<svg width="16" height="16" viewBox="0 0 16 16" fill="none" xmlns="http://www.w3.org/2000/svg">
<path fill-rule="evenodd" clip-rule="evenodd" d="M0.5 1.49997C0.5 1.22383 0.723858 0.999969 1 0.999969H1.61722C2.3737 0.999969 3.0118 1.56327 3.10564 2.31392L3.19139 2.99997H13.8596C14.5102 2.99997 14.9876 3.61136 14.8298 4.2425L13.5798 9.24251C13.4685 9.68767 13.0685 9.99997 12.6096 9.99997H4.00001V10.5C4.00001 10.7761 4.22387 11 4.50001 11H12.5C12.7762 11 13 11.2238 13 11.5C13 11.7761 12.7762 12 12.5 12H4.50001C3.67159 12 3.00001 11.3284 3.00001 10.5V9.5311L2.11336 2.43795C2.08208 2.18774 1.86938 1.99997 1.61722 1.99997H1C0.723858 1.99997 0.5 1.77611 0.5 1.49997Z" fill="#3B404A"/>
<path d="M6 13.4999C6 14.0521 5.55228 14.4998 5 14.4998C4.44772 14.4998 4 14.0521 4 13.4999C4 12.9476 4.44772 12.5 5 12.5C5.55228 12.5 6 12.9476 6 13.4999Z" fill="#3B404A"/>
<path d="M11 14.4998C11.5523 14.4998 12 14.0521 12 13.4999C12 12.9476 11.5523 12.5 11 12.5C10.4477 12.5 10 12.9476 10 13.4999C10 14.0521 10.4477 14.4998 11 14.4998Z" fill="#3B404A"/>
</svg>
