<svg width="16" height="16" viewBox="0 0 16 16" fill="none" xmlns="http://www.w3.org/2000/svg">
<path fill-rule="evenodd" clip-rule="evenodd" d="M11 3.5H12.5C13.33 3.5 14 4.17 14 5V13.5C14 14.33 13.33 15 12.5 15H3.5C2.67 15 2 14.33 2 13.5V5C2 4.17 2.67 3.5 3.5 3.5H5C5 1.84 6.34 0.5 8 0.5C9.66 0.5 11 1.84 11 3.5ZM10 3.5C10 2.4 9.1 1.5 8 1.5C6.9 1.5 6 2.4 6 3.5H10ZM12.5 14C12.78 14 13 13.78 13 13.5V5C13 4.72 12.78 4.5 12.5 4.5H3.5C3.22 4.5 3 4.72 3 5V13.5C3 13.78 3.22 14 3.5 14H12.5ZM10 6C10 5.72 10.22 5.5 10.5 5.5C10.78 5.5 11 5.72 11 6V6.5C11 8.16 9.66 9.5 8 9.5C6.34 9.5 5 8.16 5 6.5V6C5 5.72 5.22 5.5 5.5 5.5C5.78 5.5 6 5.72 6 6V6.5C6 7.6 6.9 8.5 8 8.5C9.1 8.5 10 7.6 10 6.5V6Z" fill="#3B404A"/>
</svg>
