<svg width="16" height="16" viewBox="0 0 16 16" fill="none" xmlns="http://www.w3.org/2000/svg">
<path fill-rule="evenodd" clip-rule="evenodd" d="M1.5 3C1.5 2.17157 2.17157 1.5 3 1.5H6C6.27614 1.5 6.5 1.72386 6.5 2C6.5 2.27614 6.27614 2.5 6 2.5H3C2.72386 2.5 2.5 2.72386 2.5 3V13C2.5 13.2761 2.72386 13.5 3 13.5H13C13.2761 13.5 13.5 13.2761 13.5 13V10C13.5 9.72386 13.7239 9.5 14 9.5C14.2761 9.5 14.5 9.72386 14.5 10V13C14.5 13.8284 13.8284 14.5 13 14.5H3C2.17157 14.5 1.5 13.8284 1.5 13V3ZM10 2.5C9.72386 2.5 9.5 2.27614 9.5 2C9.5 1.72386 9.72386 1.5 10 1.5H14C14.2761 1.5 14.5 1.72386 14.5 2V6C14.5 6.27614 14.2761 6.5 14 6.5C13.7239 6.5 13.5 6.27614 13.5 6V3.20711L8.35355 8.35355C8.15829 8.54882 7.84171 8.54882 7.64645 8.35355C7.45118 8.15829 7.45118 7.84171 7.64645 7.64645L12.7929 2.5H10Z" fill="#3B404A"/>
</svg>
