<svg width="16" height="16" viewBox="0 0 16 16" fill="none" xmlns="http://www.w3.org/2000/svg">
<path fill-rule="evenodd" clip-rule="evenodd" d="M6 1.5C5.17157 1.5 4.5 2.17157 4.5 3V4.5H3C2.17157 4.5 1.5 5.17157 1.5 6V13C1.5 13.8284 2.17157 14.5 3 14.5H10C10.8284 14.5 11.5 13.8284 11.5 13V11.5H13C13.8284 11.5 14.5 10.8284 14.5 10V3C14.5 2.17157 13.8284 1.5 13 1.5H6ZM10.5 11.5H6C5.17157 11.5 4.5 10.8284 4.5 10V5.5H3C2.72386 5.5 2.5 5.72386 2.5 6V13C2.5 13.2761 2.72386 13.5 3 13.5H10C10.2761 13.5 10.5 13.2761 10.5 13V11.5ZM13 10.5C13.2761 10.5 13.5 10.2761 13.5 10V3C13.5 2.72386 13.2761 2.5 13 2.5H6C5.72386 2.5 5.5 2.72386 5.5 3V10C5.5 10.2761 5.72386 10.5 6 10.5H13Z" fill="#3B404A"/>
</svg>
