<svg width="16" height="16" viewBox="0 0 16 16" fill="none" xmlns="http://www.w3.org/2000/svg">
<path fill-rule="evenodd" clip-rule="evenodd" d="M7.05542 1.19453C7.36672 0.298966 8.63325 0.298969 8.94455 1.19453L10.3565 5.25653L14.656 5.34415C15.6039 5.36347 15.9953 6.56802 15.2398 7.14082L11.8129 9.73889L13.0582 13.8551C13.3328 14.7626 12.3081 15.507 11.5299 14.9655L7.99998 12.5091L4.4701 14.9655C3.69186 15.507 2.66721 14.7625 2.94177 13.8551L4.18706 9.73889L0.76018 7.14082C0.00464559 6.56801 0.396031 5.36347 1.34395 5.34415L5.64347 5.25653L7.05542 1.19453ZM7.99998 1.52286L6.58803 5.58486C6.4507 5.97993 6.08201 6.2478 5.66384 6.25633L1.36433 6.34394L4.79121 8.94202C5.12451 9.19471 5.26533 9.62813 5.14422 10.0285L3.89892 14.1446L7.4288 11.6883C7.77212 11.4494 8.22785 11.4494 8.57116 11.6883L12.101 14.1446L10.8558 10.0285C10.7346 9.62813 10.8755 9.19471 11.2088 8.94202L14.6356 6.34394L10.3361 6.25633C9.91795 6.2478 9.54926 5.97994 9.41194 5.58486L7.99998 1.52286Z" fill="#3B404A"/>
</svg>
