<svg width="16" height="16" viewBox="0 0 16 16" fill="none" xmlns="http://www.w3.org/2000/svg">
<path d="M4.5 1.00012C4.22386 1.00012 4 1.22398 4 1.50012V4.00012H3.25V1.70812C3.25 1.3814 2.93609 1.14366 2.66209 1.32161C2.1131 1.67816 1.75 2.29674 1.75 3.00012V5.75012C1.75 6.71662 2.5335 7.50012 3.5 7.50012V14.0001C3.5 14.5524 3.94772 15.0001 4.5 15.0001H5C5.55228 15.0001 6 14.5524 6 14.0001V7.50012C6.9665 7.50012 7.75 6.71662 7.75 5.75012V3.00012C7.75 2.29674 7.3869 1.67816 6.83791 1.32161C6.56391 1.14366 6.25 1.3814 6.25 1.70812V4.00012H5.5V1.50012C5.5 1.22398 5.27614 1.00012 5 1.00012H4.5Z" fill="#3B404A"/>
<path d="M9.25 5.00012V7.50012C9.25 7.77626 9.47386 8.00012 9.75 8.00012H11.25V14.0001C11.25 14.5524 11.6977 15.0001 12.25 15.0001H12.75C13.3023 15.0001 13.75 14.5524 13.75 14.0001V1.50012C13.75 1.22398 13.5261 1.00012 13.25 1.00012C11.0409 1.00012 9.25 2.79098 9.25 5.00012Z" fill="#3B404A"/>
</svg>
