<svg width="16" height="16" viewBox="0 0 16 16" fill="none" xmlns="http://www.w3.org/2000/svg">
<path fill-rule="evenodd" clip-rule="evenodd" d="M14 1.00001C14 0.797783 13.8782 0.615465 13.6913 0.538075C13.5045 0.460684 13.2894 0.503462 13.1464 0.646461L11.1464 2.64646C11.0527 2.74023 11 2.86741 11 3.00001V4.29303L8.64679 6.64624C8.45095 6.55251 8.23161 6.50001 8 6.50001C7.17157 6.50001 6.5 7.17159 6.5 8.00001C6.5 8.82844 7.17157 9.50002 8 9.50002C8.82843 9.50002 9.5 8.82844 9.5 8.00001C9.5 7.76847 9.44754 7.54919 9.35385 7.35339L11.7072 5H13C13.1326 5 13.2598 4.94733 13.3536 4.85356L15.3536 2.85356C15.4966 2.71056 15.5393 2.4955 15.4619 2.30866C15.3845 2.12183 15.2022 2 15 2H14V1.00001ZM12 4V3.20712L13 2.20712V2.5C13 2.77615 13.2239 3 13.5 3H13.7929L12.7929 4H12ZM8 2.00001C4.68629 2.00001 2 4.68631 2 8.00001C2 11.3137 4.68629 14 8 14C11.3137 14 14 11.3137 14 8.00001C14 7.35506 13.8984 6.7348 13.7107 6.15383C13.6259 5.89106 13.7701 5.60923 14.0328 5.52434C14.2956 5.43946 14.5775 5.58367 14.6623 5.84644C14.8817 6.52552 15 7.24944 15 8.00001C15 11.866 11.866 15 8 15C4.13401 15 1 11.866 1 8.00001C1 4.13402 4.13401 1.00001 8 1.00001C8.75062 1.00001 9.47458 1.11834 10.1537 1.33772C10.4165 1.42261 10.5607 1.70444 10.4758 1.96722C10.3909 2.22999 10.1091 2.37419 9.8463 2.2893C9.26529 2.10161 8.645 2.00001 8 2.00001ZM8 4.50014C6.067 4.50014 4.5 6.06714 4.5 8.00014C4.5 9.93313 6.067 11.5001 8 11.5001C9.933 11.5001 11.5 9.93313 11.5 8.00014C11.5 7.69723 11.4616 7.40401 11.3898 7.12477C11.3209 6.85734 11.4819 6.58475 11.7494 6.51592C12.0168 6.44709 12.2894 6.60808 12.3582 6.87551C12.4509 7.2355 12.5 7.61244 12.5 8.00014C12.5 10.4854 10.4853 12.5001 8 12.5001C5.51472 12.5001 3.5 10.4854 3.5 8.00014C3.5 5.51486 5.51472 3.50014 8 3.50014C8.38769 3.50014 8.76464 3.54928 9.12463 3.64194C9.39206 3.71077 9.55305 3.98336 9.48422 4.25078C9.41539 4.51821 9.1428 4.6792 8.87537 4.61037C8.59612 4.5385 8.30291 4.50014 8 4.50014Z" fill="#3B404A"/>
</svg>
