<svg width="16" height="16" viewBox="0 0 16 16" fill="none" xmlns="http://www.w3.org/2000/svg">
<path fill-rule="evenodd" clip-rule="evenodd" d="M2 5C2 4.72386 2.22386 4.5 2.5 4.5H13.5C13.7761 4.5 14 4.72386 14 5C14 5.27614 13.7761 5.5 13.5 5.5H2.5C2.22386 5.5 2 5.27614 2 5ZM2 8C2 7.72386 2.22386 7.5 2.5 7.5H13.5C13.7761 7.5 14 7.72386 14 8C14 8.27614 13.7761 8.5 13.5 8.5H2.5C2.22386 8.5 2 8.27614 2 8ZM2 11C2 10.7239 2.22386 10.5 2.5 10.5H13.5C13.7761 10.5 14 10.7239 14 11C14 11.2761 13.7761 11.5 13.5 11.5H2.5C2.22386 11.5 2 11.2761 2 11Z" fill="#3B404A"/>
</svg>
