<svg width="16" height="16" viewBox="0 0 16 16" fill="none" xmlns="http://www.w3.org/2000/svg">
<path fill-rule="evenodd" clip-rule="evenodd" d="M6.78078 2.5C6.55134 2.5 6.35135 2.65615 6.29571 2.87873L5.5 6.06155V13.5H11.7192C11.9487 13.5 12.1486 13.3439 12.2043 13.1213L13.7043 7.12127C13.7832 6.80569 13.5445 6.5 13.2192 6.5H9C8.72386 6.5 8.5 6.27614 8.5 6V3C8.5 2.72386 8.27614 2.5 8 2.5H6.78078ZM4.5 13.5V6.5H3C2.72386 6.5 2.5 6.72386 2.5 7V13C2.5 13.2761 2.72386 13.5 3 13.5H4.5ZM4.60961 5.5L5.32556 2.6362C5.4925 1.96845 6.09248 1.5 6.78078 1.5H8C8.82843 1.5 9.5 2.17157 9.5 3V5.5H13.2192C14.1951 5.5 14.9111 6.41708 14.6744 7.3638L13.1744 13.3638C13.0075 14.0316 12.4075 14.5 11.7192 14.5H3C2.17157 14.5 1.5 13.8284 1.5 13V7C1.5 6.17157 2.17157 5.5 3 5.5H4.60961Z" fill="#3B404A"/>
</svg>
