<svg width="16" height="16" viewBox="0 0 16 16" fill="none" xmlns="http://www.w3.org/2000/svg">
<path fill-rule="evenodd" clip-rule="evenodd" d="M9.70222 0.542721C9.9135 0.636149 10.0333 0.862159 9.99194 1.08945L9.09911 6.00001H13C13.1902 6.00001 13.364 6.10795 13.4483 6.27849C13.5325 6.44903 13.5127 6.65262 13.3972 6.80373L6.89718 15.3037C6.75685 15.4872 6.50907 15.5507 6.29779 15.4573C6.08651 15.3639 5.96674 15.1379 6.00807 14.9106L6.9009 10H3C2.80978 10 2.63603 9.89206 2.55175 9.72152C2.46747 9.55098 2.48727 9.34739 2.60282 9.19628L9.10282 0.696281C9.24316 0.512772 9.49094 0.449292 9.70222 0.542721ZM4.0118 9.00001H7.5C7.64826 9.00001 7.78888 9.0658 7.88388 9.17963C7.97888 9.29346 8.01846 9.44358 7.99194 9.58945L7.36306 13.0483L11.9882 7.00001H8.5C8.35174 7.00001 8.21113 6.93421 8.11613 6.82038C8.02113 6.70655 7.98155 6.55643 8.00807 6.41056L8.63695 2.95173L4.0118 9.00001Z" fill="#3B404A"/>
</svg>
