<svg width="16" height="16" viewBox="0 0 16 16" fill="none" xmlns="http://www.w3.org/2000/svg">
<path fill-rule="evenodd" clip-rule="evenodd" d="M9.99196 1.08945C10.0333 0.862159 9.91352 0.636149 9.70224 0.542721C9.49096 0.449292 9.24318 0.512772 9.10284 0.696281L6.41388 4.21262L11.5 9.28466L13.3972 6.80373C13.5128 6.65262 13.5326 6.44903 13.4483 6.27849C13.364 6.10795 13.1903 6.00001 13 6.00001H9.09913L9.99196 1.08945ZM5.15357 5.86068L2.60282 9.19627C2.48727 9.34738 2.46747 9.55096 2.55175 9.72151C2.63603 9.89205 2.80978 9.99999 3 9.99999H6.9009L6.00807 14.9105C5.96674 15.1378 6.08651 15.3638 6.29779 15.4573C6.50907 15.5507 6.75685 15.4872 6.89718 15.3037L10.2336 10.9407L13.6464 14.3536C13.8417 14.5488 14.1583 14.5488 14.3536 14.3536C14.5488 14.1583 14.5488 13.8417 14.3536 13.6464L6.49544 5.78834L5.76856 5.05646L5.7664 5.05929L2.35355 1.64645C2.15829 1.45118 1.84171 1.45118 1.64645 1.64645C1.45118 1.84171 1.45118 2.15829 1.64645 2.35355L5.15357 5.86068Z" fill="#3B404A"/>
</svg>
