<svg width="16" height="16" viewBox="0 0 16 16" fill="none" xmlns="http://www.w3.org/2000/svg">
<path d="M11 5.75C11 5.47386 10.7761 5.25 10.5 5.25C10.2239 5.25 10 5.47386 10 5.75V7.00012C10 7.27626 10.2239 7.50012 10.5 7.50012C10.7761 7.50012 11 7.27626 11 7.00012V5.75Z" fill="#3B404A"/>
<path d="M11 9.00012C11 8.72398 10.7761 8.50012 10.5 8.50012C10.2239 8.50012 10 8.72398 10 9.00012V10.25C10 10.5261 10.2239 10.75 10.5 10.75C10.7761 10.75 11 10.5261 11 10.25V9.00012Z" fill="#3B404A"/>
<path fill-rule="evenodd" clip-rule="evenodd" d="M2 2.50012C1.17157 2.50012 0.5 3.17169 0.5 4.00012V5.50012C0.5 6.07399 0.957292 6.44091 1.37159 6.54638C2.02056 6.7116 2.5 7.3005 2.5 8.00012C2.5 8.69975 2.02056 9.28865 1.37159 9.45386C0.957292 9.55933 0.5 9.92626 0.5 10.5001V12.0001C0.5 12.8286 1.17157 13.5001 2 13.5001H14C14.8284 13.5001 15.5 12.8286 15.5 12.0001V10.5001C15.5 9.92626 15.0427 9.55933 14.6284 9.45386C13.9794 9.28865 13.5 8.69975 13.5 8.00012C13.5 7.3005 13.9794 6.7116 14.6284 6.54638C15.0427 6.44091 15.5 6.07399 15.5 5.50012V4.00012C15.5 3.17169 14.8284 2.50012 14 2.50012H2ZM10 3.50012V4.00012C10 4.27626 10.2239 4.50012 10.5 4.50012C10.7761 4.50012 11 4.27626 11 4.00012V3.50012H14C14.2761 3.50012 14.5 3.72398 14.5 4.00012L14.4998 5.50005C14.4989 5.50219 14.4955 5.50905 14.4862 5.51907C14.4658 5.54105 14.4287 5.56533 14.3817 5.57729C13.3003 5.85259 12.5 6.83226 12.5 8.00012C12.5 9.16798 13.3003 10.1477 14.3817 10.423C14.4287 10.4349 14.4658 10.4592 14.4862 10.4812C14.4955 10.4912 14.4991 10.4986 14.5 10.5007V12.0001C14.5 12.2763 14.2761 12.5001 14 12.5001H11V12.0001C11 11.724 10.7761 11.5001 10.5 11.5001C10.2239 11.5001 10 11.724 10 12.0001V12.5001H2C1.72386 12.5001 1.5 12.2763 1.5 12.0001L1.50021 10.5002C1.50112 10.4981 1.50452 10.4912 1.5138 10.4812C1.53418 10.4592 1.57133 10.4349 1.6183 10.423C2.69968 10.1477 3.5 9.16798 3.5 8.00012C3.5 6.83227 2.69968 5.85259 1.6183 5.57729C1.57133 5.56533 1.53418 5.54105 1.5138 5.51907C1.50452 5.50905 1.5009 5.50166 1.5 5.49952V4.00012C1.5 3.72398 1.72386 3.50012 2 3.50012H10Z" fill="#3B404A"/>
</svg>
