<svg width="16" height="16" viewBox="0 0 16 16" fill="none" xmlns="http://www.w3.org/2000/svg">
<path fill-rule="evenodd" clip-rule="evenodd" d="M5.78949 1.5C6.06563 1.5 6.28949 1.72386 6.28949 2V3.07895H9.26317C9.53931 3.07895 9.76317 3.30281 9.76317 3.57895C9.76317 3.85509 9.53931 4.07895 9.26317 4.07895H8.40402C8.36718 4.23129 8.31745 4.42078 8.25218 4.63963C8.07744 5.22555 7.78999 6.02645 7.33768 6.89006C7.14647 7.25512 6.92498 7.63284 6.66919 8.01103C6.99426 8.32306 7.33272 8.61137 7.66843 8.86316C7.88935 9.02884 7.93412 9.34224 7.76843 9.56316C7.60275 9.78407 7.28935 9.82884 7.06843 9.66316C6.73609 9.4139 6.39732 9.12892 6.06687 8.81799C5.1432 9.93967 3.8827 10.9868 2.17569 11.6275C1.91716 11.7245 1.62892 11.5935 1.53189 11.335C1.43487 11.0765 1.5658 10.7882 1.82433 10.6912C3.3776 10.1083 4.52283 9.14314 5.36246 8.09962C4.67964 7.34388 4.08912 6.49707 3.7478 5.66307C3.6432 5.40751 3.76559 5.11554 4.02115 5.01094C4.27672 4.90634 4.56869 5.02873 4.67328 5.2843C4.941 5.93843 5.40619 6.62804 5.96174 7.2681C6.14414 6.98544 6.30686 6.70286 6.45182 6.42609C6.86793 5.63162 7.13311 4.89296 7.29389 4.35384C7.32335 4.25505 7.34926 4.16312 7.37192 4.07895H2.3158C2.03966 4.07895 1.8158 3.85509 1.8158 3.57895C1.8158 3.30281 2.03966 3.07895 2.3158 3.07895H5.28949V2C5.28949 1.72386 5.51334 1.5 5.78949 1.5ZM10.6842 6.39474C10.8785 6.39474 11.0552 6.50726 11.1373 6.68329L14.4531 13.7886C14.5699 14.0388 14.4617 14.3363 14.2115 14.4531C13.9612 14.5699 13.6637 14.4617 13.5469 14.2114L12.7974 12.6053H8.57108L7.82153 14.2114C7.70475 14.4617 7.40723 14.5699 7.15699 14.4531C6.90676 14.3363 6.79857 14.0388 6.91534 13.7886L10.2311 6.68329C10.3133 6.50726 10.49 6.39474 10.6842 6.39474ZM9.03774 11.6053H12.3307L10.6842 8.07709L9.03774 11.6053Z" fill="#3B404A"/>
</svg>
