<svg width="16" height="16" viewBox="0 0 16 16" fill="none" xmlns="http://www.w3.org/2000/svg">
<path fill-rule="evenodd" clip-rule="evenodd" d="M8 2.5C6.61929 2.5 5.5 3.61929 5.5 5C5.5 6.38071 6.61929 7.5 8 7.5C9.38071 7.5 10.5 6.38071 10.5 5C10.5 3.61929 9.38071 2.5 8 2.5ZM4.5 5C4.5 3.067 6.067 1.5 8 1.5C9.933 1.5 11.5 3.067 11.5 5C11.5 6.41024 10.6659 7.62567 9.46422 8.17993C12.0702 8.83347 14 11.1914 14 14C14 14.2761 13.7761 14.5 13.5 14.5H2.5C2.22386 14.5 2 14.2761 2 14C2 11.1914 3.92981 8.83347 6.53578 8.17993C5.33405 7.62567 4.5 6.41024 4.5 5ZM3.02469 13.5H12.9753C12.7245 10.9733 10.5927 9 8 9C5.40733 9 3.27555 10.9733 3.02469 13.5Z" fill="#3B404A"/>
</svg>
