<svg width="16" height="16" viewBox="0 0 16 16" fill="none" xmlns="http://www.w3.org/2000/svg">
<path fill-rule="evenodd" clip-rule="evenodd" d="M7.07561 4.64167C6.41278 4.17754 5.50186 4.65173 5.50186 5.4609V10.5404C5.50186 11.3496 6.41278 11.8238 7.07561 11.3596L10.7027 8.81988C11.2713 8.42173 11.2713 7.57958 10.7027 7.18142L7.07561 4.64167ZM6.50197 10.5404V5.4609L10.129 8.00065L6.50197 10.5404Z" fill="#3B404A"/>
<path fill-rule="evenodd" clip-rule="evenodd" d="M3.00161 1.5C2.17311 1.5 1.50146 2.17164 1.50146 3.00015V13.0012C1.50146 13.8297 2.1731 14.5013 3.00161 14.5013H13.0026C13.8311 14.5013 14.5028 13.8297 14.5028 13.0012V3.00015C14.5028 2.17164 13.8311 1.5 13.0026 1.5H3.00161ZM2.50156 3.00015C2.50156 2.72398 2.72544 2.5001 3.00161 2.5001H13.0026C13.2788 2.5001 13.5027 2.72398 13.5027 3.00015V13.0012C13.5027 13.2773 13.2788 13.5012 13.0026 13.5012H3.00161C2.72544 13.5012 2.50156 13.2773 2.50156 13.0012V3.00015Z" fill="#3B404A"/>
</svg>
