<svg width="16" height="16" viewBox="0 0 16 16" fill="none" xmlns="http://www.w3.org/2000/svg">
<path d="M2.36164 1.64646C2.16635 1.45118 1.84974 1.45118 1.65446 1.64646C1.45918 1.84174 1.45918 2.15836 1.65446 2.35364L4.77296 5.47214L4.75032 5.5004H2.50138C1.94833 5.5004 1.5 5.94213 1.5 6.49647V9.5008C1.5 10.0551 1.94833 10.5009 2.50138 10.5009H4.75032L7.25058 13.6209C7.8465 14.351 9.00075 13.9444 9.00075 13.0012V9.69993L13.6557 14.3548C13.8509 14.5501 14.1676 14.5501 14.3628 14.3548C14.5581 14.1596 14.5581 13.8429 14.3628 13.6477L2.36164 1.64646Z" fill="#3B404A"/>
<path d="M13.8964 11.6869C14.44 10.8715 15.0029 9.61796 15.0029 8.00065C15.0029 6.38333 14.4624 5.16333 13.9188 4.34793C13.6477 3.9412 13.3756 3.63473 13.1688 3.42789C13.0653 3.32434 12.9776 3.24535 12.9141 3.19085C12.8822 3.16359 12.8564 3.14241 12.8375 3.12731L12.8145 3.10919L12.8072 3.10354L12.8046 3.10157L12.8036 3.10079L12.8027 3.10016C12.5818 2.93446 12.2683 2.97923 12.1026 3.20017C11.937 3.42099 11.9817 3.73422 12.2023 3.9L12.2128 3.90825C12.2232 3.91659 12.2403 3.93057 12.2632 3.95018C12.309 3.98944 12.3776 4.05109 12.4616 4.13507C12.6298 4.30326 12.8578 4.55935 13.0867 4.90269C13.5432 5.58744 14.0028 6.61766 14.0028 8.00065C14.0028 9.29372 13.601 10.2784 13.1757 10.9607L13.8964 11.6869Z" fill="#3B404A"/>
<path d="M12.5027 8.00065C12.5027 7.13867 12.2156 6.42796 11.9367 5.93987C11.7967 5.69479 11.6563 5.50148 11.5493 5.36773C11.4956 5.3007 11.4501 5.24817 11.4166 5.21113C11.3998 5.19259 11.3861 5.17788 11.3759 5.16713L11.3632 5.15398L11.3589 5.14964L11.3573 5.14804L11.3561 5.14681C11.1608 4.95153 10.8442 4.95153 10.6489 5.14681C10.454 5.34173 10.4534 5.65732 10.6476 5.85268L10.6517 5.85686C10.6561 5.86149 10.6638 5.86974 10.6744 5.88148C10.6956 5.90498 10.7282 5.94231 10.7683 5.99248C10.8488 6.09313 10.9584 6.2436 11.0684 6.43606C11.2896 6.82307 11.5026 7.36247 11.5026 8.00065C11.5026 8.40582 11.4167 8.77119 11.2974 9.08301L12.0557 9.83919C12.2917 9.36752 12.5027 8.73968 12.5027 8.00065Z" fill="#3B404A"/>
<path d="M7.25058 2.37919C7.8465 1.64913 9.00075 2.05686 9.00075 3.00015V6.78581L6.06863 3.85468L7.25058 2.37919Z" fill="#3B404A"/>
</svg>
