<svg width="16" height="16" viewBox="0 0 16 16" fill="none" xmlns="http://www.w3.org/2000/svg">
<path fill-rule="evenodd" clip-rule="evenodd" d="M8.50075 3.30156C8.50075 2.83162 7.91127 2.6212 7.61368 2.98491L4.88737 6.31707C4.79239 6.43315 4.65033 6.50047 4.50035 6.50047H2.50015C2.22398 6.50047 2.0001 6.72435 2.0001 7.00052V9.00072C2.0001 9.27689 2.22398 9.50077 2.50015 9.50077H4.50035C4.65033 9.50077 4.79239 9.56809 4.88737 9.68417L7.61368 13.0163C7.91127 13.38 8.50075 13.1696 8.50075 12.6997V3.30156ZM6.83965 2.35161C7.7324 1.26047 9.50085 1.89174 9.50085 3.30156V12.6997C9.50085 14.1095 7.7324 14.7408 6.83965 13.6496L4.26339 10.5009H2.50015C1.67164 10.5009 1 9.82923 1 9.00072V7.00052C1 6.17201 1.67164 5.50037 2.50015 5.50037H4.26339L6.83965 2.35161Z" fill="#3B404A"/>
<path fill-rule="evenodd" clip-rule="evenodd" d="M12.0996 3.20014C12.2653 2.9792 12.5787 2.93443 12.7996 3.10013L12.8005 3.10076L12.8015 3.10154L12.8041 3.10351L12.8115 3.10916L12.8345 3.12728C12.8533 3.14238 12.8792 3.16356 12.911 3.19082C12.9746 3.24533 13.0622 3.32431 13.1657 3.42786C13.3726 3.6347 13.6446 3.94117 13.9158 4.3479C14.4594 5.1633 14.9999 6.38331 14.9999 8.00062C14.9999 9.61794 14.4594 10.8379 13.9158 11.6533C13.6446 12.0601 13.3726 12.3665 13.1657 12.5734C13.0622 12.6769 12.9746 12.7559 12.911 12.8104C12.8792 12.8377 12.8533 12.8589 12.8345 12.874L12.8115 12.8921L12.8041 12.8977L12.8015 12.8997L12.8005 12.9005L12.7996 12.9011C12.5787 13.0668 12.2653 13.022 12.0996 12.8011C11.9342 12.5806 11.9785 12.2678 12.1984 12.1019L12.1992 12.1013L12.2097 12.093C12.2201 12.0847 12.2372 12.0707 12.2601 12.0511C12.3059 12.0118 12.3746 11.9502 12.4586 11.8662C12.6268 11.698 12.8548 11.4419 13.0836 11.0986C13.5401 10.4138 13.9998 9.38361 13.9998 8.00062C13.9998 6.61764 13.5401 5.58741 13.0836 4.90266C12.8548 4.55932 12.6268 4.30323 12.4586 4.13504C12.3746 4.05106 12.3059 3.98941 12.2601 3.95016C12.2372 3.93054 12.2201 3.91656 12.2097 3.90822L12.1992 3.89997C11.9786 3.73419 11.934 3.42096 12.0996 3.20014ZM12.1992 12.1013L12.1984 12.1019L12.1992 12.1013ZM10.6459 5.14678C10.8412 4.9515 11.1578 4.9515 11.3531 5.14678L11.3543 5.14801L11.3559 5.14961L11.3601 5.15395L11.3728 5.16711C11.383 5.17785 11.3968 5.19256 11.4135 5.2111C11.447 5.24814 11.4926 5.30067 11.5462 5.3677C11.6532 5.50145 11.7936 5.69476 11.9337 5.93984C12.2126 6.42793 12.4996 7.13864 12.4996 8.00062C12.4996 8.8626 12.2126 9.57331 11.9337 10.0614C11.7936 10.3065 11.6532 10.4998 11.5462 10.6335C11.4926 10.7006 11.447 10.7531 11.4135 10.7901C11.3968 10.8087 11.383 10.8234 11.3728 10.8341L11.3601 10.8473L11.3559 10.8516L11.3543 10.8532L11.3533 10.8542C11.158 11.0495 10.8412 11.0497 10.6459 10.8545C10.4508 10.6594 10.4506 10.3433 10.6452 10.148L10.6486 10.1444C10.653 10.1398 10.6607 10.1315 10.6713 10.1198C10.6926 10.0963 10.7251 10.059 10.7653 10.0088C10.8458 9.90814 10.9554 9.75767 11.0653 9.56521C11.2865 9.1782 11.4995 8.63879 11.4995 8.00062C11.4995 7.36245 11.2865 6.82304 11.0653 6.43603C10.9554 6.24357 10.8458 6.0931 10.7653 5.99245C10.7251 5.94228 10.6926 5.90495 10.6713 5.88145C10.6607 5.86971 10.653 5.86146 10.6486 5.85683L10.6445 5.85262L10.6454 5.85348C10.4504 5.65818 10.4507 5.34198 10.6459 5.14678Z" fill="#3B404A"/>
</svg>
