<svg width="16" height="16" viewBox="0 0 16 16" fill="none" xmlns="http://www.w3.org/2000/svg">
<path fill-rule="evenodd" clip-rule="evenodd" d="M8 2C4.68629 2 2 4.68629 2 8C2 11.3137 4.68629 14 8 14C11.3137 14 14 11.3137 14 8C14 4.68629 11.3137 2 8 2ZM1 8C1 4.134 4.13401 0.999996 8 0.999996C11.866 0.999996 15 4.134 15 8C15 11.866 11.866 15 8 15C4.13401 15 1 11.866 1 8Z" fill="#3B404A"/>
<path fill-rule="evenodd" clip-rule="evenodd" d="M8 4C8.27614 3.99999 8.5 4.22385 8.5 4.49999L8.50002 8.49999C8.50002 8.77614 8.27617 8.99999 8.00002 9C7.72388 9 7.50002 8.77614 7.50002 8.5L7.5 4.5C7.5 4.22386 7.72386 4 8 4Z" fill="#3B404A"/>
<path d="M8 10.5C7.58579 10.5 7.25 10.8358 7.25 11.25C7.25 11.6642 7.58579 12 8 12C8.41421 12 8.75 11.6642 8.75 11.25C8.75 10.8358 8.41421 10.5 8 10.5Z" fill="#3B404A"/>
</svg>
