<svg width="16" height="16" viewBox="0 0 16 16" fill="none" xmlns="http://www.w3.org/2000/svg">
<path fill-rule="evenodd" clip-rule="evenodd" d="M8 0.999969C4.13401 0.999969 1 4.13398 1 7.99997C1 11.866 4.13401 15 8 15C11.866 15 15 11.866 15 7.99997C15 4.13398 11.866 0.999969 8 0.999969ZM7.25 4.24997C7.25 3.83576 7.58578 3.49997 8 3.49997C8.41421 3.49997 8.75 3.83575 8.75 4.24997L8.75002 8.24997C8.75002 8.66418 8.41424 8.99997 8.00002 8.99997C7.58581 8.99997 7.25002 8.66419 7.25002 8.24997L7.25 4.24997ZM7 11.5C7 10.9477 7.44772 10.5 8 10.5C8.55228 10.5 9 10.9477 9 11.5C9 12.0523 8.55228 12.5 8 12.5C7.44772 12.5 7 12.0523 7 11.5Z" fill="#3B404A"/>
</svg>
