<svg width="16" height="16" viewBox="0 0 16 16" fill="none" xmlns="http://www.w3.org/2000/svg">
<path d="M11 3.5V2.5C11 1.67 10.33 1 9.5 1H6.5C5.67 1 5 1.67 5 2.5V3.5C4.17 3.5 3.5 4.17 3.5 5V11C3.5 11.83 4.17 12.5 5 12.5V13.5C5 14.33 5.67 15 6.5 15H9.5C10.33 15 11 14.33 11 13.5V12.5C11.83 12.5 12.5 11.83 12.5 11V5C12.5 4.17 11.83 3.5 11 3.5ZM6 2.5C6 2.22 6.22 2 6.5 2H9.5C9.78 2 10 2.22 10 2.5V3.5H6V2.5ZM10 13.5C10 13.78 9.78 14 9.5 14H6.5C6.22 14 6 13.78 6 13.5V12.5H10V13.5ZM11.5 11C11.5 11.28 11.28 11.5 11 11.5H5C4.72 11.5 4.5 11.28 4.5 11V5C4.5 4.72 4.72 4.5 5 4.5H11C11.28 4.5 11.5 4.72 11.5 5V11Z" fill="#3B404A"/>
</svg>
