<svg width="16" height="16" viewBox="0 0 16 16" fill="none" xmlns="http://www.w3.org/2000/svg">
<path fill-rule="evenodd" clip-rule="evenodd" d="M1.49988 8.00001C1.49988 8.13262 1.55256 8.2598 1.64633 8.35357L6.64633 13.3535C6.84159 13.5488 7.15817 13.5488 7.35343 13.3535C7.54869 13.1583 7.54869 12.8417 7.35343 12.6464L3.20698 8.5L13.9999 8.49994C14.276 8.49994 14.4999 8.27608 14.4999 7.99994C14.4999 7.7238 14.276 7.49994 13.9999 7.49994L3.20698 7.5L7.35343 3.35352C7.54869 3.15826 7.54869 2.84168 7.35343 2.64641C7.15817 2.45115 6.84158 2.45115 6.64632 2.64642L1.64632 7.64646C1.55256 7.74023 1.49988 7.86741 1.49988 8.00001Z" fill="#3B404A"/>
</svg>
