<svg width="16" height="16" viewBox="0 0 16 16" fill="none" xmlns="http://www.w3.org/2000/svg">
<path fill-rule="evenodd" clip-rule="evenodd" d="M10.9796 1.64627C11.1749 1.45101 11.4914 1.45101 11.6867 1.64627L14.3534 4.31293C14.5486 4.5082 14.5486 4.82478 14.3534 5.02004L11.6867 7.68671C11.4914 7.88197 11.1749 7.88197 10.9796 7.68671C10.7843 7.49145 10.7843 7.17486 10.9796 6.9796L12.7927 5.16649H5.99982C5.72367 5.16649 5.49982 4.94263 5.49982 4.66649C5.49982 4.39035 5.72367 4.16649 5.99982 4.16649H12.7927L10.9796 2.35337C10.7843 2.15811 10.7843 1.84153 10.9796 1.64627ZM5.02004 8.31293C5.2153 8.5082 5.2153 8.82478 5.02004 9.02004L3.20692 10.8332H9.99982C10.276 10.8332 10.4998 11.057 10.4998 11.3332C10.4998 11.6093 10.276 11.8332 9.99982 11.8332H3.20692L5.02004 13.6463C5.2153 13.8415 5.2153 14.1581 5.02004 14.3534C4.82477 14.5486 4.50819 14.5486 4.31293 14.3534L1.64626 11.6867C1.451 11.4914 1.451 11.1749 1.64626 10.9796L4.31293 8.31293C4.50819 8.11767 4.82477 8.11767 5.02004 8.31293Z" fill="#3B404A"/>
</svg>
