<svg width="16" height="16" viewBox="0 0 16 16" fill="none" xmlns="http://www.w3.org/2000/svg">
<path fill-rule="evenodd" clip-rule="evenodd" d="M7.99996 1.49982C7.86735 1.49982 7.74017 1.5525 7.64641 1.64627L2.64645 6.64627C2.45118 6.84153 2.45118 7.15811 2.64645 7.35338C2.84171 7.54864 3.15829 7.54864 3.35356 7.35337L7.49997 3.20693L7.50003 13.9998C7.50003 14.276 7.72389 14.4998 8.00003 14.4998C8.27617 14.4998 8.50003 14.276 8.50003 13.9998L8.49997 3.20693L12.6464 7.35338C12.8417 7.54864 13.1583 7.54864 13.3536 7.35337C13.5488 7.15811 13.5488 6.84153 13.3536 6.64627L8.35351 1.64627C8.25974 1.5525 8.13257 1.49982 7.99996 1.49982Z" fill="#3B404A"/>
</svg>
