<svg width="16" height="16" viewBox="0 0 16 16" fill="none" xmlns="http://www.w3.org/2000/svg">
<path fill-rule="evenodd" clip-rule="evenodd" d="M14.4999 7.99993C14.4999 7.86732 14.4472 7.74014 14.3534 7.64637L9.35343 2.64641C9.15817 2.45115 8.84158 2.45115 8.64632 2.64642C8.45106 2.84168 8.45106 3.15826 8.64633 3.35352L12.7928 7.49994L1.99988 7.5C1.72373 7.5 1.49988 7.72386 1.49988 8C1.49988 8.27614 1.72374 8.5 1.99988 8.5L12.7928 8.49994L8.64632 12.6464C8.45106 12.8417 8.45106 13.1583 8.64633 13.3535C8.84159 13.5488 9.15817 13.5488 9.35343 13.3535L14.3534 8.35348C14.4472 8.25971 14.4999 8.13253 14.4999 7.99993Z" fill="#3B404A"/>
</svg>
