<svg width="16" height="16" viewBox="0 0 16 16" fill="none" xmlns="http://www.w3.org/2000/svg">
<path fill-rule="evenodd" clip-rule="evenodd" d="M8 2.5C4.96243 2.5 2.5 4.96243 2.5 8C2.5 11.0376 4.96243 13.5 8 13.5C9.22931 13.5 10.3636 13.0972 11.2794 12.4158C11.501 12.251 11.8158 12.2664 12 12.4722C12.1842 12.678 12.1677 12.9958 11.9485 13.1637C10.8541 14.0017 9.48477 14.5 8 14.5C4.41015 14.5 1.5 11.5899 1.5 8C1.5 4.41015 4.41015 1.5 8 1.5C11.5899 1.5 14.5 4.41015 14.5 8C14.5 9.24264 13.4926 10.25 12.25 10.25C11.592 10.25 11 9.96756 10.5886 9.5173C10.0674 10.4045 9.10327 11 8 11C6.34315 11 5 9.65685 5 8C5 6.34315 6.34315 5 8 5C9.65685 5 11 6.34315 11 8C11 8.69036 11.5596 9.25 12.25 9.25C12.9404 9.25 13.5 8.69036 13.5 8C13.5 4.96243 11.0376 2.5 8 2.5ZM10 8C10 6.89543 9.10457 6 8 6C6.89543 6 6 6.89543 6 8C6 9.10457 6.89543 10 8 10C9.10457 10 10 9.10457 10 8Z" fill="#3B404A"/>
</svg>
