<svg width="16" height="16" viewBox="0 0 16 16" fill="none" xmlns="http://www.w3.org/2000/svg">
<path d="M1.95455 2.75C1.42736 2.75 1 3.19072 1 3.73438V12.2656C1 12.8093 1.42736 13.25 1.95455 13.25H2.41414V2.75H1.95455Z" fill="#3B404A"/>
<path d="M3.54545 2.75H4.81818V13.25H3.54545V2.75Z" fill="#3B404A"/>
<path d="M5.77273 2.75H6.40909V13.25H5.77273V2.75Z" fill="#3B404A"/>
<path d="M10.2273 2.75H10.8636V13.25H10.2273V2.75Z" fill="#3B404A"/>
<path d="M12.1364 2.75H12.7727V13.25H12.1364V2.75Z" fill="#3B404A"/>
<path d="M14.0455 2.75H13.7273V13.25H14.0455C14.5726 13.25 15 12.8093 15 12.2656V3.73438C15 3.19072 14.5726 2.75 14.0455 2.75Z" fill="#3B404A"/>
<path d="M9.27273 2.75H7.36364V13.25H9.27273V2.75Z" fill="#3B404A"/>
</svg>
