<svg width="16" height="16" viewBox="0 0 16 16" fill="none" xmlns="http://www.w3.org/2000/svg">
<path fill-rule="evenodd" clip-rule="evenodd" d="M4 8.99429C4 9.27409 3.78 9.49393 3.5 9.49393C3.22 9.49393 3 9.27409 3 8.99429V5.99643C3 3.2384 5.24 1 8 1C8.79 1 9.55 1.18986 10.22 1.51963C10.47 1.63954 10.57 1.93933 10.45 2.18915C10.33 2.43897 10.03 2.5389 9.78 2.41899C9.24 2.14918 8.64 1.99929 8 1.99929C5.79 1.99929 4 3.78801 4 5.99643V8.99429ZM13 5.99643V9.8137V9.83369L14.24 11.3826C14.76 12.0321 14.3 13.0014 13.46 13.0014H10.45C10.22 14.1406 9.21 15 8 15C6.79 15 5.78 14.1406 5.55 13.0014H3.71L2.36 14.3505C2.16 14.5503 1.85 14.5503 1.65 14.3505C1.45 14.1506 1.45 13.8408 1.65 13.641L13.64 1.64954C13.84 1.44968 14.15 1.44968 14.35 1.64954C14.55 1.84939 14.55 2.15917 14.35 2.35903L12.62 4.08779C12.87 4.67737 13 5.31692 13 5.99643ZM6.59 12.9914C6.79 13.571 7.35 13.9907 8 13.9907H8.01C8.66 13.9907 9.21 13.571 9.42 12.9914H6.59ZM11.84 4.86724L4.71 11.9921H13.46L12.11 10.3034C12.04 10.2134 12 10.1035 12 9.99358V5.99643C12 5.60671 11.95 5.22698 11.84 4.86724Z" fill="#3B404A"/>
</svg>
