<svg width="16" height="16" viewBox="0 0 16 16" fill="none" xmlns="http://www.w3.org/2000/svg">
<path fill-rule="evenodd" clip-rule="evenodd" d="M3.99999 10.4999C3.72385 10.4999 3.49999 10.7238 3.49999 10.9999L3.49999 12.9999C3.49999 13.276 3.72385 13.4999 3.99999 13.4999L12.4999 13.4999V10.4999H3.99999ZM2.5 10.9999C2.5 10.1715 3.17157 9.49991 3.99999 9.49991H13.4999L13.4999 13.9999C13.4999 14.276 13.276 14.4999 12.9999 14.4999L3.99999 14.4999C3.17157 14.4999 2.5 13.8283 2.5 12.9999L2.5 10.9999Z" fill="#3B404A"/>
<path fill-rule="evenodd" clip-rule="evenodd" d="M11.9999 2.49998L3.99999 2.49998C3.72385 2.49998 3.49999 2.72383 3.49999 2.99997L3.49999 9.57182C3.65146 9.52477 3.81832 9.49991 3.99999 9.49991L12.4999 9.49991V2.99997C12.4999 2.72383 12.276 2.49998 11.9999 2.49998ZM12.9999 9.99991V10.4999H13.4999V2.99997C13.4999 2.17155 12.8283 1.49999 11.9999 1.49999L3.99999 1.49999C3.17157 1.49999 2.5 2.17156 2.5 2.99997L2.5 10.9999L2.99999 10.9999C3.49999 10.9999 3.49999 10.9997 3.49999 10.9999L3.49999 11.0017L3.49998 11.0031L3.49996 11.0051C3.5 11.0037 3.50018 10.9995 3.50067 10.9926C3.50168 10.9785 3.50393 10.9552 3.50881 10.9258C3.51898 10.8648 3.53838 10.7911 3.5722 10.7235C3.60505 10.6578 3.64646 10.6073 3.69921 10.5722C3.74884 10.5391 3.83748 10.4999 3.99999 10.4999L12.9999 10.4999C13 10.4999 12.9999 10.4999 12.9999 9.99991Z" fill="#3B404A"/>
<path fill-rule="evenodd" clip-rule="evenodd" d="M4.49998 11.9999C4.49998 11.7237 4.72384 11.4999 4.99997 11.4999H12.9999V12.4999H4.99997C4.72384 12.4999 4.49998 12.276 4.49998 11.9999Z" fill="#3B404A"/>
<path fill-rule="evenodd" clip-rule="evenodd" d="M5.49997 3.99996C5.49997 3.72382 5.72383 3.49997 5.99996 3.49997L9.99993 3.49997C10.2761 3.49997 10.4999 3.72382 10.4999 3.99996C10.4999 4.2761 10.2761 4.49996 9.99993 4.49996L5.99996 4.49996C5.72383 4.49996 5.49997 4.2761 5.49997 3.99996Z" fill="#3B404A"/>
</svg>
