<svg width="16" height="16" viewBox="0 0 16 16" fill="none" xmlns="http://www.w3.org/2000/svg">
<path fill-rule="evenodd" clip-rule="evenodd" d="M2.5 7.49999L2.5 13C2.5 13.2761 2.72386 13.5 3 13.5H13C13.2761 13.5 13.5 13.2761 13.5 13V7.49999L2.5 7.49999ZM14.5 6.49999V13C14.5 13.8284 13.8284 14.5 13 14.5H3C2.17157 14.5 1.5 13.8284 1.5 13L1.5 6.49999L14.5 6.49999Z" fill="#3B404A"/>
<path fill-rule="evenodd" clip-rule="evenodd" d="M13 4.49999L3 4.49999C2.72386 4.49999 2.5 4.72385 2.5 4.99999L2.5 6.49999H13.5V4.99999C13.5 4.72385 13.2761 4.49999 13 4.49999ZM3 3.49999L13 3.49999C13.8284 3.49999 14.5 4.17157 14.5 4.99999V7.49999H1.5L1.5 4.99999C1.5 4.17157 2.17157 3.49999 3 3.49999Z" fill="#3B404A"/>
<path fill-rule="evenodd" clip-rule="evenodd" d="M5.5 2.99999C5.5 2.17157 6.17157 1.49999 7 1.49999H9C9.82843 1.49999 10.5 2.17157 10.5 2.99999V6.49999H14V7.49999H2V6.49999H5.5V2.99999ZM6.5 6.49999H9.5V2.99999C9.5 2.72385 9.27614 2.49999 9 2.49999H7C6.72386 2.49999 6.5 2.72385 6.5 2.99999V6.49999Z" fill="#3B404A"/>
</svg>
