<svg width="16" height="16" viewBox="0 0 16 16" fill="none" xmlns="http://www.w3.org/2000/svg">
<path fill-rule="evenodd" clip-rule="evenodd" d="M5.77639 2.05279C6.02338 1.92929 6.32372 2.02941 6.44721 2.2764L6.87281 3.12758C7.23507 3.04411 7.61238 3 8 3C8.38762 3 8.76493 3.04411 9.1272 3.12758L9.55279 2.2764C9.67628 2.02941 9.97662 1.92929 10.2236 2.05279C10.4706 2.17628 10.5707 2.47662 10.4472 2.72361L10.0825 3.453C10.9658 3.85821 11.7107 4.51324 12.2267 5.32764L13.7764 4.55279C14.0234 4.42929 14.3237 4.52941 14.4472 4.7764C14.5707 5.02339 14.4706 5.32372 14.2236 5.44722L12.6745 6.22175C12.8848 6.77426 13 7.37368 13 8V8.5H14.5C14.7761 8.5 15 8.72386 15 9C15 9.27615 14.7761 9.5 14.5 9.5H12.9753C12.8897 10.3626 12.5848 11.1608 12.1172 11.8379L13.8 13.1C14.0209 13.2657 14.0657 13.5791 13.9 13.8C13.7343 14.0209 13.4209 14.0657 13.2 13.9L11.4685 12.6014C10.5694 13.4674 9.34692 14 8 14C6.65308 14 5.43056 13.4674 4.53153 12.6014L2.8 13.9C2.57909 14.0657 2.26569 14.0209 2.1 13.8C1.93431 13.5791 1.97909 13.2657 2.2 13.1L3.88283 11.8379C3.41522 11.1608 3.11033 10.3626 3.02469 9.5H1.5C1.22386 9.5 1 9.27615 1 9C1 8.72386 1.22386 8.5 1.5 8.5H3V8C3 7.37368 3.11516 6.77426 3.32546 6.22175L1.77639 5.44722C1.5294 5.32372 1.42929 5.02339 1.55279 4.7764C1.67628 4.52941 1.97662 4.42929 2.22361 4.55279L3.77331 5.32764C4.2893 4.51324 5.03417 3.85821 5.91748 3.453L5.55279 2.72361C5.42929 2.47662 5.5294 2.17628 5.77639 2.05279ZM4.35327 6.35404C4.39047 6.3169 4.42241 6.27322 4.44721 6.22361C4.47191 6.17422 4.48766 6.12269 4.49509 6.07088C5.17606 4.8363 6.49037 4 8 4C9.50963 4 10.8239 4.8363 11.5049 6.07088C11.5123 6.12269 11.5281 6.17422 11.5528 6.22361C11.5776 6.27322 11.6095 6.31691 11.6467 6.35404C11.8737 6.85605 12 7.41327 12 8V9C12 11.2091 10.2091 13 8 13C5.79086 13 4 11.2091 4 9V8C4 7.41327 4.12633 6.85604 4.35327 6.35404ZM6 7.5C6 7.22386 6.22386 7 6.5 7H9.5C9.77614 7 10 7.22386 10 7.5C10 7.77615 9.77614 8 9.5 8H6.5C6.22386 8 6 7.77615 6 7.5ZM6 9.5C6 9.22386 6.22386 9 6.5 9H9.5C9.77614 9 10 9.22386 10 9.5C10 9.77615 9.77614 10 9.5 10H6.5C6.22386 10 6 9.77615 6 9.5Z" fill="#3B404A"/>
</svg>
