<svg width="16" height="16" viewBox="0 0 16 16" fill="none" xmlns="http://www.w3.org/2000/svg">
<path fill-rule="evenodd" clip-rule="evenodd" d="M15.34 6.57L13.72 3.33C13.47 2.82 12.95 2.5 12.38 2.5H2C1.17 2.5 0.5 3.17 0.5 4V11.5C0.5 12 1 12.5 1.5 12.5H2.01C2.14 11.24 3.2 10.25 4.5 10.25C5.8 10.25 6.86 11.24 6.99 12.5H9.01C9.14 11.24 10.2 10.25 11.5 10.25C12.8 10.25 13.86 11.24 13.99 12.5H14.5C15 12.5 15.5 12 15.5 11.5V7.24C15.5 7.01 15.45 6.78 15.34 6.57ZM3.5 6.75H1.5V4.04C1.5 3.74 1.72 3.5 2 3.5H3.5V6.75ZM6.5 6.75H4.5V3.5H6.5V6.75ZM9.5 6.75H7.5V3.5H9.5V6.75ZM14.5 7.75C14.5 8.03 14.28 8.25 14 8.25H11C10.72 8.25 10.5 8.03 10.5 7.75V3.5H12.38C12.57 3.5 12.74 3.61 12.83 3.78L14.45 7.02C14.48 7.09 14.5 7.17 14.5 7.24V7.75ZM4.5 14.25C5.32843 14.25 6 13.5784 6 12.75C6 11.9216 5.32843 11.25 4.5 11.25C3.67157 11.25 3 11.9216 3 12.75C3 13.5784 3.67157 14.25 4.5 14.25ZM13 12.75C13 13.5784 12.3284 14.25 11.5 14.25C10.6716 14.25 10 13.5784 10 12.75C10 11.9216 10.6716 11.25 11.5 11.25C12.3284 11.25 13 11.9216 13 12.75Z" fill="#3B404A"/>
</svg>
