<svg width="16" height="16" viewBox="0 0 16 16" fill="none" xmlns="http://www.w3.org/2000/svg">
<path fill-rule="evenodd" clip-rule="evenodd" d="M15.34 6.57L13.72 3.33C13.47 2.82 12.95 2.5 12.38 2.5H2C1.17 2.5 0.5 3.17 0.5 4V11.5C0.5 12.33 1.17 13 2 13H2.5C2.5 13 2.58 13 2.62 12.98C2.92 13.86 3.76 14.5 4.75 14.5C5.74 14.5 6.56 13.87 6.87 13H9.13C9.44 13.87 10.27 14.5 11.25 14.5C12.23 14.5 13.07 13.87 13.38 12.98C13.42 12.98 13.46 13 13.5 13H14C14.83 13 15.5 12.33 15.5 11.5V7.24C15.5 7.01 15.45 6.78 15.34 6.57ZM7.5 3.5H9.5V6.5H7.5V3.5ZM4.5 3.5H6.5V6.5H4.5V3.5ZM1.5 4C1.5 3.72 1.72 3.5 2 3.5H3.5V6.5H1.5V4ZM4.75 13.5C4.06 13.5 3.5 12.94 3.5 12.25C3.5 11.56 4.06 11 4.75 11C5.44 11 6 11.56 6 12.25C6 12.94 5.44 13.5 4.75 13.5ZM11.25 13.5C10.56 13.5 10 12.94 10 12.25C10 11.56 10.56 11 11.25 11C11.94 11 12.5 11.56 12.5 12.25C12.5 12.94 11.94 13.5 11.25 13.5ZM14.5 11.5C14.5 11.78 14.28 12 14 12H13.5C13.5 12 13.5 12 13.49 12C13.37 10.87 12.41 10 11.25 10C10.09 10 9.14 10.88 9.01 12H6.98C6.86 10.88 5.9 10 4.74 10C3.58 10 2.63 10.88 2.5 12H2.49H1.99C1.71 12 1.49 11.78 1.49 11.5V7.5H9.49C9.49 8.33 10.16 9 10.99 9H14.49V11.5H14.5ZM14.5 8H11C10.72 8 10.5 7.78 10.5 7.5V3.5H12.38C12.57 3.5 12.74 3.61 12.83 3.78L14.45 7.02C14.48 7.09 14.5 7.17 14.5 7.24V8Z" fill="#3B404A"/>
</svg>
