<svg width="16" height="16" viewBox="0 0 16 16" fill="none" xmlns="http://www.w3.org/2000/svg">
<path fill-rule="evenodd" clip-rule="evenodd" d="M1.5 3.50001C1.5 2.67158 2.17157 2.00001 3 2.00001H13C13.8284 2.00001 14.5 2.67158 14.5 3.50001V13C14.5 13.8284 13.8284 14.5 13 14.5H3C2.17157 14.5 1.5 13.8284 1.5 13V3.50001ZM3 3.00001C2.72386 3.00001 2.5 3.22387 2.5 3.50001V13C2.5 13.2761 2.72386 13.5 3 13.5H13C13.2761 13.5 13.5 13.2761 13.5 13V3.50001C13.5 3.22387 13.2761 3.00001 13 3.00001H3Z" fill="#3B404A"/>
<path fill-rule="evenodd" clip-rule="evenodd" d="M5.64645 6.14645C5.84171 5.95119 6.15829 5.95119 6.35355 6.14645L8 7.7929L9.64645 6.14645C9.84171 5.95119 10.1583 5.95119 10.3536 6.14645C10.5488 6.34172 10.5488 6.6583 10.3536 6.85356L8.70711 8.50001L10.3536 10.1465C10.5488 10.3417 10.5488 10.6583 10.3536 10.8536C10.1583 11.0488 9.84171 11.0488 9.64645 10.8536L8 9.20712L6.35355 10.8536C6.15829 11.0488 5.84171 11.0488 5.64645 10.8536C5.45118 10.6583 5.45118 10.3417 5.64645 10.1465L7.29289 8.50001L5.64645 6.85356C5.45118 6.6583 5.45118 6.34172 5.64645 6.14645Z" fill="#3B404A"/>
<path fill-rule="evenodd" clip-rule="evenodd" d="M5.5 1.00001C5.77614 1.00001 6 1.22387 6 1.50001V3.50001C6 3.77615 5.77614 4.00001 5.5 4.00001C5.22386 4.00001 5 3.77615 5 3.50001V1.50001C5 1.22387 5.22386 1.00001 5.5 1.00001ZM10.5 1.00001C10.7761 1.00001 11 1.22387 11 1.50001V3.50001C11 3.77615 10.7761 4.00001 10.5 4.00001C10.2239 4.00001 10 3.77615 10 3.50001V1.50001C10 1.22387 10.2239 1.00001 10.5 1.00001Z" fill="#3B404A"/>
</svg>
