<svg width="16" height="16" viewBox="0 0 16 16" fill="none" xmlns="http://www.w3.org/2000/svg">
<path fill-rule="evenodd" clip-rule="evenodd" d="M1.49976 3.50001C1.49976 2.67158 2.17133 2.00001 2.99976 2.00001H12.9998C13.8282 2.00001 14.4998 2.67158 14.4998 3.50001V13C14.4998 13.8284 13.8282 14.5 12.9998 14.5H2.99976C2.17133 14.5 1.49976 13.8284 1.49976 13V3.50001ZM2.99976 3.00001C2.72361 3.00001 2.49976 3.22387 2.49976 3.50001V13C2.49976 13.2761 2.72361 13.5 2.99976 13.5H12.9998C13.2759 13.5 13.4998 13.2761 13.4998 13V3.50001C13.4998 3.22387 13.2759 3.00001 12.9998 3.00001H2.99976Z" fill="#3B404A"/>
<path fill-rule="evenodd" clip-rule="evenodd" d="M11.3533 6.14645C11.5486 6.34172 11.5486 6.6583 11.3533 6.85356L7.85331 10.3536C7.65805 10.5488 7.34146 10.5488 7.1462 10.3536L5.1462 8.35356C4.95094 8.1583 4.95094 7.84172 5.1462 7.64645C5.34146 7.45119 5.65805 7.45119 5.85331 7.64645L7.49976 9.2929L10.6462 6.14645C10.8415 5.95119 11.158 5.95119 11.3533 6.14645Z" fill="#3B404A"/>
<path fill-rule="evenodd" clip-rule="evenodd" d="M5.49976 1.00001C5.7759 1.00001 5.99976 1.22387 5.99976 1.50001V3.50001C5.99976 3.77615 5.7759 4.00001 5.49976 4.00001C5.22361 4.00001 4.99976 3.77615 4.99976 3.50001V1.50001C4.99976 1.22387 5.22361 1.00001 5.49976 1.00001ZM10.4998 1.00001C10.7759 1.00001 10.9998 1.22387 10.9998 1.50001V3.50001C10.9998 3.77615 10.7759 4.00001 10.4998 4.00001C10.2236 4.00001 9.99976 3.77615 9.99976 3.50001V1.50001C9.99976 1.22387 10.2236 1.00001 10.4998 1.00001Z" fill="#3B404A"/>
</svg>
