<svg width="16" height="16" viewBox="0 0 16 16" fill="none" xmlns="http://www.w3.org/2000/svg">
<path d="M3.99977 8.16666C3.72362 8.16666 3.49977 8.39052 3.49977 8.66666C3.49977 8.94281 3.72362 9.16667 3.99977 9.16667H5.3331C5.60924 9.16667 5.8331 8.94281 5.8331 8.66666C5.8331 8.39052 5.60924 8.16666 5.3331 8.16666H3.99977Z" fill="#3B404A"/>
<path d="M3.99977 10.8333C3.72362 10.8333 3.49977 11.0572 3.49977 11.3333C3.49977 11.6095 3.72362 11.8333 3.99977 11.8333H5.3331C5.60924 11.8333 5.8331 11.6095 5.8331 11.3333C5.8331 11.0572 5.60924 10.8333 5.3331 10.8333H3.99977Z" fill="#3B404A"/>
<path d="M6.8331 8.66666C6.8331 8.39052 7.05696 8.16666 7.3331 8.16666H8.66643C8.94257 8.16666 9.16643 8.39052 9.16643 8.66666C9.16643 8.94281 8.94257 9.16667 8.66643 9.16667H7.3331C7.05696 9.16667 6.8331 8.94281 6.8331 8.66666Z" fill="#3B404A"/>
<path d="M7.3331 10.8333C7.05696 10.8333 6.8331 11.0572 6.8331 11.3333C6.8331 11.6095 7.05696 11.8333 7.3331 11.8333H8.66643C8.94257 11.8333 9.16643 11.6095 9.16643 11.3333C9.16643 11.0572 8.94257 10.8333 8.66643 10.8333H7.3331Z" fill="#3B404A"/>
<path d="M10.1664 8.66666C10.1664 8.39052 10.3903 8.16666 10.6664 8.16666H11.9998C12.2759 8.16666 12.4998 8.39052 12.4998 8.66666C12.4998 8.94281 12.2759 9.16667 11.9998 9.16667H10.6664C10.3903 9.16667 10.1664 8.94281 10.1664 8.66666Z" fill="#3B404A"/>
<path d="M10.6664 10.8333C10.3903 10.8333 10.1664 11.0572 10.1664 11.3333C10.1664 11.6095 10.3903 11.8333 10.6664 11.8333H11.9998C12.2759 11.8333 12.4998 11.6095 12.4998 11.3333C12.4998 11.0572 12.2759 10.8333 11.9998 10.8333H10.6664Z" fill="#3B404A"/>
<path fill-rule="evenodd" clip-rule="evenodd" d="M5.99976 1.5C5.99976 1.22385 5.7759 0.999996 5.49976 0.999996C5.22361 0.999996 4.99976 1.22385 4.99976 1.5V2H2.99976C2.17133 2 1.49976 2.67157 1.49976 3.5V13C1.49976 13.8284 2.17133 14.5 2.99976 14.5H12.9998C13.8282 14.5 14.4998 13.8284 14.4998 13V3.5C14.4998 2.67157 13.8282 2 12.9998 2H10.9998V1.5C10.9998 1.22385 10.7759 0.999996 10.4998 0.999996C10.2236 0.999996 9.99976 1.22385 9.99976 1.5V2H5.99976V1.5ZM4.99976 3V3.5C4.99976 3.77614 5.22361 4 5.49976 4C5.7759 4 5.99976 3.77614 5.99976 3.5V3H9.99976V3.5C9.99976 3.77614 10.2236 4 10.4998 4C10.7759 4 10.9998 3.77614 10.9998 3.5V3H12.9998C13.2759 3 13.4998 3.22385 13.4998 3.5V5.5H2.49976V3.5C2.49976 3.22385 2.72361 3 2.99976 3H4.99976ZM2.49976 6.5H13.4998V13C13.4998 13.2761 13.2759 13.5 12.9998 13.5H2.99976C2.72361 13.5 2.49976 13.2761 2.49976 13V6.5Z" fill="#3B404A"/>
</svg>
