<svg width="16" height="16" viewBox="0 0 16 16" fill="none" xmlns="http://www.w3.org/2000/svg">
<path fill-rule="evenodd" clip-rule="evenodd" d="M11.6464 3.64645C11.7402 3.55268 11.8674 3.5 12 3.5H13C13.8284 3.5 14.5 4.17157 14.5 5V12.5C14.5 13.3284 13.8284 14 13 14H2.5C2.29777 14 2.11545 13.8782 2.03806 13.6913C1.96067 13.5045 2.00345 13.2894 2.14645 13.1464L5.64634 9.64655C5.74879 9.54411 5.89063 9.49113 6.03515 9.50135C6.17966 9.51156 6.31265 9.58396 6.39966 9.69979C6.7654 10.1867 7.34603 10.5 8 10.5C9.10457 10.5 10 9.60457 10 8.5C10 7.84603 9.68665 7.2654 9.19979 6.89966C9.08396 6.81265 9.01156 6.67966 9.00135 6.53515C8.99113 6.39063 9.04411 6.24879 9.14655 6.14634L11.6464 3.64645ZM12.2071 4.5L10.2223 6.48478C10.7051 7.01697 11 7.72409 11 8.5C11 10.1569 9.65685 11.5 8 11.5C7.22409 11.5 6.51697 11.2051 5.98478 10.7223L3.70711 13H13C13.2761 13 13.5 12.7761 13.5 12.5V5C13.5 4.72386 13.2761 4.5 13 4.5H12.2071Z" fill="#3B404A"/>
<path fill-rule="evenodd" clip-rule="evenodd" d="M7.11803 2.5C6.92865 2.5 6.75552 2.607 6.67082 2.77639L6.22361 3.67082C5.96952 4.179 5.45012 4.5 4.88197 4.5H3C2.72386 4.5 2.5 4.72386 2.5 5L2.5 11C2.5 11.2761 2.27614 11.5 2 11.5C1.72386 11.5 1.5 11.2761 1.5 11L1.5 5C1.5 4.17157 2.17157 3.5 3 3.5L4.88197 3.5C5.07135 3.5 5.24448 3.393 5.32918 3.22361L5.77639 2.32918C6.03048 1.821 6.54988 1.5 7.11803 1.5L8.88197 1.5C9.45013 1.5 9.96952 1.821 10.2236 2.32918L10.4472 2.77639C10.5707 3.02338 10.4706 3.32372 10.2236 3.44721C9.97662 3.57071 9.67628 3.4706 9.55279 3.22361L9.32918 2.77639C9.24448 2.607 9.07135 2.5 8.88197 2.5L7.11803 2.5Z" fill="#3B404A"/>
<path fill-rule="evenodd" clip-rule="evenodd" d="M9.14655 6.14634C9.32259 5.9703 9.60123 5.95051 9.80029 6.10003C10.5278 6.64651 11 7.51819 11 8.5C11 10.1569 9.65685 11.5 8 11.5C7.01819 11.5 6.14651 11.0278 5.60003 10.3003C5.45051 10.1012 5.4703 9.82259 5.64634 9.64655L9.14655 6.14634ZM9.51395 7.19298L6.69298 10.0139C7.04383 10.3172 7.50053 10.5 8 10.5C9.10457 10.5 10 9.60457 10 8.5C10 8.00052 9.81721 7.54383 9.51395 7.19298Z" fill="#3B404A"/>
<path fill-rule="evenodd" clip-rule="evenodd" d="M14.3536 1.64645C14.5488 1.84171 14.5488 2.15829 14.3536 2.35355L2.35355 14.3536C2.15829 14.5488 1.84171 14.5488 1.64645 14.3536C1.45118 14.1583 1.45118 13.8417 1.64645 13.6464L13.6464 1.64645C13.8417 1.45119 14.1583 1.45119 14.3536 1.64645Z" fill="#3B404A"/>
</svg>
