<svg width="16" height="16" viewBox="0 0 16 16" fill="none" xmlns="http://www.w3.org/2000/svg">
<path fill-rule="evenodd" clip-rule="evenodd" d="M8 5.5C6.34315 5.5 5 6.84315 5 8.5C5 10.1569 6.34315 11.5 8 11.5C9.65685 11.5 11 10.1569 11 8.5C11 6.84315 9.65685 5.5 8 5.5ZM6 8.5C6 7.39543 6.89543 6.5 8 6.5C9.10457 6.5 10 7.39543 10 8.5C10 9.60457 9.10457 10.5 8 10.5C6.89543 10.5 6 9.60457 6 8.5Z" fill="#3B404A"/>
<path d="M4 6.75C4.41421 6.75 4.75 6.41421 4.75 6C4.75 5.58579 4.41421 5.25 4 5.25C3.58579 5.25 3.25 5.58579 3.25 6C3.25 6.41421 3.58579 6.75 4 6.75Z" fill="#3B404A"/>
<path fill-rule="evenodd" clip-rule="evenodd" d="M7.11803 1.5C6.54988 1.5 6.03048 1.821 5.77639 2.32918L5.32918 3.22361C5.24448 3.393 5.07135 3.5 4.88197 3.5H3C2.17157 3.5 1.5 4.17157 1.5 5V12.5C1.5 13.3284 2.17157 14 3 14H13C13.8284 14 14.5 13.3284 14.5 12.5V5C14.5 4.17157 13.8284 3.5 13 3.5H11.118C10.9286 3.5 10.7555 3.393 10.6708 3.22361L10.2236 2.32918C9.96952 1.821 9.45013 1.5 8.88197 1.5H7.11803ZM6.67082 2.77639C6.75552 2.607 6.92865 2.5 7.11803 2.5H8.88197C9.07135 2.5 9.24448 2.607 9.32918 2.77639L9.77639 3.67082C10.0305 4.179 10.5499 4.5 11.118 4.5H13C13.2761 4.5 13.5 4.72386 13.5 5V12.5C13.5 12.7761 13.2761 13 13 13H3C2.72386 13 2.5 12.7761 2.5 12.5V5C2.5 4.72386 2.72386 4.5 3 4.5H4.88197C5.45012 4.5 5.96952 4.179 6.22361 3.67082L6.67082 2.77639Z" fill="#3B404A"/>
</svg>
