<svg width="16" height="16" viewBox="0 0 16 16" fill="none" xmlns="http://www.w3.org/2000/svg">
<path fill-rule="evenodd" clip-rule="evenodd" d="M9.38197 1.5H6.61803C6.23926 1.5 5.893 1.714 5.72361 2.05279L5.1382 3.22361C5.0535 3.393 4.88037 3.5 4.69098 3.5H2.5C1.94772 3.5 1.5 3.94772 1.5 4.5V12.5C1.5 13.0523 1.94772 13.5 2.5 13.5H13.5C14.0523 13.5 14.5 13.0523 14.5 12.5V4.5C14.5 3.94772 14.0523 3.5 13.5 3.5H11.309C11.1196 3.5 10.9465 3.393 10.8618 3.22361L10.2764 2.05279C10.107 1.714 9.76074 1.5 9.38197 1.5ZM10.75 8.25C10.75 9.76878 9.51878 11 8 11C6.48122 11 5.25 9.76878 5.25 8.25C5.25 6.73122 6.48122 5.5 8 5.5C9.51878 5.5 10.75 6.73122 10.75 8.25ZM3.75 6.5C4.16421 6.5 4.5 6.16421 4.5 5.75C4.5 5.33579 4.16421 5 3.75 5C3.33579 5 3 5.33579 3 5.75C3 6.16421 3.33579 6.5 3.75 6.5Z" fill="#3B404A"/>
</svg>
