<svg width="16" height="16" viewBox="0 0 16 16" fill="none" xmlns="http://www.w3.org/2000/svg">
<path fill-rule="evenodd" clip-rule="evenodd" d="M0.999878 7.9999C0.999878 4.13391 4.13388 0.999901 7.99988 0.999901C8.27602 0.999901 8.49988 1.22376 8.49988 1.4999V4.4999C8.49988 4.77604 8.27602 4.9999 7.99988 4.9999C6.34302 4.9999 4.99988 6.34305 4.99988 7.9999C4.99988 9.65676 6.34302 10.9999 7.99988 10.9999C8.98019 10.9999 9.85032 10.5318 10.4009 9.79904C10.4805 9.69302 10.5991 9.62299 10.7303 9.60434C10.8616 9.5857 10.995 9.61998 11.101 9.69963L13.4995 11.5017C13.7202 11.6675 13.7647 11.981 13.5989 12.2017C12.3252 13.897 10.2911 14.9999 7.99988 14.9999C4.13388 14.9999 0.999878 11.8659 0.999878 7.9999ZM7.49988 2.02044C4.42011 2.27451 1.99988 4.85457 1.99988 7.9999C1.99988 11.3136 4.68617 13.9999 7.99988 13.9999C9.78297 13.9999 11.3846 13.2212 12.4824 11.9883L10.8752 10.7808C10.1468 11.5338 9.12778 11.9999 7.99988 11.9999C5.79074 11.9999 3.99988 10.209 3.99988 7.9999C3.99988 5.96009 5.52672 4.2769 7.49988 4.03085V2.02044Z" fill="#3B404A"/>
<path fill-rule="evenodd" clip-rule="evenodd" d="M14.9999 7.9999C14.9999 4.13391 11.8659 0.999901 7.99988 0.999901C7.72374 0.999901 7.49988 1.22376 7.49988 1.4999V4.4999C7.49988 4.77604 7.72374 4.9999 7.99988 4.9999C9.65673 4.9999 10.9999 6.34305 10.9999 7.9999C10.9999 8.67776 10.7775 9.29783 10.4009 9.79904C10.235 10.0198 10.2795 10.3333 10.5003 10.4991L12.8988 12.3011C13.0048 12.3808 13.1381 12.4151 13.2694 12.3964C13.4007 12.3778 13.5192 12.3078 13.5989 12.2017C14.4781 11.0315 14.9999 9.57379 14.9999 7.9999ZM8.49988 2.02044C11.5796 2.27451 13.9999 4.85457 13.9999 7.9999C13.9999 9.17045 13.6638 10.2647 13.0831 11.1888L11.4757 9.98119C11.8094 9.3974 11.9999 8.7218 11.9999 7.9999C11.9999 5.96009 10.473 4.2769 8.49988 4.03085V2.02044Z" fill="#3B404A"/>
</svg>
