<svg width="16" height="16" viewBox="0 0 16 16" fill="none" xmlns="http://www.w3.org/2000/svg">
<path fill-rule="evenodd" clip-rule="evenodd" d="M8.00952 0.999908C4.14353 0.999908 1.00952 4.13391 1.00952 7.99991C1.00952 11.8659 4.14353 14.9999 8.00952 14.9999C11.8755 14.9999 15.0095 11.8659 15.0095 7.99991C15.0095 4.13391 11.8755 0.999908 8.00952 0.999908ZM11.6102 6.34682C11.8017 6.14791 11.7957 5.83138 11.5968 5.63984C11.3979 5.4483 11.0814 5.45427 10.8898 5.65318L6.91667 9.77917L5.11016 7.90318C4.91862 7.70427 4.60209 7.6983 4.40318 7.88984C4.20427 8.08138 4.1983 8.39791 4.38984 8.59682L6.55651 10.8468C6.65076 10.9447 6.78079 11 6.91667 11C7.05255 11 7.18258 10.9447 7.27683 10.8468L11.6102 6.34682Z" fill="#3B404A"/>
</svg>
