<svg width="16" height="16" viewBox="0 0 16 16" fill="none" xmlns="http://www.w3.org/2000/svg">
<path fill-rule="evenodd" clip-rule="evenodd" d="M2 7.99991C2 4.6862 4.68629 1.99991 8 1.99991C11.3137 1.99991 14 4.6862 14 7.99991C14 11.3136 11.3137 13.9999 8 13.9999C4.68629 13.9999 2 11.3136 2 7.99991ZM8 0.999908C4.13401 0.999908 1 4.13391 1 7.99991C1 11.8659 4.13401 14.9999 8 14.9999C11.866 14.9999 15 11.8659 15 7.99991C15 4.13391 11.866 0.999908 8 0.999908ZM11.3633 6.60355C11.5586 6.40829 11.5586 6.09171 11.3633 5.89645C11.1681 5.70118 10.8515 5.70118 10.6562 5.89645L7.00977 9.54289L5.36332 7.89645C5.16806 7.70118 4.85147 7.70118 4.65621 7.89645C4.46095 8.09171 4.46095 8.40829 4.65621 8.60355L6.65621 10.6036C6.85147 10.7988 7.16806 10.7988 7.36332 10.6036L11.3633 6.60355Z" fill="#3B404A"/>
</svg>
