<svg width="16" height="16" viewBox="0 0 16 16" fill="none" xmlns="http://www.w3.org/2000/svg">
<path fill-rule="evenodd" clip-rule="evenodd" d="M8 1.99999C4.68629 1.99999 2 4.68628 2 7.99999C2 11.3137 4.68629 14 8 14C11.3137 14 14 11.3137 14 7.99999C14 4.68628 11.3137 1.99999 8 1.99999ZM1 7.99999C1 4.134 4.13401 0.999992 8 0.999992C11.866 0.999992 15 4.134 15 7.99999C15 11.866 11.866 15 8 15C4.13401 15 1 11.866 1 7.99999Z" fill="#3B404A"/>
<path fill-rule="evenodd" clip-rule="evenodd" d="M8 3.49999C8.27614 3.49999 8.5 3.72385 8.5 3.99999V7.7324L11.2774 9.58397C11.5071 9.73714 11.5692 10.0476 11.416 10.2773C11.2628 10.5071 10.9524 10.5692 10.7227 10.416L7.72265 8.41602C7.58355 8.32329 7.5 8.16717 7.5 7.99999V3.99999C7.5 3.72385 7.72386 3.49999 8 3.49999Z" fill="#3B404A"/>
</svg>
