<svg width="16" height="16" viewBox="0 0 16 16" fill="none" xmlns="http://www.w3.org/2000/svg">
<path fill-rule="evenodd" clip-rule="evenodd" d="M10.6465 4.64643C10.8417 4.45117 11.1583 4.45117 11.3536 4.64643C11.6611 4.95393 11.824 5.26966 11.9089 5.52063C13.926 5.72543 15.5 7.42889 15.5 9.49998C15.5 11.7091 13.7092 13.5 11.5 13.5H4.00004C3.78755 13.5 3.59494 13.4454 3.43363 13.3379C3.27545 13.2324 3.17623 13.0954 3.11533 12.9736C3.0554 12.8537 3.02793 12.7399 3.01466 12.6603C3.00782 12.6193 3.00421 12.5841 3.00229 12.5571C3.00132 12.5435 3.00076 12.5318 3.00044 12.5223L3.00012 12.5095L3.00006 12.5043L3.00004 12.502L3.00004 12.501C3.00004 12.4996 3.00012 12.5095 3.00004 12.5C3.00004 12.3674 3.05272 12.2402 3.14649 12.1464L10.6465 4.64643ZM4.20715 12.5H11.5C13.1569 12.5 14.5 11.1568 14.5 9.49998C14.5 7.84313 13.1569 6.49998 11.5 6.49998C11.2274 6.49998 11.0057 6.28175 11.0001 6.01043C11.0001 6.00733 11 6.00423 11 6.00112L11 6.00185L11.0001 6.00356L11.0001 6.00647L11.0001 6.01043C11.0002 6.01218 11.0002 6.01187 11.0001 6.01043C10.9999 6.0072 10.9992 5.99839 10.9973 5.98476C10.9932 5.95634 10.9839 5.90779 10.9632 5.8456C10.9556 5.82287 10.9465 5.79815 10.9354 5.77176L4.20715 12.5Z" fill="#3B404A"/>
<path fill-rule="evenodd" clip-rule="evenodd" d="M3.54051 3.06447C4.4039 2.05781 5.69543 1.49998 7.00004 1.49998C7.91511 1.49998 8.66334 1.78195 9.17896 2.05984C9.43735 2.19909 9.64041 2.33893 9.78087 2.44577C9.85123 2.49929 9.90627 2.54482 9.9451 2.57828C9.96452 2.59502 9.97992 2.60877 9.99118 2.61902L10.005 2.63173L10.0095 2.63601L10.0112 2.63761L10.0119 2.63828C10.0119 2.63828 10.0125 2.63885 9.66671 2.99998L10.0125 2.63885C10.212 2.82983 10.2188 3.14634 10.0278 3.34579C9.83733 3.54475 9.5219 3.55207 9.32236 3.36252L9.31798 3.35848C9.31315 3.35409 9.30453 3.34636 9.29223 3.33575C9.2676 3.31452 9.22838 3.28193 9.17548 3.2417C9.06943 3.16104 8.91002 3.05088 8.70453 2.94013C8.29239 2.71802 7.70729 2.49998 7.00004 2.49998C5.97131 2.49998 4.96284 2.94216 4.29957 3.7155C3.64679 4.4766 3.3018 5.58932 3.64583 7.00165C3.70749 7.25479 3.56444 7.51285 3.31708 7.59468C2.23467 7.95277 1.85455 8.78906 1.74493 9.6219C1.68969 10.0415 1.70799 10.443 1.74161 10.743C1.7583 10.8919 1.77843 11.013 1.79402 11.0953C1.8018 11.1364 1.80841 11.1676 1.81283 11.1876L1.81768 11.2088L1.81844 11.2121C1.88519 11.4798 1.72242 11.7514 1.45464 11.8184C1.18674 11.8854 0.915273 11.7225 0.848299 11.4546L0.848068 11.4537L0.844443 11.4386C0.84243 11.4301 0.839733 11.4184 0.836488 11.4038C0.83 11.3745 0.821305 11.3332 0.811495 11.2814C0.791901 11.178 0.767711 11.0318 0.747835 10.8544C0.708338 10.502 0.684547 10.0151 0.75348 9.4914C0.879184 8.53639 1.32887 7.40353 2.58623 6.81105C2.33062 5.28909 2.74048 3.99726 3.54051 3.06447Z" fill="#3B404A"/>
<path fill-rule="evenodd" clip-rule="evenodd" d="M14.3536 1.64643C14.5489 1.84169 14.5489 2.15828 14.3536 2.35354L2.35359 14.3535C2.15833 14.5488 1.84175 14.5488 1.64649 14.3535C1.45122 14.1583 1.45122 13.8417 1.64649 13.6464L13.6465 1.64643C13.8417 1.45117 14.1583 1.45117 14.3536 1.64643Z" fill="#3B404A"/>
</svg>
