<svg width="16" height="16" viewBox="0 0 16 16" fill="none" xmlns="http://www.w3.org/2000/svg">
<path fill-rule="evenodd" clip-rule="evenodd" d="M7 2.49994C5.067 2.49994 3.5 4.06694 3.5 5.99994C3.5 6.3408 3.54858 6.66946 3.63888 6.9798C3.71599 7.24484 3.56374 7.52224 3.29873 7.5995C2.25893 7.90266 1.5 8.86332 1.5 9.99994C1.5 11.3807 2.61929 12.4999 4 12.4999H11.5C13.1569 12.4999 14.5 11.1568 14.5 9.49994C14.5 7.84308 13.1569 6.49994 11.5 6.49994C11.354 6.49994 11.2106 6.51034 11.0707 6.53036C10.9268 6.55095 10.7811 6.50791 10.6715 6.41246C10.5619 6.31701 10.4992 6.17858 10.4999 6.03324L10.5 5.99994V5.99884C10.4994 4.06635 8.93263 2.49994 7 2.49994ZM11.4725 5.50003C11.2239 3.25001 9.31631 1.49994 7 1.49994C4.51472 1.49994 2.5 3.51466 2.5 5.99994C2.5 6.27404 2.52456 6.54274 2.57169 6.80385C1.351 7.3502 0.5 8.57517 0.5 9.99994C0.5 11.9329 2.067 13.4999 4 13.4999H11.5C13.7091 13.4999 15.5 11.7091 15.5 9.49994C15.5 7.2908 13.7091 5.49994 11.5 5.49994C11.4908 5.49994 11.4817 5.49997 11.4725 5.50003Z" fill="#3B404A"/>
<path fill-rule="evenodd" clip-rule="evenodd" d="M7.14645 5.64651C7.34171 5.45125 7.65829 5.45125 7.85355 5.64651L9.85355 7.64651C10.0488 7.84177 10.0488 8.15835 9.85355 8.35361C9.65829 8.54888 9.34171 8.54888 9.14645 8.35361L8 7.20717V11.0001C8 11.2762 7.77614 11.5001 7.5 11.5001C7.22386 11.5001 7 11.2762 7 11.0001V7.20717L5.85355 8.35361C5.65829 8.54888 5.34171 8.54888 5.14645 8.35361C4.95118 8.15835 4.95118 7.84177 5.14645 7.64651L7.14645 5.64651Z" fill="#3B404A"/>
</svg>
