<svg width="16" height="16" viewBox="0 0 16 16" fill="none" xmlns="http://www.w3.org/2000/svg">
<path fill-rule="evenodd" clip-rule="evenodd" d="M1 3.49998C1 2.67156 1.67157 1.99998 2.5 1.99998H13.5C14.3284 1.99998 15 2.67156 15 3.49998V12.5C15 13.3284 14.3284 14 13.5 14H2.5C1.67157 14 1 13.3284 1 12.5V3.49998ZM2.5 2.99998C2.22386 2.99998 2 3.22384 2 3.49998V12.5C2 12.7761 2.22386 13 2.5 13H13.5C13.7761 13 14 12.7761 14 12.5V3.49998C14 3.22384 13.7761 2.99998 13.5 2.99998H2.5Z" fill="#3B404A"/>
<path fill-rule="evenodd" clip-rule="evenodd" d="M6.85355 5.14643C7.04882 5.34169 7.04882 5.65828 6.85355 5.85354L4.70711 7.99998L6.85355 10.1464C7.04882 10.3417 7.04882 10.6583 6.85355 10.8535C6.65829 11.0488 6.34171 11.0488 6.14645 10.8535L3.64645 8.35354C3.45118 8.15828 3.45118 7.84169 3.64645 7.64643L6.14645 5.14643C6.34171 4.95117 6.65829 4.95117 6.85355 5.14643ZM9.14645 5.14643C9.34171 4.95117 9.65829 4.95117 9.85355 5.14643L12.3536 7.64643C12.5488 7.84169 12.5488 8.15828 12.3536 8.35354L9.85355 10.8535C9.65829 11.0488 9.34171 11.0488 9.14645 10.8535C8.95118 10.6583 8.95118 10.3417 9.14645 10.1464L11.2929 7.99998L9.14645 5.85354C8.95118 5.65828 8.95118 5.34169 9.14645 5.14643Z" fill="#3B404A"/>
</svg>
