<svg width="16" height="16" viewBox="0 0 16 16" fill="none" xmlns="http://www.w3.org/2000/svg">
<circle cx="8" cy="8" r="8" fill="#56CBF7"/>
<path fill-rule="evenodd" clip-rule="evenodd" d="M8.03316 1.50012C4.47136 1.50012 1.5 4.40519 1.5 7.96696C1.5 11.5287 4.47136 14.5001 8.03316 14.5001C11.595 14.5001 14.5 11.5287 14.5 7.96696C14.5 4.40519 11.595 1.50012 8.03316 1.50012Z" fill="#00AEEF"/>
<path fill-rule="evenodd" clip-rule="evenodd" d="M8.83592 7.37565C8.64847 7.69758 8.466 8.01033 8.28375 8.3233C7.83344 9.09689 7.38448 9.87092 6.93258 10.6434C6.69207 11.0545 6.32509 11.2588 5.8497 11.2498C5.33548 11.2402 4.88381 10.8874 4.74695 10.3961C4.64036 10.0136 4.73611 9.67601 4.93214 9.34332C5.53173 8.32667 6.12116 7.30396 6.71533 6.28416C6.82463 6.09687 6.92581 5.90308 7.05363 5.72834C7.39916 5.25697 8.11821 5.0941 8.66654 5.4595C9.05317 5.71736 9.3402 6.06506 9.56852 6.4598C9.70199 6.69056 9.8052 6.93834 9.92218 7.1785C9.92828 7.19127 9.93438 7.20381 9.94793 7.23227C9.97367 7.19844 9.99467 7.17603 10.0098 7.15027C10.2695 6.70646 10.5285 6.26198 10.7874 5.8175C11.0222 5.41402 11.5437 5.18192 12.0021 5.26795C12.4712 5.35555 12.7858 5.6217 12.938 6.06506C13.062 6.42732 12.9922 6.76874 12.7991 7.0974C12.1394 8.22003 11.4847 9.34512 10.8327 10.4718C10.7171 10.6716 10.5988 10.8641 10.4109 11.007C9.77697 11.4893 8.80927 11.1891 8.56762 10.435C8.45719 10.09 8.4931 9.76226 8.67467 9.44974C8.84066 9.1641 9.01003 8.88092 9.17015 8.59259C9.20222 8.53502 9.21532 8.45683 9.20967 8.39051C9.17941 8.03901 9.0552 7.71662 8.8795 7.41239C8.87273 7.40074 8.8576 7.39379 8.83592 7.37565Z" fill="white"/>
<path fill-rule="evenodd" clip-rule="evenodd" d="M4.20824 7.64218C3.53751 7.65069 2.99618 7.08501 3.00002 6.44495C3.00386 5.79862 3.52486 5.25803 4.17504 5.25064C4.87309 5.24279 5.41216 5.77151 5.41216 6.44809C5.41193 7.10652 4.87151 7.64285 4.20824 7.64218Z" fill="#F0B900"/>
</svg>
