<svg width="16" height="16" viewBox="0 0 16 16" fill="none" xmlns="http://www.w3.org/2000/svg">
<path fill-rule="evenodd" clip-rule="evenodd" d="M8.03125 0.00012207C3.63444 0.00012207 0 3.572 0 7.96887C0 12.3657 3.63444 16.0001 8.03125 16.0001C12.4281 16.0001 16 12.3657 16 7.96887C16 3.572 12.4281 0.00012207 8.03125 0.00012207Z" fill="#FFD341"/>
<path fill-rule="evenodd" clip-rule="evenodd" d="M8.03316 1.5C4.47136 1.5 1.5 4.40507 1.5 7.96684C1.5 11.5286 4.47136 14.5 8.03316 14.5C11.595 14.5 14.5 11.5286 14.5 7.96684C14.5 4.40507 11.595 1.5 8.03316 1.5Z" fill="#F49B01"/>
<path d="M10.8283 5.14031C10.5436 5.04568 10.181 4.99896 9.73998 5.00002L7.73755 5.00531L7.74293 7.02939L9.98029 7.02357C10.3801 7.02251 10.7044 6.94601 10.9531 6.79367C11.2021 6.64146 11.326 6.37226 11.3249 5.98618C11.3239 5.55855 11.1584 5.27664 10.8283 5.14031Z" fill="#F5D775"/>
<path d="M4.5 6.01479C4.5 6.57518 4.95044 7.02941 5.50613 7.02941C6.06196 7.02941 6.5124 6.57518 6.5124 6.01479C6.5124 5.45441 6.06196 5.00004 5.50613 5.00004C4.95044 5.00004 4.5 5.45441 4.5 6.01479Z" fill="#F5D775"/>
<path d="M9.9715 10.994C10.3692 10.9931 10.6788 10.9379 10.9001 10.8286C11.3015 10.6269 11.5014 10.2417 11.5 9.67302C11.4988 9.19232 11.3029 8.86249 10.9129 8.68382C10.6952 8.58402 10.3895 8.53254 9.99565 8.52949L7.73755 8.53558L7.74412 11L9.9715 10.994Z" fill="#F5D775"/>
<path d="M4.5 11H6.5124V7.64709H4.5V11Z" fill="#F5D775"/>
</svg>
