<svg width="16" height="16" viewBox="0 0 16 16" fill="none" xmlns="http://www.w3.org/2000/svg">
<path d="M8 2C4.68629 2 2 4.68629 2 8C2 11.3137 4.68629 14 8 14C8.27614 14 8.5 14.2239 8.5 14.5C8.5 14.7761 8.27614 15 8 15C4.13401 15 1 11.866 1 8C1 4.13401 4.13401 1 8 1C11.866 1 15 4.13401 15 8C15 8.3657 14.9719 8.72517 14.9177 9.0763C14.8756 9.34921 14.6202 9.53628 14.3472 9.49414C14.0743 9.452 13.8873 9.19661 13.9294 8.9237C13.9759 8.62289 14 8.31443 14 8C14 4.68629 11.3137 2 8 2Z" fill="#3B404A"/>
<path d="M14.8535 12.6463C15.0488 12.8415 15.0488 13.1581 14.8536 13.3534L13.3536 14.8535C13.1583 15.0488 12.8418 15.0488 12.6465 14.8536C12.4512 14.6583 12.4512 14.3417 12.6464 14.1465L13.293 13.4998H10.5C10.2239 13.4998 10 13.276 10 12.9998C10 12.7237 10.2239 12.4998 10.5 12.4998H13.2928L12.6465 11.8536C12.4512 11.6583 12.4512 11.3417 12.6465 11.1465C12.8417 10.9512 13.1583 10.9512 13.3536 11.1464L14.8535 12.6463Z" fill="#3B404A"/>
<path fill-rule="evenodd" clip-rule="evenodd" d="M8.50077 3.75037C8.50077 3.47423 8.27692 3.25037 8.00077 3.25037C7.72463 3.25037 7.50077 3.47423 7.50077 3.75037V4.25037H7.27647C6.15759 4.25037 5.25055 5.15741 5.25055 6.2763C5.25055 7.22586 5.91007 8.04801 6.83703 8.25398L7.50077 8.40147V10.7504H7.25055C6.69827 10.7504 6.25055 10.3027 6.25055 9.75037C6.25055 9.47423 6.02669 9.25037 5.75055 9.25037C5.47441 9.25037 5.25055 9.47423 5.25055 9.75037C5.25055 10.8549 6.14598 11.7504 7.25055 11.7504H7.50077V12.2504C7.50077 12.5265 7.72463 12.7504 8.00077 12.7504C8.27692 12.7504 8.50077 12.5265 8.50077 12.2504V11.7504H8.72508C9.84396 11.7504 10.751 10.8433 10.751 9.72445C10.751 8.77489 10.0915 7.95273 9.16452 7.74676L8.50077 7.59928V5.25037H8.751C9.30328 5.25037 9.751 5.69809 9.751 6.25037C9.751 6.52652 9.97486 6.75037 10.251 6.75037C10.5271 6.75037 10.751 6.52652 10.751 6.25037C10.751 5.1458 9.85557 4.25037 8.751 4.25037H8.50077V3.75037ZM7.27647 5.25037H7.50077V7.37708L7.05394 7.27779C6.58453 7.17349 6.25055 6.75715 6.25055 6.2763C6.25055 5.7097 6.70987 5.25037 7.27647 5.25037ZM8.50077 10.7504V8.62367L8.94761 8.72296C9.41702 8.82726 9.751 9.2436 9.751 9.72445C9.751 10.2911 9.29168 10.7504 8.72508 10.7504H8.50077Z" fill="#3B404A"/>
</svg>
