<svg width="16" height="16" viewBox="0 0 16 16" fill="none" xmlns="http://www.w3.org/2000/svg">
<path fill-rule="evenodd" clip-rule="evenodd" d="M10.6465 13.3537C10.4512 13.1585 10.4512 12.8419 10.6464 12.6466L12.1464 11.1465C12.3417 10.9512 12.6582 10.9512 12.8535 11.1464C13.0488 11.3417 13.0488 11.6583 12.8536 11.8535L12.207 12.5002H14.5C14.7761 12.5002 15 12.724 15 13.0002C15 13.2763 14.7761 13.5002 14.5 13.5002H12.2072L12.8535 14.1464C13.0488 14.3417 13.0488 14.6583 12.8535 14.8535C12.6583 15.0488 12.3417 15.0488 12.1464 14.8536L10.6465 13.3537Z" fill="#3B404A"/>
<path fill-rule="evenodd" clip-rule="evenodd" d="M8 2C4.68629 2 2 4.68629 2 8C2 11.3137 4.68629 14 8 14C8.27614 14 8.5 14.2239 8.5 14.5C8.5 14.7761 8.27614 15 8 15C4.13401 15 1 11.866 1 8C1 4.13401 4.13401 1 8 1C11.866 1 15 4.13401 15 8C15 8.3657 14.9719 8.72517 14.9177 9.0763C14.8756 9.34921 14.6202 9.53628 14.3472 9.49414C14.0743 9.452 13.8873 9.19661 13.9294 8.9237C13.9759 8.62289 14 8.31443 14 8C14 4.68629 11.3137 2 8 2Z" fill="#3B404A"/>
<path fill-rule="evenodd" clip-rule="evenodd" d="M8.00077 3.25037C8.27692 3.25037 8.50077 3.47423 8.50077 3.75037V4.25037H8.751C9.85557 4.25037 10.751 5.1458 10.751 6.25037C10.751 6.52652 10.5271 6.75037 10.251 6.75037C9.97486 6.75037 9.751 6.52652 9.751 6.25037C9.751 5.69809 9.30328 5.25037 8.751 5.25037H8.50077V7.59928L9.16452 7.74676C10.0915 7.95273 10.751 8.77489 10.751 9.72445C10.751 10.8433 9.84396 11.7504 8.72508 11.7504H8.50077V12.2504C8.50077 12.5265 8.27692 12.7504 8.00077 12.7504C7.72463 12.7504 7.50077 12.5265 7.50077 12.2504V11.7504H7.25055C6.14598 11.7504 5.25055 10.8549 5.25055 9.75037C5.25055 9.47423 5.47441 9.25037 5.75055 9.25037C6.02669 9.25037 6.25055 9.47423 6.25055 9.75037C6.25055 10.3027 6.69827 10.7504 7.25055 10.7504H7.50077V8.40147L6.83703 8.25398C5.91007 8.04801 5.25055 7.22586 5.25055 6.2763C5.25055 5.15741 6.15759 4.25037 7.27647 4.25037H7.50077V3.75037C7.50077 3.47423 7.72463 3.25037 8.00077 3.25037ZM7.50077 5.25037H7.27647C6.70987 5.25037 6.25055 5.70969 6.25055 6.2763C6.25055 6.75715 6.58453 7.17349 7.05394 7.27779L7.50077 7.37708V5.25037ZM8.50077 8.62367V10.7504H8.72508C9.29168 10.7504 9.751 10.2911 9.751 9.72445C9.751 9.24359 9.41702 8.82726 8.94761 8.72296L8.50077 8.62367Z" fill="#3B404A"/>
</svg>
