<svg width="16" height="16" viewBox="0 0 16 16" fill="none" xmlns="http://www.w3.org/2000/svg">
<path fill-rule="evenodd" clip-rule="evenodd" d="M6.14645 5.14645C6.34171 4.95118 6.65829 4.95118 6.85355 5.14645L9.35355 7.64645C9.54882 7.84171 9.54882 8.15829 9.35355 8.35355L6.85355 10.8536C6.65829 11.0488 6.34171 11.0488 6.14645 10.8536C5.95118 10.6583 5.95118 10.3417 6.14645 10.1464L7.79289 8.5H2C1.72386 8.5 1.5 8.27614 1.5 8C1.5 7.72386 1.72386 7.5 2 7.5H7.79289L6.14645 5.85355C5.95118 5.65829 5.95118 5.34171 6.14645 5.14645Z" fill="#3B404A"/>
<path fill-rule="evenodd" clip-rule="evenodd" d="M14.5 13C14.5 13.8284 13.8284 14.5 13 14.5H9C8.72386 14.5 8.5 14.2761 8.5 14C8.5 13.7239 8.72386 13.5 9 13.5H13C13.2761 13.5 13.5 13.2761 13.5 13L13.5 3C13.5 2.72386 13.2761 2.5 13 2.5L9 2.5C8.72386 2.5 8.5 2.27614 8.5 2C8.5 1.72386 8.72386 1.5 9 1.5L13 1.5C13.8284 1.5 14.5 2.17157 14.5 3L14.5 13Z" fill="#3B404A"/>
</svg>
