<svg width="16" height="16" viewBox="0 0 16 16" fill="none" xmlns="http://www.w3.org/2000/svg">
<path fill-rule="evenodd" clip-rule="evenodd" d="M2 9.5C2.27614 9.5 2.5 9.72386 2.5 10V13C2.5 13.2761 2.72386 13.5 3 13.5H13C13.2761 13.5 13.5 13.2761 13.5 13V10C13.5 9.72386 13.7239 9.5 14 9.5C14.2761 9.5 14.5 9.72386 14.5 10V13C14.5 13.8284 13.8284 14.5 13 14.5H3C2.17157 14.5 1.5 13.8284 1.5 13V10C1.5 9.72386 1.72386 9.5 2 9.5Z" fill="#3B404A"/>
<path fill-rule="evenodd" clip-rule="evenodd" d="M8 1.5C8.27614 1.5 8.5 1.72386 8.5 2V8.79289L10.6464 6.64645C10.8417 6.45118 11.1583 6.45118 11.3536 6.64645C11.5488 6.84171 11.5488 7.15829 11.3536 7.35355L8.35355 10.3536C8.15829 10.5488 7.84171 10.5488 7.64645 10.3536L4.64645 7.35355C4.45118 7.15829 4.45118 6.84171 4.64645 6.64645C4.84171 6.45118 5.15829 6.45118 5.35355 6.64645L7.5 8.79289V2C7.5 1.72386 7.72386 1.5 8 1.5Z" fill="#3B404A"/>
</svg>
