<svg width="16" height="16" viewBox="0 0 16 16" fill="none" xmlns="http://www.w3.org/2000/svg">
<path fill-rule="evenodd" clip-rule="evenodd" d="M1.5 3C1.5 2.17157 2.17157 1.5 3 1.5H7C7.27614 1.5 7.5 1.72386 7.5 2C7.5 2.27614 7.27614 2.5 7 2.5H3C2.72386 2.5 2.5 2.72386 2.5 3V13C2.5 13.2761 2.72386 13.5 3 13.5H7C7.27614 13.5 7.5 13.7239 7.5 14C7.5 14.2761 7.27614 14.5 7 14.5H3C2.17157 14.5 1.5 13.8284 1.5 13V3ZM11.1464 5.14645C11.3417 4.95118 11.6583 4.95118 11.8536 5.14645L14.3536 7.64645C14.5488 7.84171 14.5488 8.15829 14.3536 8.35355L11.8536 10.8536C11.6583 11.0488 11.3417 11.0488 11.1464 10.8536C10.9512 10.6583 10.9512 10.3417 11.1464 10.1464L12.7929 8.5H6C5.72386 8.5 5.5 8.27614 5.5 8C5.5 7.72386 5.72386 7.5 6 7.5H12.7929L11.1464 5.85355C10.9512 5.65829 10.9512 5.34171 11.1464 5.14645Z" fill="#3B404A"/>
</svg>
