<svg width="16" height="16" viewBox="0 0 16 16" fill="none" xmlns="http://www.w3.org/2000/svg">
<path d="M10.0032 9.5C9.72703 9.5 9.50317 9.72386 9.50317 10C9.50317 10.2761 9.72703 10.5 10.0032 10.5H12.5032C12.7793 10.5 13.0032 10.2761 13.0032 10C13.0032 9.72386 12.7793 9.5 12.5032 9.5H10.0032Z" fill="#3B404A"/>
<path fill-rule="evenodd" clip-rule="evenodd" d="M2.50317 2.5C1.67475 2.5 1.00317 3.17157 1.00317 4V12C1.00317 12.8284 1.67475 13.5 2.50317 13.5H13.5032C14.3316 13.5 15.0032 12.8284 15.0032 12V4C15.0032 3.17157 14.3316 2.5 13.5032 2.5H2.50317ZM14.0032 5.5V4C14.0032 3.72386 13.7793 3.5 13.5032 3.5H2.50317C2.22703 3.5 2.00317 3.72386 2.00317 4V5.5H14.0032ZM2.00317 6.5H14.0032V12C14.0032 12.2761 13.7793 12.5 13.5032 12.5H2.50317C2.22703 12.5 2.00317 12.2761 2.00317 12V6.5Z" fill="#3B404A"/>
</svg>
