<svg width="16" height="16" viewBox="0 0 16 16" fill="none" xmlns="http://www.w3.org/2000/svg">
<path fill-rule="evenodd" clip-rule="evenodd" d="M2 7.99991C2 4.6862 4.68629 1.99991 8 1.99991C11.3137 1.99991 14 4.6862 14 7.99991C14 11.3136 11.3137 13.9999 8 13.9999C4.68629 13.9999 2 11.3136 2 7.99991ZM8 0.999908C4.13401 0.999908 1 4.13391 1 7.99991C1 11.8659 4.13401 14.9999 8 14.9999C11.866 14.9999 15 11.8659 15 7.99991C15 4.13391 11.866 0.999908 8 0.999908ZM5.85368 5.14657C5.65841 4.95131 5.34183 4.95131 5.14657 5.14657C4.95131 5.34183 4.95131 5.65841 5.14657 5.85368L7.29302 8.00012L5.14657 10.1466C4.95131 10.3418 4.95131 10.6584 5.14657 10.8537C5.34183 11.0489 5.65841 11.0489 5.85368 10.8537L8.00012 8.70723L10.1466 10.8537C10.3418 11.0489 10.6584 11.0489 10.8537 10.8537C11.0489 10.6584 11.0489 10.3418 10.8537 10.1466L8.70723 8.00012L10.8537 5.85368C11.0489 5.65841 11.0489 5.34183 10.8537 5.14657C10.6584 4.95131 10.3418 4.95131 10.1466 5.14657L8.00012 7.29302L5.85368 5.14657Z" fill="#3B404A"/>
</svg>
