<svg width="16" height="16" viewBox="0 0 16 16" fill="none" xmlns="http://www.w3.org/2000/svg">
<path fill-rule="evenodd" clip-rule="evenodd" d="M7.99992 7.83334C6.8033 7.83334 5.83325 8.80339 5.83325 10C5.83325 11.1966 6.8033 12.1667 7.99992 12.1667C9.19654 12.1667 10.1666 11.1966 10.1666 10C10.1666 8.80339 9.19654 7.83334 7.99992 7.83334ZM6.83325 10C6.83325 9.35567 7.35559 8.83334 7.99992 8.83334C8.64425 8.83334 9.16658 9.35567 9.16658 10C9.16658 10.6443 8.64425 11.1667 7.99992 11.1667C7.35559 11.1667 6.83325 10.6443 6.83325 10Z" fill="#3B404A"/>
<path fill-rule="evenodd" clip-rule="evenodd" d="M8.84792 2.41341C8.45625 1.78674 7.54359 1.78674 7.15192 2.41341L4.5757 6.53535L2.54036 4.50001C1.91039 3.87004 0.833252 4.31621 0.833252 5.20711V13C0.833252 13.8284 1.50482 14.5 2.33325 14.5H13.6666C14.495 14.5 15.1666 13.8284 15.1666 13V5.20711C15.1666 4.31621 14.0894 3.87004 13.4595 4.50001L11.4241 6.53535L8.84792 2.41341ZM5.09058 7.59834L7.99992 2.9434L10.9093 7.59834C10.99 7.72755 11.1253 7.81289 11.2767 7.83013C11.4281 7.84737 11.5791 7.79464 11.6868 7.68689L14.1666 5.20711L14.1666 13C14.1666 13.2761 13.9427 13.5 13.6666 13.5H2.33325C2.05711 13.5 1.83325 13.2761 1.83325 13V5.20711L4.31303 7.68689C4.42078 7.79464 4.57177 7.84737 4.72316 7.83013C4.87456 7.81289 5.00983 7.72755 5.09058 7.59834Z" fill="#3B404A"/>
</svg>
