<svg width="16" height="16" viewBox="0 0 16 16" fill="none" xmlns="http://www.w3.org/2000/svg">
<path fill-rule="evenodd" clip-rule="evenodd" d="M8.00565 1C8.28182 1 8.5057 1.22388 8.5057 1.50005V2.50015H9.00575C10.6628 2.50015 12.0061 3.84343 12.0061 5.50045C12.0061 5.77662 11.7822 6.0005 11.506 6.0005C11.2298 6.0005 11.0059 5.77662 11.0059 5.50045C11.0059 4.39577 10.1104 3.50025 9.00575 3.50025H8.5057V7.62351L9.98949 8.04745C11.1831 8.38849 12.0061 9.47947 12.0061 10.7209C12.0061 12.2564 10.7612 13.5013 9.22566 13.5013H8.5057V14.5014C8.5057 14.7775 8.28182 15.0014 8.00565 15.0014C7.72948 15.0014 7.5056 14.7775 7.5056 14.5014V13.5013H7.00555C5.34853 13.5013 4.00525 12.158 4.00525 10.5009C4.00525 10.2248 4.22913 10.0009 4.5053 10.0009C4.78147 10.0009 5.00535 10.2248 5.00535 10.5009C5.00535 11.6056 5.90087 12.5012 7.00555 12.5012H7.5056V8.37789L6.02181 7.95395C4.82818 7.61291 4.00525 6.52193 4.00525 5.28054C4.00525 3.74497 5.25007 2.50015 6.78564 2.50015H7.5056V1.50005C7.5056 1.22388 7.72948 1 8.00565 1ZM7.5056 3.50025H6.78564C5.80241 3.50025 5.00535 4.29731 5.00535 5.28054C5.00535 6.0754 5.53227 6.77396 6.29655 6.99233L7.5056 7.33777V3.50025ZM8.5057 8.66363V12.5012H9.22566C10.2089 12.5012 11.0059 11.7041 11.0059 10.7209C11.0059 9.926 10.479 9.22744 9.71474 9.00907L8.5057 8.66363Z" fill="#3B404A"/>
</svg>
