<svg width="16" height="16" viewBox="0 0 16 16" fill="none" xmlns="http://www.w3.org/2000/svg">
<path d="M6.5 6.75C6.5 7.16421 6.16421 7.5 5.75 7.5C5.33579 7.5 5 7.16421 5 6.75C5 6.33579 5.33579 6 5.75 6C6.16421 6 6.5 6.33579 6.5 6.75Z" fill="#3B404A"/>
<path d="M11 6.75C11 7.16421 10.6642 7.5 10.25 7.5C9.83579 7.5 9.5 7.16421 9.5 6.75C9.5 6.33579 9.83579 6 10.25 6C10.6642 6 11 6.33579 11 6.75Z" fill="#3B404A"/>
<path d="M5.34201 9.52579C5.60254 9.43895 5.88402 9.57851 5.97299 9.83773L5.97393 9.84027C5.97564 9.84479 5.97928 9.85414 5.98505 9.86761C5.99664 9.89464 6.01659 9.93776 6.04654 9.99167C6.10673 10.1 6.2051 10.248 6.35363 10.3965C6.64116 10.6841 7.14132 11.0001 8 11.0001C8.85868 11.0001 9.35884 10.6841 9.64637 10.3965C9.7949 10.248 9.89327 10.1 9.95346 9.99167C9.98341 9.93776 10.0034 9.89464 10.0149 9.86761C10.0207 9.85414 10.0244 9.84479 10.0261 9.84027L10.027 9.83774C10.116 9.57851 10.3975 9.43895 10.658 9.52579C10.92 9.61311 11.0615 9.89626 10.9742 10.1582L10.9738 10.1594L10.9734 10.1607L10.9723 10.1638L10.9696 10.1716L10.9615 10.1937C10.9549 10.2111 10.9459 10.234 10.934 10.2615C10.9105 10.3165 10.8757 10.3906 10.8276 10.4773C10.7315 10.6502 10.5799 10.8772 10.3534 11.1036C9.89101 11.5661 9.14123 12 8 12C6.85878 12 6.10899 11.5661 5.64655 11.1036C5.4201 10.8772 5.26848 10.6502 5.17242 10.4773C5.12425 10.3906 5.08952 10.3165 5.06595 10.2615C5.05415 10.234 5.04509 10.2111 5.0385 10.1937L5.03042 10.1716L5.02769 10.1638L5.02664 10.1607L5.02619 10.1594L5.02579 10.1582C4.93847 9.89626 5.08005 9.61311 5.34201 9.52579Z" fill="#3B404A"/>
<path fill-rule="evenodd" clip-rule="evenodd" d="M2 7C2 3.68629 4.68629 1 8 1C11.3137 1 14 3.68629 14 7H14.5C15.3284 7 16 7.67157 16 8.5V10C16 10.8284 15.3284 11.5 14.5 11.5H14V12C14 13.933 12.433 15 10.5 15H9C8.72386 15 8.5 14.7761 8.5 14.5V14C8.5 13.7239 8.72386 13.5 9 13.5H10C10.2761 13.5 10.5 13.7239 10.5 14C11.8807 14 13 13.3807 13 12V7L12.8865 5.93565C12.5535 4.39987 11.5149 3.12709 10.1272 2.47375L8.95286 2.09069C8.6444 2.03117 8.32584 2 8 2C5.58766 2 3.57433 3.70837 3.10386 5.98128L3 7V11C3 11.2761 2.77614 11.5 2.5 11.5H1.5C0.671573 11.5 0 10.8284 0 10V8.5C0 7.67157 0.671573 7 1.5 7H2ZM1.5 8H2V10.5H1.5C1.22386 10.5 1 10.2761 1 10V8.5C1 8.22386 1.22386 8 1.5 8ZM14.5 10.5H14V8H14.5C14.7761 8 15 8.22386 15 8.5V10C15 10.2761 14.7761 10.5 14.5 10.5Z" fill="#3B404A"/>
</svg>
