<svg width="16" height="16" viewBox="0 0 16 16" fill="none" xmlns="http://www.w3.org/2000/svg">
<path d="M4.75 8.84998C5.16421 8.84998 5.5 8.51419 5.5 8.09998C5.5 7.68576 5.16421 7.34998 4.75 7.34998C4.33579 7.34998 4 7.68576 4 8.09998C4 8.51419 4.33579 8.84998 4.75 8.84998Z" fill="#3B404A"/>
<path d="M8.75 8.09998C8.75 8.51419 8.41421 8.84998 8 8.84998C7.58579 8.84998 7.25 8.51419 7.25 8.09998C7.25 7.68576 7.58579 7.34998 8 7.34998C8.41421 7.34998 8.75 7.68576 8.75 8.09998Z" fill="#3B404A"/>
<path d="M12 8.09998C12 8.51419 11.6642 8.84998 11.25 8.84998C10.8358 8.84998 10.5 8.51419 10.5 8.09998C10.5 7.68576 10.8358 7.34998 11.25 7.34998C11.6642 7.34998 12 7.68576 12 8.09998Z" fill="#3B404A"/>
<path fill-rule="evenodd" clip-rule="evenodd" d="M1 8C1 4.13401 4.13401 1 8 1C11.866 1 15 4.13401 15 8C15 9.09591 14.7478 10.1343 14.2978 11.0591C14.2938 11.0674 14.2939 11.073 14.2939 11.073L14.9894 14.3976C15.024 14.5628 14.9729 14.7342 14.8536 14.8536C14.7342 14.9729 14.5628 15.024 14.3976 14.9894L11.073 14.2939C11.073 14.2939 11.0674 14.2938 11.0591 14.2978C10.1343 14.7478 9.09591 15 8 15C4.13401 15 1 11.866 1 8ZM8 2C4.68629 2 2 4.68629 2 8C2 11.3137 4.68629 14 8 14C8.94104 14 9.83015 13.7837 10.6216 13.3986C10.8187 13.3027 11.0488 13.2672 11.2773 13.315L13.854 13.854L13.315 11.2773C13.2672 11.0488 13.3027 10.8187 13.3986 10.6216C13.7837 9.83015 14 8.94104 14 8C14 4.68629 11.3137 2 8 2Z" fill="#3B404A"/>
</svg>
