<svg width="16" height="16" viewBox="0 0 16 16" fill="none" xmlns="http://www.w3.org/2000/svg">
<path fill-rule="evenodd" clip-rule="evenodd" d="M4.5147 2C4.35322 2 4.20169 2.07798 4.10783 2.20938L1.63834 5.66667H4.31439L5.62391 2H4.5147ZM6.68578 2L5.37625 5.66667H10.5751L9.00372 2H6.68578ZM10.0917 2L11.6631 5.66667H14.3618L11.8923 2.20938C11.7985 2.07798 11.6469 2 11.4855 2H10.0917ZM14.2554 6.66667H11.6768L9.52803 12.2535L14.2554 6.66667ZM8.00008 13.4405L10.6054 6.66667H5.39476L8.00008 13.4405ZM4.32335 6.66667H1.7448L6.47214 12.2535L4.32335 6.66667ZM3.2941 1.62814C3.57567 1.23395 4.03027 1 4.5147 1H11.4855C11.9699 1 12.4245 1.23395 12.7061 1.62814L15.7403 5.87605C15.8733 6.06224 15.8629 6.31496 15.7151 6.48964L8.38177 15.1563C8.28677 15.2686 8.14716 15.3333 8.00008 15.3333C7.85301 15.3333 7.71339 15.2686 7.61839 15.1563L0.285056 6.48964C0.137254 6.31496 0.126886 6.06224 0.259883 5.87605L3.2941 1.62814Z" fill="#3B404A"/>
</svg>
