<svg width="16" height="16" viewBox="0 0 16 16" fill="none" xmlns="http://www.w3.org/2000/svg">
<path fill-rule="evenodd" clip-rule="evenodd" d="M9.35 1.15L14.35 6.15C14.45 6.24 14.5 6.37 14.5 6.5V13.5C14.5 14.33 13.83 15 13 15H4C3.17 15 2.5 14.33 2.5 13.5V2.5C2.5 1.67 3.17 1 4 1H9C9.13 1 9.26 1.06 9.35 1.15ZM12.79 6L9.5 2.71V5.5C9.5 5.78 9.72 6 10 6H12.79ZM13 14C13.28 14 13.5 13.78 13.5 13.5V7H10C9.17 7 8.5 6.33 8.5 5.5V2H4C3.72 2 3.5 2.22 3.5 2.5V13.5C3.5 13.78 3.72 14 4 14H13ZM8.49988 7.5C8.77602 7.5 8.99988 7.72386 8.99988 8V11.2929L10.1463 10.1464C10.3416 9.95118 10.6582 9.95118 10.8534 10.1464C11.0487 10.3417 11.0487 10.6583 10.8534 10.8536L8.85343 12.8536C8.65817 13.0488 8.34159 13.0488 8.14632 12.8536L6.14632 10.8536C5.95106 10.6583 5.95106 10.3417 6.14632 10.1464C6.34159 9.95118 6.65817 9.95118 6.85343 10.1464L7.99988 11.2929V8C7.99988 7.72386 8.22374 7.5 8.49988 7.5Z" fill="#3B404A"/>
</svg>
