<svg width="16" height="16" viewBox="0 0 16 16" fill="none" xmlns="http://www.w3.org/2000/svg">
<path fill-rule="evenodd" clip-rule="evenodd" d="M14.35 6.15L9.35 1.15C9.26 1.06 9.13 1 9 1H4C3.17 1 2.5 1.67 2.5 2.5V13.5C2.5 14.33 3.17 15 4 15H13C13.83 15 14.5 14.33 14.5 13.5V6.5C14.5 6.37 14.45 6.24 14.35 6.15ZM9.5 2.71L12.79 6H10C9.72 6 9.5 5.78 9.5 5.5V2.71ZM13.5 13.5C13.5 13.78 13.28 14 13 14H4C3.72 14 3.5 13.78 3.5 13.5V2.5C3.5 2.22 3.72 2 4 2H8.5V5.5C8.5 6.33 9.17 7 10 7H13.5V13.5Z" fill="#3B404A"/>
</svg>
