<svg width="16" height="16" viewBox="0 0 16 16" fill="none" xmlns="http://www.w3.org/2000/svg">
<path fill-rule="evenodd" clip-rule="evenodd" d="M2 8C2 4.68629 4.68629 2 8 2C11.3137 2 14 4.68629 14 8C14 11.3137 11.3137 14 8 14C4.68629 14 2 11.3137 2 8ZM8 1C4.13401 1 1 4.13401 1 8C1 11.866 4.13401 15 8 15C11.866 15 15 11.866 15 8C15 4.13401 11.866 1 8 1ZM9.99999 6.75C10.4142 6.75 10.75 6.41421 10.75 6C10.75 5.58579 10.4142 5.25 9.99999 5.25C9.58578 5.25 9.24999 5.58579 9.24999 6C9.24999 6.41421 9.58578 6.75 9.99999 6.75ZM6.74999 6C6.74999 6.41421 6.4142 6.75 5.99999 6.75C5.58578 6.75 5.24999 6.41421 5.24999 6C5.24999 5.58579 5.58578 5.25 5.99999 5.25C6.4142 5.25 6.74999 5.58579 6.74999 6ZM5.28945 10.6633C5.09419 10.468 5.09419 10.1514 5.28945 9.95617C6.78646 8.45916 9.21359 8.45916 10.7106 9.95617C10.9059 10.1514 10.9059 10.468 10.7106 10.6633C10.5153 10.8585 10.1988 10.8585 10.0035 10.6633C8.89701 9.55679 7.10304 9.55679 5.99656 10.6633C5.8013 10.8585 5.48471 10.8585 5.28945 10.6633Z" fill="#3B404A"/>
</svg>
