<svg width="16" height="16" viewBox="0 0 16 16" fill="none" xmlns="http://www.w3.org/2000/svg">
<path fill-rule="evenodd" clip-rule="evenodd" d="M8 1C4.13401 1 1 4.13401 1 8C1 11.866 4.13401 15 8 15C11.866 15 15 11.866 15 8C15 4.13401 11.866 1 8 1ZM6 6.85003C6.46945 6.85003 6.85 6.46947 6.85 6.00002C6.85 5.53058 6.46945 5.15002 6 5.15002C5.53056 5.15002 5.15 5.53058 5.15 6.00002C5.15 6.46947 5.53056 6.85003 6 6.85003ZM10 6.85002C10.4694 6.85002 10.85 6.46947 10.85 6.00002C10.85 5.53058 10.4694 5.15002 10 5.15002C9.53056 5.15002 9.15 5.53058 9.15 6.00002C9.15 6.46947 9.53056 6.85002 10 6.85002ZM4.79331 8.80021C4.68288 8.48778 4.34009 8.32403 4.02766 8.43445C3.71523 8.54488 3.55147 8.88768 3.6619 9.2001C4.29309 10.9859 5.99617 12.2668 8 12.2668C10.0038 12.2668 11.7069 10.9859 12.3381 9.2001C12.4485 8.88768 12.2848 8.54488 11.9723 8.43445C11.6599 8.32403 11.3171 8.48778 11.2067 8.80021C10.7397 10.1215 9.47947 11.0668 8 11.0668C6.52052 11.0668 5.26033 10.1215 4.79331 8.80021Z" fill="#3B404A"/>
</svg>
