<svg width="16" height="16" viewBox="0 0 16 16" fill="none" xmlns="http://www.w3.org/2000/svg">
<path fill-rule="evenodd" clip-rule="evenodd" d="M13 1.5H3C2.17 1.5 1.5 2.17 1.5 3V13C1.5 13.83 2.17 14.5 3 14.5H13C13.83 14.5 14.5 13.83 14.5 13V3C14.5 2.17 13.83 1.5 13 1.5ZM4.5 13.5H3C2.72 13.5 2.5 13.28 2.5 13V11.5H4.5V13.5ZM4.5 10.5H2.5V8.5H4.5V10.5ZM4.5 7.5H2.5V5.5H4.5V7.5ZM4.5 4.5H2.5V3C2.5 2.72 2.72 2.5 3 2.5H4.5V4.5ZM10.5 13.5H5.5V8.5H10.5V13.5ZM10.5 7.5H5.5V2.5H10.5V7.5ZM13.5 13C13.5 13.28 13.28 13.5 13 13.5H11.5V11.5H13.5V13ZM13.5 10.5H11.5V8.5H13.5V10.5ZM13.5 7.5H11.5V5.5H13.5V7.5ZM13.5 4.5H11.5V2.5H13C13.28 2.5 13.5 2.72 13.5 3V4.5Z" fill="#3B404A"/>
</svg>
