<svg width="16" height="16" viewBox="0 0 16 16" fill="none" xmlns="http://www.w3.org/2000/svg">
<path d="M3.58397 2.77735C3.43079 2.54759 3.49288 2.23715 3.72264 2.08397L3.72417 2.08296L3.72626 2.08158L3.73211 2.07776L3.75045 2.06603C3.76562 2.05645 3.78665 2.04343 3.81343 2.02748C3.86697 1.99558 3.94353 1.95191 4.04215 1.90046C4.2393 1.79759 4.52509 1.66339 4.89162 1.5301C5.62474 1.26351 6.68272 1 7.99999 1C9.31727 1 10.3752 1.26351 11.1084 1.5301C11.4749 1.66339 11.7607 1.79759 11.9578 1.90046C12.0565 1.95191 12.133 1.99558 12.1866 2.02748C12.2133 2.04343 12.2344 2.05645 12.2495 2.06603L12.2679 2.07776L12.2737 2.08158L12.2758 2.08296L12.2773 2.08397C12.5071 2.23715 12.5692 2.54759 12.416 2.77735C12.263 3.0069 11.953 3.06913 11.7234 2.9165L11.7155 2.91151C11.7075 2.90644 11.6939 2.89797 11.6748 2.88658C11.6365 2.86379 11.5763 2.82934 11.4953 2.78704C11.333 2.70241 11.0876 2.58661 10.7666 2.4699C10.1247 2.23649 9.18272 2 7.99999 2C6.81727 2 5.87524 2.23649 5.23336 2.4699C4.91239 2.58661 4.66693 2.70241 4.50471 2.78704C4.42364 2.82934 4.36349 2.86379 4.32523 2.88658C4.30611 2.89797 4.29247 2.90644 4.28444 2.91151L4.27705 2.91622C4.04731 3.06915 3.73708 3.00702 3.58397 2.77735Z" fill="#3B404A"/>
<path d="M2.70003 5.9C2.9208 6.06558 3.23395 6.02097 3.39972 5.80042L3.39903 5.80134L3.40658 5.79186C3.41448 5.78208 3.42812 5.76559 3.44761 5.74331C3.4866 5.69875 3.54889 5.6312 3.63536 5.54819C3.80838 5.38209 4.07739 5.15487 4.44958 4.92583C5.19065 4.46979 6.35085 4 8.00003 4C9.64921 4 10.8094 4.46979 11.5505 4.92583C11.9227 5.15487 12.1917 5.38209 12.3647 5.54819C12.4512 5.6312 12.5135 5.69875 12.5525 5.74331C12.5719 5.76559 12.5856 5.78208 12.5935 5.79186L12.6008 5.80097C12.7666 6.02104 13.0794 6.06544 13.3 5.9C13.5209 5.73431 13.5657 5.42091 13.4 5.2L13.3993 5.19903L13.3984 5.19788L13.3963 5.19503L13.3902 5.18718C13.3854 5.18101 13.3791 5.17298 13.3712 5.16322C13.3554 5.1437 13.3334 5.11722 13.305 5.08481C13.2483 5.02 13.1661 4.9313 13.0572 4.82681C12.8396 4.61791 12.5149 4.34513 12.0746 4.07417C11.1906 3.53021 9.85085 3 8.00003 3C6.14921 3 4.80941 3.53021 3.92548 4.07417C3.48517 4.34513 3.16043 4.61791 2.94283 4.82681C2.83398 4.9313 2.75174 5.02 2.69503 5.08481C2.66667 5.11722 2.64466 5.1437 2.62888 5.16322C2.62099 5.17298 2.61465 5.18101 2.60985 5.18718L2.60379 5.19503L2.60163 5.19788L2.60076 5.19903L2.60003 5.2C2.43434 5.42091 2.47912 5.73431 2.70003 5.9Z" fill="#3B404A"/>
<path d="M3.50003 10.5C3.50003 9.11362 3.95997 7.99716 4.72858 7.22855C5.49719 6.45994 6.61365 6 8.00003 6C10.7239 6 12.5 8.27614 12.5 10C12.5 10.4125 12.3983 10.6886 12.2715 10.8789C12.1426 11.0723 11.9671 11.2074 11.7764 11.3028C11.5838 11.3991 11.3851 11.4498 11.2303 11.4756C11.1541 11.4883 11.0917 11.4944 11.0503 11.4974C11.0297 11.4988 11.0146 11.4995 11.0058 11.4998L10.9979 11.5C10.3695 11.4995 10.0223 11.2956 9.82164 11.0549C9.60743 10.7979 9.50003 10.4257 9.50003 10C9.50003 9.72386 9.27617 9.5 9.00003 9.5C8.72389 9.5 8.50003 9.72386 8.50003 10C8.50003 10.5743 8.64263 11.2021 9.05342 11.6951C9.47757 12.2041 10.1298 12.5 11 12.5L11.0011 12.5L11.0024 12.5L11.0054 12.5L11.0138 12.4999L11.0391 12.4992C11.0597 12.4985 11.0875 12.4973 11.1216 12.4948C11.1896 12.49 11.2834 12.4805 11.3947 12.4619C11.615 12.4252 11.9163 12.3509 12.2236 12.1972C12.533 12.0426 12.8575 11.8027 13.1036 11.4336C13.3517 11.0614 13.5 10.5875 13.5 10C13.5 7.72386 11.2762 5 8.00003 5C6.38641 5 5.00287 5.54006 4.02148 6.52145C3.04009 7.50284 2.50003 8.88638 2.50003 10.5C2.50003 11.5421 2.63035 12.3328 2.76496 12.8713C2.83222 13.1403 2.90044 13.3459 2.95374 13.4881C2.98038 13.5591 3.00329 13.6143 3.02047 13.6535C3.02905 13.6732 3.03621 13.6888 3.04168 13.7005L3.0486 13.715L3.05106 13.7201L3.05203 13.722L3.05282 13.7236C3.17631 13.9706 3.47665 14.0707 3.72364 13.9472C3.96979 13.8241 4.06984 13.525 3.94827 13.2785L3.94714 13.2761C3.94529 13.2721 3.94171 13.2643 3.93662 13.2527C3.92646 13.2295 3.9103 13.1909 3.89007 13.1369C3.84962 13.0291 3.79284 12.8597 3.7351 12.6287C3.61971 12.1672 3.50003 11.4579 3.50003 10.5Z" fill="#3B404A"/>
<path d="M8.00003 7C6.59337 7 5.68764 7.57437 5.15291 8.33827C4.6384 9.07328 4.50003 9.93448 4.50003 10.5C4.50003 12.0879 4.89826 13.1772 5.32128 13.8822C5.53163 14.2328 5.74518 14.4835 5.9121 14.6504C5.9955 14.7338 6.0672 14.7963 6.12098 14.8398C6.14787 14.8616 6.1703 14.8786 6.1875 14.8912C6.1961 14.8975 6.2034 14.9027 6.20929 14.9069L6.21707 14.9122L6.22015 14.9143L6.22148 14.9152L6.22268 14.916C6.45244 15.0692 6.76288 15.0071 6.91605 14.7774C7.06828 14.549 7.00791 14.241 6.78165 14.0869L6.77887 14.0848C6.77409 14.0813 6.7643 14.074 6.75018 14.0625C6.72193 14.0397 6.67643 14.0005 6.61921 13.9433C6.50488 13.829 6.34342 13.6422 6.17878 13.3678C5.8518 12.8228 5.50003 11.9121 5.50003 10.5C5.50003 10.0655 5.61165 9.42672 5.97215 8.91173C6.31242 8.42563 6.90669 8 8.00003 8C9.04997 8 9.6606 8.512 10.0279 9.03673C10.2156 9.30482 10.3381 9.57601 10.4134 9.7815C10.4508 9.88351 10.4758 9.96728 10.4911 10.0236C10.4987 10.0516 10.5039 10.0727 10.5069 10.0855L10.5098 10.0985L10.51 10.0995C10.5648 10.3694 10.8278 10.5444 11.0981 10.4903C11.3689 10.4361 11.5445 10.1727 11.4903 9.90194L11.4901 9.9009L11.4899 9.89963L11.4892 9.8964L11.4872 9.8872L11.4807 9.85831C11.4752 9.83454 11.4671 9.80188 11.4562 9.7616C11.4344 9.68116 11.4008 9.56962 11.3523 9.43725C11.2558 9.17399 11.097 8.82018 10.8471 8.46327C10.3395 7.738 9.45009 7 8.00003 7Z" fill="#3B404A"/>
<path d="M7.45756 9.7044L7.46376 9.68697C7.56639 9.43134 7.44316 9.13998 7.18766 9.03654C6.9317 8.93292 6.64005 9.05677 6.53642 9.31273L6.53594 9.31394L6.53518 9.31585L6.53327 9.32068L6.52802 9.33439C6.52392 9.34529 6.51865 9.35972 6.51251 9.37749C6.50022 9.41302 6.48435 9.46206 6.4672 9.52318C6.43297 9.6452 6.39321 9.81678 6.36684 10.0262C6.31419 10.4442 6.3138 11.0224 6.52569 11.6581C7.13174 13.4763 8.57632 14.1829 9.79746 14.4317C10.4059 14.5557 10.9732 14.5708 11.3858 14.556C11.593 14.5485 11.7638 14.5334 11.8844 14.5198C11.9448 14.513 11.9928 14.5066 12.0267 14.5017C12.0437 14.4993 12.0572 14.4972 12.0669 14.4957L12.0787 14.4938L12.0825 14.4932L12.0848 14.4928C12.357 14.4459 12.5396 14.1873 12.4928 13.9152C12.446 13.6432 12.1872 13.4606 11.9152 13.5072L11.9105 13.508L11.8843 13.5119C11.86 13.5154 11.8223 13.5205 11.7728 13.5261C11.6738 13.5372 11.5285 13.5502 11.3497 13.5566C10.9903 13.5696 10.5063 13.5556 9.99713 13.4519C8.98311 13.2452 7.92769 12.7018 7.47437 11.3419C7.32064 10.8807 7.32024 10.4589 7.359 10.1511C7.37833 9.99767 7.40713 9.87492 7.43002 9.79332C7.44144 9.75264 7.45128 9.72255 7.45756 9.7044Z" fill="#3B404A"/>
</svg>
