<svg width="16" height="16" viewBox="0 0 16 16" fill="none" xmlns="http://www.w3.org/2000/svg">
<path fill-rule="evenodd" clip-rule="evenodd" d="M13.5 3.5H8.41C8.28 3.5 8.15 3.45 8.06 3.35L6.65 1.94C6.37 1.66 5.99 1.5 5.59 1.5H2.5C1.67 1.5 1 2.17 1 3V13C1 13.83 1.67 14.5 2.5 14.5H13.5C14.33 14.5 15 13.83 15 13V5C15 4.17 14.33 3.5 13.5 3.5ZM14 13C14 13.28 13.78 13.5 13.5 13.5H2.5C2.22 13.5 2 13.28 2 13V7.5H14V13ZM14 6.5H2V3C2 2.72 2.22 2.5 2.5 2.5H5.59C5.72 2.5 5.85 2.55 5.94 2.65L7.35 4.06C7.63 4.34 8.01 4.5 8.41 4.5H13.5C13.78 4.5 14 4.72 14 5V6.5Z" fill="#3B404A"/>
</svg>
