<svg width="16" height="16" viewBox="0 0 16 16" fill="none" xmlns="http://www.w3.org/2000/svg">
<path fill-rule="evenodd" clip-rule="evenodd" d="M1.49927 2.99997C1.49927 2.17155 2.17083 1.49998 2.99925 1.49998H12.9992C13.8276 1.49998 14.4991 2.17155 14.4991 2.99997V4.99995C14.4991 5.27609 14.2753 5.49994 13.9991 5.49994H1.99926C1.72312 5.49994 1.49927 5.27609 1.49927 4.99995V2.99997ZM2.99925 2.49997C2.72311 2.49997 2.49926 2.72383 2.49926 2.99997V4.49995H13.4991V2.99997C13.4991 2.72383 13.2753 2.49997 12.9992 2.49997H2.99925Z" fill="#3B404A"/>
<path fill-rule="evenodd" clip-rule="evenodd" d="M1.99926 4.99995C1.99926 4.72381 2.22312 4.49995 2.49926 4.49995H13.4991C13.6318 4.49995 13.7589 4.55263 13.8527 4.6464C13.9465 4.74017 13.9991 4.86734 13.9991 4.99995L13.9991 12.9999C13.9991 13.8283 13.3276 14.4999 12.4992 14.4999L3.49925 14.4999C2.67083 14.4999 1.99926 13.8283 1.99926 12.9999L1.99926 4.99995ZM2.99925 5.49994L2.99925 12.9999C2.99925 13.276 3.22311 13.4999 3.49925 13.4999H12.4992C12.7753 13.4999 12.9992 13.276 12.9992 12.9999V5.49995L2.99925 5.49994Z" fill="#3B404A"/>
<path fill-rule="evenodd" clip-rule="evenodd" d="M5.64567 7.14638C5.84093 6.95112 6.15751 6.95112 6.35277 7.14638L7.9992 8.79281L9.64563 7.14638C9.84089 6.95112 10.1575 6.95112 10.3527 7.14638C10.548 7.34164 10.548 7.65821 10.3527 7.85347L8.7063 9.4999L10.3527 11.1463C10.548 11.3416 10.548 11.6582 10.3527 11.8534C10.1575 12.0487 9.84089 12.0487 9.64563 11.8534L7.9992 10.207L6.35277 11.8534C6.15751 12.0487 5.84093 12.0487 5.64567 11.8534C5.45041 11.6582 5.45041 11.3416 5.64567 11.1463L7.2921 9.4999L5.64567 7.85347C5.45041 7.65821 5.45041 7.34164 5.64567 7.14638Z" fill="#3B404A"/>
</svg>
