<svg width="16" height="16" viewBox="0 0 16 16" fill="none" xmlns="http://www.w3.org/2000/svg">
<path fill-rule="evenodd" clip-rule="evenodd" d="M2.00085 3C2.00085 2.72386 2.22471 2.5 2.50085 2.5H5.58664C5.71925 2.5 5.84643 2.55268 5.94019 2.64645L7.35441 4.06066C7.63571 4.34196 8.01724 4.5 8.41507 4.5H13.5009C13.777 4.5 14.0009 4.72386 14.0009 5V13C14.0009 13.2761 13.777 13.5 13.5009 13.5H2.50085C2.22471 13.5 2.00085 13.2761 2.00085 13V3ZM2.50085 1.5C1.67243 1.5 1.00085 2.17157 1.00085 3V13C1.00085 13.8284 1.67243 14.5 2.50085 14.5H13.5009C14.3293 14.5 15.0009 13.8284 15.0009 13V5C15.0009 4.17157 14.3293 3.5 13.5009 3.5H8.41507C8.28246 3.5 8.15528 3.44732 8.06151 3.35355L6.6473 1.93934C6.366 1.65803 5.98447 1.5 5.58664 1.5H2.50085ZM6.35336 6.64638C6.1581 6.45112 5.84152 6.45112 5.64626 6.64638C5.451 6.84164 5.451 7.15822 5.64626 7.35348L7.29269 8.99991L5.64626 10.6463C5.451 10.8416 5.451 11.1582 5.64626 11.3534C5.84152 11.5487 6.1581 11.5487 6.35336 11.3534L7.99979 9.70701L9.64622 11.3534C9.84148 11.5487 10.1581 11.5487 10.3533 11.3534C10.5486 11.1582 10.5486 10.8416 10.3533 10.6463L8.70689 8.99991L10.3533 7.35348C10.5486 7.15822 10.5486 6.84164 10.3533 6.64638C10.1581 6.45112 9.84148 6.45112 9.64622 6.64638L7.99979 8.29281L6.35336 6.64638Z" fill="#3B404A"/>
</svg>
