<svg width="16" height="16" viewBox="0 0 16 16" fill="none" xmlns="http://www.w3.org/2000/svg">
<path fill-rule="evenodd" clip-rule="evenodd" d="M1.49951 2.99997C1.49951 2.17155 2.17108 1.49998 2.9995 1.49998H12.9994C13.8278 1.49998 14.4994 2.17155 14.4994 2.99997V4.99995C14.4994 5.27609 14.2755 5.49994 13.9994 5.49994H1.99951C1.72337 5.49994 1.49951 5.27609 1.49951 4.99995V2.99997ZM2.9995 2.49997C2.72336 2.49997 2.4995 2.72383 2.4995 2.99997V4.49995H13.4994V2.99997C13.4994 2.72383 13.2755 2.49997 12.9994 2.49997H2.9995Z" fill="#3B404A"/>
<path fill-rule="evenodd" clip-rule="evenodd" d="M1.99951 4.99995C1.99951 4.72381 2.22336 4.49995 2.4995 4.49995H13.4994C13.632 4.49995 13.7592 4.55263 13.8529 4.6464C13.9467 4.74017 13.9994 4.86734 13.9994 4.99995L13.9994 12.9999C13.9994 13.8283 13.3278 14.4999 12.4994 14.4999L3.49949 14.4999C2.67107 14.4999 1.99951 13.8283 1.99951 12.9999L1.99951 4.99995ZM2.9995 5.49994L2.9995 12.9999C2.9995 13.276 3.22335 13.4999 3.49949 13.4999H12.4994C12.7755 13.4999 12.9994 13.276 12.9994 12.9999V5.49995L2.9995 5.49994Z" fill="#3B404A"/>
<path fill-rule="evenodd" clip-rule="evenodd" d="M5.49947 7.99992C5.49947 7.72378 5.72333 7.49992 5.99947 7.49992L9.99943 7.49993C10.2756 7.49993 10.4994 7.72378 10.4994 7.99992C10.4994 8.27606 10.2756 8.49992 9.99943 8.49992L5.99947 8.49991C5.72333 8.49991 5.49947 8.27606 5.49947 7.99992Z" fill="#3B404A"/>
</svg>
