<svg width="16" height="16" viewBox="0 0 16 16" fill="none" xmlns="http://www.w3.org/2000/svg">
<path fill-rule="evenodd" clip-rule="evenodd" d="M2.00073 3C2.00073 2.72386 2.22459 2.5 2.50073 2.5H5.58652C5.71913 2.5 5.8463 2.55268 5.94007 2.64645L7.35429 4.06066C7.63559 4.34196 8.01712 4.5 8.41495 4.5H13.5007C13.7769 4.5 14.0007 4.72386 14.0007 5V13C14.0007 13.2761 13.7769 13.5 13.5007 13.5H2.50073C2.22459 13.5 2.00073 13.2761 2.00073 13V3ZM2.50073 1.5C1.67231 1.5 1.00073 2.17157 1.00073 3V13C1.00073 13.8284 1.67231 14.5 2.50073 14.5H13.5007C14.3292 14.5 15.0007 13.8284 15.0007 13V5C15.0007 4.17157 14.3292 3.5 13.5007 3.5H8.41495C8.28234 3.5 8.15516 3.44732 8.06139 3.35355L6.64718 1.93934C6.36587 1.65803 5.98434 1.5 5.58652 1.5H2.50073ZM8.50073 6.5C8.50073 6.22386 8.27687 6 8.00073 6C7.72459 6 7.50073 6.22386 7.50073 6.5V8.5H5.50073C5.22459 8.5 5.00073 8.72386 5.00073 9C5.00073 9.27614 5.22459 9.5 5.50073 9.5H7.50073V11.5C7.50073 11.7761 7.72459 12 8.00073 12C8.27687 12 8.50073 11.7761 8.50073 11.5V9.5H10.5007C10.7769 9.5 11.0007 9.27614 11.0007 9C11.0007 8.72386 10.7769 8.5 10.5007 8.5H8.50073V6.5Z" fill="#3B404A"/>
</svg>
