<svg width="16" height="16" viewBox="0 0 16 16" fill="none" xmlns="http://www.w3.org/2000/svg">
<path fill-rule="evenodd" clip-rule="evenodd" d="M1.49939 2.99997C1.49939 2.17155 2.17096 1.49998 2.99937 1.49998H12.9993C13.8277 1.49998 14.4993 2.17155 14.4993 2.99997V4.99995C14.4993 5.27609 14.2754 5.49994 13.9993 5.49994H1.99938C1.72325 5.49994 1.49939 5.27609 1.49939 4.99995V2.99997ZM2.99937 2.49997C2.72323 2.49997 2.49938 2.72383 2.49938 2.99997V4.49995H13.4993V2.99997C13.4993 2.72383 13.2754 2.49997 12.9993 2.49997H2.99937Z" fill="#3B404A"/>
<path fill-rule="evenodd" clip-rule="evenodd" d="M1.99939 4.99995C1.99939 4.72381 2.22324 4.49995 2.49938 4.49995H13.4993C13.6319 4.49995 13.7591 4.55263 13.8528 4.6464C13.9466 4.74017 13.9993 4.86734 13.9993 4.99995L13.9993 12.9999C13.9993 13.8283 13.3277 14.4999 12.4993 14.4999L3.49937 14.4999C2.67095 14.4999 1.99938 13.8283 1.99938 12.9999L1.99939 4.99995ZM2.99938 5.49994L2.99937 12.9999C2.99937 13.276 3.22323 13.4999 3.49937 13.4999H12.4993C12.7754 13.4999 12.9993 13.276 12.9993 12.9999V5.49995L2.99938 5.49994Z" fill="#3B404A"/>
<path fill-rule="evenodd" clip-rule="evenodd" d="M7.99932 6.49993C8.27546 6.49993 8.49932 6.72379 8.49932 6.99993V10.7928L9.64575 9.64635C9.84101 9.45109 10.1576 9.45109 10.3529 9.64635C10.5481 9.84161 10.5481 10.1582 10.3529 10.3534L8.35288 12.3534C8.15761 12.5487 7.84103 12.5487 7.64577 12.3534L5.64579 10.3534C5.45053 10.1582 5.45053 9.84161 5.64579 9.64635C5.84105 9.45109 6.15763 9.45109 6.35289 9.64635L7.49933 10.7928V6.99993C7.49933 6.72379 7.72319 6.49993 7.99932 6.49993Z" fill="#3B404A"/>
</svg>
