<svg width="16" height="16" viewBox="0 0 16 16" fill="none" xmlns="http://www.w3.org/2000/svg">
<path fill-rule="evenodd" clip-rule="evenodd" d="M15.5698 10.82L14.3098 4.51C14.0798 3.34 13.0498 2.5 11.8598 2.5H4.13982C2.94982 2.5 1.91982 3.34 1.68982 4.51L0.419824 10.82C0.139823 12.21 1.19982 13.5 2.61982 13.5C3.32982 13.5 3.98982 13.17 4.41982 12.6L5.09982 11.7C5.18982 11.57 5.33982 11.5 5.49982 11.5H10.4998C10.6598 11.5 10.8098 11.57 10.8998 11.7L11.5798 12.6C11.9998 13.17 12.6698 13.5 13.3798 13.5C14.7998 13.5 15.8598 12.2 15.5798 10.82H15.5698ZM6.49982 7.6H5.59982V8.5C5.59982 8.83 5.32982 9.1 4.99982 9.1C4.66982 9.1 4.39982 8.83 4.39982 8.5V7.6H3.49982C3.16982 7.6 2.89982 7.33 2.89982 7C2.89982 6.67 3.16982 6.4 3.49982 6.4H4.39982V5.5C4.39982 5.17 4.66982 4.9 4.99982 4.9C5.32982 4.9 5.59982 5.17 5.59982 5.5V6.4H6.49982C6.82982 6.4 7.09982 6.67 7.09982 7C7.09982 7.33 6.82982 7.6 6.49982 7.6ZM9.36982 8.75C8.88982 8.75 8.48982 8.36 8.48982 7.87C8.48982 7.38 8.87982 6.99 9.36982 6.99C9.85982 6.99 10.2498 7.38 10.2498 7.87C10.2498 8.36 9.85982 8.75 9.36982 8.75ZM10.8698 6.75C10.3898 6.75 9.98982 6.36 9.98982 5.87C9.98982 5.38 10.3798 4.99 10.8698 4.99C11.3598 4.99 11.7498 5.38 11.7498 5.87C11.7498 6.36 11.3598 6.75 10.8698 6.75ZM12.3698 8.75C11.8898 8.75 11.4898 8.36 11.4898 7.87C11.4898 7.38 11.8798 6.99 12.3698 6.99C12.8598 6.99 13.2498 7.38 13.2498 7.87C13.2498 8.36 12.8598 8.75 12.3698 8.75Z" fill="#3B404A"/>
</svg>
