<svg width="16" height="16" viewBox="0 0 16 16" fill="none" xmlns="http://www.w3.org/2000/svg">
<path fill-rule="evenodd" clip-rule="evenodd" d="M8.5 8.46914C10.4732 8.2231 12 6.5399 12 4.50009C12 2.29095 10.2091 0.500092 8 0.500092C5.79086 0.500092 4 2.29095 4 4.50009C4 6.5399 5.52684 8.2231 7.5 8.46914V10.0001H4.5C4.22386 10.0001 4 10.2239 4 10.5001C4 10.7762 4.22386 11.0001 4.5 11.0001H7.5V15.0001C7.5 15.2762 7.72386 15.5001 8 15.5001C8.27614 15.5001 8.5 15.2762 8.5 15.0001V11.0001H11.5C11.7761 11.0001 12 10.7762 12 10.5001C12 10.2239 11.7761 10.0001 11.5 10.0001H8.5V8.46914ZM5 4.50009C5 2.84324 6.34315 1.50009 8 1.50009C9.65685 1.50009 11 2.84324 11 4.50009C11 6.15695 9.65685 7.50009 8 7.50009C6.34315 7.50009 5 6.15695 5 4.50009Z" fill="#3B404A"/>
</svg>
