<svg width="16" height="16" viewBox="0 0 16 16" fill="none" xmlns="http://www.w3.org/2000/svg">
<path fill-rule="evenodd" clip-rule="evenodd" d="M4.25 3C3.14543 3 2.25 3.89543 2.25 5C2.25 6.10457 3.14543 7 4.25 7C5.35457 7 6.25 6.10457 6.25 5C6.25 3.89543 5.35457 3 4.25 3ZM1.25 5C1.25 3.34315 2.59315 2 4.25 2C5.90685 2 7.25 3.34315 7.25 5C7.25 6.4865 6.16886 7.72048 4.75 7.95852V9.5H6.75C7.02614 9.5 7.25 9.72386 7.25 10C7.25 10.2761 7.02614 10.5 6.75 10.5H4.75V13.5C4.75 13.7761 4.52614 14 4.25 14C3.97386 14 3.75 13.7761 3.75 13.5V10.5H1.75C1.47386 10.5 1.25 10.2761 1.25 10C1.25 9.72386 1.47386 9.5 1.75 9.5H3.75V7.95852C2.33114 7.72048 1.25 6.4865 1.25 5ZM11.75 2C11.8917 2 12.0268 2.06016 12.1216 2.16552L14.3716 4.66552C14.5564 4.87077 14.5397 5.18692 14.3345 5.37165C14.1292 5.55638 13.8131 5.53974 13.6284 5.33448L12.25 3.80298V8.04148C13.6689 8.27952 14.75 9.5135 14.75 11C14.75 12.6569 13.4069 14 11.75 14C10.0931 14 8.75 12.6569 8.75 11C8.75 9.5135 9.83114 8.27952 11.25 8.04148V3.80298L9.87165 5.33448C9.68692 5.53974 9.37077 5.55638 9.16552 5.37165C8.96026 5.18692 8.94362 4.87077 9.12835 4.66552L11.3784 2.16552C11.4732 2.06016 11.6083 2 11.75 2ZM11.75 9C10.6454 9 9.75 9.89543 9.75 11C9.75 12.1046 10.6454 13 11.75 13C12.8546 13 13.75 12.1046 13.75 11C13.75 9.89543 12.8546 9 11.75 9Z" fill="#3B404A"/>
</svg>
