<svg width="16" height="16" viewBox="0 0 16 16" fill="none" xmlns="http://www.w3.org/2000/svg">
<path fill-rule="evenodd" clip-rule="evenodd" d="M8.35355 0.646538C8.15829 0.451276 7.84171 0.451276 7.64645 0.646538L4.64645 3.64654C4.45118 3.8418 4.45118 4.15838 4.64645 4.35364C4.84171 4.54891 5.15829 4.54891 5.35355 4.35364L7.5 2.2072V7.53104C5.52684 7.77709 4 9.46028 4 11.5001C4 13.7092 5.79086 15.5001 8 15.5001C10.2091 15.5001 12 13.7092 12 11.5001C12 9.46028 10.4732 7.77709 8.5 7.53104V2.2072L10.6464 4.35364C10.8417 4.54891 11.1583 4.54891 11.3536 4.35364C11.5488 4.15838 11.5488 3.8418 11.3536 3.64654L8.35355 0.646538ZM8 8.50009C6.34315 8.50009 5 9.84324 5 11.5001C5 13.1569 6.34315 14.5001 8 14.5001C9.65685 14.5001 11 13.1569 11 11.5001C11 9.84324 9.65685 8.50009 8 8.50009Z" fill="#3B404A"/>
</svg>
