<svg width="16" height="16" viewBox="0 0 16 16" fill="none" xmlns="http://www.w3.org/2000/svg">
<path fill-rule="evenodd" clip-rule="evenodd" d="M6.55042 1.59644C6.71774 0.949412 7.28487 0.5 8 0.5C8.71513 0.5 9.28226 0.949412 9.44958 1.59644C9.61842 1.53389 9.80363 1.5 10 1.5C10.856 1.5 11.5 2.14396 11.5 3V6.2424C11.6534 6.19306 11.8208 6.16667 12 6.16667C12.469 6.16667 12.8575 6.34752 13.1237 6.64699C13.3817 6.93725 13.5 7.31013 13.5 7.66667V10.6667C13.5 11.7689 13.1348 12.9653 12.3904 13.8957C11.6362 14.8385 10.4966 15.5 9 15.5H7C5.48819 15.5 4.34747 14.8396 3.59611 13.8945C2.85525 12.9626 2.5 11.7661 2.5 10.6667V5C2.5 4.14396 3.14396 3.5 4 3.5C4.15884 3.5 4.31037 3.52217 4.45185 3.56375L4.43361 3.01666L4.43333 3C4.43333 2.10267 5.18714 1.5 6 1.5C6.19637 1.5 6.38158 1.53389 6.55042 1.59644ZM6.5 3C6.5 2.69624 6.30376 2.5 6 2.5C5.65608 2.5 5.43716 2.73342 5.43338 2.99317L5.49683 4.89659C5.49893 4.93069 5.5 4.96517 5.5 5V8C5.5 8.27614 5.27614 8.5 5 8.5C4.72386 8.5 4.5 8.27614 4.5 8V5.00833L4.49797 4.94736C4.47646 4.67376 4.28583 4.5 4 4.5C3.69624 4.5 3.5 4.69624 3.5 5V10.6667C3.5 11.5673 3.79475 12.5374 4.37889 13.2722C4.95252 13.9937 5.81181 14.5 7 14.5H9C10.1701 14.5 11.0305 13.9949 11.6096 13.271C12.1986 12.5347 12.5 11.5644 12.5 10.6667V7.66667C12.5 7.5232 12.4516 7.39608 12.3763 7.31135C12.3092 7.23582 12.1977 7.16667 12 7.16667C11.8023 7.16667 11.691 7.23586 11.6242 7.31107C11.5493 7.39542 11.5014 7.52192 11.502 7.66464C11.5021 7.68063 11.5014 7.69644 11.5 7.71205V9.63068C11.5008 9.64257 11.5013 9.65457 11.5013 9.66667C11.5013 9.94281 11.2774 10.1667 11.0013 10.1667H11.0002C10.5981 10.1668 10.3423 10.1674 9.93167 10.424C9.7747 10.5221 9.66123 10.6807 9.5841 10.8414C9.54693 10.9188 9.52215 10.9886 9.50706 11.0377C9.49959 11.0619 9.49472 11.0804 9.49204 11.0912L9.48964 11.1012L9.49016 11.0987C9.43586 11.3693 9.1726 11.5444 8.90193 11.4903C8.63115 11.4361 8.45555 11.1727 8.50971 10.9019L9 11C8.50971 10.9019 8.50971 10.9019 8.50971 10.9019L8.51 10.9005L8.51034 10.8988L8.51119 10.8947L8.51361 10.8836C8.51555 10.8749 8.51816 10.8637 8.52151 10.8502C8.5282 10.8233 8.53791 10.787 8.55128 10.7436C8.57786 10.6572 8.61974 10.5395 8.68258 10.4086C8.80546 10.1526 9.02532 9.81123 9.40166 9.57601C9.82535 9.31119 10.1802 9.21778 10.5 9.18477V3C10.5 2.69624 10.3038 2.5 10 2.5C9.69624 2.5 9.5 2.69624 9.5 3V7.33333C9.5 7.60948 9.27614 7.83333 9 7.83333C8.72386 7.83333 8.5 7.60948 8.5 7.33333V2C8.5 1.69624 8.30376 1.5 8 1.5C7.69624 1.5 7.5 1.69624 7.5 2V7.33333C7.5 7.60948 7.27614 7.83333 7 7.83333C6.72386 7.83333 6.5 7.60948 6.5 7.33333V3Z" fill="#3B404A"/>
</svg>
