<svg width="16" height="16" viewBox="0 0 16 16" fill="none" xmlns="http://www.w3.org/2000/svg">
<path fill-rule="evenodd" clip-rule="evenodd" d="M14.1783 6.70311L8.67828 1.62619C8.29522 1.27259 7.70478 1.27259 7.32172 1.62619L1.82172 6.70311C1.61664 6.89242 1.5 7.15882 1.5 7.43792V13.5001C1.5 14.0524 1.94772 14.5001 2.5 14.5001H4C4 14.5001 4.8 11.5001 8 11.5001C11.2 11.5001 12 14.5001 12 14.5001H13.5C14.0523 14.5001 14.5 14.0524 14.5 13.5001V7.43792C14.5 7.15882 14.3834 6.89242 14.1783 6.70311ZM8 9.99996C9.24264 9.99996 10.25 8.9926 10.25 7.74996C10.25 6.50732 9.24264 5.49996 8 5.49996C6.75736 5.49996 5.75 6.50732 5.75 7.74996C5.75 8.9926 6.75736 9.99996 8 9.99996Z" fill="#3B404A"/>
</svg>
