<svg width="16" height="16" viewBox="0 0 16 16" fill="none" xmlns="http://www.w3.org/2000/svg">
<path fill-rule="evenodd" clip-rule="evenodd" d="M8 4.99997C6.61929 4.99997 5.5 6.11926 5.5 7.49997C5.5 8.88068 6.61929 9.99997 8 9.99997C9.38071 9.99997 10.5 8.88068 10.5 7.49997C10.5 6.11926 9.38071 4.99997 8 4.99997ZM6.5 7.49997C6.5 6.67154 7.17157 5.99997 8 5.99997C8.82843 5.99997 9.5 6.67154 9.5 7.49997C9.5 8.3284 8.82843 8.99997 8 8.99997C7.17157 8.99997 6.5 8.3284 6.5 7.49997Z" fill="#3B404A"/>
<path fill-rule="evenodd" clip-rule="evenodd" d="M10.9999 14.1059C10.9724 14.0475 10.9292 13.9611 10.8697 13.856C10.75 13.6448 10.5672 13.3638 10.3159 13.0846C9.81388 12.5268 9.06401 12.0001 8 12.0001C6.93599 12.0001 6.18612 12.5268 5.68415 13.0846C5.43281 13.3638 5.24999 13.6448 5.13032 13.856C5.07077 13.9611 5.02764 14.0475 5.00011 14.1059L4.96409 14.1861C4.88807 14.3758 4.70432 14.5001 4.5 14.5001H3C2.17157 14.5001 1.5 13.8285 1.5 13.0001V7.43999C1.5 7.01953 1.67647 6.61838 1.98641 6.33426L6.98641 1.75093C7.5599 1.22524 8.4401 1.22524 9.01359 1.75093L14.0136 6.33426C14.3235 6.61838 14.5 7.01953 14.5 7.43999V13.0001C14.5 13.8285 13.8284 14.5001 13 14.5001H11.5C11.296 14.5001 11.1121 14.3753 11.0359 14.1861L10.9999 14.1059ZM7.66214 2.48808C7.8533 2.31285 8.1467 2.31285 8.33786 2.48808L13.3379 7.07142C13.4412 7.16612 13.5 7.29984 13.5 7.43999V13.0001C13.5 13.2762 13.2761 13.5001 13 13.5001H11.8147C11.7923 13.4577 11.7674 13.4118 11.7397 13.363C11.5937 13.1054 11.3703 12.7613 11.0591 12.4156C10.4361 11.7234 9.43599 11.0001 8 11.0001C6.56401 11.0001 5.56388 11.7234 4.94085 12.4156C4.62969 12.7613 4.40626 13.1054 4.2603 13.363C4.23265 13.4118 4.20767 13.4577 4.18529 13.5001H3C2.72386 13.5001 2.5 13.2762 2.5 13.0001V7.43999C2.5 7.29984 2.55882 7.16612 2.66214 7.07141L7.66214 2.48808Z" fill="#3B404A"/>
</svg>
