<svg width="16" height="16" viewBox="0 0 16 16" fill="none" xmlns="http://www.w3.org/2000/svg">
<path d="M8.75 4.75C8.75 5.16421 8.41421 5.5 8 5.5C7.58579 5.5 7.25 5.16421 7.25 4.75C7.25 4.33579 7.58579 4 8 4C8.41421 4 8.75 4.33579 8.75 4.75Z" fill="#3B404A"/>
<path d="M6.75 7C6.75 6.72386 6.97386 6.5 7.25 6.5H8.25C8.52614 6.5 8.75 6.72386 8.75 7V11.5C8.75 11.7761 8.52614 12 8.25 12C7.97386 12 7.75 11.7761 7.75 11.5V7.5H7.25C6.97386 7.5 6.75 7.27614 6.75 7Z" fill="#3B404A"/>
<path fill-rule="evenodd" clip-rule="evenodd" d="M15 8C15 11.866 11.866 15 8 15C4.13401 15 1 11.866 1 8C1 4.13401 4.13401 1 8 1C11.866 1 15 4.13401 15 8ZM14 8C14 11.3137 11.3137 14 8 14C4.68629 14 2 11.3137 2 8C2 4.68629 4.68629 2 8 2C11.3137 2 14 4.68629 14 8Z" fill="#3B404A"/>
</svg>
