<svg width="16" height="16" viewBox="0 0 16 16" fill="none" xmlns="http://www.w3.org/2000/svg">
<path fill-rule="evenodd" clip-rule="evenodd" d="M8 15C11.866 15 15 11.866 15 8C15 4.13401 11.866 1 8 1C4.13401 1 1 4.13401 1 8C1 11.866 4.13401 15 8 15ZM8.875 4.625C8.875 5.10825 8.48325 5.5 8 5.5C7.51675 5.5 7.125 5.10825 7.125 4.625C7.125 4.14175 7.51675 3.75 8 3.75C8.48325 3.75 8.875 4.14175 8.875 4.625ZM6.625 7.125C6.625 6.77982 6.90482 6.5 7.25 6.5H8.25C8.59518 6.5 8.875 6.77982 8.875 7.125V11.625C8.875 11.9702 8.59518 12.25 8.25 12.25C7.90482 12.25 7.625 11.9702 7.625 11.625V7.75H7.25C6.90482 7.75 6.625 7.47018 6.625 7.125Z" fill="#3B404A"/>
</svg>
