<svg width="16" height="16" viewBox="0 0 16 16" fill="none" xmlns="http://www.w3.org/2000/svg">
<path fill-rule="evenodd" clip-rule="evenodd" d="M13.75 5.25H13.25V13C13.25 13 13.25 13.5 12.75 13.5C12.25 13.5 12.25 13 12.25 13V2.75C12.25 1.92 11.58 1.25 10.75 1.25H2.75C1.92 1.25 1.25 1.92 1.25 2.75V13.25C1.25 14 2 14.74 2.75 14.75H12.75C13.72 14.75 14.75 14.22 14.75 13.25V6.05C14.75 5.5 14.25 5.25 13.75 5.25ZM7.22 7.45L5.53 7.03C4.23 6.7 3.83 5.05 4.84 4.17C5.14 3.9 5.53 3.76 5.93 3.76H5.99V3.51C5.99 3.23 6.21 3.01 6.49 3.01C6.77 3.01 6.99 3.23 6.99 3.51V3.76H7.24C8.07 3.76 8.74 4.43 8.74 5.26C8.74 5.54 8.52 5.76 8.24 5.76C7.96 5.76 7.74 5.54 7.74 5.26C7.74 4.98 7.52 4.76 7.24 4.76H5.93C5.77 4.76 5.61 4.82 5.49 4.92C5.09 5.27 5.25 5.93 5.77 6.06L7.46 6.48C8.76 6.81 9.16 8.46 8.15 9.34C7.85 9.61 7.46 9.75 7.06 9.75H7V10C7 10.28 6.78 10.5 6.5 10.5C6.22 10.5 6 10.28 6 10V9.75H5.75C4.92 9.75 4.25 9.08 4.25 8.25C4.25 7.97 4.47 7.75 4.75 7.75C5.03 7.75 5.25 7.97 5.25 8.25C5.25 8.53 5.47 8.75 5.75 8.75H7.06C7.22 8.75 7.38 8.69 7.5 8.59C7.9 8.24 7.74 7.58 7.22 7.45ZM8.75 12.75H4.25C3.97 12.75 3.75 12.53 3.75 12.25C3.75 11.97 3.97 11.75 4.25 11.75H8.75C9.03 11.75 9.25 11.97 9.25 12.25C9.25 12.53 9.03 12.75 8.75 12.75Z" fill="#3B404A"/>
</svg>
