<svg width="16" height="16" viewBox="0 0 16 16" fill="none" xmlns="http://www.w3.org/2000/svg">
<path d="M4 4.49997C3.72386 4.49997 3.5 4.72383 3.5 4.99997C3.5 5.27611 3.72386 5.49997 4 5.49997H9.5C9.77614 5.49997 10 5.27611 10 4.99997C10 4.72383 9.77614 4.49997 9.5 4.49997H4Z" fill="#3B404A"/>
<path d="M4 10.5C3.72386 10.5 3.5 10.7238 3.5 11C3.5 11.2761 3.72386 11.5 4 11.5H7.5C7.77614 11.5 8 11.2761 8 11C8 10.7238 7.77614 10.5 7.5 10.5H4Z" fill="#3B404A"/>
<path d="M3.5 7.99997C3.5 7.72383 3.72386 7.49997 4 7.49997H9.5C9.77614 7.49997 10 7.72383 10 7.99997C10 8.27611 9.77614 8.49997 9.5 8.49997H4C3.72386 8.49997 3.5 8.27611 3.5 7.99997Z" fill="#3B404A"/>
<path fill-rule="evenodd" clip-rule="evenodd" d="M13 15C13.0296 15 13.0586 14.9974 13.0868 14.9925C13.1405 14.9974 13.195 15 13.25 15C14.2165 15 15 14.2165 15 13.25V6.49997C15 5.94769 14.5523 5.49997 14 5.49997L12.5 5.49997V2.49997C12.5 1.67154 11.8284 0.999969 11 0.999969H2.5C1.67157 0.999969 1 1.67154 1 2.49997V12.5C1 13.8807 2.11929 15 3.5 15H13ZM12.5 13.25V6.49997H14V13.25C14 13.6642 13.6642 14 13.25 14C12.8358 14 12.5 13.6642 12.5 13.25ZM11 1.99997C11.2761 1.99997 11.5 2.22383 11.5 2.49997L11.5 14L3.5 14C2.67157 14 2 13.3284 2 12.5L2 2.49997C2 2.22383 2.22386 1.99997 2.5 1.99997L11 1.99997Z" fill="#3B404A"/>
</svg>
