<svg width="16" height="16" viewBox="0 0 16 16" fill="none" xmlns="http://www.w3.org/2000/svg">
<path d="M5 10.25C4.72386 10.25 4.5 10.4739 4.5 10.75C4.5 11.0261 4.72386 11.25 5 11.25H11C11.2761 11.25 11.5 11.0261 11.5 10.75C11.5 10.4739 11.2761 10.25 11 10.25H5Z" fill="#3B404A"/>
<path d="M5 5.5C5 5.91421 4.66421 6.25 4.25 6.25C3.83579 6.25 3.5 5.91421 3.5 5.5C3.5 5.08579 3.83579 4.75 4.25 4.75C4.66421 4.75 5 5.08579 5 5.5Z" fill="#3B404A"/>
<path d="M6.75 6.25C7.16421 6.25 7.5 5.91421 7.5 5.5C7.5 5.08579 7.16421 4.75 6.75 4.75C6.33579 4.75 6 5.08579 6 5.5C6 5.91421 6.33579 6.25 6.75 6.25Z" fill="#3B404A"/>
<path d="M10 5.5C10 5.91421 9.66421 6.25 9.25 6.25C8.83579 6.25 8.5 5.91421 8.5 5.5C8.5 5.08579 8.83579 4.75 9.25 4.75C9.66421 4.75 10 5.08579 10 5.5Z" fill="#3B404A"/>
<path d="M11.75 6.25C12.1642 6.25 12.5 5.91421 12.5 5.5C12.5 5.08579 12.1642 4.75 11.75 4.75C11.3358 4.75 11 5.08579 11 5.5C11 5.91421 11.3358 6.25 11.75 6.25Z" fill="#3B404A"/>
<path d="M5 8C5 8.41421 4.66421 8.75 4.25 8.75C3.83579 8.75 3.5 8.41421 3.5 8C3.5 7.58579 3.83579 7.25 4.25 7.25C4.66421 7.25 5 7.58579 5 8Z" fill="#3B404A"/>
<path d="M6.75 8.75C7.16421 8.75 7.5 8.41421 7.5 8C7.5 7.58579 7.16421 7.25 6.75 7.25C6.33579 7.25 6 7.58579 6 8C6 8.41421 6.33579 8.75 6.75 8.75Z" fill="#3B404A"/>
<path d="M10 8C10 8.41421 9.66421 8.75 9.25 8.75C8.83579 8.75 8.5 8.41421 8.5 8C8.5 7.58579 8.83579 7.25 9.25 7.25C9.66421 7.25 10 7.58579 10 8Z" fill="#3B404A"/>
<path d="M11.75 8.75C12.1642 8.75 12.5 8.41421 12.5 8C12.5 7.58579 12.1642 7.25 11.75 7.25C11.3358 7.25 11 7.58579 11 8C11 8.41421 11.3358 8.75 11.75 8.75Z" fill="#3B404A"/>
<path fill-rule="evenodd" clip-rule="evenodd" d="M2.5 2.75C1.67157 2.75 1 3.42157 1 4.25V11.75C1 12.5784 1.67157 13.25 2.5 13.25H13.5C14.3284 13.25 15 12.5784 15 11.75V4.25C15 3.42157 14.3284 2.75 13.5 2.75H2.5ZM2 4.25C2 3.97386 2.22386 3.75 2.5 3.75H13.5C13.7761 3.75 14 3.97386 14 4.25V11.75C14 12.0261 13.7761 12.25 13.5 12.25H2.5C2.22386 12.25 2 12.0261 2 11.75V4.25Z" fill="#3B404A"/>
</svg>
