<svg width="16" height="16" viewBox="0 0 16 16" fill="none" xmlns="http://www.w3.org/2000/svg">
<path fill-rule="evenodd" clip-rule="evenodd" d="M2 3.5C1.72386 3.5 1.5 3.72386 1.5 4C1.5 4.27614 1.72386 4.5 2 4.5H12.6667C12.9428 4.5 13.1667 4.27614 13.1667 4C13.1667 3.72386 12.9428 3.5 12.6667 3.5H2ZM2 7.5C1.72386 7.5 1.5 7.72386 1.5 8C1.5 8.27614 1.72386 8.5 2 8.5H12.6667C12.9428 8.5 13.1667 8.27614 13.1667 8C13.1667 7.72386 12.9428 7.5 12.6667 7.5H2ZM2 11.5C1.72386 11.5 1.5 11.7239 1.5 12C1.5 12.2761 1.72386 12.5 2 12.5H8C8.27614 12.5 8.5 12.2761 8.5 12C8.5 11.7239 8.27614 11.5 8 11.5H2ZM13.1667 10C13.1667 9.72386 12.9428 9.5 12.6667 9.5C12.3905 9.5 12.1667 9.72386 12.1667 10V11.5H10.6667C10.3905 11.5 10.1667 11.7239 10.1667 12C10.1667 12.2761 10.3905 12.5 10.6667 12.5H12.1667V14C12.1667 14.2761 12.3905 14.5 12.6667 14.5C12.9428 14.5 13.1667 14.2761 13.1667 14V12.5H14.6667C14.9428 12.5 15.1667 12.2761 15.1667 12C15.1667 11.7239 14.9428 11.5 14.6667 11.5H13.1667V10Z" fill="#3B404A"/>
</svg>
