<svg width="16" height="16" viewBox="0 0 16 16" fill="none" xmlns="http://www.w3.org/2000/svg">
<path fill-rule="evenodd" clip-rule="evenodd" d="M2 3.5C1.72386 3.5 1.5 3.72386 1.5 4C1.5 4.27614 1.72386 4.5 2 4.5H12.6667C12.9428 4.5 13.1667 4.27614 13.1667 4C13.1667 3.72386 12.9428 3.5 12.6667 3.5H2ZM2 7.5C1.72386 7.5 1.5 7.72386 1.5 8C1.5 8.27614 1.72386 8.5 2 8.5H12.6667C12.9428 8.5 13.1667 8.27614 13.1667 8C13.1667 7.72386 12.9428 7.5 12.6667 7.5H2ZM2 11.5C1.72386 11.5 1.5 11.7239 1.5 12C1.5 12.2761 1.72386 12.5 2 12.5H7C7.27614 12.5 7.5 12.2761 7.5 12C7.5 11.7239 7.27614 11.5 7 11.5H2ZM15.0202 10.3536C15.2155 10.1583 15.2155 9.84171 15.0202 9.64645C14.825 9.45118 14.5084 9.45118 14.3131 9.64645L11.3333 12.6262L9.68689 10.9798C9.49162 10.7845 9.17504 10.7845 8.97978 10.9798C8.78452 11.175 8.78452 11.4916 8.97978 11.6869L10.9798 13.6869C11.175 13.8821 11.4916 13.8821 11.6869 13.6869L15.0202 10.3536Z" fill="#3B404A"/>
</svg>
