<svg width="16" height="16" viewBox="0 0 16 16" fill="none" xmlns="http://www.w3.org/2000/svg">
<path fill-rule="evenodd" clip-rule="evenodd" d="M8 8.5C6.89543 8.5 6 9.39543 6 10.5C6 11.6046 6.89543 12.5 8 12.5C9.10457 12.5 10 11.6046 10 10.5C10 9.39543 9.10457 8.5 8 8.5ZM7 10.5C7 9.94771 7.44772 9.5 8 9.5C8.55228 9.5 9 9.94771 9 10.5C9 11.0523 8.55228 11.5 8 11.5C7.44772 11.5 7 11.0523 7 10.5Z" fill="#3B404A"/>
<path fill-rule="evenodd" clip-rule="evenodd" d="M4.5 4.5C4.5 2.567 6.067 1 8 1C9.29612 1 10.427 1.70479 11.0315 2.74964C11.1697 2.98867 11.088 3.29453 10.849 3.4328C10.61 3.57107 10.3041 3.48939 10.1659 3.25036C9.73283 2.50181 8.92472 2 8 2C6.61929 2 5.5 3.11929 5.5 4.5V6H13C13.8284 6 14.5 6.67157 14.5 7.5V13.5C14.5 14.3284 13.8284 15 13 15H3C2.17157 15 1.5 14.3284 1.5 13.5V7.5C1.5 6.67157 2.17157 6 3 6H4.5V4.5ZM3 7C2.72386 7 2.5 7.22386 2.5 7.5V13.5C2.5 13.7761 2.72386 14 3 14H13C13.2761 14 13.5 13.7761 13.5 13.5V7.5C13.5 7.22386 13.2761 7 13 7H3Z" fill="#3B404A"/>
</svg>
