<svg width="16" height="16" viewBox="0 0 16 16" fill="none" xmlns="http://www.w3.org/2000/svg">
<path fill-rule="evenodd" clip-rule="evenodd" d="M11.998 1C12.2175 0.999138 12.4118 1.14147 12.4773 1.35094L12.6722 1.97507C12.9588 2.8927 13.6678 3.6174 14.5789 3.92402L14.9879 4.06165C15.1914 4.13012 15.3284 4.32085 15.3284 4.53553C15.3284 4.75022 15.1914 4.94095 14.9879 5.00942L14.5603 5.15332C13.6581 5.45693 12.9536 6.17068 12.6617 7.07672L12.4759 7.65332C12.4091 7.86065 12.2158 8.00088 11.998 8C11.7802 7.99911 11.588 7.85732 11.5229 7.64946L11.3508 7.10022C11.0628 6.18079 10.3507 5.45563 9.43667 5.15094L9.01347 5.00988C8.8093 4.94182 8.67158 4.75075 8.67158 4.53553C8.67158 4.32032 8.8093 4.12925 9.01347 4.06119L9.41835 3.92623C10.3412 3.61863 11.0576 2.88269 11.3402 1.95193L11.5216 1.35471C11.5853 1.14473 11.7786 1.00087 11.998 1ZM12.0026 2.95605C11.6542 3.61223 11.1295 4.15861 10.4887 4.53327C11.1264 4.90159 11.6506 5.43949 12.0025 6.08681C12.3542 5.43941 12.8784 4.90157 13.5158 4.53325C12.8754 4.15858 12.3509 3.61228 12.0026 2.95605ZM6 4C6.22943 4 6.42943 4.15615 6.48507 4.37873L6.78467 5.57714C7.17472 7.13733 8.36773 8.37077 9.91407 8.81258L10.6374 9.01924C10.852 9.08057 11 9.27676 11 9.5C11 9.72324 10.852 9.91943 10.6374 9.98076L9.91407 10.1874C8.36774 10.6292 7.17472 11.8627 6.78467 13.4229L6.48507 14.6213C6.42943 14.8439 6.22943 15 6 15C5.77057 15 5.57057 14.8439 5.51493 14.6213L5.21533 13.4229C4.82528 11.8627 3.63227 10.6292 2.08593 10.1874L1.36264 9.98076C1.14799 9.91943 1 9.72324 1 9.5C1 9.27676 1.14799 9.08057 1.36264 9.01924L2.08593 8.81258C3.63226 8.37077 4.82528 7.13733 5.21533 5.57714L5.51493 4.37873C5.57057 4.15615 5.77057 4 6 4ZM6 6.41579C5.48554 7.78926 4.44279 8.89937 3.10982 9.5C4.44279 10.1006 5.48555 11.2107 6 12.5842C6.51446 11.2107 7.55721 10.1006 8.89018 9.5C7.55721 8.89937 6.51446 7.78926 6 6.41579Z" fill="#3B404A"/>
</svg>
