<svg width="16" height="16" viewBox="0 0 16 16" fill="none" xmlns="http://www.w3.org/2000/svg">
<path fill-rule="evenodd" clip-rule="evenodd" d="M8 3.50012C6.61929 3.50012 5.5 4.61941 5.5 6.00012C5.5 7.38083 6.61929 8.50012 8 8.50012C9.38071 8.50012 10.5 7.38083 10.5 6.00012C10.5 4.61941 9.38071 3.50012 8 3.50012ZM6.5 6.00012C6.5 5.17169 7.17157 4.50012 8 4.50012C8.82843 4.50012 9.5 5.17169 9.5 6.00012C9.5 6.82855 8.82843 7.50012 8 7.50012C7.17157 7.50012 6.5 6.82855 6.5 6.00012Z" fill="#3B404A"/>
<path fill-rule="evenodd" clip-rule="evenodd" d="M7.99999 0.500122C4.6919 0.500122 2.5 3.25704 2.5 6.00013C2.5 7.67805 3.298 9.46025 4.22058 10.9741C5.15172 12.5021 6.25356 13.8265 6.94737 14.6039C7.51393 15.2387 8.48604 15.2387 9.0526 14.6039C9.74642 13.8265 10.8483 12.5021 11.7794 10.9741C12.702 9.46025 13.5 7.67805 13.5 6.00013C13.5 3.25704 11.3081 0.500122 7.99999 0.500122ZM3.5 6.00013C3.5 3.74322 5.30805 1.50012 7.99999 1.50012C10.6919 1.50012 12.5 3.74322 12.5 6.00013C12.5 7.39639 11.8213 8.9837 10.9255 10.4537C10.0382 11.9097 8.97982 13.1836 8.30653 13.938C8.13759 14.1273 7.86239 14.1273 7.69345 13.938C7.02015 13.1836 5.96179 11.9097 5.0745 10.4537C4.17865 8.9837 3.5 7.39639 3.5 6.00013Z" fill="#3B404A"/>
</svg>
