<svg width="16" height="16" viewBox="0 0 16 16" fill="none" xmlns="http://www.w3.org/2000/svg">
<path fill-rule="evenodd" clip-rule="evenodd" d="M2 2H14C14.83 2 15.5 2.67 15.5 3.5V12.5C15.5 13.33 14.83 14 14 14H2C1.17 14 0.5 13.33 0.5 12.5V3.5C0.5 2.67 1.17 2 2 2ZM14 13C14.28 13 14.5 12.78 14.5 12.5V3.5C14.5 3.22 14.28 3 14 3H2C1.72 3 1.5 3.22 1.5 3.5V12.5C1.5 12.78 1.72 13 2 13H14ZM6.63 8.15C7.16 7.79 7.5 7.18 7.5 6.5C7.5 5.4 6.6 4.5 5.5 4.5C4.4 4.5 3.5 5.4 3.5 6.5C3.5 7.19 3.84 7.79 4.37 8.15C3.28 8.52 2.5 9.56 2.5 10.77C2.5 11.17 2.83 11.5 3.23 11.5H7.78C8.18 11.5 8.51 11.17 8.51 10.77C8.51 9.55 7.73 8.52 6.64 8.15H6.63ZM5.5 5.5C6.05 5.5 6.5 5.95 6.5 6.5C6.5 7.05 6.05 7.5 5.5 7.5C4.95 7.5 4.5 7.05 4.5 6.5C4.5 5.95 4.95 5.5 5.5 5.5ZM3.52 10.5C3.65 9.65 4.39 9 5.27 9H5.72C6.61 9 7.34 9.65 7.47 10.5H3.52ZM12.5 10H10C9.72 10 9.5 10.22 9.5 10.5C9.5 10.78 9.72 11 10 11H12.5C12.78 11 13 10.78 13 10.5C13 10.22 12.78 10 12.5 10ZM12.5 5H10C9.72 5 9.5 5.22 9.5 5.5C9.5 5.78 9.72 6 10 6H12.5C12.78 6 13 5.78 13 5.5C13 5.22 12.78 5 12.5 5ZM10 7.5H12.5C12.78 7.5 13 7.72 13 8C13 8.28 12.78 8.5 12.5 8.5H10C9.72 8.5 9.5 8.28 9.5 8C9.5 7.72 9.72 7.5 10 7.5Z" fill="#3B404A"/>
</svg>
