<svg width="16" height="16" viewBox="0 0 16 16" fill="none" xmlns="http://www.w3.org/2000/svg">
<path fill-rule="evenodd" clip-rule="evenodd" d="M8 1.5C6.34315 1.5 5 2.84315 5 4.5V7.5C5 9.15685 6.34315 10.5 8 10.5C9.65685 10.5 11 9.15685 11 7.5V4.5C11 2.84315 9.65685 1.5 8 1.5ZM6 4.5C6 3.39543 6.89543 2.5 8 2.5C9.10457 2.5 10 3.39543 10 4.5V7.5C10 8.60457 9.10457 9.5 8 9.5C6.89543 9.5 6 8.60457 6 7.5V4.5Z" fill="#3B404A"/>
<path d="M4 7.5C4 7.22386 3.77614 7 3.5 7C3.22386 7 3 7.22386 3 7.5C3 10.0927 4.97334 12.2245 7.5 12.4753V13.5H6C5.72386 13.5 5.5 13.7239 5.5 14C5.5 14.2761 5.72386 14.5 6 14.5H10C10.2761 14.5 10.5 14.2761 10.5 14C10.5 13.7239 10.2761 13.5 10 13.5H8.5V12.4753C11.0267 12.2245 13 10.0927 13 7.5C13 7.22386 12.7761 7 12.5 7C12.2239 7 12 7.22386 12 7.5C12 9.70914 10.2091 11.5 8 11.5C5.79086 11.5 4 9.70914 4 7.5Z" fill="#3B404A"/>
</svg>
