<svg width="16" height="16" viewBox="0 0 16 16" fill="none" xmlns="http://www.w3.org/2000/svg">
<path fill-rule="evenodd" clip-rule="evenodd" d="M14.3536 2.35355C14.5488 2.15829 14.5488 1.84171 14.3536 1.64645C14.1583 1.45118 13.8417 1.45118 13.6464 1.64645L1.64645 13.6464C1.45118 13.8417 1.45118 14.1583 1.64645 14.3536C1.84171 14.5488 2.15829 14.5488 2.35355 14.3536L5.11966 11.5874C5.80572 12.0717 6.61951 12.3878 7.50002 12.4753V13.5H6.00002C5.72387 13.5 5.50002 13.7239 5.50002 14C5.50002 14.2761 5.72387 14.5 6.00002 14.5H10C10.2762 14.5 10.5 14.2761 10.5 14C10.5 13.7239 10.2762 13.5 10 13.5H8.50002V12.4753C11.0267 12.2245 13 10.0927 13 7.5C13 7.22386 12.7762 7 12.5 7C12.2239 7 12 7.22386 12 7.5C12 9.70914 10.2092 11.5 8.00002 11.5C7.2039 11.5 6.46286 11.2678 5.83987 10.8672L6.56929 10.1378C6.92444 10.3332 7.39619 10.5 8.00012 10.5C9.65609 10.5 11.0001 9.15616 11 7.49995L11.0001 5.707L14.3536 2.35355ZM10 6.70707L7.32228 9.38483C7.51246 9.45377 7.73632 9.5 8.00012 9.5C9.10387 9.5 10.0001 8.60384 9.99998 7.50005L10 6.70707Z" fill="#3B404A"/>
<path d="M5.00002 4.50005C4.99985 2.84384 6.34391 1.5 7.99988 1.5C8.8714 1.5 9.48005 1.79375 9.87484 2.10956C10.0691 2.26493 10.207 2.42187 10.2984 2.54374C10.3442 2.60479 10.3787 2.65751 10.403 2.69754C10.4152 2.71758 10.4248 2.73451 10.4321 2.74781L10.4414 2.76499L10.4447 2.77144L10.4461 2.77411L10.4467 2.7753L10.4472 2.77639C10.5707 3.02338 10.4706 3.32372 10.2236 3.44721C9.97858 3.56974 9.68102 3.47216 9.55575 3.2294C9.55575 3.2294 9.55234 3.22332 9.54821 3.21652C9.53932 3.20187 9.52299 3.17646 9.49846 3.14376C9.44924 3.07813 9.36846 2.98507 9.25016 2.89044C9.01992 2.70625 8.6285 2.5 7.99988 2.5C6.89613 2.5 5.99991 3.39616 6.00002 4.49995L5.99988 7.50002C5.99983 7.77617 5.77593 8.00005 5.49978 8C5.22364 7.99995 4.99983 7.77603 4.99988 7.49989L5.00002 4.50005Z" fill="#3B404A"/>
<path d="M4 7.5C4 7.22386 3.77614 7 3.5 7C3.22386 7 3 7.22386 3 7.5C3 8.0835 3.10016 8.64468 3.28464 9.16662C3.37666 9.42698 3.66232 9.56344 3.92268 9.47142C4.18304 9.3794 4.3195 9.09373 4.22748 8.83338C4.0803 8.41698 4 7.96841 4 7.5Z" fill="#3B404A"/>
</svg>
