<svg width="16" height="16" viewBox="0 0 16 16" fill="none" xmlns="http://www.w3.org/2000/svg">
<path fill-rule="evenodd" clip-rule="evenodd" d="M8 1.9999C4.68629 1.9999 2 4.68619 2 7.9999C2 11.3136 4.68629 13.9999 8 13.9999C11.3137 13.9999 14 11.3136 14 7.9999C14 4.68619 11.3137 1.9999 8 1.9999ZM1 7.9999C1 4.13391 4.13401 0.999901 8 0.999901C11.866 0.999901 15 4.13391 15 7.9999C15 11.8659 11.866 14.9999 8 14.9999C4.13401 14.9999 1 11.8659 1 7.9999Z" fill="#3B404A"/>
<path fill-rule="evenodd" clip-rule="evenodd" d="M4.5 7.9999C4.5 7.72376 4.72386 7.4999 5 7.4999H11C11.2761 7.4999 11.5 7.72376 11.5 7.9999C11.5 8.27604 11.2761 8.4999 11 8.4999H5C4.72386 8.4999 4.5 8.27604 4.5 7.9999Z" fill="#3B404A"/>
</svg>
