<svg width="16" height="16" viewBox="0 0 16 16" fill="none" xmlns="http://www.w3.org/2000/svg">
<path d="M6.5 13C6.5 12.7239 6.72386 12.5 7 12.5H9C9.27614 12.5 9.5 12.7239 9.5 13C9.5 13.2761 9.27614 13.5 9 13.5H7C6.72386 13.5 6.5 13.2761 6.5 13Z" fill="#3B404A"/>
<path fill-rule="evenodd" clip-rule="evenodd" d="M3.5 2.5C3.5 1.67157 4.17157 1 5 1H11C11.8284 1 12.5 1.67157 12.5 2.5V13.5C12.5 14.3284 11.8284 15 11 15H5C4.17157 15 3.5 14.3284 3.5 13.5V2.5ZM5 2C4.72386 2 4.5 2.22386 4.5 2.5V13.5C4.5 13.7761 4.72386 14 5 14H11C11.2761 14 11.5 13.7761 11.5 13.5V2.5C11.5 2.22386 11.2761 2 11 2H9.86622C9.69331 2.2989 9.37014 2.5 9 2.5H7C6.62986 2.5 6.30669 2.2989 6.13378 2H5Z" fill="#3B404A"/>
</svg>
