<svg width="16" height="16" viewBox="0 0 16 16" fill="none" xmlns="http://www.w3.org/2000/svg">
<path d="M3 2.5C3 1.67157 3.67157 1 4.5 1H10.5C11.3284 1 12 1.67157 12 2.5V4.00012H11V2.5C11 2.22386 10.7761 2 10.5 2H9.36622C9.19331 2.2989 8.87014 2.5 8.5 2.5H6.5C6.12986 2.5 5.80669 2.2989 5.63378 2H4.5C4.22386 2 4 2.22386 4 2.5V13.5C4 13.7761 4.22386 14 4.5 14H10.5C10.7761 14 11 13.7761 11 13.5V12.0001H12V13.5C12 14.3284 11.3284 15 10.5 15H4.5C3.67157 15 3 14.3284 3 13.5V2.5Z" fill="#3B404A"/>
<path d="M6 13C6 12.7239 6.22386 12.5 6.5 12.5H8.5C8.77614 12.5 9 12.7239 9 13C9 13.2761 8.77614 13.5 8.5 13.5H6.5C6.22386 13.5 6 13.2761 6 13Z" fill="#3B404A"/>
<path d="M5.85185 5.00012C5.57571 5.00012 5.35185 5.16802 5.35185 5.37512V10.6251C5.35185 10.8322 5.57571 11.0001 5.85185 11.0001H6.75V5.00012H5.85185Z" fill="#3B404A"/>
<path d="M7.50002 5.00012H8.50002V11.0001H7.50002V5.00012Z" fill="#3B404A"/>
<path d="M9.83335 5.00012H9.16668V11.0001H9.83335V5.00012Z" fill="#3B404A"/>
<path d="M13 5.00012V11.0001H13.5C13.7762 11.0001 14 10.8322 14 10.6251V5.37512C14 5.16802 13.7762 5.00012 13.5 5.00012H13Z" fill="#3B404A"/>
<path d="M10.5 5.00012H12.1667V11.0001H10.5V5.00012Z" fill="#3B404A"/>
</svg>
