<svg width="16" height="16" viewBox="0 0 16 16" fill="none" xmlns="http://www.w3.org/2000/svg">
<path fill-rule="evenodd" clip-rule="evenodd" d="M1 8C1 4.13401 4.13401 1 8 1C8.07168 1 8.14313 1.00108 8.21432 1.00322C8.44624 1.01021 8.64288 1.17582 8.68921 1.40317C8.73553 1.63052 8.61936 1.85987 8.40866 1.95704C6.69069 2.74932 5.5 4.48619 5.5 6.50012C5.5 9.26155 7.73858 11.5001 10.5 11.5001C11.6383 11.5001 12.6865 11.1203 13.5267 10.4803C13.7114 10.3396 13.9687 10.3446 14.1478 10.4923C14.327 10.64 14.3808 10.8916 14.2779 11.0997C13.1353 13.4097 10.7538 15 8 15C4.13401 15 1 11.866 1 8ZM6.25824 2.25672C3.79395 3.00307 2 5.29203 2 8C2 11.3137 4.68629 14 8 14C9.65625 14 11.1562 13.3289 12.2423 12.2431C11.6908 12.4102 11.1057 12.5001 10.5 12.5001C7.18629 12.5001 4.5 9.81383 4.5 6.50012C4.5 4.84246 5.17222 3.34229 6.25824 2.25672Z" fill="#3B404A"/>
<path fill-rule="evenodd" clip-rule="evenodd" d="M11.6664 2C11.8859 1.99914 12.0803 2.14147 12.1457 2.35094L12.3406 2.97507C12.6272 3.8927 13.3362 4.6174 14.2473 4.92402L14.6563 5.06165C14.8598 5.13012 14.9969 5.32085 14.9969 5.53553C14.9969 5.75022 14.8598 5.94095 14.6563 6.00942L14.2287 6.15332C13.3265 6.45693 12.622 7.17068 12.3301 8.07672L12.1443 8.65332C12.0775 8.86065 11.8842 9.00088 11.6664 9C11.4486 8.99911 11.2564 8.85732 11.1913 8.64946L11.0192 8.10022C10.7312 7.18079 10.0191 6.45563 9.10508 6.15094L8.68188 6.00988C8.47771 5.94182 8.34 5.75075 8.34 5.53553C8.34 5.32032 8.47771 5.12925 8.68188 5.06119L9.08676 4.92623C10.0096 4.61863 10.726 3.88269 11.0086 2.95193L11.19 2.35471C11.2538 2.14473 11.447 2.00087 11.6664 2ZM11.671 3.95605C11.3226 4.61223 10.7979 5.15861 10.1571 5.53327C10.7948 5.90159 11.3191 6.43949 11.6709 7.08681C12.0227 6.43941 12.5468 5.90157 13.1842 5.53325C12.5438 5.15858 12.0193 4.61228 11.671 3.95605Z" fill="#3B404A"/>
</svg>
