<svg width="16" height="16" viewBox="0 0 16 16" fill="none" xmlns="http://www.w3.org/2000/svg">
<path fill-rule="evenodd" clip-rule="evenodd" d="M12.83 1.76L6.33001 2.52C5.57001 2.61 5.01001 3.25 5.01001 4.01V10.12C4.59001 9.81 4.07001 9.62 3.51001 9.62C2.13001 9.62 1.01001 10.74 1.01001 12.12C1.01001 13.5 2.13001 14.62 3.51001 14.62C4.89001 14.62 6.01001 13.5 6.01001 12.12V7.06L13.51 6.18V9.12C13.09 8.81 12.57 8.62 12.01 8.62C10.63 8.62 9.51001 9.74 9.51001 11.12C9.51001 12.5 10.63 13.62 12.01 13.62C13.39 13.62 14.51 12.5 14.51 11.12V3.25C14.51 2.35 13.73 1.66 12.83 1.76ZM3.50001 13.63C2.67001 13.63 2.00001 12.96 2.00001 12.13C2.00001 11.3 2.67001 10.63 3.50001 10.63C4.33001 10.63 5.00001 11.3 5.00001 12.13C5.00001 12.96 4.33001 13.63 3.50001 13.63ZM12 12.63C11.17 12.63 10.5 11.96 10.5 11.13C10.5 10.3 11.17 9.63 12 9.63C12.83 9.63 13.5 10.3 13.5 11.13C13.5 11.96 12.83 12.63 12 12.63ZM13.5 5.18L6.00001 6.06V4.01C6.00001 3.76 6.19001 3.54 6.44001 3.51L12.94 2.75C13.24 2.72 13.5 2.95 13.5 3.25V5.18Z" fill="#3B404A"/>
</svg>
