<svg width="16" height="16" viewBox="0 0 16 16" fill="none" xmlns="http://www.w3.org/2000/svg">
<path fill-rule="evenodd" clip-rule="evenodd" d="M8 1.50012C8.27614 1.50012 8.5 1.72398 8.5 2.00012V7.50012H14C14.2761 7.50012 14.5 7.72398 14.5 8.00012C14.5 8.27626 14.2761 8.50012 14 8.50012H8.5V14.0001C8.5 14.2763 8.27614 14.5001 8 14.5001C7.72386 14.5001 7.5 14.2763 7.5 14.0001V8.50012H2C1.72386 8.50012 1.5 8.27626 1.5 8.00012C1.5 7.72398 1.72386 7.50012 2 7.50012H7.5V2.00012C7.5 1.72398 7.72386 1.50012 8 1.50012Z" fill="#3B404A"/>
</svg>
