<svg width="16" height="16" viewBox="0 0 16 16" fill="none" xmlns="http://www.w3.org/2000/svg">
<path fill-rule="evenodd" clip-rule="evenodd" d="M8 2C4.68629 2 2 4.68629 2 8C2 11.3137 4.68629 14 8 14C11.3137 14 14 11.3137 14 8C14 4.68629 11.3137 2 8 2ZM1 8C1 4.13401 4.13401 1 8 1C11.866 1 15 4.13401 15 8C15 11.866 11.866 15 8 15C4.13401 15 1 11.866 1 8Z" fill="#3B404A"/>
<path fill-rule="evenodd" clip-rule="evenodd" d="M6 5C6 4.44772 6.44772 4 7 4H8.25C9.76878 4 11 5.23122 11 6.75C11 8.26878 9.76878 9.5 8.25 9.5H7V11.5C7 11.7761 6.77614 12 6.5 12C6.22386 12 6 11.7761 6 11.5V5ZM7 8.5H8.25C9.2165 8.5 10 7.7165 10 6.75C10 5.7835 9.2165 5 8.25 5H7V8.5Z" fill="#3B404A"/>
</svg>
