<svg width="16" height="16" viewBox="0 0 16 16" fill="none" xmlns="http://www.w3.org/2000/svg">
<path d="M6 10C5.72386 10 5.5 10.2239 5.5 10.5C5.5 10.7761 5.72386 11 6 11H10C10.2761 11 10.5 10.7761 10.5 10.5C10.5 10.2239 10.2761 10 10 10H6Z" fill="#3B404A"/>
<path d="M5.5 7.25C5.5 7.66421 5.83579 8 6.25 8C6.66421 8 7 7.66421 7 7.25C7 6.83579 6.66421 6.5 6.25 6.5C5.83579 6.5 5.5 6.83579 5.5 7.25Z" fill="#3B404A"/>
<path d="M9 7.25C9 7.66421 9.33579 8 9.75 8C10.1642 8 10.5 7.66421 10.5 7.25C10.5 6.83579 10.1642 6.5 9.75 6.5C9.33579 6.5 9 6.83579 9 7.25Z" fill="#3B404A"/>
<path fill-rule="evenodd" clip-rule="evenodd" d="M6 2C6 1.72386 5.77614 1.5 5.5 1.5C5.22386 1.5 5 1.72386 5 2V3H4C3.17157 3 2.5 3.67157 2.5 4.5V6H2C1.17157 6 0.5 6.67157 0.5 7.5V9.5C0.5 10.3284 1.17157 11 2 11H2.5V12.5C2.5 13.3284 3.17157 14 4 14H12C12.8284 14 13.5 13.3284 13.5 12.5V11H14C14.8284 11 15.5 10.3284 15.5 9.5V7.5C15.5 6.67157 14.8284 6 14 6H13.5V4.5C13.5 3.67157 12.8284 3 12 3H11V2C11 1.72386 10.7761 1.5 10.5 1.5C10.2239 1.5 10 1.72386 10 2V3H6V2ZM3.5 4.5C3.5 4.22386 3.72386 4 4 4H12C12.2761 4 12.5 4.22386 12.5 4.5V12.5C12.5 12.7761 12.2761 13 12 13H4C3.72386 13 3.5 12.7761 3.5 12.5V4.5ZM2 7H2.5V10H2C1.72386 10 1.5 9.77614 1.5 9.5V7.5C1.5 7.22386 1.72386 7 2 7ZM14 10H13.5V7H14C14.2761 7 14.5 7.22386 14.5 7.5V9.5C14.5 9.77614 14.2761 10 14 10Z" fill="#3B404A"/>
</svg>
