<svg width="16" height="16" viewBox="0 0 16 16" fill="none" xmlns="http://www.w3.org/2000/svg">
<path d="M2.5 2.00012C2.22386 2.00012 2 2.22398 2 2.50012V4.50012C2 4.77626 1.77614 5.00012 1.5 5.00012C1.22386 5.00012 1 4.77626 1 4.50012V2.50012C1 1.67169 1.67157 1.00012 2.5 1.00012H5.5C5.77614 1.00012 6 1.22398 6 1.50012C6 1.77626 5.77614 2.00012 5.5 2.00012H2.5Z" fill="#3B404A"/>
<path d="M10.5 1.50012C10.5 1.22398 10.7239 1.00012 11 1.00012L13.5 1.00013C14.3284 1.00013 15 1.6717 15 2.50013V4.50013C15 4.77627 14.7761 5.00013 14.5 5.00013C14.2239 5.00013 14 4.77627 14 4.50013V2.50013C14 2.22399 13.7761 2.00013 13.5 2.00013L11 2.00012C10.7239 2.00012 10.5 1.77626 10.5 1.50012Z" fill="#3B404A"/>
<path d="M1.5 11.0001C1.77614 11.0001 2 11.224 2 11.5001V13.5001C2 13.7763 2.22386 14.0001 2.5 14.0001H5.5C5.77614 14.0001 6 14.224 6 14.5001C6 14.7763 5.77614 15.0001 5.5 15.0001H2.5C1.67157 15.0001 1 14.3285 1 13.5001V11.5001C1 11.224 1.22386 11.0001 1.5 11.0001Z" fill="#3B404A"/>
<path d="M14.5 11.0001C14.7761 11.0001 15 11.224 15 11.5001V13.5001C15 14.3285 14.3284 15.0001 13.5 15.0001H10.5C10.2239 15.0001 9.99999 14.7763 9.99999 14.5001C9.99999 14.224 10.2239 14.0001 10.5 14.0001H13.5C13.7761 14.0001 14 13.7763 14 13.5001V11.5001C14 11.224 14.2239 11.0001 14.5 11.0001Z" fill="#3B404A"/>
<path d="M0.5 8.00001C0.5 7.72387 0.723858 7.50001 1 7.50001L3 7.50012V8.50011L13 8.50012V7.50014L15 7.50001C15.2761 7.50001 15.5 7.72387 15.5 8.00001C15.5 8.27615 15.2761 8.50001 15 8.50001L13 8.50012V12.0001C13 12.5524 12.5523 13.0001 12 13.0001L4 13.0001C3.44772 13.0001 3 12.5524 3 12.0001V8.50011L1 8.50001C0.723858 8.50001 0.5 8.27615 0.5 8.00001Z" fill="#3B404A"/>
<path d="M13 7.50014V4.00014C13 3.44785 12.5523 3.00014 12 3.00014L4 3.00012C3.44772 3.00012 3 3.44784 3 4.00012V7.50012L13 7.50014Z" fill="#3B404A"/>
</svg>
