<svg width="16" height="16" viewBox="0 0 16 16" fill="none" xmlns="http://www.w3.org/2000/svg">
<path fill-rule="evenodd" clip-rule="evenodd" d="M7.64653 0.97979C7.84179 0.784528 8.15837 0.784528 8.35363 0.97979L11.0203 3.64646C11.2156 3.84172 11.2156 4.1583 11.0203 4.35356C10.825 4.54883 10.5085 4.54883 10.3132 4.35356L8.50008 2.54045V9.33334C8.50008 9.60948 8.27622 9.83334 8.00008 9.83334C7.72394 9.83334 7.50008 9.60948 7.50008 9.33334V2.54045L5.68697 4.35356C5.49171 4.54883 5.17512 4.54883 4.97986 4.35356C4.7846 4.1583 4.7846 3.84172 4.97986 3.64646L7.64653 0.97979ZM3.66675 6.50001C3.39061 6.50001 3.16675 6.72387 3.16675 7.00001V13.6667C3.16675 13.9428 3.39061 14.1667 3.66675 14.1667H12.3334C12.6096 14.1667 12.8334 13.9428 12.8334 13.6667V7.00001C12.8334 6.72387 12.6096 6.50001 12.3334 6.50001H10.6667C10.3906 6.50001 10.1667 6.27615 10.1667 6.00001C10.1667 5.72387 10.3906 5.50001 10.6667 5.50001H12.3334C13.1618 5.50001 13.8334 6.17158 13.8334 7.00001V13.6667C13.8334 14.4951 13.1618 15.1667 12.3334 15.1667H3.66675C2.83832 15.1667 2.16675 14.4951 2.16675 13.6667V7.00001C2.16675 6.17158 2.83832 5.50001 3.66675 5.50001H5.33341C5.60956 5.50001 5.83341 5.72387 5.83341 6.00001C5.83341 6.27615 5.60956 6.50001 5.33341 6.50001H3.66675Z" fill="#3B404A"/>
</svg>
