<svg width="16" height="16" viewBox="0 0 16 16" fill="none" xmlns="http://www.w3.org/2000/svg">
<path fill-rule="evenodd" clip-rule="evenodd" d="M5 2C4.17157 2 3.5 2.67157 3.5 3.5C3.5 4.32843 4.17157 5 5 5C5.82843 5 6.5 4.32843 6.5 3.5C6.5 2.67157 5.82843 2 5 2ZM2.5 3.5C2.5 2.11929 3.61929 1 5 1C6.38071 1 7.5 2.11929 7.5 3.5C7.5 3.89908 7.40649 4.27633 7.24018 4.61101L10.1276 6.34345C10.5856 5.82612 11.2547 5.5 12 5.5C13.3807 5.5 14.5 6.61929 14.5 8C14.5 9.38071 13.3807 10.5 12 10.5C11.3166 10.5 10.6973 10.2258 10.246 9.78141L7.38502 11.7483C7.45972 11.9856 7.5 12.2381 7.5 12.5C7.5 13.8807 6.38071 15 5 15C3.61929 15 2.5 13.8807 2.5 12.5C2.5 11.1193 3.61929 10 5 10C5.75833 10 6.4378 10.3376 6.89628 10.8708L9.68756 8.95179C9.56668 8.65841 9.5 8.33699 9.5 8C9.5 7.72378 9.5448 7.45803 9.62752 7.20961L6.61936 5.40471C6.18311 5.77596 5.61772 6 5 6C3.61929 6 2.5 4.88071 2.5 3.5ZM12 6.5C11.1716 6.5 10.5 7.17157 10.5 8C10.5 8.82843 11.1716 9.5 12 9.5C12.8284 9.5 13.5 8.82843 13.5 8C13.5 7.17157 12.8284 6.5 12 6.5ZM5 11C4.17157 11 3.5 11.6716 3.5 12.5C3.5 13.3284 4.17157 14 5 14C5.82843 14 6.5 13.3284 6.5 12.5C6.5 11.6716 5.82843 11 5 11Z" fill="#3B404A"/>
</svg>
