<svg width="16" height="16" viewBox="0 0 16 16" fill="none" xmlns="http://www.w3.org/2000/svg">
<path fill-rule="evenodd" clip-rule="evenodd" d="M0.5 1.5C0.5 1.22386 0.723858 1 1 1H1.61722C2.3737 1 3.0118 1.5633 3.10564 2.31395L3.19139 3H13.8596C14.5102 3 14.9876 3.61139 14.8298 4.24254L13.5798 9.24254C13.4685 9.6877 13.0685 10 12.6096 10H4.00001V10.5C4.00001 10.7761 4.22387 11 4.50001 11H12.5C12.7762 11 13 11.2239 13 11.5C13 11.7761 12.7762 12 12.5 12H4.50001C3.67159 12 3.00001 11.3284 3.00001 10.5V9.53113L2.11336 2.43798C2.08208 2.18777 1.86938 2 1.61722 2H1C0.723858 2 0.5 1.77614 0.5 1.5ZM3.3164 4L3.9414 9H12.6096L13.8596 4H3.3164Z" fill="#3B404A"/>
<path d="M6 13.4999C6 14.0521 5.55228 14.4998 5 14.4998C4.44772 14.4998 4 14.0521 4 13.4999C4 12.9477 4.44772 12.5 5 12.5C5.55228 12.5 6 12.9477 6 13.4999Z" fill="#3B404A"/>
<path d="M11 14.4998C11.5523 14.4998 12 14.0521 12 13.4999C12 12.9477 11.5523 12.5 11 12.5C10.4477 12.5 10 12.9477 10 13.4999C10 14.0521 10.4477 14.4998 11 14.4998Z" fill="#3B404A"/>
</svg>
