<svg width="16" height="16" viewBox="0 0 16 16" fill="none" xmlns="http://www.w3.org/2000/svg">
<path fill-rule="evenodd" clip-rule="evenodd" d="M8 0.5C6.34315 0.5 5 1.84315 5 3.5H3.5C2.67157 3.5 2 4.17157 2 5V13.5C2 14.3284 2.67157 15 3.5 15H12.5C13.3284 15 14 14.3284 14 13.5V5C14 4.17157 13.3284 3.5 12.5 3.5H11C11 1.84315 9.65685 0.5 8 0.5ZM10 3.5C10 2.39543 9.10457 1.5 8 1.5C6.89543 1.5 6 2.39543 6 3.5H10ZM5 6.5C5 8.15685 6.34315 9.5 8 9.5C9.65685 9.5 11 8.15685 11 6.5V6C11 5.72386 10.7761 5.5 10.5 5.5C10.2239 5.5 10 5.72386 10 6V6.5C10 7.60457 9.10457 8.5 8 8.5C6.89543 8.5 6 7.60457 6 6.5V6C6 5.72386 5.77614 5.5 5.5 5.5C5.22386 5.5 5 5.72386 5 6V6.5Z" fill="#3B404A"/>
</svg>
