<svg width="16" height="16" viewBox="0 0 16 16" fill="none" xmlns="http://www.w3.org/2000/svg">
<path fill-rule="evenodd" clip-rule="evenodd" d="M6.75055 2C7.02672 2 7.2506 2.22388 7.2506 2.50005V13.5012C7.2506 13.7773 7.02672 14.0012 6.75055 14.0012C6.47438 14.0012 6.2505 13.7773 6.2505 13.5012V2.50005C6.2505 2.22388 6.47438 2 6.75055 2ZM4.2503 4.0002C4.52647 4.0002 4.75035 4.22408 4.75035 4.50025V11.5009C4.75035 11.7771 4.52647 12.001 4.2503 12.001C3.97413 12.001 3.75025 11.7771 3.75025 11.5009V4.50025C3.75025 4.22408 3.97413 4.0002 4.2503 4.0002ZM11.751 4.0002C12.0272 4.0002 12.2511 4.22408 12.2511 4.50025V11.5009C12.2511 11.7771 12.0272 12.001 11.751 12.001C11.4749 12.001 11.251 11.7771 11.251 11.5009V4.50025C11.251 4.22408 11.4749 4.0002 11.751 4.0002ZM1.75005 6.0004C2.02622 6.0004 2.2501 6.22428 2.2501 6.50045V9.50075C2.2501 9.77692 2.02622 10.0008 1.75005 10.0008C1.47388 10.0008 1.25 9.77692 1.25 9.50075V6.50045C1.25 6.22428 1.47388 6.0004 1.75005 6.0004ZM9.2508 6.0004C9.52697 6.0004 9.75085 6.22428 9.75085 6.50045V9.50075C9.75085 9.77692 9.52697 10.0008 9.2508 10.0008C8.97463 10.0008 8.75075 9.77692 8.75075 9.50075V6.50045C8.75075 6.22428 8.97463 6.0004 9.2508 6.0004ZM14.2513 6.0004C14.5275 6.0004 14.7514 6.22428 14.7514 6.50045V9.50075C14.7514 9.77692 14.5275 10.0008 14.2513 10.0008C13.9751 10.0008 13.7513 9.77692 13.7513 9.50075V6.50045C13.7513 6.22428 13.9751 6.0004 14.2513 6.0004Z" fill="#3B404A"/>
</svg>
