<svg width="16" height="16" viewBox="0 0 16 16" fill="none" xmlns="http://www.w3.org/2000/svg">
<path fill-rule="evenodd" clip-rule="evenodd" d="M1.5 3C1.5 2.17157 2.17157 1.5 3 1.5H7C7.27614 1.5 7.5 1.72386 7.5 2V7C7.5 7.27614 7.27614 7.5 7 7.5H2C1.72386 7.5 1.5 7.27614 1.5 7V3ZM3 2.5C2.72386 2.5 2.5 2.72386 2.5 3V6.5H6.5V2.5H3Z" fill="#3B404A"/>
<path fill-rule="evenodd" clip-rule="evenodd" d="M8.5 9C8.5 8.72386 8.72386 8.5 9 8.5H14C14.2761 8.5 14.5 8.72386 14.5 9V13C14.5 13.8284 13.8284 14.5 13 14.5H9C8.72386 14.5 8.5 14.2761 8.5 14V9ZM9.5 9.5V13.5H13C13.2761 13.5 13.5 13.2761 13.5 13V9.5H9.5Z" fill="#3B404A"/>
<path fill-rule="evenodd" clip-rule="evenodd" d="M1.5 9C1.5 8.72386 1.72386 8.5 2 8.5H7C7.27614 8.5 7.5 8.72386 7.5 9V14C7.5 14.2761 7.27614 14.5 7 14.5H3C2.17157 14.5 1.5 13.8284 1.5 13V9ZM2.5 9.5V13C2.5 13.2761 2.72386 13.5 3 13.5H6.5V9.5H2.5Z" fill="#3B404A"/>
<path fill-rule="evenodd" clip-rule="evenodd" d="M8.5 2C8.5 1.72386 8.72386 1.5 9 1.5H13C13.8284 1.5 14.5 2.17157 14.5 3V7C14.5 7.27614 14.2761 7.5 14 7.5H9C8.72386 7.5 8.5 7.27614 8.5 7V2ZM9.5 2.5V6.5H13.5V3C13.5 2.72386 13.2761 2.5 13 2.5H9.5Z" fill="#3B404A"/>
</svg>
