<svg width="16" height="16" viewBox="0 0 16 16" fill="none" xmlns="http://www.w3.org/2000/svg">
<path d="M7.52773 0.858692C7.68338 0.410912 8.31665 0.410913 8.47229 0.858693L10.0018 5.2589C10.0705 5.45643 10.2548 5.59037 10.4639 5.59463L15.1214 5.68954C15.5953 5.6992 15.791 6.30147 15.4133 6.58787L11.7011 9.40226C11.5344 9.5286 11.464 9.74532 11.5246 9.94548L12.8735 14.4043C13.0108 14.8581 12.4985 15.2303 12.1094 14.9595L8.2856 12.2987C8.11394 12.1793 7.88608 12.1793 7.71442 12.2987L3.89065 14.9595C3.50153 15.2303 2.98921 14.8581 3.12648 14.4043L4.47546 9.94548C4.53602 9.74532 4.4656 9.5286 4.29895 9.40226L0.586755 6.58787C0.208989 6.30147 0.40468 5.6992 0.878642 5.68954L5.53613 5.59463C5.74521 5.59037 5.92956 5.45643 5.99822 5.2589L7.52773 0.858692Z" fill="#3B404A"/>
</svg>
