<svg width="16" height="16" viewBox="0 0 16 16" fill="none" xmlns="http://www.w3.org/2000/svg">
<path fill-rule="evenodd" clip-rule="evenodd" d="M8.5 1.5C8.5 1.22386 8.27614 1 8 1C7.72386 1 7.5 1.22386 7.5 1.5V8C7.5 8.27614 7.72386 8.5 8 8.5C8.27614 8.5 8.5 8.27614 8.5 8V1.5ZM5.25036 3.2355C5.48939 3.09723 5.57107 2.79136 5.4328 2.55233C5.29453 2.3133 4.98867 2.23162 4.74964 2.36989C2.80809 3.49302 1.5 5.59345 1.5 8C1.5 11.5899 4.41015 14.5 8 14.5C11.5899 14.5 14.5 11.5899 14.5 8C14.5 5.59345 13.1919 3.49302 11.2504 2.36989C11.0113 2.23162 10.7055 2.3133 10.5672 2.55233C10.4289 2.79136 10.5106 3.09723 10.7496 3.2355C12.3949 4.18723 13.5 5.96485 13.5 8C13.5 11.0376 11.0376 13.5 8 13.5C4.96243 13.5 2.5 11.0376 2.5 8C2.5 5.96485 3.6051 4.18723 5.25036 3.2355Z" fill="#3B404A"/>
</svg>
