<svg width="16" height="16" viewBox="0 0 16 16" fill="none" xmlns="http://www.w3.org/2000/svg">
<path d="M5.48519 3.37126L4.54169 7.14525C4.87137 7.46606 5.34751 7.75 6.00012 7.75C6.70199 7.75 7.18491 7.42159 7.50012 7.0721V3.25C7.50012 2.97385 7.72398 2.75 8.00012 2.75C8.27626 2.75 8.50012 2.97385 8.50012 3.25V7.0721C8.81533 7.42159 9.29825 7.75 10.0001 7.75C10.6679 7.75 11.1374 7.45275 11.453 7.12289L10.515 3.37126C10.4481 3.10337 10.611 2.8319 10.8789 2.76493C11.1467 2.69795 11.4182 2.86083 11.4852 3.12873L12.4595 7.02586C12.7732 7.39204 13.2674 7.75 14.0001 7.75C15.5001 7.75 15.5001 7.00012 15.5001 7.00012L13.5 1.85128C13.3413 1.48617 12.9811 1.25 12.5829 1.25L3.41707 1.25C3.01894 1.25 2.65874 1.48617 2.5 1.85128L0.500122 7.00012C0.500122 7.00012 0.500122 7.75 2.00012 7.75C2.77364 7.75 3.26324 7.35111 3.55605 6.96474L4.51505 3.12873C4.58202 2.86083 4.85349 2.69795 5.12139 2.76493C5.38928 2.8319 5.55216 3.10337 5.48519 3.37126Z" fill="#3B404A"/>
<path d="M1.5 13.75V8.7245C1.65804 8.74147 1.82476 8.74999 2.00012 8.74999C2.88596 8.74999 3.53216 8.3953 3.97707 7.98378C4.44112 8.38974 5.10735 8.74999 6.00012 8.74999C6.88978 8.74999 7.54579 8.39232 8.00012 7.98358C8.45446 8.39232 9.11047 8.74999 10.0001 8.74999C10.8898 8.74999 11.5458 8.39232 12.0001 7.98358C12.4545 8.39232 13.1105 8.74999 14.0001 8.74999C14.1754 8.74999 14.342 8.74148 14.5 8.72453V13.75C14.5 14.3023 14.0523 14.75 13.5 14.75H12.25C11.9739 14.75 11.75 14.5261 11.75 14.25V11.75C11.75 11.1977 11.3023 10.75 10.75 10.75H9.25C8.69772 10.75 8.25 11.1977 8.25 11.75V14.25C8.25 14.5261 8.02614 14.75 7.75 14.75H2.5C1.94772 14.75 1.5 14.3023 1.5 13.75Z" fill="#3B404A"/>
</svg>
