<svg width="16" height="16" viewBox="0 0 16 16" fill="none" xmlns="http://www.w3.org/2000/svg">
<path fill-rule="evenodd" clip-rule="evenodd" d="M15.9625 6.87C15.9625 6.87 15.9425 6.81 15.9326 6.78L13.7043 1.88C13.4645 1.34 12.9249 1 12.3454 1H10.5068H10.4868H5.51069H5.49071H3.65215C3.05261 1 2.51304 1.34 2.27322 1.88L0.0449649 6.78C0.0449649 6.78 0.0149883 6.84 0.0149883 6.87C-0.0049961 6.94 -0.0049961 7.02 0.0149883 7.09C0.0349727 7.19 0.0849336 7.29 0.164871 7.36L0.244809 7.44C0.604528 7.8 1.04418 8.03 1.51382 8.12V13.5C1.51382 14.33 2.18329 15 3.01265 15H13.0048C13.8342 15 14.5037 14.33 14.5037 13.5V8.12C14.9633 8.03 15.413 7.8 15.7727 7.44L15.8526 7.36C15.8526 7.36 15.8926 7.31 15.9126 7.29C15.9525 7.23 15.9825 7.16 15.9925 7.09C16.0025 7.02 16.0025 6.94 15.9925 6.87H15.9625ZM8.48837 2H10.1171L11.4261 6.36L11.0564 6.73C10.4668 7.32 9.51756 7.32 8.93802 6.73L8.49836 6.29V2H8.48837ZM5.86042 2H7.48915V6.29L7.04949 6.73C6.45995 7.32 5.51069 7.32 4.93115 6.73L4.56144 6.36L5.87041 2H5.86042ZM1.10414 6.88L3.18251 2.29C3.26245 2.11 3.44231 2 3.64215 2H4.82123L3.55222 6.24L3.05261 6.74C2.52303 7.27 1.68368 7.32 1.09415 6.88H1.10414ZM11.486 14H8.48837V11C8.48837 10.72 8.7082 10.5 8.98798 10.5H10.9864C11.2662 10.5 11.486 10.72 11.486 11V14ZM13.4845 13.5C13.4845 13.78 13.2646 14 12.9849 14H12.4852V11C12.4852 10.17 11.8158 9.5 10.9864 9.5H8.98798C8.15863 9.5 7.48915 10.17 7.48915 11V14H2.99266C2.71288 14 2.49305 13.78 2.49305 13.5V8.12C2.95269 8.03 3.40234 7.8 3.76206 7.44L3.99188 7.21L4.2217 7.44C5.20094 8.42 6.7797 8.42 7.75894 7.44L7.98876 7.21L8.21858 7.44C9.19781 8.42 10.7766 8.42 11.7558 7.44L11.9856 7.21L12.2155 7.44C12.5752 7.8 13.0148 8.03 13.4845 8.12V13.5ZM12.9249 6.73L12.4253 6.23L11.1563 1.99H12.3354C12.5352 1.99 12.7051 2.1 12.795 2.28L14.8734 6.86C14.2838 7.3 13.4545 7.25 12.9149 6.72L12.9249 6.73Z" fill="#3B404A"/>
</svg>
