<svg width="16" height="16" viewBox="0 0 16 16" fill="none" xmlns="http://www.w3.org/2000/svg">
<path fill-rule="evenodd" clip-rule="evenodd" d="M8 0.5C8.27614 0.5 8.5 0.723858 8.5 1V2C8.5 2.27614 8.27614 2.5 8 2.5C7.72386 2.5 7.5 2.27614 7.5 2V1C7.5 0.723858 7.72386 0.5 8 0.5ZM8 4.50012C6.067 4.50012 4.5 6.06713 4.5 8.00012C4.5 9.93312 6.067 11.5001 8 11.5001C9.933 11.5001 11.5 9.93312 11.5 8.00012C11.5 6.06713 9.933 4.50012 8 4.50012ZM3.5 8.00012C3.5 5.51484 5.51472 3.50012 8 3.50012C10.4853 3.50012 12.5 5.51484 12.5 8.00012C12.5 10.4854 10.4853 12.5001 8 12.5001C5.51472 12.5001 3.5 10.4854 3.5 8.00012ZM13.3033 3.4038C13.4986 3.20854 13.4986 2.89196 13.3033 2.69669C13.108 2.50143 12.7914 2.50143 12.5962 2.69669L11.8891 3.4038C11.6938 3.59906 11.6938 3.91564 11.8891 4.11091C12.0843 4.30617 12.4009 4.30617 12.5962 4.11091L13.3033 3.4038ZM2.69669 2.69671C2.89196 2.50145 3.20854 2.50145 3.4038 2.69671L4.11091 3.40382C4.30617 3.59908 4.30617 3.91566 4.11091 4.11092C3.91564 4.30618 3.59906 4.30618 3.4038 4.11092L2.69669 3.40382C2.50143 3.20855 2.50143 2.89197 2.69669 2.69671ZM15 8.5C15.2761 8.5 15.5 8.27614 15.5 8C15.5 7.72386 15.2761 7.5 15 7.5H14C13.7239 7.5 13.5 7.72386 13.5 8C13.5 8.27614 13.7239 8.5 14 8.5H15ZM8 13.5C8.27614 13.5 8.5 13.7239 8.5 14V15C8.5 15.2761 8.27614 15.5 8 15.5C7.72386 15.5 7.5 15.2761 7.5 15V14C7.5 13.7239 7.72386 13.5 8 13.5ZM4.11091 12.5962C4.30617 12.4009 4.30617 12.0843 4.11091 11.8891C3.91565 11.6938 3.59906 11.6938 3.4038 11.8891L2.69669 12.5962C2.50143 12.7914 2.50143 13.108 2.69669 13.3033C2.89196 13.4986 3.20854 13.4986 3.4038 13.3033L4.11091 12.5962ZM11.8891 11.8891C12.0843 11.6938 12.4009 11.6938 12.5962 11.8891L13.3033 12.5962C13.4986 12.7915 13.4986 13.108 13.3033 13.3033C13.108 13.4986 12.7914 13.4986 12.5962 13.3033L11.8891 12.5962C11.6938 12.4009 11.6938 12.0844 11.8891 11.8891ZM2 8.5C2.27614 8.5 2.5 8.27614 2.5 8C2.5 7.72386 2.27614 7.5 2 7.5H1C0.723858 7.5 0.5 7.72386 0.5 8C0.5 8.27614 0.723858 8.5 1 8.5H2Z" fill="#3B404A"/>
</svg>
