<svg width="16" height="16" viewBox="0 0 16 16" fill="none" xmlns="http://www.w3.org/2000/svg">
<path fill-rule="evenodd" clip-rule="evenodd" d="M11.6534 4.34661C10.699 3.39228 9.46541 2.88955 8.2152 2.83778C7.93929 2.82636 7.72489 2.59343 7.73631 2.31752C7.74774 2.04162 7.98067 1.82721 8.25657 1.83864C9.7476 1.90038 11.2219 2.50089 12.3605 3.6395C14.7687 6.04774 14.7687 9.95225 12.3605 12.3605C12.1652 12.5557 11.8486 12.5557 11.6534 12.3605C11.4581 12.1652 11.4581 11.8486 11.6534 11.6534C13.6711 9.63567 13.6711 6.36432 11.6534 4.34661ZM4.34659 3.6395C4.54186 3.83476 4.54186 4.15135 4.34659 4.34661C2.32889 6.36432 2.32889 9.63567 4.34659 11.6534C5.35782 12.6646 6.6829 13.1689 8.00892 13.1667C8.28507 13.1662 8.50931 13.3897 8.50978 13.6658C8.51026 13.9419 8.28679 14.1662 8.01064 14.1667C6.42968 14.1694 4.84622 13.5672 3.63949 12.3605C1.23125 9.95225 1.23125 6.04774 3.63949 3.6395C3.83475 3.44424 4.15133 3.44424 4.34659 3.6395Z" fill="#3B404A"/>
<path fill-rule="evenodd" clip-rule="evenodd" d="M9.71742 0.346562C9.8942 0.5587 9.86554 0.873982 9.6534 1.05076L8.03751 2.39734L9.38408 4.01323C9.56086 4.22537 9.5322 4.54065 9.32006 4.71743C9.10793 4.89421 8.79264 4.86555 8.61586 4.65341L6.9492 2.65341C6.77241 2.44127 6.80108 2.12599 7.01321 1.94921L9.01321 0.282543C9.22535 0.105761 9.54063 0.134423 9.71742 0.346562Z" fill="#3B404A"/>
<path fill-rule="evenodd" clip-rule="evenodd" d="M6.28253 15.6534C6.10575 15.4413 6.13441 15.126 6.34655 14.9492L7.96244 13.6026L6.61586 11.9867C6.43908 11.7746 6.46774 11.4593 6.67988 11.2825C6.89202 11.1058 7.2073 11.1344 7.38408 11.3466L9.05075 13.3466C9.22753 13.5587 9.19887 13.874 8.98673 14.0508L6.98673 15.7174C6.77459 15.8942 6.45931 15.8656 6.28253 15.6534Z" fill="#3B404A"/>
</svg>
