<svg width="16" height="16" viewBox="0 0 16 16" fill="none" xmlns="http://www.w3.org/2000/svg">
<path fill-rule="evenodd" clip-rule="evenodd" d="M1.5 3C1.5 1.89543 2.39543 1 3.5 1H6C7.10457 1 8 1.89543 8 3V5.66667C8 6.56536 7.35337 7.31302 6.5 7.46977V13.5C6.5 14.3284 5.82843 15 5 15H4.5C3.67157 15 3 14.3284 3 13.5V7.46977C2.14663 7.31302 1.5 6.56536 1.5 5.66667V3ZM2.5 3C2.5 2.53404 2.81869 2.14252 3.25 2.0315V4C3.25 4.27614 3.47386 4.5 3.75 4.5C4.02614 4.5 4.25 4.27614 4.25 4V2H5.25V4C5.25 4.27614 5.47386 4.5 5.75 4.5C6.02614 4.5 6.25 4.27614 6.25 4V2.0315C6.68131 2.14252 7 2.53404 7 3V5.66667C7 6.1269 6.6269 6.5 6.16667 6.5C5.79848 6.5 5.5 6.79848 5.5 7.16667V13.5C5.5 13.7761 5.27614 14 5 14H4.5C4.22386 14 4 13.7761 4 13.5V7.16667C4 6.79848 3.70152 6.5 3.33333 6.5C2.8731 6.5 2.5 6.1269 2.5 5.66667V3Z" fill="#3B404A"/>
<path fill-rule="evenodd" clip-rule="evenodd" d="M9 5.5C9 3.01472 11.0147 1 13.5 1H14C14.2761 1 14.5 1.22386 14.5 1.5V13.5C14.5 14.3284 13.8284 15 13 15H12.5C11.6716 15 11 14.3284 11 13.5V8.5H10C9.44772 8.5 9 8.05228 9 7.5V5.5ZM13.5 2C11.567 2 10 3.567 10 5.5V7.5H11.5C11.7761 7.5 12 7.72386 12 8V13.5C12 13.7761 12.2239 14 12.5 14H13C13.2761 14 13.5 13.7761 13.5 13.5V2Z" fill="#3B404A"/>
</svg>
