<svg width="16" height="16" viewBox="0 0 16 16" fill="none" xmlns="http://www.w3.org/2000/svg">
<path fill-rule="evenodd" clip-rule="evenodd" d="M5.75 4C4.7835 4 4 4.7835 4 5.75C4 6.7165 4.7835 7.5 5.75 7.5C6.7165 7.5 7.5 6.7165 7.5 5.75C7.5 4.7835 6.7165 4 5.75 4ZM5 5.75C5 5.33579 5.33579 5 5.75 5C6.16421 5 6.5 5.33579 6.5 5.75C6.5 6.16421 6.16421 6.5 5.75 6.5C5.33579 6.5 5 6.16421 5 5.75Z" fill="#3B404A"/>
<path fill-rule="evenodd" clip-rule="evenodd" d="M3.5 2C2.67157 2 2 2.67157 2 3.5V7.08579C2 7.48361 2.15804 7.86514 2.43934 8.14645L8.43935 14.1464C9.02514 14.7322 9.97488 14.7322 10.5607 14.1464L14.1464 10.5607C14.7322 9.97487 14.7322 9.02513 14.1464 8.43934L8.14646 2.43934C7.86515 2.15804 7.48362 2 7.0858 2H3.5ZM3 3.5C3 3.22386 3.22386 3 3.5 3H7.0858C7.2184 3 7.34558 3.05268 7.43935 3.14645L13.4393 9.14645C13.6346 9.34171 13.6346 9.65829 13.4393 9.85355L9.85356 13.4393C9.6583 13.6346 9.34172 13.6346 9.14646 13.4393L3.14645 7.43934C3.05268 7.34557 3 7.21839 3 7.08579V3.5Z" fill="#3B404A"/>
</svg>
