<svg width="16" height="16" viewBox="0 0 16 16" fill="none" xmlns="http://www.w3.org/2000/svg">
<path d="M9.99194 1.08945C10.0333 0.862159 9.9135 0.636149 9.70222 0.542721C9.49094 0.449292 9.24316 0.512772 9.10282 0.696281L2.60282 9.19628C2.48727 9.34739 2.46747 9.55098 2.55175 9.72152C2.63603 9.89206 2.80978 10 3 10H6.9009L6.00807 14.9106C5.96674 15.1379 6.08651 15.3639 6.29779 15.4573C6.50907 15.5507 6.75685 15.4872 6.89718 15.3037L13.3972 6.80373C13.5127 6.65262 13.5325 6.44903 13.4483 6.27849C13.364 6.10795 13.1902 6.00001 13 6.00001H9.09911L9.99194 1.08945Z" fill="#3B404A"/>
</svg>
