<svg width="16" height="16" viewBox="0 0 16 16" fill="none" xmlns="http://www.w3.org/2000/svg">
<path fill-rule="evenodd" clip-rule="evenodd" d="M13.5 3H10.5V2.5C10.5 1.67 9.83 1 9 1H7C6.17 1 5.5 1.67 5.5 2.5V3H2.5C2.22 3 2 3.22 2 3.5C2 3.78 2.22 4 2.5 4H3V13.5C3 14.33 3.67 15 4.5 15H11.5C12.33 15 13 14.33 13 13.5V4H13.5C13.78 4 14 3.78 14 3.5C14 3.22 13.78 3 13.5 3ZM6.5 2.5C6.5 2.22 6.72 2 7 2H9C9.28 2 9.5 2.22 9.5 2.5V3H6.5V2.5ZM12 13.5C12 13.78 11.78 14 11.5 14H4.5C4.22 14 4 13.78 4 13.5V4H12V13.5ZM9.5 12.5C9.78 12.5 10 12.28 10 12V6C10 5.72 9.78 5.5 9.5 5.5C9.22 5.5 9 5.72 9 6V12C9 12.28 9.22 12.5 9.5 12.5ZM7 12C7 12.28 6.78 12.5 6.5 12.5C6.22 12.5 6 12.28 6 12V6C6 5.72 6.22 5.5 6.5 5.5C6.78 5.5 7 5.72 7 6V12Z" fill="#3B404A"/>
</svg>
