<svg width="16" height="16" viewBox="0 0 16 16" fill="none" xmlns="http://www.w3.org/2000/svg">
<path fill-rule="evenodd" clip-rule="evenodd" d="M6 2.5C4.34315 2.5 3 3.84315 3 5.5C3 6.6736 3.67389 7.6898 4.65583 8.18275C2.54724 8.76986 1 10.7042 1 13C1 13.2761 1.22386 13.5 1.5 13.5H10.5C10.7761 13.5 11 13.2761 11 13C11 10.7042 9.45276 8.76986 7.34417 8.18275C8.32611 7.6898 9 6.6736 9 5.5C9 3.84315 7.65685 2.5 6 2.5ZM4 5.5C4 4.39543 4.89543 3.5 6 3.5C7.10457 3.5 8 4.39543 8 5.5C8 6.60457 7.10457 7.5 6 7.5C4.89543 7.5 4 6.60457 4 5.5ZM6 9C8.03981 9 9.723 10.5268 9.96905 12.5H2.03095C2.277 10.5268 3.96019 9 6 9Z" fill="#3B404A"/>
<path d="M11.8875 8.34357C12.5595 7.77542 13 6.92427 13 6C13 4.34315 11.6569 3 10 3C9.72386 3 9.5 3.22386 9.5 3.5C9.5 3.77614 9.72386 4 10 4C11.1046 4 12 4.89543 12 6C12 6.94988 11.2817 7.81012 10.3895 8.01237C10.1202 8.07342 9.95132 8.34123 10.0124 8.61054C10.0616 8.82785 10.2455 8.97973 10.4562 8.99821C12.2829 9.20541 13.7417 10.6692 13.9691 12.5H12.5C12.2239 12.5 12 12.7239 12 13C12 13.2761 12.2239 13.5 12.5 13.5H14.5C14.7761 13.5 15 13.2761 15 13C15 10.9088 13.7152 9.09581 11.8875 8.34357Z" fill="#3B404A"/>
</svg>
