<svg width="16" height="16" viewBox="0 0 16 16" fill="none" xmlns="http://www.w3.org/2000/svg">
<path d="M7.21701 2.3668L4.74068 5.50035H2.5001C1.94776 5.50035 1.5 5.94811 1.5 6.50045V9.50075C1.5 10.0531 1.94776 10.5008 2.5001 10.5008H4.74068L7.21701 13.6344C7.81218 14.3618 8.99115 13.941 8.99115 13.0011V3.0001C8.99115 2.06022 7.81218 1.63937 7.21701 2.3668Z" fill="#3B404A"/>
<path fill-rule="evenodd" clip-rule="evenodd" d="M12.0915 3.20012C12.2572 2.97918 12.5706 2.93441 12.7915 3.10011L12.7924 3.10074L12.7934 3.10152L12.796 3.10349L12.8034 3.10914L12.8263 3.12725C12.8452 3.14236 12.8711 3.16354 12.9029 3.1908C12.9665 3.2453 13.0541 3.32429 13.1576 3.42784C13.3645 3.63468 13.6365 3.94115 13.9077 4.34788C14.4513 5.16328 14.9917 6.38328 14.9917 8.0006C14.9917 9.61791 14.4513 10.8379 13.9077 11.6533C13.6365 12.06 13.3645 12.3665 13.1576 12.5734C13.0541 12.6769 12.9665 12.7559 12.9029 12.8104C12.8711 12.8377 12.8452 12.8588 12.8263 12.8739L12.8034 12.8921L12.796 12.8977L12.7934 12.8997L12.7924 12.9005L12.7915 12.9011C12.5706 13.0668 12.2572 13.022 12.0915 12.8011C11.926 12.5805 11.9704 12.2678 12.1903 12.1019L12.1911 12.1013L12.2016 12.093C12.212 12.0847 12.2291 12.0707 12.252 12.0511C12.2978 12.0118 12.3665 11.9502 12.4504 11.8662C12.6186 11.698 12.8466 11.4419 13.0755 11.0986C13.532 10.4138 13.9916 9.38358 13.9916 8.0006C13.9916 6.61761 13.532 5.58739 13.0755 4.90264C12.8466 4.5593 12.6186 4.30321 12.4504 4.13502C12.3665 4.05104 12.2978 3.98939 12.252 3.95013C12.2291 3.93052 12.212 3.91654 12.2016 3.9082L12.1911 3.89995C11.9705 3.73417 11.9258 3.42094 12.0915 3.20012ZM12.1911 12.1013L12.1903 12.1019L12.1911 12.1013ZM10.6378 5.14676C10.833 4.95148 11.1497 4.95148 11.3449 5.14676L11.3462 5.14798L11.3477 5.14959L11.352 5.15393L11.3647 5.16708C11.3749 5.17783 11.3887 5.19254 11.4054 5.21107C11.4389 5.24812 11.4845 5.30065 11.5381 5.36768C11.6451 5.50143 11.7855 5.69474 11.9256 5.93982C12.2045 6.42791 12.4915 7.13862 12.4915 8.0006C12.4915 8.86258 12.2045 9.57329 11.9256 10.0614C11.7855 10.3065 11.6451 10.4998 11.5381 10.6335C11.4845 10.7006 11.4389 10.7531 11.4054 10.7901C11.3887 10.8087 11.3749 10.8234 11.3647 10.8341L11.352 10.8473L11.3477 10.8516L11.3462 10.8532L11.3452 10.8542C11.1499 11.0494 10.833 11.0497 10.6378 10.8544C10.4427 10.6594 10.4425 10.3433 10.6371 10.148L10.6405 10.1444C10.6449 10.1398 10.6526 10.1315 10.6632 10.1198C10.6845 10.0963 10.717 10.0589 10.7571 10.0088C10.8377 9.90812 10.9473 9.75765 11.0572 9.56519C11.2784 9.17818 11.4914 8.63877 11.4914 8.0006C11.4914 7.36242 11.2784 6.82302 11.0572 6.43601C10.9473 6.24355 10.8377 6.09308 10.7571 5.99243C10.717 5.94226 10.6845 5.90493 10.6632 5.88143C10.6526 5.86969 10.6449 5.86144 10.6405 5.85681L10.6364 5.8526L10.6373 5.85346C10.4423 5.65816 10.4426 5.34196 10.6378 5.14676Z" fill="#3B404A"/>
</svg>
