<svg width="16" height="16" viewBox="0 0 16 16" fill="none" xmlns="http://www.w3.org/2000/svg">
<path fill-rule="evenodd" clip-rule="evenodd" d="M1 3.9998C1 2.6192 2.1192 1.5 3.4998 1.5H12.5002C13.8808 1.5 15 2.6192 15 3.9998L15 6.9994L15 7.00098L15 8.66624C15 8.7014 14.9964 8.73571 14.9895 8.76882C14.9964 8.84488 15 8.92192 15 8.9998V12.0002C15 13.3808 13.8808 14.5 12.5002 14.5H3.4998C2.1192 14.5 1 13.3808 1 12.0002V8.9998C1 8.92192 1.00356 8.84487 1.01053 8.76881C1.00363 8.7357 1 8.70139 1 8.66624V3.9998ZM2 6.99971C2.41779 6.68593 2.93708 6.5 3.4998 6.5H5.63635C5.91248 6.5 6.13633 6.72383 6.13635 6.99996C6.13646 8.16488 7.00499 9.04495 7.99999 9.04495C8.99498 9.04495 9.86352 8.16488 9.86362 6.99995C9.86365 6.72383 10.0875 6.5 10.3636 6.5H12.5002C13.0629 6.5 13.5822 6.68594 14 6.99972L14 6.4998C14 5.67148 13.3285 5 12.5002 5H3.4998C2.67238 5 2.00146 5.67002 2 6.4971V6.99971ZM14 3.9998V4.49972C13.5822 4.18593 13.0629 4 12.5002 4H3.4998C2.93708 4 2.41778 4.18593 2 4.49972L2 3.9998C2 3.17148 2.67148 2.5 3.4998 2.5H12.5002C13.3285 2.5 14 3.17148 14 3.9998ZM2 8.9998C2 8.17148 2.67148 7.5 3.4998 7.5H5.17521C5.39768 8.91975 6.55089 10.0449 7.99999 10.0449C9.44908 10.0449 10.6023 8.91975 10.8248 7.5H12.5002C13.3285 7.5 14 8.17148 14 8.9998V12.0002C14 12.8285 13.3285 13.5 12.5002 13.5H3.4998C2.67148 13.5 2 12.8285 2 12.0002V8.9998Z" fill="#3B404A"/>
</svg>
