<svg width="16" height="16" viewBox="0 0 16 16" fill="none" xmlns="http://www.w3.org/2000/svg">
<path fill-rule="evenodd" clip-rule="evenodd" d="M10.7094 2.29056C10.9714 2.20324 11.2546 2.34482 11.3419 2.60679L11.8063 3.99999H5.58115L10.7094 2.29056ZM12.5082 5.00006L2.50817 5.00006L12.4884 4.99999H2.51153L2.49172 5.00006C2.2194 5.00448 2 5.22662 2 5.49999V12.5C2 12.7761 2.22386 13 2.5 13H12.5C12.7761 13 13 12.7761 13 12.5V11.5H11C9.61929 11.5 8.5 10.3807 8.5 8.99999C8.5 7.61928 9.61929 6.49999 11 6.49999H13V5.49999C13 5.2266 12.7806 5.00445 12.5082 5.00006ZM14 12.5V11.5C14.8284 11.5 15.5 10.8284 15.5 9.99999V7.99999C15.5 7.17157 14.8284 6.49999 14 6.49999V5.49999C14 4.8015 13.5226 4.21452 12.8763 4.04757L12.2906 2.29056C12.0286 1.50465 11.1791 1.07991 10.3932 1.34188L2.4111 4.00258C1.62406 4.04858 1 4.70141 1 5.49999V12.5C1 13.3284 1.67157 14 2.5 14H12.5C13.3284 14 14 13.3284 14 12.5ZM9.5 8.99999C9.5 8.17157 10.1716 7.49999 11 7.49999H13.5H14C14.2761 7.49999 14.5 7.72385 14.5 7.99999V9.99999C14.5 10.2761 14.2761 10.5 14 10.5H13.5H11C10.1716 10.5 9.5 9.82842 9.5 8.99999ZM10.5 8.99999C10.5 9.41421 10.8358 9.74999 11.25 9.74999C11.6642 9.74999 12 9.41421 12 8.99999C12 8.58578 11.6642 8.24999 11.25 8.24999C10.8358 8.24999 10.5 8.58578 10.5 8.99999Z" fill="#3B404A"/>
</svg>
